<?xml version="1.0" encoding="UTF-8"?>
<svg id="Camada_2" data-name="Camada 2" xmlns="http://www.w3.org/2000/svg" viewBox="0 0 168.52 168.52">
  <defs>
    <style>
      .cls-1 {
        fill: #ff3d47;
      }

      .cls-1, .cls-2 {
        stroke-width: 0px;
      }

      .cls-2 {
        fill: #fff;
      }
    </style>
  </defs>
  <path class="cls-1" d="M36.72,117.41c-19.86,0-35.95-4.34-35.95-33.15s16.1-33.15,35.95-33.15h95.08c19.86,0,35.95,4.34,35.95,33.15s-16.1,33.15-35.95,33.15H36.72Z"/>
  <g>
    <path class="cls-2" d="M24.09,74.87h6.69l4.25,7.17h.06l4.22-7.17h6.69v18.79h-6.1v-5.79c0-.82.2-3.26.31-4.64l-.2-.03c-.42.82-.98,2.11-1.32,2.7l-2.92,5.09h-1.43l-2.92-5.09c-.34-.59-.9-1.86-1.32-2.7l-.17.03c.08,1.38.28,3.83.28,4.64v5.79h-6.1v-18.79Z"/>
    <path class="cls-2" d="M57.25,74.56c5.29,0,9.28,2.92,9.28,9.76,0,6.27-3.29,9.65-9.28,9.65s-9.25-3.46-9.25-9.65c0-6.83,3.96-9.76,9.25-9.76ZM57.25,88.56c2.17,0,3.12-1.27,3.12-3.29v-2.08c0-2-.93-3.23-3.12-3.23s-3.12,1.24-3.12,3.23v2.08c0,2.05.96,3.29,3.12,3.29Z"/>
    <path class="cls-2" d="M68.53,74.87h6.69l4.25,7.17h.06l4.22-7.17h6.69v18.79h-6.1v-5.79c0-.82.2-3.26.31-4.64l-.2-.03c-.42.82-.98,2.11-1.32,2.7l-2.92,5.09h-1.43l-2.92-5.09c-.34-.59-.9-1.86-1.32-2.7l-.17.03c.08,1.38.28,3.83.28,4.64v5.79h-6.1v-18.79Z"/>
    <path class="cls-2" d="M106.97,88.93v4.72h-14.15v-18.79h13.98v4.72h-7.82v2.64h7.03v3.85h-7.03v2.84h7.99Z"/>
    <path class="cls-2" d="M108.82,74.87h6.55l3.52,5.51c.39.59,1.6,3.01,2.53,4.87l.2-.06c-.34-2.08-.79-5.17-.79-5.76v-4.56h6.07v18.79h-6.21l-3.77-5.88c-.34-.56-1.35-2.47-2.22-4.02l-.2.03c.14,1.1.42,3.63.42,4.53v5.34h-6.1v-18.79Z"/>
    <path class="cls-2" d="M144.43,80.38h-4.92v13.27h-6.24v-13.27h-4.92v-5.51h16.09v5.51Z"/>
  </g>
</svg>