<?xml version="1.0" encoding="UTF-8"?>
<svg id="Camada_2" data-name="Camada 2" xmlns="http://www.w3.org/2000/svg" viewBox="0 0 168.52 168.52">
  <defs>
    <style>
      .cls-1 {
        fill: #000;
      }

      .cls-1, .cls-2 {
        stroke-width: 0px;
      }

      .cls-2 {
        fill: #9a7aff;
      }
    </style>
  </defs>
  <path class="cls-2" d="M164.34,108.21c-1.16,3.86-13.38,3.32-15.11,6.83-1.78,3.59,6.05,12.98,3.73,16.16s-13.7-1.34-16.53,1.43c-2.84,2.78,1.49,14.21-1.76,16.49s-12.55-5.67-16.12-3.92c-3.55,1.73-2.98,13.96-6.79,15.14s-10.22-9.22-14.18-8.63c-3.89.59-6.98,12.43-10.99,12.43s-7.04-11.83-11.01-12.41c-3.87-.57-10.26,9.87-14.12,8.72-3.86-1.16-3.47-13.39-7.01-15.04-3.65-1.69-12.75,6.48-16.02,4.33-3.35-2.2.57-13.8-2.36-16.42s-14.08,2.47-16.58-.57,4.65-12.98,2.64-16.38c-2.03-3.43-14.17-1.9-15.63-5.58s8.44-10.87,7.59-14.75c-.84-3.87-12.84-6.29-13.03-10.27-.19-3.93,11.51-7.48,11.99-11.45s-10.04-10.14-8.88-14,13.38-3.32,15.11-6.83-6.05-12.98-3.73-16.16c2.35-3.22,13.7,1.34,16.53-1.43,2.84-2.78-1.49-14.21,1.76-16.49,3.24-2.27,12.55,5.67,16.12,3.92s2.98-13.96,6.79-15.14c3.76-1.17,10.22,9.22,14.18,8.63,3.89-.59,6.98-12.43,10.99-12.43s7.04,11.83,11.01,12.41,10.26-9.87,14.12-8.72c3.86,1.16,3.47,13.39,7.01,15.04,3.65,1.69,12.75-6.48,16.02-4.33,3.27,2.15-.57,13.8,2.36,16.42s14.08-2.47,16.58.57-4.65,12.98-2.64,16.38,14.17,1.9,15.63,5.58c1.46,3.69-8.44,10.87-7.59,14.75s12.84,6.29,13.03,10.27c.19,3.93-11.51,7.48-11.99,11.45s10.04,10.14,8.88,14h0Z"/>
  <path class="cls-1" d="M77.57,98.74c8.55,0,11-1.82,11-4.99v-1.27c0-2.45-1.5-3.64-6.25-3.64h-13.3v-10.45h12.03c3.8,0,5.46-1.5,5.46-3.56v-1.19c0-2.53-2.06-3.88-9.34-3.88-4.27,0-8.47.55-11.32,1.03l-.32-.24v-11.95c3.24-.63,9.1-1.66,15.35-1.66,15.99,0,21.13,5.62,21.13,13.3,0,6.01-3.01,9.58-8.07,10.92v.32c7.76,1.66,10.29,6.57,10.29,12.42,0,11.63-7.2,17.65-23.58,17.65-6.57,0-13.53-1.03-16.38-1.5v-11.95l.4-.4c3.32.55,9.02,1.03,12.9,1.03Z"/>
</svg>