<?xml version="1.0" encoding="UTF-8"?>
<svg id="Camada_2" data-name="Camada 2" xmlns="http://www.w3.org/2000/svg" viewBox="0 0 168.52 168.52">
  <defs>
    <style>
      .cls-1 {
        fill: #fff;
      }

      .cls-1, .cls-2, .cls-3 {
        stroke-width: 0px;
      }

      .cls-1, .cls-3 {
        fill-rule: evenodd;
      }

      .cls-2, .cls-3 {
        fill: #64c7f3;
      }
    </style>
  </defs>
  <g id="Camada_1-2" data-name="Camada 1">
    <g>
      <g>
        <g>
          <path class="cls-1" d="M84.26,166.83C38.73,166.83,1.69,129.79,1.69,84.26S38.73,1.69,84.26,1.69s82.57,37.04,82.57,82.57-37.04,82.57-82.57,82.57Z"/>
          <path class="cls-2" d="M84.26,3.37c44.6,0,80.89,36.29,80.89,80.89s-36.29,80.89-80.89,80.89S3.37,128.86,3.37,84.26,39.66,3.37,84.26,3.37M84.26,0C37.72,0,0,37.72,0,84.26s37.72,84.26,84.26,84.26,84.26-37.72,84.26-84.26S130.79,0,84.26,0h0Z"/>
        </g>
        <path class="cls-2" d="M84.26,8.32c41.87,0,75.94,34.07,75.94,75.94s-34.07,75.94-75.94,75.94S8.32,126.13,8.32,84.26,42.38,8.32,84.26,8.32M84.26,4.95C40.46,4.95,4.95,40.46,4.95,84.26s35.51,79.31,79.31,79.31,79.31-35.51,79.31-79.31S128.06,4.95,84.26,4.95h0Z"/>
      </g>
      <g>
        <path class="cls-2" d="M25.45,44.56c.8-1.23,1.54-2.11,1.9-2.5l2.5,1.65.02.09c-.39.51-1.05,1.43-1.57,2.21-.92,1.41-.91,1.74-.62,1.93l.07.05c.25.17.4.12,1.06-.67l.81-.96c1.24-1.46,2.64-1.86,4.23-.81,2.26,1.47,2.67,3.18,0,7.26-.95,1.45-1.76,2.45-2.09,2.8l-2.58-1.69-.02-.09c.61-.73,1.31-1.66,1.93-2.62.92-1.41.9-1.69.56-1.91l-.1-.06c-.27-.18-.41-.17-1.28.88l-.85.99c-1.03,1.24-2.34,1.65-4.05.53-2.06-1.34-2.45-3.23.06-7.08Z"/>
        <path class="cls-2" d="M28.76,40.02l3.77-4.09c2.2-2.39,4.16-2.75,6.48-.62,2.2,2.02,2.34,4.15.33,6.33l-1.08,1.18,1.75,1.61-2.96,3.21-8.29-7.62ZM36.8,40.04c.42-.46.32-.85-.07-1.21l-.56-.51c-.42-.39-.76-.4-1.18.06l-.72.78,1.81,1.67.72-.78Z"/>
        <path class="cls-2" d="M48.99,32.24l1.95,2.47-6.91,5.45-6.97-8.84,6.88-5.43,1.95,2.47-3.45,2.72.75.95,3.03-2.39,1.52,1.93-3.03,2.39.79,1.01,3.48-2.75Z"/>
        <path class="cls-2" d="M50.46,21.86c1.1-.63,2.13-1.02,2.72-1.18l1.74,3.06-.02.09c-.57.23-1.22.52-1.8.85-.61.35-1.24.82-1.45,1.2-.24.43-.1,1.01.21,1.56l.25.44c.35.61.79,1.01,1.3.99.44-.04,1.13-.36,1.66-.66.56-.32,1.33-.9,1.74-1.23l.09.03,1.74,3.06c-.49.47-1.37,1.21-2.82,2.03-3.56,2.03-5.84,1.22-7.84-2.29-1.96-3.44-1.13-5.89,2.47-7.94Z"/>
        <path class="cls-2" d="M58.73,18.19l4.37,10.37-3.94,1.66-4.37-10.37,3.94-1.66Z"/>
        <path class="cls-2" d="M75.32,24.92l-.05.13-4.22,1.11-.88-1.62-3,.79.03,1.84-4.22,1.11-.11-.09.53-11.65,5.74-1.5,6.18,9.89ZM67.04,19.15c.03,1.05.1,2.29.11,3.4l1.69-.44c-.53-.97-1.09-2.08-1.57-3.02l-.23.06Z"/>
        <path class="cls-2" d="M82.79,20.67l.35,3.91-8.06.72-1-11.21,4.45-.4.65,7.3,3.61-.32Z"/>
        <path class="cls-2" d="M95.7,22.45l-.35,3.13-8.75-.96,1.23-11.19,8.71.96-.35,3.13-4.37-.48-.13,1.21,3.84.42-.27,2.45-3.84-.42-.14,1.27,4.41.49Z"/>
        <path class="cls-2" d="M98.39,14.68l4.7,1.32c4.23,1.19,5.11,3.38,4.11,6.93-.99,3.5-2.73,5.15-7.14,3.91l-4.72-1.33,3.05-10.83ZM101.18,23.48c.36.1.75.19,1.08,0,.27-.13.47-.5.62-1.02l.37-1.33c.13-.47.17-.86.02-1.13-.15-.27-.43-.4-.87-.52l-.86-.24-1.13,4.02.76.21Z"/>
        <path class="cls-2" d="M114.22,20.07l-4.45,10.34-3.93-1.69,4.45-10.33,3.93,1.69Z"/>
        <path class="cls-2" d="M122.18,28.88l-2.36-1.38-3.72,6.39-3.8-2.21,3.72-6.39-2.36-1.37,1.94-3.33,8.52,4.96-1.94,3.33Z"/>
        <path class="cls-2" d="M128.66,29.09l-6.8,8.97-3.41-2.58,6.8-8.97,3.41,2.58Z"/>
        <path class="cls-2" d="M134.41,34.03c2.34,2.33,2.85,5.32-.04,8.22-2.65,2.66-5.53,2.65-8.17.01-2.65-2.64-2.63-5.55-.01-8.17,2.89-2.9,5.87-2.4,8.22-.06ZM128.85,39.6c.72.71,1.44.65,2.07.02l.87-.87c.63-.63.69-1.34-.04-2.06-.73-.73-1.43-.67-2.06-.03l-.87.87c-.64.64-.69,1.36.03,2.07Z"/>
        <path class="cls-2" d="M139.67,39.82l2.54,3.75-1.17,2.81c-.14.3-.91,1.69-1.52,2.8l.1.09c.93-.91,2.25-2.2,2.46-2.34l1.65-1.12,2.39,3.53-9.32,6.32-2.46-3.63,1.26-2.97c.11-.28.65-1.3,1.1-2.28l-.08-.09c-.49.45-1.57,1.41-1.89,1.63l-1.99,1.35-2.4-3.54,9.32-6.32Z"/>
      </g>
      <g>
        <path class="cls-2" d="M35.12,117.64c.8,1.23,1.32,2.26,1.53,2.74l-2.52,1.63-.09-.02c-.31-.56-.88-1.54-1.4-2.33-.92-1.41-1.22-1.53-1.52-1.34l-.07.05c-.25.17-.27.32.19,1.25l.56,1.13c.84,1.72.64,3.16-.95,4.21-2.26,1.47-3.98,1.17-6.65-2.92-.95-1.45-1.54-2.6-1.72-3.04l2.58-1.69.09.02c.42.85,1,1.86,1.62,2.82.92,1.41,1.18,1.5,1.52,1.28l.1-.06c.27-.17.32-.31-.29-1.52l-.57-1.18c-.72-1.44-.57-2.81,1.14-3.92,2.06-1.35,3.95-.95,6.46,2.9Z"/>
        <path class="cls-2" d="M37.03,120.85l3.77,4.09c2.2,2.39,2.4,4.37.08,6.5-2.2,2.02-4.33,1.99-6.34-.19l-1.08-1.18-1.75,1.61-2.96-3.21,8.29-7.62ZM36.34,128.87c.42.46.82.39,1.22.03l.56-.51c.42-.39.46-.72.04-1.18l-.72-.78-1.81,1.67.72.78Z"/>
        <path class="cls-2" d="M45.92,140.17l-1.95,2.47-6.91-5.45,6.97-8.84,6.88,5.43-1.95,2.47-3.45-2.72-.75.95,3.03,2.39-1.52,1.93-3.03-2.39-.79,1.01,3.48,2.75Z"/>
        <path class="cls-2" d="M56.18,136.62c1.1.63,1.96,1.31,2.4,1.74l-1.74,3.06-.09.03c-.48-.37-1.07-.78-1.65-1.12-.61-.35-1.34-.65-1.77-.64-.49.01-.92.42-1.24.98l-.25.44c-.35.61-.47,1.19-.19,1.62.26.36.88.79,1.41,1.1.56.32,1.45.69,1.94.88l.02.09-1.74,3.06c-.65-.18-1.73-.56-3.18-1.39-3.56-2.03-4.02-4.41-2.02-7.92,1.96-3.44,4.5-3.97,8.1-1.92Z"/>
        <path class="cls-2" d="M63.09,139.97l-4.37,10.37-3.94-1.66,4.37-10.37,3.94,1.66Z"/>
        <path class="cls-2" d="M72.53,154.27l-.11.09-4.22-1.11.03-1.84-3-.79-.88,1.62-4.22-1.11-.05-.14,6.18-9.89,5.74,1.5.53,11.65ZM68.14,145.17c-.49.93-1.04,2.04-1.58,3.02l1.69.44c.01-1.11.08-2.35.11-3.4l-.23-.06Z"/>
        <path class="cls-2" d="M82.49,151.24l-.35,3.91-8.06-.72,1-11.21,4.45.4-.65,7.3,3.61.32Z"/>
        <path class="cls-2" d="M96.24,150.99l.35,3.13-8.75.96-1.23-11.19,8.71-.96.35,3.13-4.37.48.13,1.21,3.84-.42.27,2.45-3.84.42.14,1.27,4.41-.49Z"/>
        <path class="cls-2" d="M95.34,143l4.7-1.32c4.23-1.19,6.12.22,7.12,3.77.99,3.5.36,5.82-4.05,7.06l-4.72,1.33-3.05-10.83ZM102.31,149.06c.36-.1.74-.23.93-.56.16-.25.14-.67,0-1.19l-.37-1.33c-.13-.47-.3-.83-.57-.98-.27-.15-.58-.12-1.01,0l-.86.24,1.13,4.02.76-.21Z"/>
        <path class="cls-2" d="M109.77,138.11l4.45,10.33-3.93,1.69-4.45-10.34,3.93-1.69Z"/>
        <path class="cls-2" d="M120.4,136.58l-2.36,1.38,3.72,6.39-3.8,2.21-3.72-6.39-2.36,1.38-1.94-3.33,8.52-4.96,1.94,3.33Z"/>
        <path class="cls-2" d="M121.86,130.47l6.8,8.97-3.41,2.58-6.8-8.97,3.41-2.58Z"/>
        <path class="cls-2" d="M126.19,126.26c2.34-2.33,5.33-2.84,8.22.05,2.65,2.66,2.64,5.53,0,8.17-2.65,2.64-5.55,2.62-8.17,0-2.89-2.9-2.39-5.87-.04-8.22ZM131.75,131.83c.71-.71.66-1.44.02-2.07l-.87-.87c-.63-.63-1.33-.69-2.06.03-.73.73-.67,1.43-.04,2.06l.87.87c.64.64,1.36.69,2.07-.02Z"/>
        <path class="cls-2" d="M130.35,122.38l2.54-3.75,3.04.05c.33.02,1.91.22,3.17.38l.05-.13c-1.19-.52-2.88-1.28-3.09-1.42l-1.65-1.12,2.39-3.53,9.32,6.32-2.46,3.63-3.23-.07c-.3,0-1.44-.12-2.52-.18l-.05.11c.6.29,1.89.94,2.21,1.15l1.99,1.35-2.4,3.54-9.32-6.32Z"/>
      </g>
      <path class="cls-3" d="M131.71,111.99l-2.52-.48c-.06-.01-.12.01-.15.06-.68.96-7.32,10.23-12.89,14.33-.15.11-.33-.08-.21-.22,1.97-2.36,7.32-9.01,9.18-13.69.04-.09-.02-.19-.12-.21l-2.97-.5c-.07-.01-.14.02-.17.09-.36.86-3.02,6.63-12.93,15.54-.03.03-.07.04-.11.04l-5.82-.33c-.11,0-.18-.13-.12-.23.85-1.48,5.82-10.2,7.16-15.32.02-.1-.05-.19-.14-.19l-3.05-.1c-.07,0-.13.04-.15.11-.22.85-1.81,6.33-7.77,15.29-.03.04-.08.07-.13.07l-10.4-.19c-.09,0-.15-.07-.15-.16l.43-15.56c0-.08-.06-.15-.15-.16l-3.29-.11c-.09,0-.16.06-.16.15l-.29,15.88c0,.08-.07.15-.15.15l-11.24.44c-.06,0-.11-.03-.14-.08-.56-1-6.12-10.92-6.68-16.03,0-.08-.08-.14-.16-.14l-3.34.16c-.1,0-.17.1-.14.2.47,1.54,3.74,12.07,6.31,15.77.07.1,0,.23-.11.24l-6.89.71s-.09,0-.12-.04c-.74-.69-9.57-8.91-13.23-16.4-.03-.06-.09-.09-.16-.08l-2.94.45c-.1.01-.16.11-.12.21.47,1.19,3.45,8.18,11.32,15.48.13.12,0,.33-.17.25-2.55-1.19-10.41-5.44-16.58-15.17-.03-.05-.09-.08-.16-.07l-3.29.58c-.11.02-.16.14-.1.23,10.44,16.97,29.13,27.14,48.92,26.57,29.18-.83,44.49-24.53,46.19-27.31.06-.09,0-.21-.1-.23ZM67.41,130.32l4.1.13c.34.01.66.17.88.44l2.26,2.88c-2.83-.67-5.24-1.82-7.23-3.46ZM84.03,135.51c-3.24-1.13-5.8-2.99-7.69-5.57l7,.23c.48.02.85.42.84.89l-.14,4.45ZM88.01,135.33l.15-4.56c.02-.66.58-1.18,1.24-1.16l5.99.19c-1.96,1.86-4.42,3.7-7.37,5.53ZM97.67,133.29l2.27-2.76c.29-.36.73-.56,1.19-.54l1.74.06c-1.23,1.1-2.97,2.18-5.2,3.24Z"/>
      <path class="cls-3" d="M130.88,54.9c-1.7-2.79-17.01-26.48-46.19-27.31-19.8-.57-38.48,9.6-48.92,26.57-.06.09,0,.21.1.23l3.29.58c.06.01.12-.02.16-.07,6.17-9.73,14.03-13.99,16.58-15.17.16-.07.29.13.17.25-7.87,7.3-10.85,14.29-11.32,15.48-.04.09.02.19.12.21l2.94.45c.07.01.13-.02.16-.08,3.66-7.48,12.49-15.71,13.23-16.4.03-.03.07-.04.12-.04l6.89.71c.12.01.18.14.11.24-2.58,3.7-5.84,14.24-6.31,15.77-.03.1.04.19.14.2l3.34.16c.08,0,.15-.05.16-.14.57-5.11,6.12-15.03,6.68-16.03.03-.05.08-.08.14-.08l11.24.44c.08,0,.15.07.15.15l.29,15.88c0,.09.07.15.16.15l3.29-.11c.08,0,.15-.07.15-.16l-.43-15.56c0-.09.07-.16.15-.16l10.4-.19c.05,0,.1.03.13.07,5.95,8.97,7.54,14.44,7.77,15.29.02.07.08.12.15.11l3.05-.1c.1,0,.17-.1.14-.19-1.33-5.12-6.3-13.85-7.16-15.32-.06-.1.01-.22.12-.23l5.82-.33s.08.01.11.04c9.91,8.9,12.57,14.68,12.93,15.54.03.07.1.1.17.09l2.97-.5c.1-.02.15-.12.12-.21-1.86-4.68-7.21-11.32-9.18-13.69-.12-.14.06-.33.21-.22,5.58,4.1,12.21,13.37,12.89,14.33.03.05.09.07.15.06l2.52-.48c.11-.02.16-.14.1-.23ZM73.71,33.34l-2.26,2.88c-.21.27-.53.43-.88.44l-4.1.13c2-1.64,4.41-2.79,7.23-3.46ZM83.24,36.06c.02.48-.36.88-.84.89l-7,.23c1.89-2.58,4.45-4.44,7.69-5.57l.14,4.45ZM94.45,37.31l-5.99.19c-.66.02-1.22-.5-1.24-1.16l-.15-4.56c2.96,1.83,5.41,3.67,7.37,5.53ZM101.94,37.07l-1.74.06c-.46.01-.9-.18-1.19-.54l-2.27-2.76c2.23,1.06,3.97,2.14,5.2,3.24Z"/>
      <g>
        <path class="cls-3" d="M57.16,80.77c-.88-.84-3.65-.51-8.99-.21,1.05-4.46,1.81-8.35,3.78-11.38,9.15.51,20.39,1.8,33.27,1.76,25.35-.07,25.58-9.51,25.58-9.51-10.79,3.11-25.6,2.19-36.8,1.16-14.07-1.29-28.13-4.53-39.76-1.42-13.73,3.67-15.05,13.86-14.56,18.23,5.51-7.23,12.96-9.8,22.5-10.34.9-.05,1.86-.07,2.83-.08-1.73,1.82-3.08,4.68-4.47,9.14-.3.98-.6,1.91-.89,2.83-11.74,1.02-14.02,6.38-13.34,7.79.72,1.5,4.88-.47,10.08-1.04.33-.04.65-.07.97-.1-2.03,5.25-4.27,9-7.88,11.19-5.51,3.34-11.27,1.79-12.42.87.45,6.13,9.66,9.46,17.49,5.18,6.24-3.41,9.85-11.56,11.83-17.67,1.72,0,3.44-.06,5.16-.16,4.72-.32,6.8-5.13,5.65-6.23M151.88,73.91c-.98-.31-2.02.23-2.33,1.2,0,0,0,.01,0,.02-.15.47-.1.95.08,1.36-1.78,1.62-3.42,2.83-4.28,2.55-1.12-.36-.27-3.4.82-6.17.99.15,1.94-.44,2.24-1.4.34-1.07-.24-2.22-1.31-2.58-1.06-.34-2.2.25-2.54,1.31,0,0,0,.01,0,.02-.24.76-.02,1.57.51,2.09-1.45,2.66-2.97,4.97-4.29,4.58h-.05c-1.33-.45-1.25-3.22-.9-6.26.75-.11,1.4-.63,1.65-1.4.34-1.07-.24-2.22-1.31-2.58-1.06-.34-2.2.24-2.54,1.31,0,0,0,.01,0,.02-.31.96.13,1.99.99,2.44-.7,2.9-1.76,5.87-2.88,5.5-.86-.28-1.5-2.21-2.01-4.56.91-.51,1.23-1.66.72-2.57-.23-.41-.61-.72-1.05-.87-.98-.31-2.02.23-2.33,1.2,0,0,0,.01,0,.02-.32.99.23,2.05,1.22,2.37.06.02.13.04.2.05l.33,7.9,12.92,4.2,4.81-6.24c.92.44,2.03.05,2.47-.87.04-.08.07-.16.1-.25.31-.99-.22-2.05-1.2-2.37"/>
        <path class="cls-3" d="M137.03,95.92c-2.4,4.26-5.82,6.43-7.65,4.85-1.83-1.58-1.36-6.31,1.04-10.57,2.4-4.26,5.82-6.43,7.65-4.85,1.83,1.58,1.36,6.31-1.04,10.57M133.78,81.28s-3.07,1.16-5.21,3.18c-.73.69-1.43,1.4-2.06,2.19h0v.02c-.6.74-1.06,1.53-1.56,2.37-.69,1.17-1.29,2.4-1.77,3.69h0s-1.24,2.61-2.14,3.91c-.88,1.27-2.55,2.48-3.22,2.94-.78.36-1.59.67-2.41.91-5.49,1.6-6.49-2.35-5.27-4.21.44-.67,3.48-3,5.55-4.73,4.01-3.33,6.77-5.45,8.66-7.37,2-2.03.71-3.15-.85-3.42-3.88-.67-5.65.37-6.78,1.34-1.36,1.17-9.47,10.95-9.47,10.95,0,0,13.21-25.55,15.37-29.95,1.79-3.62-6.79-4.12-9.16,1.09-1.38,3.03-10.84,24.96-12,27.67-2.11,4.96-2.24,5.73-3.3,6.6-.01.01-.02.03-.03.04l-.08.05s0,0,0,0c-1.02.84-2.44,1.6-3.39,1.58-.57,0-.91-.35-1.01-1.05-.1-.7-.01-1.59.25-2.68.16-.65.37-1.36.64-2.13.27-.77.56-1.55.87-2.34.31-.79.64-1.56.97-2.31l.91-2.08c.27-.63.51-1.17.7-1.63.19-.46.31-.78.35-.97.32-1.3.26-2.46-.08-3.2-.33-.74-.93-1.1-1.8-1.1s-1.69.24-2.45.68c-.83.48-1.59,1-2.38,1.95-.67.82-1.32,1.65-1.96,2.49-.43.57-.9,1.16-1.39,1.79-.49.62-.95,1.21-1.38,1.77-.62.81-1.25,1.61-1.87,2.42h-.52c.03-.12.12-.36.25-.72.14-.36.31-.78.51-1.26.44-1.08.86-2.15,1.29-3.23.21-.53.39-1.02.56-1.47.16-.45.27-.8.34-1.07.24-.96.24-1.73.02-2.31-.22-.58-.8-.87-1.74-.87s-1.75.27-2.43.81c-.68.54-1.23,1.24-1.6,2.03-.59,1.23-1.14,2.48-1.67,3.74-1.27,3.01-2.42,6.07-3.47,9.17-.22.65-.43,1.31-.63,1.97-1.24.63-2.52,1.16-3.84,1.57-.51.15-1.14.26-1.51-.13-.27-.29-.27-.73-.24-1.12.19-2.08,1.08-4.01,1.92-5.91,1.42-3.2,2.75-6.45,3.98-9.73.15-.41.31-.86.17-1.28-.21-.65-.99-.89-1.66-.98-1.45-.19-3.13-.05-4.07,1.09-.31.38-.51.83-.7,1.28l-4.82,11c-1.01,2.31-2.27,4.85-4.63,5.67-.41.14-.87.22-1.27.05-.51-.23-.77-.83-.77-1.39,0-.56.22-1.1.43-1.62,1.99-4.89,3.45-8.29,5.44-13.19.09-.22.59-1.37.6-1.9,0-.34-.21-.66-.51-.81-1.27-.59-2.81-.23-3.95.57-1.8,1.27-2.79,3.32-3.68,5.27-.99,2.16-1.99,4.32-2.88,6.53-1.03,2.52-2.13,4.97-2.69,7.64-.29,1.37-.21,3.13.78,4.11.64.64,1.6.82,2.5.85,3.64.12,7.08-1.81,9.73-4.33.09,1.33.29,2.86,1.39,3.6.7.47,1.61.48,2.45.39,1.69-.18,3.32-.71,4.89-1.34.66-.27,1.31-.55,1.95-.85,0,.29.04.56.09.81.11.52.34.93.7,1.24.36.31.89.46,1.61.46.57,0,1.11-.13,1.61-.39.5-.26,1.01-.75,1.53-1.47l10.17-13.68h.42c-.51,1.3-1.01,2.61-1.48,3.93-.41,1.12-.75,2.25-1.04,3.4-.66,2.68-.83,4.72-.52,6.12s.94,2.09,1.9,2.09,1.9-.14,2.84-.41c.95-.28,1.87-.63,2.76-1.05.63-.3,1.24-.63,1.85-.98,0,.23-.07.67-.08.88-.03.75.08.91.43,1.24.35.33.71.36,1.45.36.56,0,.76-.05,1.25-.41.46-.34,2.14-2.84,3.43-4.62.21-.29.45-.6.7-.91-.47,2.21.54,5.44,3.59,5.94,2.96.49,7.78-.19,14-5.04.11.68.28,1.32.51,1.91.45,1.14,1.16,2.07,2.13,2.78.97.71,2.25,1.06,3.86,1.06,1.11,0,2.21-.19,3.29-.58,1.1-.39,2.14-.92,3.11-1.57,1.01-.68,1.95-1.47,2.79-2.35,1.67-1.74,3.05-3.75,4.07-5.93.89-2.03,1.32-3.56,1.77-5.9.2-1.25.32-2.35.3-3.36,0,0-.11-2.49-.45-2.72-.34-.23-9.76-3.09-9.76-3.09"/>
      </g>
    </g>
  </g>
</svg>