<?xml version="1.0" encoding="UTF-8"?>
<svg id="Camada_2" data-name="Camada 2" xmlns="http://www.w3.org/2000/svg" viewBox="0 0 178.47 178.47">
  <defs>
    <style>
      .cls-1 {
        stroke-width: 8.47px;
      }

      .cls-1, .cls-2, .cls-3 {
        fill: none;
        stroke: #000;
        stroke-linecap: round;
        stroke-linejoin: round;
      }

      .cls-4 {
        fill: #000;
        stroke-width: 0px;
      }

      .cls-2 {
        stroke-width: 8.51px;
      }

      .cls-3 {
        stroke-width: 8.49px;
      }
    </style>
  </defs>
  <g id="Camada_1-2" data-name="Camada 1">
    <g>
      <g>
        <path class="cls-4" d="M17.37,74.23l3.46-9.97c2.04-5.87,5.32-8.02,11.06-6.03,5.55,1.93,7.53,5.69,5.68,11.01l-1.27,3.64,5.06,1.76-2.45,7.06-21.55-7.48ZM32.27,68.27c.54-1.55-.14-2.4-1.43-2.85l-1.48-.52c-1.39-.48-2.22-.16-2.77,1.42l-.99,2.84,5.68,1.97,1-2.87Z"/>
        <path class="cls-4" d="M59.15,47.51l.11.24-5.28,5.86-6.31-2.28-1.78,1.98,4.62,4.16-5.01,5.56-16.95-15.27,7.57-8.4c4.09-4.54,7.89-5.03,11.97-1.35,2.44,2.19,3.52,4.51,3.33,6.86l7.73,2.64ZM42.21,49.99l2.17-2.41c1.1-1.22.7-2.26-.31-3.18l-.84-.75c-1.17-1.05-2.03-.86-2.99.21l-2.17,2.41,4.14,3.73Z"/>
        <path class="cls-4" d="M59.85,22.07c5.87-2.59,11.74-1.3,15.09,6.29,3.07,6.97,1.07,12.33-5.58,15.26-6.62,2.92-11.97.69-15-6.18-3.35-7.59-.38-12.78,5.5-15.37ZM66.71,37.62c2.41-1.06,2.85-2.94,1.85-5.18l-1.02-2.31c-.98-2.22-2.62-3.14-5.05-2.06-2.4,1.06-2.86,2.9-1.88,5.12l1.02,2.31c1.01,2.28,2.67,3.19,5.08,2.12Z"/>
        <path class="cls-4" d="M80.2,16.06l9.25.15c8.7.14,11.48,3.94,11.36,11.45-.12,7.41-2.54,11.5-11.59,11.35l-9.39-.15.37-22.8ZM89.55,32.8c.96.02,2.05.03,2.85-.71.62-.57.95-1.66.97-3.19l.04-2.56c.02-1.4-.13-2.46-.74-3.08-.57-.62-1.46-.81-2.82-.83l-2.36-.04-.17,10.38,2.22.04Z"/>
        <path class="cls-4" d="M110.41,18.47l6.89,3.17-5.74,12.47c-.87,1.89-.35,3.04,1.17,3.74l.59.27c1.52.7,2.73.36,3.6-1.54l5.74-12.47,6.86,3.16-5.97,12.97c-2.51,5.46-7.36,6.42-13.25,3.71-5.92-2.73-8.37-7.05-5.86-12.51l5.97-12.97Z"/>
        <path class="cls-4" d="M144.7,51.23l-4.07-4.38-11.8,10.98-5.16-5.55,11.8-10.98-4.07-4.38,4.9-4.56,13.3,14.31-4.9,4.56Z"/>
        <path class="cls-4" d="M158.12,63.29c2.27,6,.66,11.79-7.1,14.72-7.12,2.69-12.36.4-14.93-6.4-2.56-6.77-.04-11.99,6.99-14.64,7.76-2.93,12.78.32,15.05,6.32ZM142.22,69.29c.93,2.46,2.78,3,5.07,2.13l2.36-.89c2.27-.86,3.27-2.44,2.33-4.93-.93-2.46-2.74-3.01-5.01-2.16l-2.36.89c-2.33.88-3.33,2.5-2.4,4.96Z"/>
      </g>
      <g>
        <path class="cls-4" d="M40.62,107.5c2.25,6.01.63,11.8-7.13,14.71-7.13,2.67-12.37.37-14.92-6.44-2.54-6.78-.01-11.99,7.02-14.63,7.77-2.91,12.78.35,15.04,6.36ZM24.7,113.48c.92,2.46,2.77,3.01,5.07,2.15l2.37-.89c2.27-.85,3.28-2.43,2.34-4.93-.92-2.46-2.74-3.02-5.01-2.17l-2.37.89c-2.33.88-3.33,2.49-2.41,4.95Z"/>
        <path class="cls-4" d="M43.86,149.83l-.24.1-5.57-5.59,2.62-6.18-1.88-1.89-4.4,4.39-5.28-5.3,16.16-16.1,7.98,8c4.32,4.33,4.6,8.15.71,12.03-2.32,2.31-4.69,3.28-7.03,2.96l-3.05,7.58ZM42.29,132.78l2.29,2.3c1.16,1.16,2.22.82,3.19-.14l.8-.8c1.11-1.11.97-1.98-.04-2.99l-2.29-2.3-3.94,3.93Z"/>
        <path class="cls-4" d="M68.56,137.55l-10.52,20.24-6.58-3.42,10.52-20.24,6.58,3.42Z"/>
        <path class="cls-4" d="M88.15,153.31l-2.08,11.8-4.88-.86-.8-2.33-.13-.02c-1.11,1.57-2.71,2.02-4.97,1.62-5.92-1.04-8.29-5.31-6.97-12.81,1.48-8.41,5.85-11.17,14.96-9.57,2.79.49,5.27,1.2,6.41,1.61l-1.05,6.16-.16.14c-1.32-.41-3.27-.92-5.19-1.26-2.35-.42-4.16-.42-5.2.02-1.16.49-1.87,1.96-2.17,3.67l-.18,1.01c-.33,1.85-.17,3.54.57,4.23.56.55,1.57.94,2.95,1.18.54.09,1.16.13,1.65.08l1.02-5.78,6.22,1.1Z"/>
        <path class="cls-4" d="M99.87,140.84l2.9,22.63-7.35.94-2.9-22.63,7.35-.94Z"/>
        <path class="cls-4" d="M102.7,141.24l7.14-3.5,6.78,4.13c.74.43,3.36,2.42,5.36,3.95l.18-.17c-1.48-2.09-3.62-5.22-3.94-5.86l-2.44-4.97,6.62-3.25,10.04,20.48-6.77,3.32-7.25-4.39c-.67-.43-2.79-1.98-4.57-3.2l-.2.14c.74,1.12,2.4,3.73,2.88,4.71l2.86,5.82-6.65,3.26-10.04-20.48Z"/>
        <path class="cls-4" d="M156.2,125.81l.08.28-4.64,5.91-3.99-1.66-4.41,5.61,2.56,3.49-4.64,5.91h-.29s-13.18-19.78-13.18-19.78l6.18-7.87,22.33,8.11ZM140.3,131.9l2.72-3.46c-2.35-.93-4.93-2.13-7.29-3.16l-.23.3c1.56,2.05,3.33,4.27,4.8,6.33Z"/>
        <path class="cls-4" d="M157.71,99.79l6.54,1.85-4.32,15.24-21.95-6.22,2.07-7.29,15.41,4.37,2.25-7.95Z"/>
      </g>
      <circle class="cls-1" cx="89.24" cy="89.24" r="85"/>
      <circle class="cls-2" cx="90.24" cy="89.24" r="41.5"/>
      <polyline class="cls-3" points="68.99 89.22 81.83 103.3 110.64 78.03"/>
    </g>
  </g>
</svg>