<?xml version="1.0" encoding="UTF-8"?>
<svg id="Camada_2" data-name="Camada 2" xmlns="http://www.w3.org/2000/svg" viewBox="0 0 172.78 172.78">
  <defs>
    <style>
      .cls-1 {
        fill: #000;
      }

      .cls-1, .cls-2 {
        stroke-width: 0px;
      }

      .cls-2 {
        fill: #ffeb57;
      }
    </style>
  </defs>
  <g id="Camada_1-2" data-name="Camada 1">
    <g>
      <circle class="cls-2" cx="86.39" cy="86.39" r="86.39"/>
      <g>
        <path class="cls-1" d="M55.93,103.88c-1.25-1.74-8.66-7.47-10.5-8.17h-14.07c-.97,0-1.76.78-1.77,1.74.15,14.94.03,29.08-.75,41.4,0,0,.4.96.93.98l19.44.75s7.34-4.78,7.29-7.31c-.19-9.8-.37-19.59-.56-29.39ZM39.73,133.61c-.86,0-1.55-.73-1.56-1.62-.14-8.84-.27-17.69-.41-26.53,0-.73.57-1.33,1.27-1.33h5.59c.06,9.9.13,19.76.19,29.54-1.69-.02-3.38-.04-5.08-.06Z"/>
        <path class="cls-1" d="M85.78,104.55v-.65c-1.71-2.86-4.62-5.57-8.17-8.19h-8.03c-3.04,1.35-6.39,3.66-9.4,5.84.24,11.25-.38,21.67-1.63,32.11-.05,1.12.82,2.07,1.95,2.11l9.51.35c.7,0,1.15-.37,1.41-.86.34-.63.34-1.28.3-1.6-.2-1.4-.58-4.19-1-7.36v-.05s1.61-4.19,7.09-1.59h0c.15,4.7.13,9.79-.06,15.25-.04,1.12.85,2.05,1.97,2.05h5.09c.87,0,1.58-.72,1.56-1.59l-.59-35.83ZM72.99,119.73l-.91-.03c-1.68-.05-3.02-1.42-3.02-3.09l.23-10.66c.02-.78.65-1.4,1.43-1.4h3.41c.75,0,1.37.58,1.42,1.33.16,3.66.35,7.28.71,10.59.07,1.82-1.43,3.32-3.27,3.26Z"/>
        <path class="cls-1" d="M118.77,135.47h-5.14c-.17,0-.33-.1-.41-.25l-5.41-10.21c-.14-.27-.22-.57-.21-.87v-.63c.01-.34.21-.64.52-.77,2.88-1.29,5.37-2.7,7.38-4.25.66-.51,1.02-1.32.98-2.15l-.63-11.61c0-.09-.04-.18-.09-.26-2.01-2.68-5.64-4.9-10.11-6.87-.06-.03-.14-.04-.21-.04l-15.7.03c-.67,0-1.2.56-1.17,1.23l1.16,22.76v12.99c0,1.36,1.1,2.47,2.47,2.47h3.87c.77,0,1.4-.63,1.4-1.4l-.67-11.05c0-.15.04-.3.15-.42l.49-.55c.15-.17.38-.27.61-.27,0,0,1.73,0,2.82,0,1.1,0,1.52,2.06,1.52,2.06l2.56,10.18s.01.07.01.11v3.62c0,.81.66,1.48,1.48,1.48h13.22c.38,0,.69-.31.69-.69v-3.06c0-.86-.7-1.55-1.55-1.55ZM103.6,116.83h-6c-.76,0-1.4-.59-1.46-1.35l-.8-10.39c-.05-.7.5-1.31,1.21-1.31h6.48c.9,0,1.64.7,1.69,1.59l.58,9.63c.06.99-.72,1.82-1.71,1.82Z"/>
        <path class="cls-1" d="M133.42,110.34l-.46-11.38c-.02-.57-.49-1.03-1.07-1.03h-9.33c-.85,0-1.53.71-1.49,1.56-.12-1.71,1.33,15.98,1.27,35.41,0,.74.6,1.36,1.33,1.4l6.27.27c.81.03,1.45-.67,1.34-1.47l-1.67-12.95c-.01-.11-.01-.23,0-.34l.03-.19c.08-.57.56-1.01,1.14-1.02l1.01-.02c.2,0,.41.03.6.1l3.55,1.33c.53.2.9.66.98,1.22l1.54,10.93c.01.07.02.14.02.22v2.57c0,1.23,1,2.23,2.23,2.23h9.63c.65,0,1.19-.53,1.19-1.19v-2.57c0-.64-.52-1.16-1.16-1.16h-3.24c-.63,0-1.14-.52-1.12-1.15l.32-12.7v-.68c0-.55-.36-1.04-.89-1.2l-6.5-1.99c-.21-.07-.37-.26-.38-.48h0c-.02-.28.08-.55.29-.75l16.78-16.02c.23-.22.35-.51.35-.83h0c0-.31-.24-.56-.55-.56l-9.19-.22c-.57-.01-1.11.24-1.46.68l-9.73,12.12c-.13.16-.33.25-.53.24l-.7-.02c-.21,0-.38-.18-.39-.39Z"/>
      </g>
      <g>
        <path class="cls-1" d="M37.55,92.7l-3-.07c-.9-.02-1.64-.74-1.68-1.64l-.78-16c-.04-.8.6-1.47,1.4-1.47l4.82-.02c.89,0,1.6.74,1.57,1.62l-.66,16.03c-.04.88-.77,1.57-1.66,1.55Z"/>
        <g>
          <path class="cls-1" d="M48.17,85.5v8.63s-5.51,0-5.51,0v-15.69c0-1.84,1.5-3.34,3.34-3.34h4.74c.59,0,1.14.32,1.44.83l4.7,8.16c.19.33.53.53.91.54h.28c.39.02.71-.31.68-.71l-.72-8.21c0-.67.52-1.22,1.19-1.25l3.73-.17c.93-.04,1.69.73,1.64,1.66l-.94,15.84c-.04.7-.59,1.25-1.28,1.31-1.84.28-3.72.41-5.65.35-.35,0-.68-.17-.89-.44l-6.3-8.17c-.13-.17-.34-.27-.56-.26-.51-.02-.79.26-.8.91Z"/>
          <path class="cls-1" d="M89.37,76.81c-.27,0-.48.23-.46.5.19,3.52.88,8.27.8,14.49,0,.53-.43.97-.97.97h-2.77c-1.02,0-1.85-.83-1.85-1.85v-12.48c0-.28-.23-.51-.51-.51h-4.75c-.68,0-1.23-.55-1.23-1.23v-3.32c0-.81.66-1.47,1.47-1.47h15.84c.93,0,1.68.75,1.68,1.68v2.03c0,.55-.44,1-.99,1.02l-6.24.17Z"/>
          <path class="cls-1" d="M117.94,89.26v-15.34c0-.95-.77-1.72-1.72-1.72h-5.16c-1.43,0-2.55,1.24-2.39,2.67l.46,4.27c.06.54-.35,1.01-.9,1.03l-2.06.07c-.73.02-1.33-.56-1.33-1.29v-4.74c0-.52-.38-.97-.89-1.05-1.48-.29-2.86-.42-3.95-.14-.99.26-1.65,1.18-1.62,2.2,1.31,5.11,1.43,10.29.44,15.54.03,1.12.95,2.01,2.07,2.01h2.28c1.17,0,2.1-.99,2.02-2.15l-.25-4.04c-.05-.86.42-1.67,1.2-2.05h0s2.08,0,2.08,0c.9,0,1.78.21,2.58.62h0c.46.23.75.7.75,1.22l.03,5.65c0,.8.65,1.44,1.45,1.44h4.96c.74,0,1.34-.6,1.34-1.34h0c0-.6-.26-1.18-.72-1.58l-.14-.12c-.34-.3-.53-.72-.53-1.17Z"/>
          <path class="cls-1" d="M129.97,88.03h0c0,.8.64,1.44,1.43,1.44h7.03c.52,0,.94.42.94.94v.96c0,.56-.46,1.02-1.02,1.02h-15.94c-.65,0-1.18-.53-1.18-1.18v-16.98c0-.65.53-1.18,1.18-1.18h14.86c.88,0,1.59.71,1.59,1.59v1.94c0,.48-.39.88-.88.88h-7.31c-1.28,0-2.32,1.04-2.32,2.32v1.75c0,1.14.92,2.06,2.06,2.06h6.55c.49,0,.88.4.88.88v1.42c0,.38-.31.69-.69.69l-5.81.05c-.76,0-1.38.62-1.39,1.39Z"/>
        </g>
      </g>
      <g>
        <path class="cls-1" d="M38.36,70.45c.3.13.62.19.95.18,2.12-.05,4.23-.11,6.35-.16.55-.02,1.07-.21,1.49-.56,2.71-2.2,4.34-3.77,6.22-6.6.16-.24.24-.52.23-.8l-.24-12.03c-.02-1.05-.87-1.88-1.92-1.88h-8.73c-1.14,0-2.07.93-2.07,2.07v2.5c0,.87.71,1.58,1.58,1.58h1.61c.52,0,.94.42.94.94l-.02,4.99c0,.42-.16.82-.44,1.13l-.64.7c-.27.3-.65.46-1.05.46h-3.92c-.86,0-1.56-.7-1.56-1.57l.08-27.41c0-1.43,1.19-2.58,2.63-2.53l4.32.16c.77.03,1.38.65,1.4,1.41l.26,8.63c.03.95.84,1.67,1.78,1.6l6.26-.48c.53-.04.92-.49.9-1.02l-.44-10.09c-1.34-3.41-3.86-6.02-7.46-7.89-.51-.27-1.08-.4-1.65-.4h-6.08c-.54,0-1.06.16-1.5.47-3.07,2.15-5.75,4.95-8.15,8.22-.44.6-.67,1.32-.67,2.06v26.66s0,1.15,0,1.15c0,.6.22,1.18.63,1.63,2.47,2.74,5.18,5.27,8.91,6.86Z"/>
        <path class="cls-1" d="M64.05,68.81h7.27c.64,0,1.16-.52,1.16-1.16v-2.5c0-2.12-1.72-3.84-3.84-3.84h-3.68c-.5,0-.9-.41-.9-.9v-28.52c0-.8-.65-1.45-1.45-1.45h-4.84c-.96,0-1.73.78-1.73,1.73v35.24c0,.77.62,1.39,1.39,1.39h6.63Z"/>
        <path class="cls-1" d="M89.18,32.54c-.02-1-.45-1.94-1.19-2.6l-3.92-3.51c-.47-.42-1.1-.63-1.73-.57l-3.95.36c-.86.08-1.66.46-2.27,1.07l-4.43,4.47c-.75.75-1.16,1.78-1.15,2.84l.28,23.11c0,.54.22,1.06.6,1.45l3.09,3.14c.75.76,1.81,1.13,2.88.99l6.06-.78c.94-.12,1.79-.61,2.37-1.35l3.1-3.98c.42-.54.64-1.2.63-1.88l-.36-22.75ZM79.85,57.24h-2.32c-1.01,0-1.83-.82-1.83-1.83v-19.87c0-.92.75-1.67,1.67-1.67h2.69c.69,0,1.25.54,1.28,1.23l.88,19.65c.06,1.36-1.02,2.49-2.38,2.49Z"/>
        <path class="cls-1" d="M106.31,50.91c.02-.2.3-.21.34-.02l3.37,16.08c.15.76.88,1.27,1.65,1.16l4.75-.71c.73-.11,1.29-.69,1.38-1.42,1.72-15.5,3.46-31.76,4.82-37.94.1-.76-.51-1.43-1.27-1.41l-5.89.16c-.86.02-1.54.72-1.54,1.58.68,6.33.51,13.96-.09,22.26-.02.24-.33.31-.45.1-1.3-2.31-2.16-9.95-2.86-18.46-.13-1.59-1.49-2.8-3.09-2.75l-1.26.04c-2.13.07-3.74,1.87-3.59,4,.39,5.48.1,13.05-.61,19.17-.04.33-.47.39-.62.1-1.1-2.28-1.49-9.56-1.52-19.35-.14-1.33-1.35-2.29-2.68-2.12l-3.86.5c-1.37.18-2.32,1.45-2.1,2.82,1.58,7.49,3.25,18.52,4.94,30.61.14.86.93,1.45,1.8,1.35l5.67-.71c.69-.09,1.23-.65,1.29-1.34l1.41-13.7Z"/>
        <path class="cls-1" d="M130.77,54.67c1.86,0,3.36,1.79,3.36,3.99s-1.5,3.99-3.36,3.99-3.36-1.79-3.36-3.99c0-.36.5-1.05.11-1.03h0l-6.14.05c-.42,0-.77.34-.77.76,0,0,0,0,0,0,0,4.29,3.15,7.9,7.41,8.93.13.03.27.04.41.04l5.16-.27c.2-.01.4-.05.59-.12,3.67-1.35,6.26-4.68,6.26-8.58,0-3.38-1.96-6.34-4.88-7.94-.46-.26-.99-.39-1.52-.39h-5.23c-.76,0-1.39-.59-1.45-1.35l-.66-9.18c-.06-.83.58-1.55,1.42-1.59l2.48-.1c.64-.03,1.17.49,1.17,1.13l-.05,6.25c0,.85.69,1.54,1.54,1.52l5.08-.12c.9-.02,1.61-.75,1.61-1.65v-8.55c0-.59-.22-1.17-.61-1.61l-4.13-4.64c-.45-.5-1.09-.79-1.76-.79h-3.12c-.71,0-1.39.31-1.86.85l-5.51,6.36c-.59.68-.9,1.56-.87,2.46l.47,13.42c.04,1.19,1.02,2.14,2.22,2.14h5.99Z"/>
      </g>
    </g>
  </g>
</svg>