<?xml version="1.0" encoding="UTF-8"?>
<svg id="Camada_2" data-name="Camada 2" xmlns="http://www.w3.org/2000/svg" viewBox="0 0 70.11 78.57">
  <defs>
    <style>
      .cls-1, .cls-2 {
        stroke-linecap: round;
      }

      .cls-1, .cls-2, .cls-3 {
        fill: none;
        stroke: #000;
        stroke-width: 4px;
      }

      .cls-1, .cls-3 {
        stroke-miterlimit: 10;
      }

      .cls-2 {
        stroke-linejoin: round;
      }

      .cls-4 {
        fill: #000;
        stroke-width: 0px;
      }
    </style>
  </defs>
  <g id="Layer_1" data-name="Layer 1">
    <g>
      <path class="cls-4" d="M22.87,52.44c-1.72,0-3.12,1.4-3.12,3.12s1.4,3.12,3.12,3.12,3.12-1.4,3.12-3.12-1.4-3.12-3.12-3.12Z"/>
      <path class="cls-4" d="M49.35,52.44c-1.72,0-3.12,1.4-3.12,3.12s1.4,3.12,3.12,3.12,3.12-1.4,3.12-3.12-1.4-3.12-3.12-3.12Z"/>
      <path class="cls-1" d="M27.61,63.42c.14.1,3.52,2.48,9.03,2.48s8.86-2.39,9-2.49"/>
      <path class="cls-3" d="M62.28,40.99c.35,3.1.34,6.95.34,11.7,0,16.75.13,22.24-15.91,23.54-2.95.24-6.45.34-10.6.34s-7.65-.1-10.6-.34c-16.04-1.3-15.91-6.79-15.91-23.54,0-4.75,0-8.6.34-11.7"/>
      <path class="cls-2" d="M63.7,41H6.41c-3.73,0-5.77-3.51-3.37-5.81l5.38-5.16c.8-.77,1.91-1.21,3.06-1.21h47.15c1.15,0,2.26.44,3.06,1.21l5.38,5.16c2.4,2.3.36,5.81-3.37,5.81Z"/>
      <line class="cls-2" x1="21.08" y1="20.35" x2="21.08" y2="4.61"/>
      <polyline class="cls-2" points="12.52 10.56 21.08 2 29.64 10.56"/>
      <line class="cls-2" x1="48.39" y1="2" x2="48.39" y2="17.74"/>
      <polyline class="cls-2" points="56.95 11.8 48.39 20.35 39.84 11.8"/>
    </g>
  </g>
</svg>