<?xml version="1.0" encoding="UTF-8"?>
<svg id="Camada_2" data-name="Camada 2" xmlns="http://www.w3.org/2000/svg" viewBox="0 0 276 76.97">
  <defs>
    <style>
      .cls-1 {
        letter-spacing: 0em;
      }

      .cls-2 {
        letter-spacing: -.01em;
      }

      .cls-3 {
        letter-spacing: -.04em;
      }

      .cls-4 {
        letter-spacing: 0em;
      }

      .cls-5 {
        font-family: VeniceBlvd-SemiBold, 'Venice Blvd';
        font-size: 5.29px;
        font-weight: 600;
      }

      .cls-5, .cls-6, .cls-7, .cls-8 {
        fill: #000;
      }

      .cls-9 {
        letter-spacing: 0em;
      }

      .cls-10 {
        letter-spacing: 0em;
      }

      .cls-6 {
        font-family: Allotrope-Black, Allotrope;
        font-size: 12px;
        font-weight: 800;
      }

      .cls-11 {
        letter-spacing: -.05em;
      }

      .cls-12 {
        letter-spacing: 0em;
      }

      .cls-7, .cls-13, .cls-14 {
        stroke-width: 0px;
      }

      .cls-15 {
        letter-spacing: 0em;
      }

      .cls-16 {
        letter-spacing: 0em;
      }

      .cls-17 {
        letter-spacing: 0em;
      }

      .cls-8 {
        font-family: VeniceBlvd-Regular, 'Venice Blvd';
        font-size: 7px;
      }

      .cls-18 {
        letter-spacing: -.01em;
      }

      .cls-19 {
        letter-spacing: -.01em;
      }

      .cls-20 {
        letter-spacing: -.01em;
      }

      .cls-21 {
        letter-spacing: 0em;
      }

      .cls-22 {
        text-decoration: underline;
      }

      .cls-13 {
        fill: #e8eaed;
      }

      .cls-23 {
        letter-spacing: .01em;
      }

      .cls-24 {
        letter-spacing: 0em;
      }

      .cls-25 {
        letter-spacing: -.02em;
      }

      .cls-26 {
        letter-spacing: 0em;
      }

      .cls-14 {
        fill: #30b757;
      }

      .cls-27 {
        letter-spacing: 0em;
      }

      .cls-28 {
        letter-spacing: 0em;
      }

      .cls-29 {
        letter-spacing: 0em;
      }

      .cls-30 {
        letter-spacing: 0em;
      }

      .cls-31 {
        letter-spacing: 0em;
      }

      .cls-32 {
        letter-spacing: 0em;
      }
    </style>
  </defs>
  <g id="Camada_2-2" data-name="Camada 2">
    <g>
      <text class="cls-6" transform="translate(0 10.01)"><tspan x="0" y="0">DES</tspan><tspan class="cls-2" x="22.63" y="0">C</tspan><tspan x="29.57" y="0">ON</tspan><tspan class="cls-19" x="47.34" y="0">T</tspan><tspan x="54.38" y="0">O PROGRE</tspan><tspan class="cls-28" x="113.83" y="0">S</tspan><tspan class="cls-16" x="121.26" y="0">SI</tspan><tspan class="cls-3" x="132.67" y="0">V</tspan><tspan x="141.02" y="0">O</tspan></text>
      <text class="cls-5" transform="translate(0 17.05)"><tspan class="cls-25" x="0" y="0">C</tspan><tspan class="cls-17" x="3.32" y="0">o</tspan><tspan class="cls-32" x="6.35" y="0">m</tspan><tspan class="cls-30" x="11.12" y="0">b</tspan><tspan class="cls-21" x="14.27" y="0">i</tspan><tspan class="cls-27" x="15.91" y="0">n</tspan><tspan class="cls-10" x="19.05" y="0">e os </tspan><tspan class="cls-9" x="29.73" y="0">i</tspan><tspan class="cls-18" x="31.38" y="0">t</tspan><tspan class="cls-15" x="33.39" y="0">e</tspan><tspan class="cls-26" x="36.33" y="0">ns</tspan><tspan class="cls-10" x="42.03" y="0" xml:space="preserve"> que </tspan><tspan class="cls-27" x="53.39" y="0">v</tspan><tspan class="cls-21" x="56.09" y="0">o</tspan><tspan class="cls-15" x="59.13" y="0">c</tspan><tspan class="cls-10" x="61.89" y="0">ê </tspan><tspan class="cls-12" x="65.9" y="0">a</tspan><tspan class="cls-21" x="69.06" y="0">ma e </tspan><tspan class="cls-4" x="82.03" y="0">g</tspan><tspan class="cls-1" x="85.16" y="0">a</tspan><tspan class="cls-31" x="88.32" y="0">n</tspan><tspan class="cls-27" x="91.5" y="0">h</tspan><tspan x="94.64" y="0">e </tspan><tspan class="cls-23" x="98.65" y="0">a</tspan><tspan class="cls-20" x="101.86" y="0">t</tspan><tspan x="103.87" y="0">é 2</tspan><tspan class="cls-17" x="111.07" y="0">0</tspan><tspan x="114.54" y="0">% de d</tspan><tspan class="cls-29" x="130.05" y="0">e</tspan><tspan x="132.98" y="0">s</tspan><tspan class="cls-29" x="135.53" y="0">con</tspan><tspan class="cls-20" x="144.49" y="0">t</tspan><tspan class="cls-11" x="146.5" y="0">o</tspan><tspan class="cls-24" x="149.28" y="0">.</tspan></text>
    </g>
    <g>
      <path class="cls-13" d="M272.47,26.65c1.4,0,2.53,1.14,2.53,2.53v44.26c0,1.4-1.14,2.53-2.53,2.53H3.53c-1.4,0-2.53-1.14-2.53-2.53V29.19c0-1.4,1.14-2.53,2.53-2.53h268.93M272.47,25.65H3.53c-1.95,0-3.53,1.58-3.53,3.53v44.26c0,1.95,1.58,3.53,3.53,3.53h268.93c1.95,0,3.53-1.58,3.53-3.53V29.19c0-1.95-1.58-3.53-3.53-3.53h0Z"/>
      <g>
        <g>
          <text class="cls-8" transform="translate(181.86 60.32)"><tspan x="0" y="0">Ganhe </tspan><tspan class="cls-22" x="22.1" y="0">20% de desconto</tspan><tspan x="0" y="8.4">Comprando 5 itens ou mais.</tspan></text>
          <g>
            <rect class="cls-14" x="146.87" y="57.47" width="29.55" height="9.99" rx="4.99" ry="4.99"/>
            <g>
              <path class="cls-7" d="M159.21,63.64v1.33h-3.78v-1.33l1.38-1.02c.49-.37.69-.59.69-.88v-.09c0-.25-.21-.44-.86-.44-.41,0-.86.07-1.08.14l-.03-.02v-1.27c.34-.09.95-.19,1.46-.19,1.52,0,2.15.51,2.15,1.62,0,.79-.41,1.19-.68,1.41l-.57.44c-.1.08-.31.22-.41.27v.03h1.73Z"/>
              <path class="cls-7" d="M161.57,59.87c1.07,0,1.94.56,1.94,2.62,0,1.92-.78,2.56-1.94,2.56s-1.94-.66-1.94-2.56c0-2.06.88-2.62,1.94-2.62ZM161.57,63.65c.37,0,.51-.2.51-.78v-.81c0-.59-.15-.78-.51-.78s-.5.2-.5.78v.81c0,.59.14.78.5.78Z"/>
              <path class="cls-7" d="M167.85,59.96l-3.23,5.01h-.86l3.23-5.01h.86ZM164.83,59.88c.52,0,.98.29.98,1.15,0,.77-.41,1.11-.98,1.11s-.98-.35-.98-1.11c0-.86.47-1.15.98-1.15ZM164.83,61.42c.14,0,.22-.11.22-.35v-.13c0-.24-.07-.34-.22-.34s-.22.1-.22.34v.13c0,.25.08.35.22.35ZM166.79,62.79c.53,0,.98.29.98,1.14,0,.77-.41,1.11-.98,1.11s-.98-.34-.98-1.11c0-.86.46-1.14.98-1.14ZM166.79,64.32c.14,0,.23-.1.23-.34v-.14c0-.23-.08-.34-.23-.34s-.23.11-.23.34v.14c0,.24.08.34.23.34Z"/>
            </g>
          </g>
        </g>
        <g>
          <text class="cls-8" transform="translate(42.04 60.32)"><tspan x="0" y="0">Ganhe </tspan><tspan class="cls-22" x="22.1" y="0">15% de desconto</tspan><tspan x="0" y="8.4">Comprando 4 itens</tspan></text>
          <g>
            <rect class="cls-14" x="7.39" y="57.54" width="29.55" height="9.99" rx="4.99" ry="4.99"/>
            <g>
              <path class="cls-7" d="M15.97,63.71h1.29v-2.24h-.03l-.9.21-.02-.02v-1.18l2.4-.54.04.03v3.73h.95v1.33h-3.72v-1.33Z"/>
              <path class="cls-7" d="M23.99,63.32c0,1.22-.65,1.79-2.1,1.79-.67,0-1.31-.11-1.58-.17v-1.16l.04-.03c.27.07.8.14,1.3.14.74,0,.93-.17.93-.46v-.1c0-.24-.1-.41-.87-.41-.41,0-1.18.01-1.4.04l-.04-.04.2-2.9h3.26v1.25h-2.12l-.05.74h.02c.17-.03.47-.08.8-.08,1.1,0,1.62.46,1.62,1.39Z"/>
              <path class="cls-7" d="M28.35,60.02l-3.23,5.01h-.86l3.23-5.01h.86ZM25.33,59.95c.52,0,.98.29.98,1.15,0,.77-.41,1.11-.98,1.11s-.98-.35-.98-1.11c0-.86.47-1.15.98-1.15ZM25.33,61.49c.14,0,.22-.11.22-.35v-.13c0-.24-.08-.34-.22-.34s-.23.1-.23.34v.13c0,.25.08.35.23.35ZM27.29,62.85c.53,0,.98.29.98,1.14,0,.77-.41,1.11-.98,1.11s-.98-.34-.98-1.11c0-.86.47-1.14.98-1.14ZM27.29,64.38c.14,0,.23-.1.23-.34v-.14c0-.23-.08-.34-.23-.34s-.23.11-.23.34v.14c0,.24.08.34.23.34Z"/>
            </g>
          </g>
        </g>
        <g>
          <text class="cls-8" transform="translate(42.04 38.03)"><tspan x="0" y="0">Ganhe </tspan><tspan class="cls-22" x="22.1" y="0">5% de desconto</tspan><tspan x="0" y="8.4">Comprando 2 itens</tspan></text>
          <g>
            <rect class="cls-14" x="7.39" y="35.22" width="29.55" height="9.99" rx="4.99" ry="4.99"/>
            <g>
              <path class="cls-7" d="M21.85,41.01c0,1.22-.65,1.79-2.1,1.79-.67,0-1.31-.11-1.58-.17v-1.16l.04-.03c.27.07.8.14,1.3.14.74,0,.93-.17.93-.46v-.1c0-.24-.1-.41-.87-.41-.41,0-1.18.01-1.4.04l-.04-.04.2-2.9h3.26v1.25h-2.12l-.05.74h.02c.17-.03.47-.08.8-.08,1.1,0,1.62.46,1.62,1.39Z"/>
              <path class="cls-7" d="M26.2,37.7l-3.23,5.02h-.86l3.23-5.02h.86ZM23.18,37.63c.52,0,.98.29.98,1.15,0,.77-.41,1.11-.98,1.11s-.98-.35-.98-1.11c0-.86.47-1.15.98-1.15ZM23.18,39.17c.14,0,.22-.11.22-.35v-.13c0-.24-.08-.34-.22-.34s-.23.1-.23.34v.13c0,.25.08.35.23.35ZM25.14,40.53c.53,0,.98.29.98,1.14,0,.77-.41,1.11-.98,1.11s-.98-.34-.98-1.11c0-.86.47-1.14.98-1.14ZM25.14,42.07c.14,0,.23-.1.23-.34v-.14c0-.23-.08-.34-.23-.34s-.23.11-.23.34v.14c0,.24.08.34.23.34Z"/>
            </g>
          </g>
        </g>
        <g>
          <text class="cls-8" transform="translate(181.86 38.03)"><tspan x="0" y="0">Ganhe </tspan><tspan class="cls-22" x="22.1" y="0">10% de desconto</tspan><tspan x="0" y="8.4">Comprando 3 itens</tspan></text>
          <g>
            <rect class="cls-14" x="146.87" y="35.17" width="29.55" height="9.99" rx="4.99" ry="4.99"/>
            <g>
              <path class="cls-7" d="M155.45,41.34h1.29v-2.24h-.03l-.9.21-.02-.02v-1.18l2.39-.54.04.03v3.73h.95v1.33h-3.72v-1.33Z"/>
              <path class="cls-7" d="M161.54,37.57c1.07,0,1.94.56,1.94,2.62,0,1.92-.78,2.56-1.94,2.56s-1.94-.66-1.94-2.56c0-2.06.88-2.62,1.94-2.62ZM161.54,41.35c.37,0,.51-.2.51-.78v-.81c0-.59-.15-.78-.51-.78s-.5.2-.5.78v.81c0,.59.14.78.5.78Z"/>
              <path class="cls-7" d="M167.83,37.66l-3.23,5.02h-.86l3.23-5.02h.86ZM164.81,37.58c.52,0,.98.29.98,1.15,0,.77-.41,1.11-.98,1.11s-.98-.35-.98-1.11c0-.86.46-1.15.98-1.15ZM164.81,39.12c.14,0,.22-.11.22-.35v-.13c0-.24-.08-.34-.22-.34s-.23.1-.23.34v.13c0,.25.08.35.23.35ZM166.77,40.49c.53,0,.98.29.98,1.14,0,.77-.41,1.11-.98,1.11s-.98-.34-.98-1.11c0-.86.47-1.14.98-1.14ZM166.77,42.02c.14,0,.23-.1.23-.34v-.14c0-.23-.08-.34-.23-.34s-.22.11-.22.34v.14c0,.24.08.34.22.34Z"/>
            </g>
          </g>
        </g>
      </g>
    </g>
  </g>
</svg>