<?xml version="1.0" encoding="UTF-8"?>
<svg id="Camada_2" data-name="Camada 2" xmlns="http://www.w3.org/2000/svg" viewBox="0 0 178.83 178.83">
  <defs>
    <style>
      .cls-1 {
        fill: #000;
        font-family: Allotrope-ExtraBold, Allotrope;
        font-size: 34.15px;
        font-weight: 700;
      }

      .cls-2 {
        fill: none;
        stroke: #000;
        stroke-linecap: round;
        stroke-linejoin: round;
        stroke-width: 8.49px;
      }
    </style>
  </defs>
  <g id="Camada_1-2" data-name="Camada 1">
    <text class="cls-1" transform="translate(38.4 83.26) rotate(-70.86)"><tspan x="0" y="0">P</tspan></text>
    <text class="cls-1" transform="translate(44.49 64.28) rotate(-47.99)"><tspan x="0" y="0">R</tspan></text>
    <text class="cls-1" transform="translate(58 48.39) rotate(-23.8)"><tspan x="0" y="0">O</tspan></text>
    <text class="cls-1" transform="translate(78.32 39.03) rotate(.93)"><tspan x="0" y="0">D</tspan></text>
    <text class="cls-1" transform="translate(99.67 38.86) rotate(24.72)"><tspan x="0" y="0">U</tspan></text>
    <text class="cls-1" transform="translate(119.36 47.89) rotate(47.09)"><tspan x="0" y="0">T</tspan></text>
    <text class="cls-1" transform="translate(132.09 60.27) rotate(69.32)"><tspan x="0" y="0">O</tspan></text>
    <text class="cls-1" transform="translate(14.58 104.43) rotate(69.45)"><tspan x="0" y="0">O</tspan></text>
    <text class="cls-1" transform="translate(28.05 134.55) rotate(45.08)"><tspan x="0" y="0">R</tspan></text>
    <text class="cls-1" transform="translate(49.97 153.82) rotate(27.45)"><tspan x="0" y="0">I</tspan></text>
    <text class="cls-1" transform="translate(65.42 161.68) rotate(9.99)"><tspan x="0" y="0">G</tspan></text>
    <text class="cls-1" transform="translate(93.75 164.81) rotate(-7.32)"><tspan x="0" y="0">I</tspan></text>
    <text class="cls-1" transform="translate(111.38 162.55) rotate(-26.13)"><tspan x="0" y="0">N</tspan></text>
    <text class="cls-1" transform="translate(140.91 145.81) rotate(-51.86)"><tspan x="0" y="0">A</tspan></text>
    <text class="cls-1" transform="translate(159.49 118.46) rotate(-74.19)"><tspan x="0" y="0">L</tspan></text>
    <circle class="cls-2" cx="89.42" cy="89.42" r="85.17"/>
    <circle class="cls-2" cx="89.42" cy="89.42" r="41.39"/>
    <polyline class="cls-2" points="68.95 89.42 81.78 103.49 110.59 78.22"/>
  </g>
</svg>