<?xml version="1.0" encoding="UTF-8"?>
<svg id="Camada_2" data-name="Camada 2" xmlns="http://www.w3.org/2000/svg" viewBox="0 0 61.78 55.31">
  <defs>
    <style>
      .cls-1 {
        fill: none;
        stroke: #000;
        stroke-linecap: round;
        stroke-miterlimit: 10;
        stroke-width: 4px;
      }

      .cls-2 {
        fill: #000;
        stroke-width: 0px;
      }
    </style>
  </defs>
  <g id="Layer_1" data-name="Layer 1">
    <g>
      <path class="cls-2" d="M15.96,32.03c-1.58,0-2.86,1.28-2.86,2.86s1.28,2.86,2.86,2.86,2.86-1.28,2.86-2.86-1.28-2.86-2.86-2.86Z"/>
      <path class="cls-2" d="M45.9,32.03c-1.58,0-2.86,1.28-2.86,2.86s1.28,2.86,2.86,2.86,2.86-1.28,2.86-2.86-1.28-2.86-2.86-2.86Z"/>
      <path class="cls-1" d="M41,43.73c-.15-.11-3.71-2.61-9.5-2.61s-9.32,2.51-9.47,2.62"/>
      <path class="cls-1" d="M56.41,31.54c-.18,2.03-.82,4.65-1.89,8.02-3.77,11.84-6.99,13.75-24.14,13.75s-19.18-1.91-22.94-13.75c-1.02-3.21-1.7-5.74-1.97-7.73"/>
      <line class="cls-1" x1="26.2" y1="2" x2="9.93" y2="18.06"/>
      <line class="cls-1" x1="34.42" y1="3.05" x2="50.69" y2="19.11"/>
      <line class="cls-1" x1="2" y1="25.32" x2="59.78" y2="25.32"/>
    </g>
  </g>
</svg>