<?xml version="1.0" encoding="UTF-8"?>
<svg id="Camada_2" data-name="Camada 2" xmlns="http://www.w3.org/2000/svg" viewBox="0 0 73.11 57">
  <defs>
    <style>
      .cls-1 {
        stroke-linecap: round;
      }

      .cls-1, .cls-2 {
        fill: none;
        stroke: #000;
        stroke-miterlimit: 10;
        stroke-width: 4px;
      }
    </style>
  </defs>
  <g id="Layer_1" data-name="Layer 1">
    <g>
      <path class="cls-2" d="M42.06,7.03c1.73-1.17,3.21-2.14,4.49-2.91,3.67,5.62,2.77,6.17-.69,8.51s-4.31,2.98-8.16-2.52c1.19-.9,2.63-1.91,4.37-3.09Z"/>
      <path class="cls-2" d="M41.91,6.8c1.73-1.17,3.22-2.12,4.52-2.86,7.07-4,8.57-1.66,13.31,5.34,5.61,8.29,6.83,9.93-4.32,17.48-11.16,7.55-12.23,5.81-17.84-2.48-4.74-7-6.35-9.26,0-14.34,1.16-.93,2.6-1.97,4.33-3.14Z"/>
      <path class="cls-1" d="M2,8.69c10.72-6.05,12.99-2.52,20.16,8.08l8.63,12.98c6.26,9.68,11.47,15.84,27.85,4.75l12.46-8.44"/>
      <circle class="cls-2" cx="28.03" cy="48.35" r="6.64"/>
    </g>
  </g>
</svg>