<?xml version="1.0" encoding="UTF-8"?>
<svg id="Camada_3" data-name="Camada 3" xmlns="http://www.w3.org/2000/svg" viewBox="0 0 168.52 168.52">
  <defs>
    <style>
      .cls-1 {
        fill: #ff3d47;
      }

      .cls-1, .cls-2, .cls-3 {
        stroke-width: 0px;
      }

      .cls-2 {
        fill: #000;
      }

      .cls-4 {
        fill: none;
        stroke: #ff3d47;
        stroke-miterlimit: 10;
        stroke-width: 2.51px;
      }

      .cls-3 {
        fill: #ffeb57;
      }
    </style>
  </defs>
  <circle class="cls-2" cx="84.5" cy="84.5" r="84.02"/>
  <polygon class="cls-3" points="138.15 139.66 133.11 138.14 134.12 143.31 129.2 141.44 129.85 146.66 125.07 144.45 125.35 149.71 120.74 147.16 120.65 152.43 116.23 149.56 115.77 154.81 111.56 151.64 110.73 156.84 106.76 153.38 105.57 158.51 101.85 154.78 100.29 159.81 96.85 155.83 94.94 160.74 91.78 156.52 89.54 161.28 86.69 156.86 84.11 161.45 81.58 156.83 78.68 161.23 76.48 156.44 73.28 160.63 71.43 155.7 67.94 159.65 66.44 154.6 62.68 158.29 61.54 153.15 57.53 156.57 56.75 151.36 52.51 154.49 52.11 149.24 47.66 152.06 47.62 146.79 42.98 149.29 43.32 144.03 38.52 146.2 39.22 140.98 34.28 142.8 35.35 137.64 30.29 139.11 31.72 134.05 26.58 135.15 28.36 130.2 23.15 130.94 25.28 126.13 20.02 126.5 22.49 121.84 17.22 121.85 20.01 117.38 14.75 117.01 17.85 112.75 12.64 112.01 16.02 107.97 10.87 106.87 14.54 103.09 9.48 101.62 13.4 98.1 8.46 96.28 12.62 93.05 7.82 90.89 12.19 87.96 7.56 85.47 12.13 82.85 7.68 80.04 12.43 77.75 8.19 74.63 13.08 72.69 9.07 69.27 14.09 67.68 10.34 63.99 15.46 62.75 11.97 58.81 17.16 57.94 13.96 53.75 19.2 53.25 16.3 48.86 21.57 48.72 18.99 44.13 24.25 44.37 22 39.61 27.23 40.22 25.32 35.32 30.5 36.3 28.94 31.26 34.03 32.61 32.83 27.48 37.82 29.18 36.98 23.98 41.84 26.02 41.37 20.77 46.07 23.16 45.97 17.89 50.49 20.6 50.77 15.34 55.08 18.36 55.73 13.13 59.82 16.45 60.84 11.28 64.68 14.88 66.06 9.79 69.64 13.65 71.38 8.68 74.68 12.78 76.76 7.94 79.76 12.27 82.18 7.59 84.87 12.11 87.61 7.61 89.97 12.32 93.02 8.02 95.05 12.88 98.4 8.82 100.08 13.81 103.7 9.99 105.03 15.08 108.91 11.53 109.87 16.7 114 13.43 114.59 18.66 118.94 15.69 119.16 20.95 123.7 18.29 123.56 23.55 128.28 21.22 127.76 26.46 132.63 24.46 131.74 29.65 136.75 28.01 135.5 33.12 140.6 31.83 138.99 36.85 144.18 35.92 142.22 40.81 147.45 40.25 145.16 44.99 150.42 44.8 147.79 49.37 153.05 49.55 150.11 53.92 155.35 54.48 152.11 58.62 157.29 59.55 153.76 63.46 158.87 64.74 155.07 68.4 160.08 70.04 156.03 73.41 160.91 75.41 156.64 78.49 161.36 80.82 156.88 83.59 161.43 86.25 156.77 88.7 161.11 91.67 156.29 93.79 160.42 97.06 155.46 98.83 159.34 102.38 154.27 103.8 157.89 107.62 152.73 108.67 156.08 112.74 150.86 113.42 153.91 117.72 148.65 118.03 151.39 122.53 146.13 122.47 148.55 127.15 143.3 126.73 145.38 131.56 140.17 130.77 141.91 135.74 136.77 134.58 138.15 139.66"/>
  <path class="cls-1" d="M84.5,20.89c35.08,0,63.61,28.54,63.61,63.61s-28.54,63.61-63.61,63.61-63.61-28.54-63.61-63.61,28.54-63.61,63.61-63.61M84.5,18.38c-36.52,0-66.12,29.6-66.12,66.12s29.6,66.12,66.12,66.12,66.12-29.6,66.12-66.12S121.02,18.38,84.5,18.38h0Z"/>
  <g>
    <path class="cls-2" d="M28.52,78.19l1.77.03.16-.85h-2.42c-.67,0-1.17-.61-1.04-1.27l.12-.61c.12-.61.65-1.04,1.27-1.05l3.14-.04.16-.53h-5.42c-.96-.94-1.02-2.05,0-3.35h20.17c.9,0,1.52.91,1.18,1.75l-1.2,3.02c-.23.59-.8.97-1.43.97h-8.62c-.51,0-.97.33-1.14.81l-4.96,14.42c-.19.56.22,1.13.81,1.13h8.69c.57,0,.96.56.77,1.1l-1.27,3.5c-.18.49-.65.82-1.17.82h-13.09c-.76,0-1.3-.75-1.06-1.47l5.14-15.27h-1.14c-.72,0-1.22-.7-.99-1.38l.28-.81c.19-.56.72-.93,1.31-.92Z"/>
    <path class="cls-2" d="M49.86,98.05h2.1c.45,0,.86-.28,1.01-.71l3.3-9.2c.17-.46.6-.77,1.09-.77h2.3c.35,0,.61.34.5.68l-2.61,8.34c-.26.83.36,1.67,1.22,1.67h1.85c.55,0,1.04-.35,1.22-.87l8.53-25.38c.21-.63-.26-1.27-.92-1.27h-2.1c-.64,0-1.21.41-1.41,1.02l-3.15,9.41c-.17.5-.63.84-1.16.84h-2.15c-.6,0-1.01-.59-.81-1.15l3.14-8.75c.24-.66-.25-1.36-.96-1.36h-9.55c-.65.36-1.06,1.03-1.06,1.75,0,.91.65,1.47.74,1.54h5.37l-.16.69-3.77-.05c-.13.13-.56.59-.64,1.33-.08.78.27,1.34.37,1.49l3.29.05-.32.96h-2.5c-.12.1-.69.56-.8,1.38-.13.98.5,1.67.58,1.75h1.65l-5.2,15.21c-.24.7.28,1.42,1.01,1.42Z"/>
    <path class="cls-2" d="M94.5,70.52h-18.89c-.09,0-.18.04-.23.11-.86,1.06-.98,2.08-.1,3.04.06.06.14.09.22.09h4.59c.18,0,.31.15.3.33-.01.15-.13.26-.28.27l-3.27.14c-.09,0-.17.04-.22.11-.55.71-.65,1.51-.41,2.38.04.13.16.22.29.22l2.51-.04c.2,0,.35.19.29.38l-.15.51c-.04.13-.16.22-.29.22l-.95-.02c-.74-.02-1.38.49-1.54,1.21l-.06.26c-.18.82.44,1.59,1.27,1.59h.08c.2,0,.35.2.28.4l-5.06,14.62c-.29.84.34,1.73,1.23,1.73h1.93c.59,0,1.12-.37,1.32-.92l3.5-9.36c.15-.4.53-.67.96-.67h3.18c.2,0,.35.2.28.39l-2.97,9.14c-.23.7.29,1.42,1.03,1.42h2.31c.53,0,.99-.33,1.16-.83l8.69-25.3c.24-.69-.27-1.4-1-1.4ZM89.09,77.16l-1.51,3.93c-.19.49-.67.79-1.19.76l-2.72-.16c-.51-.03-.84-.55-.66-1.02l1.49-3.88c.16-.41.55-.68.99-.68h2.87c.54,0,.92.55.72,1.05Z"/>
    <path class="cls-2" d="M100.45,70.52h19.05c.72,0,1.22.7.99,1.38l-1.14,3.42c-.15.46-.59.78-1.08.78h-9.26c-.42,0-.8.27-.94.67l-1.32,3.81c-.18.51.2,1.05.75,1.05h8.59c.54,0,.92.52.75,1.03l-4.63,14.59c-.15.48-.59.8-1.09.8h-13.27c-.69,0-1.16-.68-.93-1.33l1.13-3.09c.3-.83,1.09-1.38,1.98-1.38h9.05l1.86-5.1h-9.62c-.72,0-1.22-.72-.97-1.39l1.61-4.35-.69-.03c-.78-.04-1.32-.8-1.1-1.55l.26-.88c.15-.49.61-.83,1.13-.82l1.46.03.21-1.01h-2.36c-.5,0-.87-.47-.75-.96l.21-.81c.17-.68.78-1.15,1.48-1.15h2.75v-.9h-4.88c-.62,0-1.04-.62-.81-1.2l.31-.77c.2-.51.7-.85,1.25-.85Z"/>
    <path class="cls-2" d="M125.1,70.52h18.9c.7,0,1.2.68.99,1.34l-1.12,3.55c-.16.5-.62.84-1.15.84h-8.9c-.48,0-.9.3-1.07.75l-1.31,3.58c-.21.58.22,1.2.84,1.2h8.42c.51,0,.87.5.72.98l-1.18,3.77c-.15.49-.61.83-1.13.83h-9.16c-.43,0-.81.27-.95.67l-1.36,3.74c-.18.49.19,1.01.71,1.01h8.91c.51,0,.87.49.72.97l-1.09,3.47c-.15.49-.6.82-1.11.82h-13.39c-.7,0-1.19-.69-.97-1.35l5.28-15.39h-.83c-.61,0-1.06-.57-.92-1.16l.27-1.17c.12-.5.56-.84,1.07-.83l1.57.03.27-1.22-2.52.04c-.58,0-1.01-.53-.88-1.1l.17-.71c.12-.52.59-.88,1.12-.87l2.97.04v-1.01l-4.8.17c-.61.02-1.04-.6-.8-1.16l.4-.95c.22-.53.74-.88,1.32-.88Z"/>
  </g>
  <g>
    <path class="cls-4" d="M117.35,102.31c-6.33,11.65-18.67,19.55-32.85,19.55s-26.48-7.88-32.82-19.49"/>
    <path class="cls-4" d="M51.59,66.8c6.31-11.7,18.68-19.66,32.91-19.66s26.45,7.86,32.79,19.45"/>
  </g>
  <g>
    <path class="cls-1" d="M51.19,50.77l4.26,3.37-6.94,8.78-12.22-9.65,3.83-4.85,7.96,6.29,3.11-3.93Z"/>
    <path class="cls-1" d="M51.06,38.01l9.74,12.15-4.62,3.71-9.74-12.15,4.62-3.71Z"/>
    <path class="cls-1" d="M55.72,34.15l6.06-2.24,4.68,3.74.04-.02,1.13-5.89,6.06-2.24,5.39,14.61-5.56,2.05-1.31-3.54c-.18-.48-.72-2.49-1.01-3.55l-.16.03c-.11.79-.18,1.68-.27,2.16l-.73,4.22-1.2.44-3.27-2.74c-.39-.31-1.04-.93-1.61-1.47l-.14.08c.47,1,1.36,2.88,1.54,3.36l1.31,3.54-5.56,2.05-5.39-14.61Z"/>
    <path class="cls-1" d="M85.67,27.25l.48,15.57-5.92.18-.48-15.57,5.92-.18Z"/>
    <path class="cls-1" d="M102.35,35.32l-3.69-.81-2.2,10-5.95-1.31,2.2-10-3.69-.81,1.15-5.22,13.33,2.93-1.15,5.22Z"/>
    <path class="cls-1" d="M113.07,47.95l-2.2,3.76-10.5-6.15,7.87-13.44,10.46,6.13-2.2,3.76-5.25-3.08-.85,1.45,4.61,2.7-1.72,2.94-4.61-2.7-.89,1.53,5.29,3.1Z"/>
    <path class="cls-1" d="M123.17,41.74l4.41,5.13c3.97,4.62,3.29,7.81-.58,11.14-3.82,3.28-7.09,3.84-11.22-.97l-4.42-5.15,11.82-10.15ZM119.64,54.03c.33.39.72.8,1.24.84.41.05.93-.21,1.49-.7l1.45-1.25c.51-.44.86-.86.89-1.29.03-.43-.19-.79-.6-1.27l-.81-.94-4.39,3.77.71.83Z"/>
  </g>
  <g>
    <path class="cls-1" d="M45.31,121.38l-3.15,2.69-7.9-9.26,11.26-9.6,7.87,9.23-3.15,2.69-3.95-4.63-1.21,1.03,3.47,4.06-2.46,2.1-3.47-4.06-1.28,1.09,3.98,4.67Z"/>
    <path class="cls-1" d="M54.26,115.35l5.81,3.47c5.22,3.12,5.66,6.25,3.17,10.42-2.46,4.11-5.31,5.56-10.75,2.3l-5.83-3.48,7.6-12.71ZM55.08,127.66c.44.26.93.53,1.43.42.4-.07.79-.46,1.15-1.07l.93-1.56c.33-.55.51-1.04.4-1.44-.11-.4-.44-.67-.98-1l-1.06-.63-2.82,4.72.94.56Z"/>
    <path class="cls-1" d="M74.23,124.62l-4.1,14.22-5.69-1.64,4.1-14.22,5.69,1.64Z"/>
    <path class="cls-1" d="M88.68,130.96l-3.77-.17-.44,9.71-6.08-.28.44-9.72-3.77-.17.23-5.07,13.63.62-.23,5.07Z"/>
    <path class="cls-1" d="M95.88,124.37l2.63,14.56-5.83,1.05-2.63-14.56,5.83-1.05Z"/>
    <path class="cls-1" d="M104.56,120.92c4.13-1.96,8.21-1.36,10.52,3.51,2.12,4.46.71,8.07-3.96,10.3-4.68,2.22-8.39.98-10.48-3.43-2.31-4.86-.22-8.4,3.93-10.38ZM108.99,130.26c1.26-.6,1.54-1.54,1.04-2.6l-.69-1.46c-.5-1.06-1.38-1.43-2.66-.82-1.29.61-1.55,1.52-1.05,2.58l.69,1.46c.51,1.08,1.41,1.44,2.67.84Z"/>
    <path class="cls-1" d="M112.92,116.97l4.28-4.59,4.02.59c.43.09,2.48.62,4.11,1.05l.09-.17c-1.45-.91-3.51-2.21-3.75-2.44l-1.91-1.78,4.02-4.32,10.82,10.09-4.13,4.44-4.26-.66c-.4-.06-1.88-.42-3.3-.68l-.1.13c.73.49,2.28,1.58,2.65,1.93l2.32,2.16-4.04,4.33-10.82-10.09Z"/>
  </g>
</svg>