<?xml version="1.0" encoding="UTF-8"?>
<svg id="Camada_2" data-name="Camada 2" xmlns="http://www.w3.org/2000/svg" viewBox="0 0 276 78.9">
  <defs>
    <style>
      .cls-1 {
        fill: #000;
      }

      .cls-1, .cls-2, .cls-3 {
        stroke-width: 0px;
      }

      .cls-2 {
        fill: #e8eaed;
      }

      .cls-3 {
        fill: #30b757;
      }
    </style>
  </defs>
  <g id="Camada_2-2" data-name="Camada 2">
    <g>
      <g>
        <g>
          <path class="cls-1" d="M.47.15h3.96c3.56,0,4.72,1.51,4.72,4.5s-1,4.61-4.71,4.61H.47V.15ZM4.57,6.4c.3,0,.63-.01.85-.23.18-.16.26-.49.26-.93v-1.12c0-.4-.05-.71-.23-.89-.18-.18-.42-.22-.79-.22h-.72v3.38h.64Z"/>
          <path class="cls-1" d="M17,6.71v2.55h-7.12V.15h7.09v2.55h-3.56v.98h3.12v1.99h-3.12v1.04h3.59Z"/>
          <path class="cls-1" d="M22.4.03c1.19,0,2.11.11,2.54.18v2.43s-.07.05-.07.05c-.52-.04-1.43-.08-2.2-.08-1.36,0-1.58.15-1.58.44v.07c0,.25.1.33.93.42l1.01.12c1.54.19,2.43.97,2.43,2.51,0,2.18-.97,3.22-4.92,3.22-1.41,0-2.44-.11-2.82-.18v-2.5l.05-.05c.76.1,1.71.15,2.63.15,1.36,0,1.54-.14,1.54-.46v-.1c0-.26-.07-.35-1.16-.48l-1.05-.14c-1.3-.15-2.16-.86-2.16-2.51C17.57,1.13,18.67.03,22.4.03Z"/>
          <path class="cls-1" d="M30.97.03c1.02,0,1.91.14,2.39.26v2.85l-.05.05c-.49-.07-1.06-.12-1.61-.12-.57,0-1.2.08-1.5.26-.34.2-.48.67-.48,1.19v.41c0,.57.15,1.02.52,1.21.33.15.94.2,1.43.2.52,0,1.3-.1,1.72-.16l.05.05v2.85c-.53.14-1.45.3-2.8.3-3.31,0-4.6-1.49-4.6-4.76S27.61.03,30.97.03Z"/>
          <path class="cls-1" d="M38.61,0c2.67,0,4.68,1.42,4.68,4.73,0,3.04-1.65,4.68-4.68,4.68s-4.68-1.68-4.68-4.68c0-3.31,1.99-4.73,4.68-4.73ZM38.61,6.37c.82,0,1.2-.45,1.2-1.17v-1c0-.72-.37-1.16-1.2-1.16s-1.2.44-1.2,1.16v1c0,.74.38,1.17,1.2,1.17Z"/>
          <path class="cls-1" d="M44.06.15h3.67l1.35,2.06c.14.23.72,1.38,1.19,2.29l.11-.03c-.19-1.04-.45-2.51-.45-2.71V.15h3.45v9.11h-3.55l-1.42-2.2c-.14-.2-.57-1.02-1.02-1.77h-.1c.08.55.23,1.71.23,2.02v1.95h-3.46V.15Z"/>
          <path class="cls-1" d="M61.93,3.27h-2.21v5.99h-3.56V3.27h-2.21V.15h7.98v3.12Z"/>
          <path class="cls-1" d="M66.83,0c2.67,0,4.68,1.42,4.68,4.73,0,3.04-1.65,4.68-4.68,4.68s-4.68-1.68-4.68-4.68c0-3.31,1.99-4.73,4.68-4.73ZM66.83,6.37c.82,0,1.2-.45,1.2-1.17v-1c0-.72-.37-1.16-1.2-1.16s-1.2.44-1.2,1.16v1c0,.74.38,1.17,1.2,1.17Z"/>
          <path class="cls-1" d="M75.4.15h4.5c2.63,0,3.92.97,3.92,3.52,0,2.41-1.19,3.67-3.59,3.67h-1.3v1.92h-3.53V.15ZM79.79,4.95c.5,0,.68-.27.68-.71v-.61c0-.46-.18-.67-.68-.67h-.86v1.99h.86Z"/>
          <path class="cls-1" d="M93.17,9.17l-.07.1h-3.71l-.9-2.28h-.56v2.28h-3.53V.15h4.68c2.71,0,3.96,1,3.96,3.33,0,1.26-.37,2.17-1.08,2.76l1.21,2.93ZM87.94,4.83h.9c.52,0,.67-.33.67-.76v-.45c0-.5-.2-.67-.68-.67h-.89v1.88Z"/>
          <path class="cls-1" d="M98.32,0c2.67,0,4.68,1.42,4.68,4.73,0,3.04-1.65,4.68-4.68,4.68s-4.68-1.68-4.68-4.68c0-3.31,1.99-4.73,4.68-4.73ZM98.32,6.37c.82,0,1.2-.45,1.2-1.17v-1c0-.72-.37-1.16-1.2-1.16s-1.2.44-1.2,1.16v1c0,.74.38,1.17,1.2,1.17Z"/>
          <path class="cls-1" d="M111.85,4.46v4.8h-2.32l-.5-.9h-.05c-.34.74-.91,1.02-1.84,1.02-2.31,0-3.52-1.51-3.52-4.52,0-3.48,1.55-4.84,5.44-4.84,1.12,0,2.18.1,2.67.18v2.91s-.04.04-.04.04c-.53-.04-1.27-.08-2.03-.08-.9,0-1.57.08-1.94.29-.4.22-.55.7-.55,1.3v.4c0,.61.12,1.1.42,1.28.2.14.56.19,1,.19.12,0,.25-.01.35-.03v-2.03h2.91Z"/>
          <path class="cls-1" d="M121.48,9.17l-.07.1h-3.71l-.9-2.28h-.56v2.28h-3.53V.15h4.68c2.71,0,3.96,1,3.96,3.33,0,1.26-.37,2.17-1.08,2.76l1.21,2.93ZM116.24,4.83h.9c.52,0,.67-.33.67-.76v-.45c0-.5-.2-.67-.68-.67h-.89v1.88Z"/>
          <path class="cls-1" d="M129.21,6.71v2.55h-7.12V.15h7.09v2.55h-3.56v.98h3.12v1.99h-3.12v1.04h3.59Z"/>
          <path class="cls-1" d="M134.6.03c1.19,0,2.11.11,2.54.18v2.43s-.07.05-.07.05c-.52-.04-1.43-.08-2.2-.08-1.36,0-1.58.15-1.58.44v.07c0,.25.1.33.93.42l1.01.12c1.54.19,2.43.97,2.43,2.51,0,2.18-.97,3.22-4.92,3.22-1.41,0-2.44-.11-2.82-.18v-2.5l.05-.05c.76.1,1.71.15,2.63.15,1.36,0,1.54-.14,1.54-.46v-.1c0-.26-.07-.35-1.16-.48l-1.05-.14c-1.3-.15-2.16-.86-2.16-2.51,0-1.99,1.1-3.1,4.83-3.1Z"/>
          <path class="cls-1" d="M143.05.03c1.19,0,2.11.11,2.54.18v2.43s-.07.05-.07.05c-.52-.04-1.43-.08-2.2-.08-1.36,0-1.58.15-1.58.44v.07c0,.25.1.33.93.42l1.01.12c1.54.19,2.43.97,2.43,2.51,0,2.18-.97,3.22-4.92,3.22-1.41,0-2.44-.11-2.82-.18v-2.5l.05-.05c.76.1,1.71.15,2.63.15,1.36,0,1.54-.14,1.54-.46v-.1c0-.26-.07-.35-1.16-.48l-1.05-.14c-1.3-.15-2.16-.86-2.16-2.51,0-1.99,1.1-3.1,4.83-3.1Z"/>
          <path class="cls-1" d="M150.38.15v9.11h-3.46V.15h3.46Z"/>
          <path class="cls-1" d="M150.99.15h3.61l.76,3.01c.05.18.37,2.18.48,3.06h.14c.11-.87.42-2.86.46-3.06l.78-3.01h3.62l.07.1-2.77,9.02h-4.46l-2.76-9.02.07-.1Z"/>
          <path class="cls-1" d="M165.38,0c2.67,0,4.68,1.42,4.68,4.73,0,3.04-1.65,4.68-4.68,4.68s-4.68-1.68-4.68-4.68c0-3.31,1.99-4.73,4.68-4.73ZM165.38,6.37c.82,0,1.2-.45,1.2-1.17v-1c0-.72-.37-1.16-1.2-1.16s-1.2.44-1.2,1.16v1c0,.74.38,1.17,1.2,1.17Z"/>
        </g>
        <g>
          <path class="cls-1" d="M.31,15.91c0-1.31.71-2.23,1.72-2.23s1.58.77,1.6,1.5l-.92.2c-.08-.46-.31-.87-.66-.87-.44,0-.75.47-.75,1.27,0,.89.32,1.35.86,1.4.46.03,1.14-.25,1.42-.37l-.08.92c-.47.2-.85.34-1.51.34-.98,0-1.67-.9-1.67-2.15Z"/>
          <path class="cls-1" d="M4.01,16.5c0-1.04.6-1.62,1.49-1.62s1.48.58,1.48,1.62-.6,1.56-1.48,1.56-1.49-.56-1.49-1.56ZM5.5,17.41c.34,0,.53-.37.53-.94s-.19-.94-.53-.94-.54.35-.54.94.19.94.54.94Z"/>
          <path class="cls-1" d="M8.97,15.53c-.22,0-.36.16-.46.33v2.11h-.92v-3h.92v.58c.19-.41.51-.68.9-.68.47,0,.82.29.93.77.17-.46.52-.77.94-.77.56,0,.97.41.97,1.09v2.01h-.92v-1.8c0-.37-.14-.64-.47-.64-.22,0-.37.17-.47.35v2.09h-.92v-1.8c0-.37-.14-.64-.48-.64Z"/>
          <path class="cls-1" d="M13.94,15.47c.19-.35.52-.59.91-.59.62,0,1.12.55,1.12,1.6s-.5,1.59-1.12,1.59c-.39,0-.72-.23-.91-.59v.5h-.95v-4.38h.95v1.87ZM14.45,17.44c.34,0,.58-.37.58-.97s-.25-.97-.58-.97c-.22,0-.38.17-.5.4v.94c.04.34.2.6.5.6Z"/>
          <path class="cls-1" d="M17.11,13.68c.3,0,.55.18.55.44s-.25.44-.55.44-.55-.18-.55-.44.25-.44.55-.44ZM17.57,14.97v3h-.92v-3h.92Z"/>
          <path class="cls-1" d="M19.83,15.53c-.23,0-.38.16-.49.34v2.1h-.92v-3h.92v.58c.19-.41.52-.68.92-.68.59,0,1,.41,1,1.09v2.01h-.92v-1.8c0-.37-.16-.64-.52-.64Z"/>
          <path class="cls-1" d="M23.45,17.28c.34.02.97-.16,1.22-.27l-.07.8c-.41.15-.96.26-1.31.26-.86,0-1.45-.56-1.45-1.56s.6-1.62,1.49-1.62c.8,0,1.34.58,1.34,1.58h-1.94c.02.55.25.79.71.82ZM23.83,16.16c-.05-.41-.2-.68-.5-.68s-.52.29-.58.68h1.08Z"/>
          <path class="cls-1" d="M26.39,16.5c0-1.04.6-1.62,1.49-1.62s1.48.58,1.48,1.62-.6,1.56-1.48,1.56-1.49-.56-1.49-1.56ZM27.88,17.41c.34,0,.53-.37.53-.94s-.19-.94-.53-.94-.54.35-.54.94.19.94.54.94Z"/>
          <path class="cls-1" d="M30.99,15.49c-.23,0-.37.08-.37.23,0,.18.34.3.74.43.64.2.95.53.95.97,0,.6-.46.96-1.24.96-.41,0-.82-.1-1.25-.31l.06-.7c.55.31.89.4,1.25.4.26,0,.38-.09.38-.26,0-.18-.31-.31-.79-.47-.58-.19-.89-.49-.89-.92,0-.57.4-.92,1.1-.92.46,0,.85.13,1.23.33l-.07.69c-.42-.26-.82-.41-1.11-.41Z"/>
          <path class="cls-1" d="M34.64,13.68c.3,0,.55.18.55.44s-.25.44-.55.44-.55-.18-.55-.44.25-.44.55-.44ZM35.1,14.97v3h-.92v-3h.92Z"/>
          <path class="cls-1" d="M36.07,14.97v-.5s.92-.62.92-.62v1.13h.88v.38h-.88v1.61c0,.47.41.37.85.18l-.07.8s-.45.13-.79.13c-.59,0-.93-.38-.92-1.03l.02-1.69h-.43v-.38h.43Z"/>
          <path class="cls-1" d="M39.72,17.28c.34.02.97-.16,1.22-.27l-.07.8c-.41.15-.96.26-1.31.26-.86,0-1.45-.56-1.45-1.56s.6-1.62,1.49-1.62c.8,0,1.34.58,1.34,1.58h-1.94c.02.55.25.79.71.82ZM40.1,16.16c-.05-.41-.2-.68-.5-.68s-.52.29-.58.68h1.08Z"/>
          <path class="cls-1" d="M42.99,15.53c-.23,0-.38.16-.49.34v2.1h-.92v-3h.92v.58c.19-.41.52-.68.92-.68.59,0,1,.41,1,1.09v2.01h-.92v-1.8c0-.37-.16-.64-.52-.64Z"/>
          <path class="cls-1" d="M46.17,15.49c-.23,0-.37.08-.37.23,0,.18.34.3.74.43.64.2.95.53.95.97,0,.6-.46.96-1.24.96-.41,0-.82-.1-1.25-.31l.06-.7c.55.31.89.4,1.25.4.26,0,.38-.09.38-.26,0-.18-.31-.31-.79-.47-.58-.19-.89-.49-.89-.92,0-.57.4-.92,1.1-.92.46,0,.85.13,1.23.33l-.07.69c-.42-.26-.82-.41-1.11-.41Z"/>
          <path class="cls-1" d="M51.18,17.48c-.19.37-.52.59-.91.59-.62,0-1.12-.55-1.12-1.59s.5-1.6,1.12-1.6c.4,0,.72.24.91.59v-.49h.89v4.2h-.89v-1.7ZM50.67,17.44c.3,0,.47-.26.5-.6v-.94c-.12-.23-.28-.4-.5-.4-.34,0-.58.37-.58.97s.25.97.58.97Z"/>
          <path class="cls-1" d="M54.23,17.42c.23,0,.38-.16.49-.34v-2.1h.92v3h-.92v-.58c-.19.41-.52.68-.92.68-.59,0-1-.41-1-1.08v-2.01h.92v1.8c0,.37.16.64.52.64Z"/>
          <path class="cls-1" d="M57.86,17.28c.34.02.97-.16,1.22-.27l-.07.8c-.41.15-.96.26-1.31.26-.86,0-1.45-.56-1.45-1.56s.6-1.62,1.49-1.62c.8,0,1.34.58,1.34,1.58h-1.94c.02.55.25.79.71.82ZM58.24,16.16c-.05-.41-.2-.68-.5-.68s-.52.29-.58.68h1.08Z"/>
          <path class="cls-1" d="M61.43,17.97l-.85-3h.95l.58,2.46.58-2.46h.91l-.85,3h-1.33Z"/>
          <path class="cls-1" d="M63.86,16.5c0-1.04.6-1.62,1.49-1.62s1.48.58,1.48,1.62-.6,1.56-1.48,1.56-1.49-.56-1.49-1.56ZM65.34,17.41c.34,0,.53-.37.53-.94s-.19-.94-.53-.94-.54.35-.54.94.19.94.54.94Z"/>
          <path class="cls-1" d="M68.79,15.54c-.37,0-.59.32-.59.86s.22.82.63.86c.37.04.85-.13,1.2-.26l-.07.81c-.41.15-.87.26-1.21.26-.86,0-1.45-.56-1.45-1.56s.6-1.62,1.47-1.62c.71,0,1.25.46,1.25,1.11l-.82.23s0-.68-.42-.68Z"/>
          <path class="cls-1" d="M72.04,17.28c.34.02.97-.16,1.22-.27l-.07.8c-.41.15-.96.26-1.31.26-.86,0-1.45-.56-1.45-1.56s.6-1.62,1.49-1.62c.8,0,1.34.58,1.34,1.58h-1.94c.02.55.25.79.71.82ZM71.49,13.44h.83l.59.94h-.6l-.4-.68-.4.68h-.6l.59-.94ZM72.42,16.16c-.05-.41-.2-.68-.5-.68s-.52.29-.58.68h1.08Z"/>
          <path class="cls-1" d="M77.03,17.46c-.19.37-.53.61-.92.61-.62,0-1.12-.55-1.12-1.59s.5-1.6,1.12-1.6c.4,0,.73.24.92.6v-.5h.92v3h-.92v-.51ZM76.52,17.44c.34,0,.51-.33.51-.73v-.8c-.13-.23-.28-.41-.51-.41-.34,0-.58.37-.58.97s.25.97.58.97Z"/>
          <path class="cls-1" d="M80.1,15.53c-.22,0-.36.16-.46.33v2.11h-.92v-3h.92v.58c.19-.41.51-.68.9-.68.47,0,.82.29.93.77.17-.46.52-.77.94-.77.56,0,.97.41.97,1.09v2.01h-.92v-1.8c0-.37-.14-.64-.47-.64-.22,0-.37.17-.47.35v2.09h-.92v-1.8c0-.37-.14-.64-.48-.64Z"/>
          <path class="cls-1" d="M86,17.46c-.19.37-.53.61-.92.61-.62,0-1.12-.55-1.12-1.59s.5-1.6,1.12-1.6c.4,0,.73.24.92.6v-.5h.92v3h-.92v-.51ZM85.49,17.44c.34,0,.51-.33.51-.73v-.8c-.13-.23-.28-.41-.51-.41-.34,0-.58.37-.58.97s.25.97.58.97Z"/>
          <path class="cls-1" d="M90.34,17.28c.34.02.97-.16,1.22-.27l-.07.8c-.41.15-.96.26-1.31.26-.86,0-1.45-.56-1.45-1.56s.6-1.62,1.49-1.62c.8,0,1.34.58,1.34,1.58h-1.94c.02.55.25.79.71.82ZM90.72,16.16c-.05-.41-.2-.68-.5-.68s-.52.29-.58.68h1.08Z"/>
          <path class="cls-1" d="M95.33,17.46c-.19.37-.53.61-.92.61-.62,0-1.12-.55-1.12-1.59s.5-1.6,1.12-1.6c.4,0,.73.24.92.6v-.5h.91v3.12c0,.92-.58,1.44-1.43,1.44-.68,0-1.31-.26-1.31-.26l-.08-.83c.05.02.85.31,1.33.29.43-.02.58-.32.58-.73v-.55ZM94.82,17.44c.34,0,.51-.33.51-.73v-.8c-.13-.23-.28-.41-.51-.41-.34,0-.58.37-.58.97s.25.97.58.97Z"/>
          <path class="cls-1" d="M98.87,17.46c-.19.37-.53.61-.92.61-.62,0-1.12-.55-1.12-1.59s.5-1.6,1.12-1.6c.4,0,.73.24.92.6v-.5h.92v3h-.92v-.51ZM98.36,17.44c.34,0,.51-.33.51-.73v-.8c-.13-.23-.28-.41-.51-.41-.34,0-.58.37-.58.97s.25.97.58.97Z"/>
          <path class="cls-1" d="M101.97,15.53c-.23,0-.38.16-.49.34v2.1h-.92v-3h.92v.58c.19-.41.52-.68.92-.68.59,0,1,.41,1,1.09v2.01h-.92v-1.8c0-.37-.16-.64-.52-.64Z"/>
          <path class="cls-1" d="M105.57,15.53c-.23,0-.38.16-.49.34v2.1h-.92v-4.38h.92v1.96c.19-.41.52-.68.92-.68.59,0,1,.41,1,1.09v2.01h-.92v-1.8c0-.37-.16-.64-.52-.64Z"/>
          <path class="cls-1" d="M109.19,17.28c.34.02.97-.16,1.22-.27l-.07.8c-.41.15-.96.26-1.31.26-.86,0-1.45-.56-1.45-1.56s.6-1.62,1.49-1.62c.8,0,1.34.58,1.34,1.58h-1.94c.02.55.25.79.71.82ZM109.57,16.16c-.05-.41-.2-.68-.5-.68s-.52.29-.58.68h1.08Z"/>
          <path class="cls-1" d="M114.18,17.46c-.19.37-.53.61-.92.61-.62,0-1.12-.55-1.12-1.59s.5-1.6,1.12-1.6c.4,0,.73.24.92.6v-.5h.92v3h-.92v-.51ZM113.67,17.44c.34,0,.51-.33.51-.73v-.8c-.13-.23-.28-.41-.51-.41-.34,0-.58.37-.58.97s.25.97.58.97Z"/>
          <path class="cls-1" d="M116.01,14.97v-.5s.92-.62.92-.62v1.13h.88v.38h-.88v1.61c0,.47.41.37.85.18l-.07.8s-.45.13-.79.13c-.59,0-.93-.38-.92-1.03l.02-1.69h-.43v-.38h.43Z"/>
          <path class="cls-1" d="M119.65,17.28c.34.02.97-.16,1.22-.27l-.07.8c-.41.15-.96.26-1.31.26-.86,0-1.45-.56-1.45-1.56s.6-1.62,1.49-1.62c.8,0,1.34.58,1.34,1.58h-1.94c.02.55.25.79.71.82ZM119.7,13.5h.76l-.94.91h-.65l.83-.91ZM120.04,16.16c-.05-.41-.2-.68-.5-.68s-.52.29-.58.68h1.08Z"/>
          <path class="cls-1" d="M124.78,15.05c0-.34-.22-.53-.53-.53-.41,0-.64.41-.71.87l-.92-.2c.02-.74.56-1.5,1.6-1.5.95,0,1.54.52,1.54,1.25,0,.89-1.14,1.46-2.24,2.22h2.21v.82h-3.04v-.82c1.28-.98,2.09-1.47,2.09-2.1Z"/>
          <path class="cls-1" d="M126.29,15.9c0-1.31.73-2.22,1.67-2.22s1.66.91,1.66,2.22-.68,2.16-1.66,2.16-1.67-.82-1.67-2.16ZM127.96,17.25c.41,0,.68-.51.68-1.39s-.27-1.37-.68-1.37-.68.5-.68,1.37.27,1.39.68,1.39Z"/>
          <path class="cls-1" d="M130.98,13.69c.64,0,1.03.38,1.03.96s-.38.92-1.03.92-1.04-.33-1.04-.92.38-.96,1.04-.96ZM133.77,13.77l-2.69,4.2h-.61l2.69-4.2h.61ZM130.98,15.08c.22,0,.32-.17.32-.46,0-.25-.1-.46-.32-.46s-.32.21-.32.46c0,.29.1.46.32.46ZM133.25,16.17c.65,0,1.03.38,1.03.96s-.39.92-1.03.92-1.03-.34-1.03-.92.38-.96,1.03-.96ZM133.25,17.56c.22,0,.32-.17.32-.46,0-.25-.1-.46-.32-.46s-.32.21-.32.46c0,.29.1.46.32.46Z"/>
          <path class="cls-1" d="M138.97,13.6v4.38h-.95v-.5c-.19.37-.52.59-.91.59-.62,0-1.12-.55-1.12-1.59s.5-1.6,1.12-1.6c.4,0,.72.24.91.59v-1.87h.95ZM137.52,17.44c.3,0,.47-.26.5-.6v-.94c-.12-.23-.28-.4-.5-.4-.34,0-.58.37-.58.97s.25.97.58.97Z"/>
          <path class="cls-1" d="M141.2,17.28c.34.02.97-.16,1.22-.27l-.07.8c-.41.15-.96.26-1.31.26-.86,0-1.45-.56-1.45-1.56s.6-1.62,1.49-1.62c.8,0,1.34.58,1.34,1.58h-1.94c.02.55.25.79.71.82ZM141.58,16.16c-.05-.41-.2-.68-.5-.68s-.52.29-.58.68h1.08Z"/>
          <path class="cls-1" d="M147.13,13.6v4.38h-.95v-.5c-.19.37-.52.59-.91.59-.62,0-1.12-.55-1.12-1.59s.5-1.6,1.12-1.6c.4,0,.72.24.91.59v-1.87h.95ZM145.68,17.44c.3,0,.47-.26.5-.6v-.94c-.12-.23-.28-.4-.5-.4-.33,0-.58.37-.58.97s.25.97.58.97Z"/>
          <path class="cls-1" d="M149.35,17.28c.34.02.97-.16,1.22-.27l-.07.8c-.41.15-.96.26-1.31.26-.86,0-1.45-.56-1.45-1.56s.6-1.62,1.49-1.62c.8,0,1.34.58,1.34,1.58h-1.94c.02.55.25.79.71.82ZM149.74,16.16c-.05-.41-.2-.68-.5-.68s-.52.29-.58.68h1.08Z"/>
          <path class="cls-1" d="M152.22,15.49c-.23,0-.37.08-.37.23,0,.18.34.3.74.43.64.2.95.53.95.97,0,.6-.46.96-1.24.96-.41,0-.82-.1-1.25-.31l.06-.7c.54.31.89.4,1.25.4.26,0,.38-.09.38-.26,0-.18-.31-.31-.79-.47-.58-.19-.89-.49-.89-.92,0-.57.4-.92,1.1-.92.46,0,.85.13,1.23.33l-.07.69c-.42-.26-.82-.41-1.11-.41Z"/>
          <path class="cls-1" d="M155.45,15.54c-.37,0-.59.32-.59.86s.22.82.63.86c.37.04.85-.13,1.2-.26l-.07.81c-.41.15-.87.26-1.21.26-.86,0-1.45-.56-1.45-1.56s.6-1.62,1.47-1.62c.71,0,1.25.46,1.25,1.11l-.82.23s0-.68-.42-.68Z"/>
          <path class="cls-1" d="M157.09,16.5c0-1.04.6-1.62,1.49-1.62s1.48.58,1.48,1.62-.6,1.56-1.48,1.56-1.49-.56-1.49-1.56ZM158.58,17.41c.34,0,.53-.37.53-.94s-.19-.94-.53-.94-.54.35-.54.94.19.94.54.94Z"/>
          <path class="cls-1" d="M162.1,15.53c-.23,0-.38.16-.49.34v2.1h-.92v-3h.92v.58c.19-.41.52-.68.92-.68.59,0,1,.41,1,1.09v2.01h-.92v-1.8c0-.37-.16-.64-.52-.64Z"/>
          <path class="cls-1" d="M164.36,14.97v-.5s.92-.62.92-.62v1.13h.88v.38h-.88v1.61c0,.47.41.37.84.18l-.07.8s-.45.13-.79.13c-.59,0-.93-.38-.92-1.03l.02-1.69h-.43v-.38h.43Z"/>
          <path class="cls-1" d="M166.41,16.5c0-1.04.6-1.62,1.49-1.62s1.48.58,1.48,1.62-.6,1.56-1.48,1.56-1.49-.56-1.49-1.56ZM167.9,17.41c.34,0,.53-.37.53-.94s-.19-.94-.53-.94-.54.35-.54.94.19.94.54.94Z"/>
          <path class="cls-1" d="M169.61,17.62c0-.26.24-.44.54-.44s.55.18.55.44-.25.44-.55.44-.54-.18-.54-.44Z"/>
        </g>
      </g>
      <g>
        <path class="cls-2" d="M272.47,28.07c1.67,0,3.03,1.36,3.03,3.03v44.26c0,1.67-1.36,3.03-3.03,3.03H3.53c-1.67,0-3.03-1.36-3.03-3.03V31.11c0-1.67,1.36-3.03,3.03-3.03h268.93M272.47,27.57H3.53c-1.95,0-3.53,1.58-3.53,3.53v44.26c0,1.95,1.58,3.53,3.53,3.53h268.93c1.95,0,3.53-1.58,3.53-3.53V31.11c0-1.95-1.58-3.53-3.53-3.53h0Z"/>
        <g>
          <g>
            <g>
              <path class="cls-1" d="M186.25,59.87v2.38h-.71v-1.12c-.21.79-.72,1.23-1.48,1.23-.99,0-1.79-1.06-1.79-2.51,0-1.53.86-2.61,2.02-2.61,1.28,0,1.87.8,1.9,1.58l-.82.18c-.12-.63-.5-.96-1.05-.96-.74,0-1.17.64-1.17,1.69,0,1.16.36,1.82,1.12,1.86.61.04,1.04-.71,1.14-1.28h-.95v-.44h1.79Z"/>
              <path class="cls-1" d="M189.49,61.72c-.24.39-.63.64-1.06.64-.73,0-1.3-.64-1.3-1.86s.57-1.86,1.3-1.86c.44,0,.82.26,1.06.63v-.52h.87v3.5h-.87v-.53ZM188.81,61.79c.45,0,.69-.47.69-1.02v-.97c-.16-.35-.38-.61-.69-.61-.46,0-.78.49-.78,1.3s.33,1.3.78,1.3Z"/>
              <path class="cls-1" d="M192.81,59.26c-.32,0-.51.23-.64.48v2.51h-.87v-3.5h.87v.63c.23-.45.59-.74,1.04-.74.68,0,1.14.47,1.14,1.25v2.37h-.87v-2.15c0-.46-.19-.84-.68-.84Z"/>
              <path class="cls-1" d="M196.81,59.26c-.32,0-.51.23-.64.48v2.51h-.87v-5.11h.87v2.24c.23-.45.59-.74,1.04-.74.68,0,1.14.47,1.14,1.25v2.37h-.87v-2.15c0-.46-.19-.84-.68-.84Z"/>
              <path class="cls-1" d="M200.9,61.6c.32.02.9-.15,1.31-.32l-.07.78c-.48.17-1.08.3-1.42.3-.9,0-1.58-.66-1.58-1.83s.7-1.89,1.63-1.89c.83,0,1.46.67,1.46,1.84h-2.25c.02.76.32,1.08.92,1.12ZM201.36,60.15c-.06-.51-.24-.92-.63-.92s-.66.43-.73.92h1.36Z"/>
              <path class="cls-1" d="M206.82,58.69c0-.41-.3-.66-.73-.66-.5,0-.84.38-.97,1.05l-.82-.18c.03-.78.62-1.67,1.73-1.67,1.04,0,1.69.59,1.69,1.42,0,.97-1.29,1.75-2.54,2.78h2.52v.82h-3.31v-.82c1.63-1.4,2.43-2.02,2.43-2.74Z"/>
              <path class="cls-1" d="M208.45,59.83c0-1.51.78-2.6,1.81-2.6s1.81,1.09,1.81,2.6-.78,2.52-1.81,2.52c-1.11,0-1.81-.95-1.81-2.52ZM210.26,61.55c.58,0,.92-.67.92-1.77s-.35-1.75-.92-1.75-.92.67-.92,1.75.35,1.77.92,1.77Z"/>
              <path class="cls-1" d="M213.64,57.23c.68,0,1.11.42,1.11,1.05s-.43,1.01-1.11,1.01-1.11-.37-1.11-1.01.43-1.05,1.11-1.05ZM216.76,57.34l-3.15,4.9h-.71l3.14-4.9h.71ZM213.64,58.78c.26,0,.37-.2.37-.53,0-.29-.11-.53-.37-.53s-.38.25-.38.53c0,.34.11.53.38.53ZM216.02,60.31c.68,0,1.11.42,1.11,1.05s-.43,1.01-1.11,1.01-1.11-.37-1.11-1.01.43-1.05,1.11-1.05ZM216.02,61.86c.26,0,.37-.2.37-.53,0-.29-.11-.53-.37-.53s-.38.25-.38.53c0,.34.11.53.38.53Z"/>
              <path class="cls-1" d="M222.41,57.13v5.11h-.87v-.53c-.24.39-.63.64-1.06.64-.73,0-1.3-.64-1.3-1.86s.57-1.86,1.3-1.86c.44,0,.82.26,1.06.63v-2.13h.87ZM220.85,61.79c.45,0,.69-.47.69-1.02v-.97c-.16-.35-.38-.61-.69-.61-.46,0-.78.49-.78,1.3s.33,1.3.78,1.3Z"/>
              <path class="cls-1" d="M224.99,61.6c.32.02.9-.15,1.31-.32l-.07.78c-.48.17-1.08.3-1.42.3-.9,0-1.58-.66-1.58-1.83s.7-1.89,1.63-1.89c.83,0,1.46.67,1.46,1.84h-2.25c.02.76.32,1.08.92,1.12ZM225.45,60.15c-.06-.51-.24-.92-.63-.92s-.66.43-.73.92h1.36Z"/>
              <path class="cls-1" d="M231.6,57.13v5.11h-.87v-.53c-.24.39-.63.64-1.06.64-.73,0-1.3-.64-1.3-1.86s.57-1.86,1.3-1.86c.44,0,.82.26,1.06.63v-2.13h.87ZM230.04,61.79c.45,0,.69-.47.69-1.02v-.97c-.16-.35-.38-.61-.69-.61-.46,0-.78.49-.78,1.3s.33,1.3.78,1.3Z"/>
              <path class="cls-1" d="M234.18,61.6c.32.02.9-.15,1.31-.32l-.07.78c-.48.17-1.08.3-1.42.3-.9,0-1.58-.66-1.58-1.83s.7-1.89,1.63-1.89c.83,0,1.46.67,1.46,1.84h-2.25c.02.76.32,1.08.92,1.12ZM234.64,60.15c-.06-.51-.24-.92-.63-.92s-.66.43-.73.92h1.36Z"/>
              <path class="cls-1" d="M237.38,59.31c-.3,0-.49.12-.49.32,0,.24.43.41.86.55.73.24,1.1.62,1.1,1.13,0,.65-.53,1.05-1.35,1.05-.38,0-.85-.12-1.36-.34l.07-.76c.67.3.94.44,1.43.44.32,0,.48-.13.48-.36s-.33-.41-.88-.59c-.72-.24-1.09-.6-1.09-1.07,0-.64.45-1.02,1.18-1.02.51,0,.9.15,1.34.36l-.08.76c-.44-.27-.87-.46-1.23-.46Z"/>
              <path class="cls-1" d="M241.07,59.3c-.5,0-.81.42-.81,1.11,0,.73.27,1.12.81,1.18.41.05.77-.1,1.34-.32l-.07.78c-.46.17-.93.3-1.32.3-.9,0-1.58-.66-1.58-1.83s.7-1.89,1.63-1.89c.7,0,1.34.54,1.34,1.19l-.75.27s-.02-.8-.59-.8Z"/>
              <path class="cls-1" d="M242.96,60.52c0-1.21.69-1.89,1.6-1.89s1.6.68,1.6,1.89-.69,1.83-1.6,1.83-1.6-.66-1.6-1.83ZM244.57,61.69c.46,0,.72-.48.72-1.2s-.26-1.19-.72-1.19-.72.46-.72,1.19.26,1.2.72,1.2Z"/>
              <path class="cls-1" d="M248.54,59.26c-.32,0-.51.23-.64.48v2.51h-.87v-3.5h.87v.63c.23-.45.59-.74,1.04-.74.68,0,1.14.47,1.14,1.25v2.37h-.87v-2.15c0-.46-.19-.84-.68-.84Z"/>
              <path class="cls-1" d="M251.11,58.75v-.64s.86-.63.86-.63v1.27h1.01v.37h-1.01v2.12c0,.54.48.42.97.21l-.07.79c-.06.02-.53.13-.81.13-.61,0-.98-.37-.97-.99l.02-2.26h-.47v-.37h.47Z"/>
              <path class="cls-1" d="M253.34,60.52c0-1.21.69-1.89,1.6-1.89s1.6.68,1.6,1.89-.69,1.83-1.6,1.83-1.6-.66-1.6-1.83ZM254.94,61.69c.46,0,.72-.48.72-1.2s-.26-1.19-.72-1.19-.72.46-.72,1.19.26,1.2.72,1.2Z"/>
              <path class="cls-1" d="M203.96,63.66v-.37h52.91v.37h-52.91Z"/>
              <path class="cls-1" d="M182.27,68.24c0-1.53.81-2.61,1.89-2.61s1.71.89,1.74,1.67l-.82.18c-.13-.67-.46-1.05-.9-1.05-.61,0-1.03.64-1.03,1.67,0,1.16.41,1.79,1.14,1.85.49.04,1.13-.29,1.56-.47l-.08.87c-.57.24-.99.41-1.7.41-1.03,0-1.81-1.05-1.81-2.51Z"/>
              <path class="cls-1" d="M186.44,68.92c0-1.21.69-1.89,1.6-1.89s1.6.68,1.6,1.89-.69,1.83-1.6,1.83-1.6-.66-1.6-1.83ZM188.04,70.09c.46,0,.72-.48.72-1.2s-.26-1.19-.72-1.19-.72.46-.72,1.19.26,1.2.72,1.2Z"/>
              <path class="cls-1" d="M191.93,67.66c-.3,0-.48.23-.6.48v2.51h-.87v-3.5h.87v.62c.22-.44.57-.74,1.01-.74.53,0,.93.32,1.06.86.22-.51.6-.86,1.06-.86.64,0,1.11.47,1.11,1.25v2.37h-.87v-2.15c0-.46-.19-.84-.64-.84-.31,0-.5.25-.62.51v2.48h-.87v-2.15c0-.46-.19-.84-.64-.84Z"/>
              <path class="cls-1" d="M196.52,72.05v-4.9h.8v.52c.24-.37.62-.63,1.06-.63.73,0,1.29.64,1.29,1.86s-.57,1.86-1.29,1.86c-.43,0-.82-.25-1.06-.64v1.93h-.8ZM198,70.19c.46,0,.79-.49.79-1.3s-.33-1.3-.79-1.3c-.31,0-.52.26-.69.61v.97c0,.55.24,1.02.69,1.02Z"/>
              <path class="cls-1" d="M201.34,68.31v2.34h-.85v-3.5h.85v.72c.25-.43.64-.72,1.13-.72l-.07.83c-.49-.34-.84-.06-1.06.34Z"/>
              <path class="cls-1" d="M205.19,70.12c-.24.39-.63.64-1.06.64-.73,0-1.3-.64-1.3-1.86s.57-1.86,1.3-1.86c.44,0,.82.26,1.06.63v-.52h.87v3.5h-.87v-.53ZM204.51,70.19c.45,0,.69-.47.69-1.02v-.97c-.16-.35-.38-.61-.69-.61-.46,0-.78.49-.78,1.3s.33,1.3.78,1.3Z"/>
              <path class="cls-1" d="M208.51,67.66c-.32,0-.51.23-.64.48v2.51h-.87v-3.5h.87v.63c.23-.45.59-.74,1.04-.74.68,0,1.14.47,1.14,1.25v2.37h-.87v-2.15c0-.46-.19-.84-.68-.84Z"/>
              <path class="cls-1" d="M214.06,65.54v5.11h-.87v-.53c-.24.39-.63.64-1.06.64-.73,0-1.3-.64-1.3-1.86s.57-1.86,1.3-1.86c.44,0,.82.26,1.06.63v-2.13h.87ZM212.51,70.19c.45,0,.69-.47.69-1.02v-.97c-.16-.35-.38-.61-.69-.61-.46,0-.78.49-.78,1.3s.33,1.3.78,1.3Z"/>
              <path class="cls-1" d="M214.9,68.92c0-1.21.69-1.89,1.6-1.89s1.6.68,1.6,1.89-.69,1.83-1.6,1.83-1.6-.66-1.6-1.83ZM216.5,70.09c.46,0,.72-.48.72-1.2s-.26-1.19-.72-1.19-.72.46-.72,1.19.26,1.2.72,1.2Z"/>
              <path class="cls-1" d="M220.17,69.55l.74-.27c.06.37.51.69,1.03.69s.85-.34.85-.9c0-.61-.43-.98-1.13-.98-.4,0-.81.08-1.21.25l.22-2.59h2.86v.82h-2.13l-.09,1.06c.23-.06.46-.09.67-.09,1.05,0,1.69.61,1.69,1.6s-.73,1.64-1.72,1.64c-1.2,0-1.74-.74-1.79-1.22Z"/>
              <path class="cls-1" d="M226.51,65.63c.29,0,.53.2.53.48s-.24.48-.53.48-.53-.2-.53-.48.24-.48.53-.48ZM226.94,67.15v3.5h-.87v-3.5h.87Z"/>
              <path class="cls-1" d="M228.14,67.15v-.64s.86-.63.86-.63v1.27h1.01v.37h-1.01v2.12c0,.54.48.42.97.21l-.07.79c-.06.02-.53.13-.81.13-.61,0-.98-.37-.97-.99l.02-2.26h-.47v-.37h.47Z"/>
              <path class="cls-1" d="M232.13,70c.32.02.9-.15,1.31-.32l-.07.78c-.48.17-1.08.3-1.42.3-.9,0-1.58-.66-1.58-1.83s.7-1.89,1.63-1.89c.83,0,1.46.67,1.46,1.84h-2.25c.02.76.32,1.08.92,1.12ZM232.59,68.55c-.06-.51-.24-.92-.63-.92s-.66.43-.73.92h1.36Z"/>
              <path class="cls-1" d="M235.78,67.66c-.32,0-.51.23-.64.48v2.51h-.87v-3.5h.87v.63c.23-.45.59-.74,1.04-.74.68,0,1.14.47,1.14,1.25v2.37h-.87v-2.15c0-.46-.19-.84-.68-.84Z"/>
              <path class="cls-1" d="M239.33,67.71c-.3,0-.49.12-.49.32,0,.24.43.41.86.55.73.24,1.1.62,1.1,1.13,0,.65-.53,1.05-1.35,1.05-.38,0-.85-.12-1.36-.34l.07-.76c.67.3.94.44,1.43.44.32,0,.48-.13.48-.36s-.33-.41-.88-.59c-.72-.24-1.09-.6-1.09-1.07,0-.64.45-1.02,1.18-1.02.51,0,.9.15,1.34.36l-.08.76c-.44-.27-.87-.46-1.23-.46Z"/>
              <path class="cls-1" d="M242.79,68.92c0-1.21.69-1.89,1.6-1.89s1.6.68,1.6,1.89-.69,1.83-1.6,1.83-1.6-.66-1.6-1.83ZM244.39,70.09c.46,0,.72-.48.72-1.2s-.26-1.19-.72-1.19-.72.46-.72,1.19.26,1.2.72,1.2Z"/>
              <path class="cls-1" d="M248.33,70.14c.32,0,.51-.23.64-.48v-2.51h.87v3.5h-.87v-.63c-.23.45-.59.74-1.04.74-.68,0-1.14-.47-1.14-1.25v-2.37h.87v2.15c0,.46.19.84.68.84Z"/>
              <path class="cls-1" d="M253.68,67.66c-.3,0-.48.23-.6.48v2.51h-.87v-3.5h.87v.62c.22-.44.57-.74,1.01-.74.53,0,.93.32,1.06.86.22-.51.6-.86,1.06-.86.64,0,1.11.47,1.11,1.25v2.37h-.87v-2.15c0-.46-.19-.84-.64-.84-.31,0-.5.25-.62.51v2.48h-.87v-2.15c0-.46-.19-.84-.64-.84Z"/>
              <path class="cls-1" d="M260.46,70.12c-.24.39-.63.64-1.06.64-.73,0-1.3-.64-1.3-1.86s.57-1.86,1.3-1.86c.44,0,.82.26,1.06.63v-.52h.87v3.5h-.87v-.53ZM259.77,70.19c.45,0,.69-.47.69-1.02v-.97c-.16-.35-.38-.61-.69-.61-.46,0-.78.49-.78,1.3s.33,1.3.78,1.3Z"/>
              <path class="cls-1" d="M262.75,65.63c.29,0,.53.2.53.48s-.24.48-.53.48-.53-.2-.53-.48.24-.48.53-.48ZM263.18,67.15v3.5h-.87v-3.5h.87Z"/>
              <path class="cls-1" d="M265.29,67.71c-.3,0-.49.12-.49.32,0,.24.43.41.86.55.73.24,1.1.62,1.1,1.13,0,.65-.53,1.05-1.35,1.05-.38,0-.85-.12-1.36-.34l.07-.76c.67.3.94.44,1.43.44.32,0,.48-.13.48-.36s-.33-.41-.88-.59c-.72-.24-1.09-.6-1.09-1.07,0-.64.45-1.02,1.18-1.02.51,0,.9.15,1.34.36l-.08.76c-.44-.27-.87-.46-1.23-.46Z"/>
              <path class="cls-1" d="M267.2,70.27c0-.28.24-.48.53-.48s.53.2.53.48-.24.48-.53.48-.53-.2-.53-.48Z"/>
            </g>
            <g>
              <rect class="cls-3" x="146.87" y="59.39" width="29.55" height="9.99" rx="4.99" ry="4.99"/>
              <g>
                <path class="cls-1" d="M159.21,65.56v1.33h-3.78v-1.33l1.38-1.02c.49-.37.69-.59.69-.88v-.09c0-.25-.21-.44-.86-.44-.41,0-.86.07-1.08.14l-.03-.02v-1.27c.34-.09.95-.19,1.46-.19,1.52,0,2.15.51,2.15,1.62,0,.79-.41,1.19-.68,1.41l-.57.44c-.1.08-.31.22-.41.27v.03h1.73Z"/>
                <path class="cls-1" d="M161.57,61.8c1.07,0,1.94.56,1.94,2.62,0,1.92-.78,2.56-1.94,2.56s-1.94-.66-1.94-2.56c0-2.06.88-2.62,1.94-2.62ZM161.57,65.57c.37,0,.51-.2.51-.78v-.81c0-.59-.15-.78-.51-.78s-.5.2-.5.78v.81c0,.59.14.78.5.78Z"/>
                <path class="cls-1" d="M167.85,61.88l-3.23,5.01h-.86l3.23-5.01h.86ZM164.83,61.8c.52,0,.98.29.98,1.15,0,.77-.41,1.11-.98,1.11s-.98-.35-.98-1.11c0-.86.47-1.15.98-1.15ZM164.83,63.34c.14,0,.22-.11.22-.35v-.13c0-.24-.07-.34-.22-.34s-.22.1-.22.34v.13c0,.25.08.35.22.35ZM166.79,64.71c.53,0,.98.29.98,1.14,0,.77-.41,1.11-.98,1.11s-.98-.34-.98-1.11c0-.86.46-1.14.98-1.14ZM166.79,66.24c.14,0,.23-.1.23-.34v-.14c0-.23-.08-.34-.23-.34s-.23.11-.23.34v.14c0,.24.08.34.23.34Z"/>
              </g>
            </g>
          </g>
          <g>
            <g>
              <path class="cls-1" d="M46.43,59.87v2.38h-.71v-1.12c-.21.79-.72,1.23-1.48,1.23-.99,0-1.79-1.06-1.79-2.51,0-1.53.86-2.61,2.02-2.61,1.28,0,1.87.8,1.9,1.58l-.82.18c-.12-.63-.5-.96-1.05-.96-.74,0-1.17.64-1.17,1.69,0,1.16.36,1.82,1.12,1.86.61.04,1.04-.71,1.14-1.28h-.95v-.44h1.79Z"/>
              <path class="cls-1" d="M49.67,61.72c-.24.39-.63.64-1.06.64-.73,0-1.3-.64-1.3-1.86s.57-1.86,1.3-1.86c.44,0,.82.26,1.06.63v-.52h.87v3.5h-.87v-.53ZM48.98,61.79c.45,0,.69-.47.69-1.02v-.97c-.16-.35-.38-.61-.69-.61-.46,0-.78.49-.78,1.3s.33,1.3.78,1.3Z"/>
              <path class="cls-1" d="M52.99,59.26c-.32,0-.51.23-.64.48v2.51h-.87v-3.5h.87v.63c.23-.45.59-.74,1.04-.74.68,0,1.14.47,1.14,1.25v2.37h-.87v-2.15c0-.46-.19-.84-.68-.84Z"/>
              <path class="cls-1" d="M56.98,59.26c-.32,0-.51.23-.64.48v2.51h-.87v-5.11h.87v2.24c.23-.45.59-.74,1.04-.74.68,0,1.14.47,1.14,1.25v2.37h-.87v-2.15c0-.46-.19-.84-.68-.84Z"/>
              <path class="cls-1" d="M61.08,61.6c.32.02.9-.15,1.31-.32l-.07.78c-.48.17-1.08.3-1.42.3-.9,0-1.58-.66-1.58-1.83s.7-1.89,1.63-1.89c.83,0,1.46.67,1.46,1.84h-2.25c.02.76.32,1.08.92,1.12ZM61.54,60.15c-.06-.51-.24-.92-.63-.92s-.66.43-.73.92h1.36Z"/>
              <path class="cls-1" d="M65.38,58.32c-.29.18-.64.31-1.04.31l-.04-.35c.41-.06.99-.18,1.35-.93h.59v4.9h-.87v-3.93Z"/>
              <path class="cls-1" d="M67.15,61.15l.74-.27c.06.37.51.69,1.03.69s.85-.34.85-.9c0-.61-.43-.98-1.13-.98-.4,0-.81.08-1.21.25l.22-2.59h2.86v.82h-2.13l-.09,1.06c.23-.06.46-.09.67-.09,1.05,0,1.69.61,1.69,1.6s-.73,1.64-1.72,1.64c-1.2,0-1.74-.74-1.79-1.22Z"/>
              <path class="cls-1" d="M72.22,57.23c.68,0,1.11.42,1.11,1.05s-.43,1.01-1.11,1.01-1.11-.37-1.11-1.01.43-1.05,1.11-1.05ZM75.34,57.34l-3.15,4.9h-.71l3.14-4.9h.71ZM72.22,58.78c.26,0,.37-.2.37-.53,0-.29-.11-.53-.37-.53s-.38.25-.38.53c0,.34.11.53.38.53ZM74.6,60.31c.68,0,1.11.42,1.11,1.05s-.43,1.01-1.11,1.01-1.11-.37-1.11-1.01.43-1.05,1.11-1.05ZM74.6,61.86c.26,0,.37-.2.37-.53,0-.29-.11-.53-.37-.53s-.38.25-.38.53c0,.34.11.53.38.53Z"/>
              <path class="cls-1" d="M80.99,57.13v5.11h-.87v-.53c-.24.39-.63.64-1.06.64-.73,0-1.3-.64-1.3-1.86s.57-1.86,1.3-1.86c.44,0,.82.26,1.06.63v-2.13h.87ZM79.43,61.79c.45,0,.69-.47.69-1.02v-.97c-.16-.35-.38-.61-.69-.61-.46,0-.78.49-.78,1.3s.33,1.3.78,1.3Z"/>
              <path class="cls-1" d="M83.57,61.6c.32.02.9-.15,1.31-.32l-.07.78c-.48.17-1.08.3-1.42.3-.9,0-1.58-.66-1.58-1.83s.7-1.89,1.63-1.89c.83,0,1.46.67,1.46,1.84h-2.25c.02.76.32,1.08.92,1.12ZM84.03,60.15c-.06-.51-.24-.92-.63-.92s-.66.43-.73.92h1.36Z"/>
              <path class="cls-1" d="M90.18,57.13v5.11h-.87v-.53c-.24.39-.63.64-1.06.64-.73,0-1.3-.64-1.3-1.86s.57-1.86,1.3-1.86c.44,0,.82.26,1.06.63v-2.13h.87ZM88.62,61.79c.45,0,.69-.47.69-1.02v-.97c-.16-.35-.38-.61-.69-.61-.46,0-.78.49-.78,1.3s.33,1.3.78,1.3Z"/>
              <path class="cls-1" d="M92.76,61.6c.32.02.9-.15,1.31-.32l-.07.78c-.48.17-1.08.3-1.42.3-.9,0-1.58-.66-1.58-1.83s.7-1.89,1.63-1.89c.83,0,1.46.67,1.46,1.84h-2.25c.02.76.32,1.08.92,1.12ZM93.22,60.15c-.06-.51-.24-.92-.63-.92s-.66.43-.73.92h1.36Z"/>
              <path class="cls-1" d="M95.97,59.31c-.3,0-.49.12-.49.32,0,.24.43.41.86.55.73.24,1.1.62,1.1,1.13,0,.65-.53,1.05-1.35,1.05-.38,0-.85-.12-1.36-.34l.07-.76c.67.3.94.44,1.43.44.32,0,.48-.13.48-.36s-.33-.41-.88-.59c-.72-.24-1.09-.6-1.09-1.07,0-.64.45-1.02,1.18-1.02.51,0,.9.15,1.34.36l-.08.76c-.44-.27-.87-.46-1.23-.46Z"/>
              <path class="cls-1" d="M99.65,59.3c-.5,0-.81.42-.81,1.11,0,.73.27,1.12.81,1.18.41.05.77-.1,1.34-.32l-.07.78c-.46.17-.93.3-1.32.3-.9,0-1.58-.66-1.58-1.83s.7-1.89,1.63-1.89c.7,0,1.34.54,1.34,1.19l-.75.27s-.02-.8-.59-.8Z"/>
              <path class="cls-1" d="M101.54,60.52c0-1.21.69-1.89,1.6-1.89s1.6.68,1.6,1.89-.69,1.83-1.6,1.83-1.6-.66-1.6-1.83ZM103.15,61.69c.46,0,.72-.48.72-1.2s-.26-1.19-.72-1.19-.72.46-.72,1.19.26,1.2.72,1.2Z"/>
              <path class="cls-1" d="M107.12,59.26c-.32,0-.51.23-.64.48v2.51h-.87v-3.5h.87v.63c.23-.45.59-.74,1.04-.74.68,0,1.14.47,1.14,1.25v2.37h-.87v-2.15c0-.46-.19-.84-.68-.84Z"/>
              <path class="cls-1" d="M109.69,58.75v-.64s.86-.63.86-.63v1.27h1.01v.37h-1.01v2.12c0,.54.48.42.97.21l-.07.79c-.06.02-.53.13-.81.13-.61,0-.98-.37-.97-.99l.02-2.26h-.47v-.37h.47Z"/>
              <path class="cls-1" d="M111.92,60.52c0-1.21.69-1.89,1.6-1.89s1.6.68,1.6,1.89-.69,1.83-1.6,1.83-1.6-.66-1.6-1.83ZM113.52,61.69c.46,0,.72-.48.72-1.2s-.26-1.19-.72-1.19-.72.46-.72,1.19.26,1.2.72,1.2Z"/>
              <path class="cls-1" d="M64.14,63.66v-.37h51.32v.37h-51.32Z"/>
              <path class="cls-1" d="M42.44,68.24c0-1.53.81-2.61,1.89-2.61s1.71.89,1.74,1.67l-.82.18c-.13-.67-.46-1.05-.9-1.05-.61,0-1.03.64-1.03,1.67,0,1.16.41,1.79,1.14,1.85.49.04,1.13-.29,1.56-.47l-.08.87c-.57.24-.99.41-1.7.41-1.03,0-1.81-1.05-1.81-2.51Z"/>
              <path class="cls-1" d="M46.61,68.92c0-1.21.69-1.89,1.6-1.89s1.6.68,1.6,1.89-.69,1.83-1.6,1.83-1.6-.66-1.6-1.83ZM48.22,70.09c.46,0,.72-.48.72-1.2s-.26-1.19-.72-1.19-.72.46-.72,1.19.26,1.2.72,1.2Z"/>
              <path class="cls-1" d="M52.11,67.66c-.3,0-.48.23-.6.48v2.51h-.87v-3.5h.87v.62c.22-.44.57-.74,1.01-.74.53,0,.93.32,1.06.86.22-.51.6-.86,1.06-.86.64,0,1.11.47,1.11,1.25v2.37h-.87v-2.15c0-.46-.19-.84-.64-.84-.31,0-.5.25-.62.51v2.48h-.87v-2.15c0-.46-.19-.84-.64-.84Z"/>
              <path class="cls-1" d="M56.69,72.05v-4.9h.8v.52c.24-.37.62-.63,1.06-.63.73,0,1.29.64,1.29,1.86s-.57,1.86-1.29,1.86c-.43,0-.82-.25-1.06-.64v1.93h-.8ZM58.18,70.19c.46,0,.79-.49.79-1.3s-.33-1.3-.79-1.3c-.31,0-.52.26-.69.61v.97c0,.55.24,1.02.69,1.02Z"/>
              <path class="cls-1" d="M61.52,68.31v2.34h-.85v-3.5h.85v.72c.25-.43.64-.72,1.13-.72l-.07.83c-.49-.34-.84-.06-1.06.34Z"/>
              <path class="cls-1" d="M65.37,70.12c-.24.39-.63.64-1.06.64-.73,0-1.3-.64-1.3-1.86s.57-1.86,1.3-1.86c.44,0,.82.26,1.06.63v-.52h.87v3.5h-.87v-.53ZM64.68,70.19c.45,0,.69-.47.69-1.02v-.97c-.16-.35-.38-.61-.69-.61-.46,0-.78.49-.78,1.3s.33,1.3.78,1.3Z"/>
              <path class="cls-1" d="M68.69,67.66c-.32,0-.51.23-.64.48v2.51h-.87v-3.5h.87v.63c.23-.45.59-.74,1.04-.74.68,0,1.14.47,1.14,1.25v2.37h-.87v-2.15c0-.46-.19-.84-.68-.84Z"/>
              <path class="cls-1" d="M74.24,65.54v5.11h-.87v-.53c-.24.39-.63.64-1.06.64-.73,0-1.3-.64-1.3-1.86s.57-1.86,1.3-1.86c.44,0,.82.26,1.06.63v-2.13h.87ZM72.68,70.19c.45,0,.69-.47.69-1.02v-.97c-.16-.35-.38-.61-.69-.61-.46,0-.78.49-.78,1.3s.33,1.3.78,1.3Z"/>
              <path class="cls-1" d="M75.08,68.92c0-1.21.69-1.89,1.6-1.89s1.6.68,1.6,1.89-.69,1.83-1.6,1.83-1.6-.66-1.6-1.83ZM76.68,70.09c.46,0,.72-.48.72-1.2s-.26-1.19-.72-1.19-.72.46-.72,1.19.26,1.2.72,1.2Z"/>
              <path class="cls-1" d="M82.54,65.75h.85v3.31h.67v.69h-.67v.9h-.84v-.9h-2.29v-.69c.42-.37,1.87-2.17,2.28-3.31ZM82.55,69.06v-2.04c-.58.85-1.32,1.62-1.75,2.04h1.75Z"/>
              <path class="cls-1" d="M86.72,65.63c.29,0,.53.2.53.48s-.24.48-.53.48-.53-.2-.53-.48.24-.48.53-.48ZM87.15,67.15v3.5h-.87v-3.5h.87Z"/>
              <path class="cls-1" d="M88.35,67.15v-.64s.86-.63.86-.63v1.27h1.01v.37h-1.01v2.12c0,.54.48.42.97.21l-.07.79c-.06.02-.53.13-.81.13-.61,0-.98-.37-.97-.99l.02-2.26h-.47v-.37h.47Z"/>
              <path class="cls-1" d="M92.34,70c.32.02.9-.15,1.31-.32l-.07.78c-.48.17-1.08.3-1.42.3-.9,0-1.58-.66-1.58-1.83s.7-1.89,1.63-1.89c.83,0,1.46.67,1.46,1.84h-2.25c.02.76.32,1.08.92,1.12ZM92.8,68.55c-.06-.51-.24-.92-.63-.92s-.66.43-.73.92h1.36Z"/>
              <path class="cls-1" d="M95.99,67.66c-.32,0-.51.23-.64.48v2.51h-.87v-3.5h.87v.63c.23-.45.59-.74,1.04-.74.68,0,1.14.47,1.14,1.25v2.37h-.87v-2.15c0-.46-.19-.84-.68-.84Z"/>
              <path class="cls-1" d="M99.54,67.71c-.3,0-.49.12-.49.32,0,.24.43.41.86.55.73.24,1.1.62,1.1,1.13,0,.65-.53,1.05-1.35,1.05-.38,0-.85-.12-1.36-.34l.07-.76c.67.3.94.44,1.43.44.32,0,.48-.13.48-.36s-.33-.41-.88-.59c-.72-.24-1.09-.6-1.09-1.07,0-.64.45-1.02,1.18-1.02.51,0,.9.15,1.34.36l-.08.76c-.44-.27-.87-.46-1.23-.46Z"/>
            </g>
            <g>
              <rect class="cls-3" x="7.39" y="59.46" width="29.55" height="9.99" rx="4.99" ry="4.99"/>
              <g>
                <path class="cls-1" d="M15.97,65.63h1.29v-2.24h-.03l-.9.21-.02-.02v-1.18l2.4-.54.04.03v3.73h.95v1.33h-3.72v-1.33Z"/>
                <path class="cls-1" d="M23.99,65.25c0,1.22-.65,1.79-2.1,1.79-.67,0-1.31-.11-1.58-.17v-1.16l.04-.03c.27.07.8.14,1.3.14.74,0,.93-.17.93-.46v-.1c0-.24-.1-.41-.87-.41-.41,0-1.18.01-1.4.04l-.04-.04.2-2.9h3.26v1.25h-2.12l-.05.74h.02c.17-.03.47-.08.8-.08,1.1,0,1.62.46,1.62,1.39Z"/>
                <path class="cls-1" d="M28.35,61.94l-3.23,5.01h-.86l3.23-5.01h.86ZM25.33,61.87c.52,0,.98.29.98,1.15,0,.77-.41,1.11-.98,1.11s-.98-.35-.98-1.11c0-.86.47-1.15.98-1.15ZM25.33,63.41c.14,0,.22-.11.22-.35v-.13c0-.24-.08-.34-.22-.34s-.23.1-.23.34v.13c0,.25.08.35.23.35ZM27.29,64.77c.53,0,.98.29.98,1.14,0,.77-.41,1.11-.98,1.11s-.98-.34-.98-1.11c0-.86.47-1.14.98-1.14ZM27.29,66.31c.14,0,.23-.1.23-.34v-.14c0-.23-.08-.34-.23-.34s-.23.11-.23.34v.14c0,.24.08.34.23.34Z"/>
              </g>
            </g>
          </g>
          <g>
            <g>
              <path class="cls-1" d="M46.43,37.57v2.38h-.71v-1.12c-.21.79-.72,1.23-1.48,1.23-.99,0-1.79-1.06-1.79-2.51,0-1.53.86-2.61,2.02-2.61,1.28,0,1.87.8,1.9,1.58l-.82.18c-.12-.63-.5-.96-1.05-.96-.74,0-1.17.64-1.17,1.69,0,1.16.36,1.82,1.12,1.86.61.04,1.04-.71,1.14-1.28h-.95v-.44h1.79Z"/>
              <path class="cls-1" d="M49.67,39.42c-.24.39-.63.64-1.06.64-.73,0-1.3-.64-1.3-1.86s.57-1.86,1.3-1.86c.44,0,.82.26,1.06.63v-.52h.87v3.5h-.87v-.53ZM48.98,39.49c.45,0,.69-.47.69-1.02v-.97c-.16-.35-.38-.61-.69-.61-.46,0-.78.49-.78,1.3s.33,1.3.78,1.3Z"/>
              <path class="cls-1" d="M52.99,36.96c-.32,0-.51.23-.64.48v2.51h-.87v-3.5h.87v.63c.23-.45.59-.74,1.04-.74.68,0,1.14.47,1.14,1.25v2.37h-.87v-2.15c0-.46-.19-.84-.68-.84Z"/>
              <path class="cls-1" d="M56.98,36.96c-.32,0-.51.23-.64.48v2.51h-.87v-5.11h.87v2.24c.23-.45.59-.74,1.04-.74.68,0,1.14.47,1.14,1.25v2.37h-.87v-2.15c0-.46-.19-.84-.68-.84Z"/>
              <path class="cls-1" d="M61.08,39.3c.32.02.9-.15,1.31-.32l-.07.78c-.48.17-1.08.3-1.42.3-.9,0-1.58-.66-1.58-1.83s.7-1.89,1.63-1.89c.83,0,1.46.67,1.46,1.84h-2.25c.02.76.32,1.08.92,1.12ZM61.54,37.85c-.06-.51-.24-.92-.63-.92s-.66.43-.73.92h1.36Z"/>
              <path class="cls-1" d="M64.47,38.85l.74-.27c.06.37.51.69,1.03.69s.85-.34.85-.9c0-.61-.43-.98-1.13-.98-.4,0-.81.08-1.21.25l.22-2.59h2.86v.82h-2.13l-.09,1.06c.23-.06.46-.09.67-.09,1.05,0,1.69.61,1.69,1.6s-.73,1.64-1.72,1.64c-1.2,0-1.74-.74-1.79-1.22Z"/>
              <path class="cls-1" d="M69.55,34.93c.68,0,1.11.42,1.11,1.05s-.43,1.01-1.11,1.01-1.11-.37-1.11-1.01.43-1.05,1.11-1.05ZM72.66,35.05l-3.15,4.9h-.71l3.14-4.9h.71ZM69.55,36.48c.26,0,.37-.2.37-.53,0-.29-.11-.53-.37-.53s-.38.25-.38.53c0,.34.11.53.38.53ZM71.93,38.01c.68,0,1.11.42,1.11,1.05s-.43,1.01-1.11,1.01-1.11-.37-1.11-1.01.43-1.05,1.11-1.05ZM71.93,39.56c.26,0,.37-.2.37-.53,0-.29-.11-.53-.37-.53s-.38.25-.38.53c0,.34.11.53.38.53Z"/>
              <path class="cls-1" d="M78.31,34.84v5.11h-.87v-.53c-.24.39-.63.64-1.06.64-.73,0-1.3-.64-1.3-1.86s.57-1.86,1.3-1.86c.44,0,.82.26,1.06.63v-2.13h.87ZM76.76,39.49c.45,0,.69-.47.69-1.02v-.97c-.16-.35-.38-.61-.69-.61-.46,0-.78.49-.78,1.3s.33,1.3.78,1.3Z"/>
              <path class="cls-1" d="M80.89,39.3c.32.02.9-.15,1.31-.32l-.07.78c-.48.17-1.08.3-1.42.3-.9,0-1.58-.66-1.58-1.83s.7-1.89,1.63-1.89c.83,0,1.46.67,1.46,1.84h-2.25c.02.76.32,1.08.92,1.12ZM81.36,37.85c-.06-.51-.24-.92-.63-.92s-.66.43-.73.92h1.36Z"/>
              <path class="cls-1" d="M87.5,34.84v5.11h-.87v-.53c-.24.39-.63.64-1.06.64-.73,0-1.3-.64-1.3-1.86s.57-1.86,1.3-1.86c.44,0,.82.26,1.06.63v-2.13h.87ZM85.95,39.49c.45,0,.69-.47.69-1.02v-.97c-.16-.35-.38-.61-.69-.61-.46,0-.78.49-.78,1.3s.33,1.3.78,1.3Z"/>
              <path class="cls-1" d="M90.09,39.3c.32.02.9-.15,1.31-.32l-.07.78c-.48.17-1.08.3-1.42.3-.9,0-1.58-.66-1.58-1.83s.7-1.89,1.63-1.89c.83,0,1.46.67,1.46,1.84h-2.25c.02.76.32,1.08.92,1.12ZM90.55,37.85c-.06-.51-.24-.92-.63-.92s-.66.43-.73.92h1.36Z"/>
              <path class="cls-1" d="M93.29,37.01c-.3,0-.49.12-.49.32,0,.24.43.41.86.55.73.24,1.1.62,1.1,1.13,0,.65-.53,1.05-1.35,1.05-.38,0-.85-.12-1.36-.34l.07-.76c.67.3.94.44,1.43.44.32,0,.48-.13.48-.36s-.33-.41-.88-.59c-.72-.24-1.09-.6-1.09-1.07,0-.64.45-1.02,1.18-1.02.51,0,.9.15,1.34.36l-.08.76c-.44-.27-.87-.46-1.23-.46Z"/>
              <path class="cls-1" d="M96.98,37c-.5,0-.81.42-.81,1.11,0,.73.27,1.12.81,1.18.41.05.77-.1,1.34-.32l-.07.78c-.46.17-.93.3-1.32.3-.9,0-1.58-.66-1.58-1.83s.7-1.89,1.63-1.89c.7,0,1.34.54,1.34,1.19l-.75.27s-.02-.8-.59-.8Z"/>
              <path class="cls-1" d="M98.87,38.23c0-1.21.69-1.89,1.6-1.89s1.6.68,1.6,1.89-.69,1.83-1.6,1.83-1.6-.66-1.6-1.83ZM100.47,39.39c.46,0,.72-.48.72-1.2s-.26-1.19-.72-1.19-.72.46-.72,1.19.26,1.2.72,1.2Z"/>
              <path class="cls-1" d="M104.44,36.96c-.32,0-.51.23-.64.48v2.51h-.87v-3.5h.87v.63c.23-.45.59-.74,1.04-.74.68,0,1.14.47,1.14,1.25v2.37h-.87v-2.15c0-.46-.19-.84-.68-.84Z"/>
              <path class="cls-1" d="M107.02,36.45v-.64s.86-.63.86-.63v1.27h1.01v.37h-1.01v2.12c0,.54.48.42.97.21l-.07.79c-.06.02-.53.13-.81.13-.61,0-.98-.37-.97-.99l.02-2.26h-.47v-.37h.47Z"/>
              <path class="cls-1" d="M109.24,38.23c0-1.21.69-1.89,1.6-1.89s1.6.68,1.6,1.89-.69,1.83-1.6,1.83-1.6-.66-1.6-1.83ZM110.85,39.39c.46,0,.72-.48.72-1.2s-.26-1.19-.72-1.19-.72.46-.72,1.19.26,1.2.72,1.2Z"/>
              <path class="cls-1" d="M64.14,41.36v-.37h48.64v.37h-48.64Z"/>
              <path class="cls-1" d="M42.44,45.94c0-1.53.81-2.61,1.89-2.61s1.71.89,1.74,1.67l-.82.18c-.13-.67-.46-1.05-.9-1.05-.61,0-1.03.64-1.03,1.67,0,1.16.41,1.79,1.14,1.85.49.04,1.13-.29,1.56-.47l-.08.87c-.57.24-.99.41-1.7.41-1.03,0-1.81-1.05-1.81-2.51Z"/>
              <path class="cls-1" d="M46.61,46.62c0-1.21.69-1.89,1.6-1.89s1.6.68,1.6,1.89-.69,1.83-1.6,1.83-1.6-.66-1.6-1.83ZM48.22,47.79c.46,0,.72-.48.72-1.2s-.26-1.19-.72-1.19-.72.46-.72,1.19.26,1.2.72,1.2Z"/>
              <path class="cls-1" d="M52.11,45.36c-.3,0-.48.23-.6.48v2.51h-.87v-3.5h.87v.62c.22-.44.57-.74,1.01-.74.53,0,.93.32,1.06.86.22-.51.6-.86,1.06-.86.64,0,1.11.47,1.11,1.25v2.37h-.87v-2.15c0-.46-.19-.84-.64-.84-.31,0-.5.25-.62.51v2.48h-.87v-2.15c0-.46-.19-.84-.64-.84Z"/>
              <path class="cls-1" d="M56.69,49.75v-4.9h.8v.52c.24-.37.62-.63,1.06-.63.73,0,1.29.64,1.29,1.86s-.57,1.86-1.29,1.86c-.43,0-.82-.25-1.06-.64v1.93h-.8ZM58.18,47.89c.46,0,.79-.49.79-1.3s-.33-1.3-.79-1.3c-.31,0-.52.26-.69.61v.97c0,.55.24,1.02.69,1.02Z"/>
              <path class="cls-1" d="M61.52,46.01v2.34h-.85v-3.5h.85v.72c.25-.43.64-.72,1.13-.72l-.07.83c-.49-.34-.84-.06-1.06.34Z"/>
              <path class="cls-1" d="M65.37,47.82c-.24.39-.63.64-1.06.64-.73,0-1.3-.64-1.3-1.86s.57-1.86,1.3-1.86c.44,0,.82.26,1.06.63v-.52h.87v3.5h-.87v-.53ZM64.68,47.89c.45,0,.69-.47.69-1.02v-.97c-.16-.35-.38-.61-.69-.61-.46,0-.78.49-.78,1.3s.33,1.3.78,1.3Z"/>
              <path class="cls-1" d="M68.69,45.36c-.32,0-.51.23-.64.48v2.51h-.87v-3.5h.87v.63c.23-.45.59-.74,1.04-.74.68,0,1.14.47,1.14,1.25v2.37h-.87v-2.15c0-.46-.19-.84-.68-.84Z"/>
              <path class="cls-1" d="M74.24,43.24v5.11h-.87v-.53c-.24.39-.63.64-1.06.64-.73,0-1.3-.64-1.3-1.86s.57-1.86,1.3-1.86c.44,0,.82.26,1.06.63v-2.13h.87ZM72.68,47.89c.45,0,.69-.47.69-1.02v-.97c-.16-.35-.38-.61-.69-.61-.46,0-.78.49-.78,1.3s.33,1.3.78,1.3Z"/>
              <path class="cls-1" d="M75.08,46.62c0-1.21.69-1.89,1.6-1.89s1.6.68,1.6,1.89-.69,1.83-1.6,1.83-1.6-.66-1.6-1.83ZM76.68,47.79c.46,0,.72-.48.72-1.2s-.26-1.19-.72-1.19-.72.46-.72,1.19.26,1.2.72,1.2Z"/>
              <path class="cls-1" d="M82.88,44.79c0-.41-.3-.66-.73-.66-.5,0-.84.38-.97,1.05l-.82-.18c.03-.78.62-1.67,1.73-1.67,1.04,0,1.69.59,1.69,1.42,0,.97-1.29,1.75-2.54,2.78h2.52v.82h-3.31v-.82c1.63-1.4,2.43-2.02,2.43-2.74Z"/>
              <path class="cls-1" d="M86.52,43.33c.29,0,.53.2.53.48s-.24.48-.53.48-.53-.2-.53-.48.24-.48.53-.48ZM86.95,44.85v3.5h-.87v-3.5h.87Z"/>
              <path class="cls-1" d="M88.15,44.85v-.64s.86-.63.86-.63v1.27h1.01v.37h-1.01v2.12c0,.54.48.42.97.21l-.07.79c-.06.02-.53.13-.81.13-.61,0-.98-.37-.97-.99l.02-2.26h-.47v-.37h.47Z"/>
              <path class="cls-1" d="M92.14,47.7c.32.02.9-.15,1.31-.32l-.07.78c-.48.17-1.08.3-1.42.3-.9,0-1.58-.66-1.58-1.83s.7-1.89,1.63-1.89c.83,0,1.46.67,1.46,1.84h-2.25c.02.76.32,1.08.92,1.12ZM92.6,46.25c-.06-.51-.24-.92-.63-.92s-.66.43-.73.92h1.36Z"/>
              <path class="cls-1" d="M95.79,45.36c-.32,0-.51.23-.64.48v2.51h-.87v-3.5h.87v.63c.23-.45.59-.74,1.04-.74.68,0,1.14.47,1.14,1.25v2.37h-.87v-2.15c0-.46-.19-.84-.68-.84Z"/>
              <path class="cls-1" d="M99.34,45.41c-.3,0-.49.12-.49.32,0,.24.43.41.86.55.73.24,1.1.62,1.1,1.13,0,.65-.53,1.05-1.35,1.05-.38,0-.85-.12-1.36-.34l.07-.76c.67.3.94.44,1.43.44.32,0,.48-.13.48-.36s-.33-.41-.88-.59c-.72-.24-1.09-.6-1.09-1.07,0-.64.45-1.02,1.18-1.02.51,0,.9.15,1.34.36l-.08.76c-.44-.27-.87-.46-1.23-.46Z"/>
            </g>
            <g>
              <rect class="cls-3" x="7.39" y="37.14" width="29.55" height="9.99" rx="4.99" ry="4.99"/>
              <g>
                <path class="cls-1" d="M21.85,42.93c0,1.22-.65,1.79-2.1,1.79-.67,0-1.31-.11-1.58-.17v-1.16l.04-.03c.27.07.8.14,1.3.14.74,0,.93-.17.93-.46v-.1c0-.24-.1-.41-.87-.41-.41,0-1.18.01-1.4.04l-.04-.04.2-2.9h3.26v1.25h-2.12l-.05.74h.02c.17-.03.47-.08.8-.08,1.1,0,1.62.46,1.62,1.39Z"/>
                <path class="cls-1" d="M26.2,39.63l-3.23,5.02h-.86l3.23-5.02h.86ZM23.18,39.55c.52,0,.98.29.98,1.15,0,.77-.41,1.11-.98,1.11s-.98-.35-.98-1.11c0-.86.47-1.15.98-1.15ZM23.18,41.09c.14,0,.22-.11.22-.35v-.13c0-.24-.08-.34-.22-.34s-.23.1-.23.34v.13c0,.25.08.35.23.35ZM25.14,42.46c.53,0,.98.29.98,1.14,0,.77-.41,1.11-.98,1.11s-.98-.34-.98-1.11c0-.86.47-1.14.98-1.14ZM25.14,43.99c.14,0,.23-.1.23-.34v-.14c0-.23-.08-.34-.23-.34s-.23.11-.23.34v.14c0,.24.08.34.23.34Z"/>
              </g>
            </g>
          </g>
          <g>
            <g>
              <path class="cls-1" d="M186.25,37.57v2.38h-.71v-1.12c-.21.79-.72,1.23-1.48,1.23-.99,0-1.79-1.06-1.79-2.51,0-1.53.86-2.61,2.02-2.61,1.28,0,1.87.8,1.9,1.58l-.82.18c-.12-.63-.5-.96-1.05-.96-.74,0-1.17.64-1.17,1.69,0,1.16.36,1.82,1.12,1.86.61.04,1.04-.71,1.14-1.28h-.95v-.44h1.79Z"/>
              <path class="cls-1" d="M189.49,39.42c-.24.39-.63.64-1.06.64-.73,0-1.3-.64-1.3-1.86s.57-1.86,1.3-1.86c.44,0,.82.26,1.06.63v-.52h.87v3.5h-.87v-.53ZM188.81,39.49c.45,0,.69-.47.69-1.02v-.97c-.16-.35-.38-.61-.69-.61-.46,0-.78.49-.78,1.3s.33,1.3.78,1.3Z"/>
              <path class="cls-1" d="M192.81,36.96c-.32,0-.51.23-.64.48v2.51h-.87v-3.5h.87v.63c.23-.45.59-.74,1.04-.74.68,0,1.14.47,1.14,1.25v2.37h-.87v-2.15c0-.46-.19-.84-.68-.84Z"/>
              <path class="cls-1" d="M196.81,36.96c-.32,0-.51.23-.64.48v2.51h-.87v-5.11h.87v2.24c.23-.45.59-.74,1.04-.74.68,0,1.14.47,1.14,1.25v2.37h-.87v-2.15c0-.46-.19-.84-.68-.84Z"/>
              <path class="cls-1" d="M200.9,39.3c.32.02.9-.15,1.31-.32l-.07.78c-.48.17-1.08.3-1.42.3-.9,0-1.58-.66-1.58-1.83s.7-1.89,1.63-1.89c.83,0,1.46.67,1.46,1.84h-2.25c.02.76.32,1.08.92,1.12ZM201.36,37.85c-.06-.51-.24-.92-.63-.92s-.66.43-.73.92h1.36Z"/>
              <path class="cls-1" d="M205.21,36.02c-.29.18-.64.31-1.04.31l-.04-.35c.41-.06.99-.18,1.35-.93h.59v4.9h-.87v-3.93Z"/>
              <path class="cls-1" d="M207.04,37.53c0-1.51.78-2.6,1.81-2.6s1.81,1.09,1.81,2.6-.78,2.52-1.81,2.52c-1.11,0-1.81-.95-1.81-2.52ZM208.85,39.25c.58,0,.92-.67.92-1.77s-.35-1.75-.92-1.75-.92.67-.92,1.75.35,1.77.92,1.77Z"/>
              <path class="cls-1" d="M212.23,34.93c.68,0,1.11.42,1.11,1.05s-.43,1.01-1.11,1.01-1.11-.37-1.11-1.01.43-1.05,1.11-1.05ZM215.35,35.05l-3.15,4.9h-.71l3.14-4.9h.71ZM212.23,36.48c.26,0,.37-.2.37-.53,0-.29-.11-.53-.37-.53s-.38.25-.38.53c0,.34.11.53.38.53ZM214.62,38.01c.68,0,1.11.42,1.11,1.05s-.43,1.01-1.11,1.01-1.11-.37-1.11-1.01.43-1.05,1.11-1.05ZM214.62,39.56c.26,0,.37-.2.37-.53,0-.29-.11-.53-.37-.53s-.38.25-.38.53c0,.34.11.53.38.53Z"/>
              <path class="cls-1" d="M221,34.84v5.11h-.87v-.53c-.24.39-.63.64-1.06.64-.73,0-1.3-.64-1.3-1.86s.57-1.86,1.3-1.86c.44,0,.82.26,1.06.63v-2.13h.87ZM219.44,39.49c.45,0,.69-.47.69-1.02v-.97c-.16-.35-.38-.61-.69-.61-.46,0-.78.49-.78,1.3s.33,1.3.78,1.3Z"/>
              <path class="cls-1" d="M223.58,39.3c.32.02.9-.15,1.31-.32l-.07.78c-.48.17-1.08.3-1.42.3-.9,0-1.58-.66-1.58-1.83s.7-1.89,1.63-1.89c.83,0,1.46.67,1.46,1.84h-2.25c.02.76.32,1.08.92,1.12ZM224.04,37.85c-.06-.51-.24-.92-.63-.92s-.66.43-.73.92h1.36Z"/>
              <path class="cls-1" d="M230.19,34.84v5.11h-.87v-.53c-.24.39-.63.64-1.06.64-.73,0-1.3-.64-1.3-1.86s.57-1.86,1.3-1.86c.44,0,.82.26,1.06.63v-2.13h.87ZM228.64,39.49c.45,0,.69-.47.69-1.02v-.97c-.16-.35-.38-.61-.69-.61-.46,0-.78.49-.78,1.3s.33,1.3.78,1.3Z"/>
              <path class="cls-1" d="M232.77,39.3c.32.02.9-.15,1.31-.32l-.07.78c-.48.17-1.08.3-1.42.3-.9,0-1.58-.66-1.58-1.83s.7-1.89,1.63-1.89c.83,0,1.46.67,1.46,1.84h-2.25c.02.76.32,1.08.92,1.12ZM233.24,37.85c-.06-.51-.24-.92-.63-.92s-.66.43-.73.92h1.36Z"/>
              <path class="cls-1" d="M235.98,37.01c-.3,0-.49.12-.49.32,0,.24.43.41.86.55.73.24,1.1.62,1.1,1.13,0,.65-.53,1.05-1.35,1.05-.38,0-.85-.12-1.36-.34l.07-.76c.67.3.94.44,1.43.44.32,0,.48-.13.48-.36s-.33-.41-.88-.59c-.72-.24-1.09-.6-1.09-1.07,0-.64.45-1.02,1.18-1.02.51,0,.9.15,1.34.36l-.08.76c-.44-.27-.87-.46-1.23-.46Z"/>
              <path class="cls-1" d="M239.67,37c-.5,0-.81.42-.81,1.11,0,.73.27,1.12.81,1.18.41.05.77-.1,1.34-.32l-.07.78c-.46.17-.93.3-1.32.3-.9,0-1.58-.66-1.58-1.83s.7-1.89,1.63-1.89c.7,0,1.34.54,1.34,1.19l-.75.27s-.02-.8-.59-.8Z"/>
              <path class="cls-1" d="M241.56,38.23c0-1.21.69-1.89,1.6-1.89s1.6.68,1.6,1.89-.69,1.83-1.6,1.83-1.6-.66-1.6-1.83ZM243.16,39.39c.46,0,.72-.48.72-1.2s-.26-1.19-.72-1.19-.72.46-.72,1.19.26,1.2.72,1.2Z"/>
              <path class="cls-1" d="M247.13,36.96c-.32,0-.51.23-.64.48v2.51h-.87v-3.5h.87v.63c.23-.45.59-.74,1.04-.74.68,0,1.14.47,1.14,1.25v2.37h-.87v-2.15c0-.46-.19-.84-.68-.84Z"/>
              <path class="cls-1" d="M249.7,36.45v-.64s.86-.63.86-.63v1.27h1.01v.37h-1.01v2.12c0,.54.48.42.97.21l-.07.79c-.06.02-.53.13-.81.13-.61,0-.98-.37-.97-.99l.02-2.26h-.47v-.37h.47Z"/>
              <path class="cls-1" d="M251.93,38.23c0-1.21.69-1.89,1.6-1.89s1.6.68,1.6,1.89-.69,1.83-1.6,1.83-1.6-.66-1.6-1.83ZM253.53,39.39c.46,0,.72-.48.72-1.2s-.26-1.19-.72-1.19-.72.46-.72,1.19.26,1.2.72,1.2Z"/>
              <path class="cls-1" d="M203.96,41.36v-.37h51.51v.37h-51.51Z"/>
              <path class="cls-1" d="M182.27,45.94c0-1.53.81-2.61,1.89-2.61s1.71.89,1.74,1.67l-.82.18c-.13-.67-.46-1.05-.9-1.05-.61,0-1.03.64-1.03,1.67,0,1.16.41,1.79,1.14,1.85.49.04,1.13-.29,1.56-.47l-.08.87c-.57.24-.99.41-1.7.41-1.03,0-1.81-1.05-1.81-2.51Z"/>
              <path class="cls-1" d="M186.44,46.62c0-1.21.69-1.89,1.6-1.89s1.6.68,1.6,1.89-.69,1.83-1.6,1.83-1.6-.66-1.6-1.83ZM188.04,47.79c.46,0,.72-.48.72-1.2s-.26-1.19-.72-1.19-.72.46-.72,1.19.26,1.2.72,1.2Z"/>
              <path class="cls-1" d="M191.94,45.36c-.3,0-.48.23-.6.48v2.51h-.87v-3.5h.87v.62c.22-.44.57-.74,1.01-.74.53,0,.93.32,1.06.86.22-.51.6-.86,1.06-.86.64,0,1.11.47,1.11,1.25v2.37h-.87v-2.15c0-.46-.19-.84-.64-.84-.31,0-.5.25-.62.51v2.48h-.87v-2.15c0-.46-.19-.84-.64-.84Z"/>
              <path class="cls-1" d="M196.52,49.75v-4.9h.8v.52c.24-.37.62-.63,1.06-.63.73,0,1.29.64,1.29,1.86s-.57,1.86-1.29,1.86c-.43,0-.82-.25-1.06-.64v1.93h-.8ZM198,47.89c.46,0,.79-.49.79-1.3s-.33-1.3-.79-1.3c-.31,0-.52.26-.69.61v.97c0,.55.24,1.02.69,1.02Z"/>
              <path class="cls-1" d="M201.34,46.01v2.34h-.85v-3.5h.85v.72c.25-.43.64-.72,1.13-.72l-.07.83c-.49-.34-.84-.06-1.06.34Z"/>
              <path class="cls-1" d="M205.19,47.82c-.24.39-.63.64-1.06.64-.73,0-1.3-.64-1.3-1.86s.57-1.86,1.3-1.86c.44,0,.82.26,1.06.63v-.52h.87v3.5h-.87v-.53ZM204.51,47.89c.45,0,.69-.47.69-1.02v-.97c-.16-.35-.38-.61-.69-.61-.46,0-.78.49-.78,1.3s.33,1.3.78,1.3Z"/>
              <path class="cls-1" d="M208.51,45.36c-.32,0-.51.23-.64.48v2.51h-.87v-3.5h.87v.63c.23-.45.59-.74,1.04-.74.68,0,1.14.47,1.14,1.25v2.37h-.87v-2.15c0-.46-.19-.84-.68-.84Z"/>
              <path class="cls-1" d="M214.06,43.24v5.11h-.87v-.53c-.24.39-.63.64-1.06.64-.73,0-1.3-.64-1.3-1.86s.57-1.86,1.3-1.86c.44,0,.82.26,1.06.63v-2.13h.87ZM212.51,47.89c.45,0,.69-.47.69-1.02v-.97c-.16-.35-.38-.61-.69-.61-.46,0-.78.49-.78,1.3s.33,1.3.78,1.3Z"/>
              <path class="cls-1" d="M214.9,46.62c0-1.21.69-1.89,1.6-1.89s1.6.68,1.6,1.89-.69,1.83-1.6,1.83-1.6-.66-1.6-1.83ZM216.5,47.79c.46,0,.72-.48.72-1.2s-.26-1.19-.72-1.19-.72.46-.72,1.19.26,1.2.72,1.2Z"/>
              <path class="cls-1" d="M220.24,47.29l.74-.27c.04.22.3.64.9.64s.95-.3.95-.8-.26-.86-1.05-.86h-.58v-.42h.58c.79,0,.95-.38.95-.72,0-.46-.32-.73-.85-.73s-.81.27-.9.64l-.74-.27c.08-.63.74-1.17,1.78-1.17.88,0,1.6.6,1.6,1.34,0,.45-.2.87-.71,1.11.57.22.82.67.82,1.12,0,.9-.68,1.55-1.91,1.55-.9,0-1.48-.56-1.57-1.17Z"/>
              <path class="cls-1" d="M226.55,43.33c.29,0,.53.2.53.48s-.24.48-.53.48-.53-.2-.53-.48.24-.48.53-.48ZM226.98,44.85v3.5h-.87v-3.5h.87Z"/>
              <path class="cls-1" d="M228.18,44.85v-.64s.86-.63.86-.63v1.27h1.01v.37h-1.01v2.12c0,.54.48.42.97.21l-.07.79c-.06.02-.53.13-.81.13-.61,0-.98-.37-.97-.99l.02-2.26h-.47v-.37h.47Z"/>
              <path class="cls-1" d="M232.17,47.7c.32.02.9-.15,1.31-.32l-.07.78c-.48.17-1.08.3-1.42.3-.9,0-1.58-.66-1.58-1.83s.7-1.89,1.63-1.89c.83,0,1.46.67,1.46,1.84h-2.25c.02.76.32,1.08.92,1.12ZM232.63,46.25c-.06-.51-.24-.92-.63-.92s-.66.43-.73.92h1.36Z"/>
              <path class="cls-1" d="M235.82,45.36c-.32,0-.51.23-.64.48v2.51h-.87v-3.5h.87v.63c.23-.45.59-.74,1.04-.74.68,0,1.14.47,1.14,1.25v2.37h-.87v-2.15c0-.46-.19-.84-.68-.84Z"/>
              <path class="cls-1" d="M239.37,45.41c-.3,0-.49.12-.49.32,0,.24.43.41.86.55.73.24,1.1.62,1.1,1.13,0,.65-.53,1.05-1.35,1.05-.38,0-.85-.12-1.36-.34l.07-.76c.67.3.94.44,1.43.44.32,0,.48-.13.48-.36s-.33-.41-.88-.59c-.72-.24-1.09-.6-1.09-1.07,0-.64.45-1.02,1.18-1.02.51,0,.9.15,1.34.36l-.08.76c-.44-.27-.87-.46-1.23-.46Z"/>
            </g>
            <g>
              <rect class="cls-3" x="146.87" y="37.09" width="29.55" height="9.99" rx="4.99" ry="4.99"/>
              <g>
                <path class="cls-1" d="M155.45,43.26h1.29v-2.24h-.03l-.9.21-.02-.02v-1.18l2.39-.54.04.03v3.73h.95v1.33h-3.72v-1.33Z"/>
                <path class="cls-1" d="M161.54,39.5c1.07,0,1.94.56,1.94,2.62,0,1.92-.78,2.56-1.94,2.56s-1.94-.66-1.94-2.56c0-2.06.88-2.62,1.94-2.62ZM161.54,43.27c.37,0,.51-.2.51-.78v-.81c0-.59-.15-.78-.51-.78s-.5.2-.5.78v.81c0,.59.14.78.5.78Z"/>
                <path class="cls-1" d="M167.83,39.58l-3.23,5.02h-.86l3.23-5.02h.86ZM164.81,39.5c.52,0,.98.29.98,1.15,0,.77-.41,1.11-.98,1.11s-.98-.35-.98-1.11c0-.86.46-1.15.98-1.15ZM164.81,41.04c.14,0,.22-.11.22-.35v-.13c0-.24-.08-.34-.22-.34s-.23.1-.23.34v.13c0,.25.08.35.23.35ZM166.77,42.41c.53,0,.98.29.98,1.14,0,.77-.41,1.11-.98,1.11s-.98-.34-.98-1.11c0-.86.47-1.14.98-1.14ZM166.77,43.94c.14,0,.23-.1.23-.34v-.14c0-.23-.08-.34-.23-.34s-.22.11-.22.34v.14c0,.24.08.34.22.34Z"/>
              </g>
            </g>
          </g>
        </g>
      </g>
    </g>
  </g>
</svg>