<?xml version="1.0" encoding="UTF-8"?>
<svg id="Camada_2" data-name="Camada 2" xmlns="http://www.w3.org/2000/svg" viewBox="0 0 276 51.32">
  <defs>
    <style>
      .cls-1, .cls-2 {
        fill: #000;
      }

      .cls-1, .cls-3, .cls-4 {
        stroke-width: 0px;
      }

      .cls-2 {
        font-family: VeniceBlvd-Regular, 'Venice Blvd';
        font-size: 7px;
      }

      .cls-5 {
        text-decoration: underline;
      }

      .cls-3 {
        fill: #e8eaed;
      }

      .cls-4 {
        fill: #30b757;
      }
    </style>
  </defs>
  <g id="Camada_2-2" data-name="Camada 2">
    <g>
      <path class="cls-3" d="M272.47.5c1.67,0,3.03,1.36,3.03,3.03v44.26c0,1.67-1.36,3.03-3.03,3.03H3.53c-1.67,0-3.03-1.36-3.03-3.03V3.53C.5,1.86,1.86.5,3.53.5h268.93M272.47,0H3.53C1.58,0,0,1.58,0,3.53v44.26c0,1.95,1.58,3.53,3.53,3.53h268.93c1.95,0,3.53-1.58,3.53-3.53V3.53c0-1.95-1.58-3.53-3.53-3.53h0Z"/>
      <g>
        <g>
          <text class="cls-2" transform="translate(181.86 34.67)"><tspan x="0" y="0">Ganhe </tspan><tspan class="cls-5" x="22.1" y="0">20% de desconto</tspan><tspan x="0" y="8.4">Comprando 5 itens ou mais.</tspan></text>
          <g>
            <rect class="cls-4" x="146.87" y="31.82" width="29.55" height="9.99" rx="4.99" ry="4.99"/>
            <g>
              <path class="cls-1" d="M159.21,37.99v1.33h-3.78v-1.33l1.38-1.02c.49-.37.69-.59.69-.88v-.09c0-.25-.21-.44-.86-.44-.41,0-.86.07-1.08.14l-.03-.02v-1.27c.34-.09.95-.19,1.46-.19,1.52,0,2.15.51,2.15,1.62,0,.79-.41,1.19-.68,1.41l-.57.44c-.1.08-.31.22-.41.27v.03h1.73Z"/>
              <path class="cls-1" d="M161.57,34.22c1.07,0,1.94.56,1.94,2.62,0,1.92-.78,2.56-1.94,2.56s-1.94-.66-1.94-2.56c0-2.06.88-2.62,1.94-2.62ZM161.57,38c.37,0,.51-.2.51-.78v-.81c0-.59-.15-.78-.51-.78s-.5.2-.5.78v.81c0,.59.14.78.5.78Z"/>
              <path class="cls-1" d="M167.85,34.3l-3.23,5.01h-.86l3.23-5.01h.86ZM164.83,34.23c.52,0,.98.29.98,1.15,0,.77-.41,1.11-.98,1.11s-.98-.35-.98-1.11c0-.86.47-1.15.98-1.15ZM164.83,35.77c.14,0,.22-.11.22-.35v-.13c0-.24-.07-.34-.22-.34s-.22.1-.22.34v.13c0,.25.08.35.22.35ZM166.79,37.13c.53,0,.98.29.98,1.14,0,.77-.41,1.11-.98,1.11s-.98-.34-.98-1.11c0-.86.46-1.14.98-1.14ZM166.79,38.66c.14,0,.23-.1.23-.34v-.14c0-.23-.08-.34-.23-.34s-.23.11-.23.34v.14c0,.24.08.34.23.34Z"/>
            </g>
          </g>
        </g>
        <g>
          <text class="cls-2" transform="translate(42.04 34.67)"><tspan x="0" y="0">Ganhe </tspan><tspan class="cls-5" x="22.1" y="0">15% de desconto</tspan><tspan x="0" y="8.4">Comprando 4 itens</tspan></text>
          <g>
            <rect class="cls-4" x="7.39" y="31.89" width="29.55" height="9.99" rx="4.99" ry="4.99"/>
            <g>
              <path class="cls-1" d="M15.97,38.05h1.29v-2.24h-.03l-.9.21-.02-.02v-1.18l2.4-.54.04.03v3.73h.95v1.33h-3.72v-1.33Z"/>
              <path class="cls-1" d="M23.99,37.67c0,1.22-.65,1.79-2.1,1.79-.67,0-1.31-.11-1.58-.17v-1.16l.04-.03c.27.07.8.14,1.3.14.74,0,.93-.17.93-.46v-.1c0-.24-.1-.41-.87-.41-.41,0-1.18.01-1.4.04l-.04-.04.2-2.9h3.26v1.25h-2.12l-.05.74h.02c.17-.03.47-.08.8-.08,1.1,0,1.62.46,1.62,1.39Z"/>
              <path class="cls-1" d="M28.35,34.37l-3.23,5.01h-.86l3.23-5.01h.86ZM25.33,34.29c.52,0,.98.29.98,1.15,0,.77-.41,1.11-.98,1.11s-.98-.35-.98-1.11c0-.86.47-1.15.98-1.15ZM25.33,35.83c.14,0,.22-.11.22-.35v-.13c0-.24-.08-.34-.22-.34s-.23.1-.23.34v.13c0,.25.08.35.23.35ZM27.29,37.2c.53,0,.98.29.98,1.14,0,.77-.41,1.11-.98,1.11s-.98-.34-.98-1.11c0-.86.47-1.14.98-1.14ZM27.29,38.73c.14,0,.23-.1.23-.34v-.14c0-.23-.08-.34-.23-.34s-.23.11-.23.34v.14c0,.24.08.34.23.34Z"/>
            </g>
          </g>
        </g>
        <g>
          <text class="cls-2" transform="translate(42.04 12.37)"><tspan x="0" y="0">Ganhe </tspan><tspan class="cls-5" x="22.1" y="0">5% de desconto</tspan><tspan x="0" y="8.4">Comprando 2 itens</tspan></text>
          <g>
            <rect class="cls-4" x="7.39" y="9.57" width="29.55" height="9.99" rx="4.99" ry="4.99"/>
            <g>
              <path class="cls-1" d="M21.85,15.35c0,1.22-.65,1.79-2.1,1.79-.67,0-1.31-.11-1.58-.17v-1.16l.04-.03c.27.07.8.14,1.3.14.74,0,.93-.17.93-.46v-.1c0-.24-.1-.41-.87-.41-.41,0-1.18.01-1.4.04l-.04-.04.2-2.9h3.26v1.25h-2.12l-.05.74h.02c.17-.03.47-.08.8-.08,1.1,0,1.62.46,1.62,1.39Z"/>
              <path class="cls-1" d="M26.2,12.05l-3.23,5.02h-.86l3.23-5.02h.86ZM23.18,11.98c.52,0,.98.29.98,1.15,0,.77-.41,1.11-.98,1.11s-.98-.35-.98-1.11c0-.86.47-1.15.98-1.15ZM23.18,13.51c.14,0,.22-.11.22-.35v-.13c0-.24-.08-.34-.22-.34s-.23.1-.23.34v.13c0,.25.08.35.23.35ZM25.14,14.88c.53,0,.98.29.98,1.14,0,.77-.41,1.11-.98,1.11s-.98-.34-.98-1.11c0-.86.47-1.14.98-1.14ZM25.14,16.41c.14,0,.23-.1.23-.34v-.14c0-.23-.08-.34-.23-.34s-.23.11-.23.34v.14c0,.24.08.34.23.34Z"/>
            </g>
          </g>
        </g>
        <g>
          <text class="cls-2" transform="translate(181.86 12.37)"><tspan x="0" y="0">Ganhe </tspan><tspan class="cls-5" x="22.1" y="0">10% de desconto</tspan><tspan x="0" y="8.4">Comprando 3 itens</tspan></text>
          <g>
            <rect class="cls-4" x="146.87" y="9.52" width="29.55" height="9.99" rx="4.99" ry="4.99"/>
            <g>
              <path class="cls-1" d="M155.45,15.69h1.29v-2.24h-.03l-.9.21-.02-.02v-1.18l2.39-.54.04.03v3.73h.95v1.33h-3.72v-1.33Z"/>
              <path class="cls-1" d="M161.54,11.92c1.07,0,1.94.56,1.94,2.62,0,1.92-.78,2.56-1.94,2.56s-1.94-.66-1.94-2.56c0-2.06.88-2.62,1.94-2.62ZM161.54,15.7c.37,0,.51-.2.51-.78v-.81c0-.59-.15-.78-.51-.78s-.5.2-.5.78v.81c0,.59.14.78.5.78Z"/>
              <path class="cls-1" d="M167.83,12l-3.23,5.02h-.86l3.23-5.02h.86ZM164.81,11.93c.52,0,.98.29.98,1.15,0,.77-.41,1.11-.98,1.11s-.98-.35-.98-1.11c0-.86.46-1.15.98-1.15ZM164.81,13.47c.14,0,.22-.11.22-.35v-.13c0-.24-.08-.34-.22-.34s-.23.1-.23.34v.13c0,.25.08.35.23.35ZM166.77,14.83c.53,0,.98.29.98,1.14,0,.77-.41,1.11-.98,1.11s-.98-.34-.98-1.11c0-.86.47-1.14.98-1.14ZM166.77,16.37c.14,0,.23-.1.23-.34v-.14c0-.23-.08-.34-.23-.34s-.22.11-.22.34v.14c0,.24.08.34.22.34Z"/>
            </g>
          </g>
        </g>
      </g>
    </g>
  </g>
</svg>