<?xml version="1.0" encoding="UTF-8"?>
<svg id="Camada_3" data-name="Camada 3" xmlns="http://www.w3.org/2000/svg" xmlns:xlink="http://www.w3.org/1999/xlink" viewBox="0 0 168.52 168.52">
  <defs>
    <style>
      .cls-1 {
        fill: #000;
      }

      .cls-1, .cls-2 {
        stroke-width: 0px;
      }

      .cls-2 {
        fill: url(#Gradiente_sem_nome_32);
      }
    </style>
    <linearGradient id="Gradiente_sem_nome_32" data-name="Gradiente sem nome 32" x1="128.86" y1="99.14" x2="35.93" y2="25.82" gradientUnits="userSpaceOnUse">
      <stop offset=".14" stop-color="#fff"/>
      <stop offset=".27" stop-color="#b2e3f9"/>
      <stop offset=".38" stop-color="#79cef4"/>
      <stop offset=".43" stop-color="#64c7f3"/>
      <stop offset=".68" stop-color="#cdedfb"/>
      <stop offset=".79" stop-color="#fff"/>
    </linearGradient>
  </defs>
  <g>
    <polygon class="cls-2" points="33.86 25.75 135.12 25.75 168.52 69.67 84.87 142.77 0 69.97 33.86 25.75"/>
    <g>
      <g>
        <path class="cls-1" d="M23.38,55.73h7.38c6.64,0,8.8,2.82,8.8,8.4s-1.86,8.6-8.78,8.6h-7.4v-16.99ZM31.04,67.38c.56,0,1.17-.03,1.58-.43.33-.31.48-.92.48-1.73v-2.09c0-.74-.1-1.32-.43-1.65s-.79-.41-1.48-.41h-1.35v6.31h1.2Z"/>
        <path class="cls-1" d="M47.55,55.73v16.99h-6.46v-16.99h6.46Z"/>
        <path class="cls-1" d="M68.02,72.55l-.13.18h-6.59l-.66-2.7h-4.68l-.66,2.7h-6.59l-.13-.18,5.24-16.82h8.96l5.24,16.82ZM58.13,60.94c-.36,1.55-.74,3.38-1.14,5.01h2.65c-.41-1.63-.79-3.46-1.14-5.01h-.36Z"/>
        <path class="cls-1" d="M68.96,55.73h7.05l3.38,5.6h.05l3.38-5.6h7.05v16.99h-6.46v-4.12c0-.56.2-2.82.31-4.02l-.18-.03c-.41.76-.81,1.65-1.09,2.11l-2.34,4.04h-1.4l-2.32-4.04c-.28-.46-.71-1.35-1.09-2.11l-.18.03c.1,1.2.3,3.46.3,4.02v4.12h-6.46v-16.99Z"/>
        <path class="cls-1" d="M100.02,55.45c4.99,0,8.73,2.65,8.73,8.83,0,5.67-3.08,8.73-8.73,8.73s-8.73-3.13-8.73-8.73c0-6.18,3.71-8.83,8.73-8.83ZM100.02,67.33c1.53,0,2.24-.84,2.24-2.19v-1.86c0-1.35-.69-2.16-2.24-2.16s-2.24.81-2.24,2.16v1.86c0,1.37.71,2.19,2.24,2.19Z"/>
        <path class="cls-1" d="M110.16,55.73h6.84l2.52,3.84c.25.43,1.35,2.57,2.21,4.27l.2-.05c-.36-1.93-.84-4.68-.84-5.06v-3h6.44v16.99h-6.61l-2.65-4.1c-.25-.38-1.07-1.91-1.91-3.31l-.18.02c.15.99.43,3.15.43,3.74v3.64h-6.46v-16.99Z"/>
        <path class="cls-1" d="M129.27,55.73h7.38c6.64,0,8.8,2.82,8.8,8.4s-1.86,8.6-8.78,8.6h-7.4v-16.99ZM136.92,67.38c.56,0,1.17-.03,1.58-.43.33-.31.48-.92.48-1.73v-2.09c0-.74-.1-1.32-.43-1.65s-.79-.41-1.48-.41h-1.35v6.31h1.2Z"/>
      </g>
      <g>
        <path class="cls-1" d="M46.29,77.61c1.1,0,2.06.15,2.58.28v3.08l-.06.06c-.53-.07-1.15-.13-1.74-.13s-1.3.09-1.62.28c-.37.22-.52.72-.52,1.28v.44c0,.62.16,1.1.56,1.31.35.16,1.02.22,1.55.22.56,0,1.4-.1,1.85-.18l.06.06v3.08c-.57.15-1.56.32-3.02.32-3.58,0-4.96-1.6-4.96-5.14s1.69-4.96,5.31-4.96Z"/>
        <path class="cls-1" d="M54.54,77.59c2.88,0,5.05,1.53,5.05,5.11,0,3.28-1.78,5.05-5.05,5.05s-5.05-1.81-5.05-5.05c0-3.58,2.15-5.11,5.05-5.11ZM54.54,84.46c.88,0,1.3-.49,1.3-1.27v-1.07c0-.78-.4-1.25-1.3-1.25s-1.3.47-1.3,1.25v1.07c0,.8.41,1.27,1.3,1.27Z"/>
        <path class="cls-1" d="M67.45,84.15v3.43h-7.07v-9.83h3.9v6.4h3.16Z"/>
        <path class="cls-1" d="M75.12,84.15v3.43h-7.07v-9.83h3.9v6.4h3.16Z"/>
        <path class="cls-1" d="M83.41,84.83v2.75h-7.68v-9.83h7.66v2.75h-3.84v1.06h3.37v2.15h-3.37v1.12h3.87Z"/>
        <path class="cls-1" d="M89.33,77.61c1.1,0,2.06.15,2.58.28v3.08l-.06.06c-.53-.07-1.15-.13-1.74-.13s-1.3.09-1.62.28c-.37.22-.52.72-.52,1.28v.44c0,.62.16,1.1.56,1.31.35.16,1.02.22,1.55.22.56,0,1.4-.1,1.85-.18l.06.06v3.08c-.57.15-1.56.32-3.02.32-3.58,0-4.96-1.6-4.96-5.14s1.69-4.96,5.31-4.96Z"/>
        <path class="cls-1" d="M101.08,81.12h-2.38v6.46h-3.84v-6.46h-2.38v-3.37h8.61v3.37Z"/>
        <path class="cls-1" d="M105.5,77.75v9.83h-3.74v-9.83h3.74Z"/>
        <path class="cls-1" d="M111.43,77.59c2.88,0,5.05,1.53,5.05,5.11,0,3.28-1.78,5.05-5.05,5.05s-5.05-1.81-5.05-5.05c0-3.58,2.15-5.11,5.05-5.11ZM111.43,84.46c.88,0,1.3-.49,1.3-1.27v-1.07c0-.78-.4-1.25-1.3-1.25s-1.3.47-1.3,1.25v1.07c0,.8.41,1.27,1.3,1.27Z"/>
        <path class="cls-1" d="M117.31,77.75h3.96l1.46,2.22c.15.25.78,1.49,1.28,2.47l.12-.03c-.21-1.12-.49-2.71-.49-2.93v-1.74h3.73v9.83h-3.83l-1.53-2.37c-.15-.22-.62-1.1-1.1-1.91h-.1c.09.59.25,1.84.25,2.18v2.11h-3.74v-9.83Z"/>
      </g>
    </g>
  </g>
  <g>
    <path class="cls-1" d="M132.04,31.95l28.03,36.86-75.24,65.76L8.49,69.09l28.43-37.14h95.11M135.11,25.75H33.86L0,69.97l84.87,72.8,83.65-73.11-33.4-43.92h0Z"/>
    <polygon class="cls-1" points="36.79 27.39 31.97 31.66 38.64 42.42 36.79 27.39 36.79 27.39"/>
    <polygon class="cls-1" points="81.04 28.16 73.38 41.64 85.94 29.38 81.04 28.16 81.04 28.16"/>
    <polygon class="cls-1" points="86.56 27.24 83.03 28.96 94.98 41.48 86.56 27.24 86.56 27.24"/>
    <polygon class="cls-1" points="131.44 28 128.68 41.94 134.35 29.69 131.44 28 131.44 28"/>
    <polygon class="cls-1" points="162.69 68.14 149.97 70.43 164.53 71.05 162.69 68.14 162.69 68.14"/>
    <polygon class="cls-1" points="103.56 101.53 86.56 138.6 81.96 136.76 103.56 101.53"/>
    <polygon class="cls-1" points="63.27 98.77 86.1 135.99 81.96 136.76 63.27 98.77"/>
    <polygon class="cls-1" points="18.24 70.59 3.38 71.05 3.23 68.14 18.24 70.59"/>
  </g>
</svg>