<?xml version="1.0" encoding="UTF-8"?>
<svg id="Camada_2" data-name="Camada 2" xmlns="http://www.w3.org/2000/svg" viewBox="0 0 70.54 60.97">
  <defs>
    <style>
      .cls-1 {
        stroke-miterlimit: 10;
      }

      .cls-1, .cls-2 {
        fill: none;
        stroke: #000;
        stroke-linecap: round;
        stroke-width: 4px;
      }

      .cls-2 {
        stroke-linejoin: round;
      }
    </style>
  </defs>
  <g id="Layer_1" data-name="Layer 1">
    <g>
      <path class="cls-2" d="M53.41,22.38h15.13c0,7.15-14.9,12.95-33.26,12.95S2,29.53,2,22.38h15.13"/>
      <path class="cls-1" d="M53.54,20.26c0,.71-.04,1.42-.13,2.11H17.13c-.08-.69-.13-1.4-.13-2.11,0-.19,0-.39.01-.57.3-9.83,5.61-17.69,18.25-17.69s17.96,7.86,18.25,17.69c.01.19.01.39.01.57Z"/>
      <path class="cls-1" d="M25,15.96c0-.08,0-.16,0-.24.78-3.02,3.76-6.23,7.53-6.59"/>
      <line class="cls-1" x1="35.27" y1="35.32" x2="35.27" y2="47.37"/>
      <ellipse class="cls-1" cx="35.27" cy="53.83" rx="5.6" ry="5.13"/>
      <line class="cls-1" x1="18.47" y1="34.3" x2="11.65" y2="47.92"/>
      <path class="cls-1" d="M4.2,50.39c1.31-2.57,4.65-3.67,7.45-2.47,2.8,1.2,4.01,4.26,2.69,6.83-1.31,2.57-4.65,3.67-7.45,2.47s-4.01-4.26-2.69-6.83Z"/>
      <line class="cls-1" x1="52.07" y1="34.3" x2="59.63" y2="47.43"/>
      <path class="cls-1" d="M66.78,51.09c-1.31-2.57-4.65-3.67-7.45-2.47-2.8,1.2-4.01,4.26-2.69,6.83,1.31,2.57,4.65,3.67,7.45,2.47,2.8-1.2,4.01-4.26,2.69-6.83Z"/>
    </g>
  </g>
</svg>