<?xml version="1.0" encoding="UTF-8"?>
<svg id="Camada_2" data-name="Camada 2" xmlns="http://www.w3.org/2000/svg" xmlns:xlink="http://www.w3.org/1999/xlink" viewBox="0 0 168.52 168.52">
  <defs>
    <style>
      .cls-1 {
        stroke: #fff;
        stroke-linecap: round;
        stroke-miterlimit: 10;
        stroke-width: .32px;
      }

      .cls-1, .cls-2 {
        fill: #64c7f3;
      }

      .cls-3 {
        clip-path: url(#clippath);
      }

      .cls-4 {
        fill: none;
      }

      .cls-4, .cls-5, .cls-6, .cls-2, .cls-7, .cls-8 {
        stroke-width: 0px;
      }

      .cls-5 {
        fill: #ff3d47;
      }

      .cls-6, .cls-8 {
        fill: #000;
      }

      .cls-7 {
        fill: #fff;
      }

      .cls-8 {
        fill-rule: evenodd;
      }
    </style>
    <clipPath id="clippath">
      <rect class="cls-4" x="1.6" y="30.54" width="165.31" height="107.44" rx="6.48" ry="6.48"/>
    </clipPath>
  </defs>
  <g>
    <g>
      <rect class="cls-7" x="2.89" y="31.82" width="162.75" height="104.88" rx="5.2" ry="5.2"/>
      <path class="cls-2" d="M160.44,33.1c2.16,0,3.92,1.76,3.92,3.92v94.48c0,2.16-1.76,3.92-3.92,3.92H8.08c-2.16,0-3.92-1.76-3.92-3.92V37.02c0-2.16,1.76-3.92,3.92-3.92h152.35M160.44,30.54H8.08c-3.58,0-6.48,2.9-6.48,6.48v94.48c0,3.58,2.9,6.48,6.48,6.48h152.35c3.58,0,6.48-2.9,6.48-6.48V37.02c0-3.58-2.9-6.48-6.48-6.48h0Z"/>
    </g>
    <path class="cls-5" d="M1.6,53.52h120.68c1.26,0,2.29,1.03,2.29,2.29v33.27c0,1.26-1.03,2.29-2.29,2.29H1.6v-37.85h0Z"/>
    <g>
      <g>
        <path class="cls-7" d="M71.26,60.87v2.44h5.43v3.52h-5.43v5.08h-5.04v-15.37h11v4.33h-5.96Z"/>
        <path class="cls-7" d="M92.4,71.75l-.12.16h-5.06l-.78-2.81h-4.81l-.78,2.81h-5.06l-.12-.16,4.99-15.21h6.74l4.99,15.21ZM82.55,65.86h2.97c-.48-1.63-.92-3.5-1.36-5.18h-.25c-.44,1.68-.87,3.54-1.36,5.18Z"/>
        <path class="cls-7" d="M103.36,67.33v4.58h-10.68v-15.37h5.11v10.79h5.57Z"/>
        <path class="cls-7" d="M114.45,67.33v4.58h-10.68v-15.37h5.11v10.79h5.57Z"/>
        <path class="cls-7" d="M17.69,75.56c1.28,0,2.36.17,2.95.31v3.1l-.07.07c-.64-.09-1.38-.17-2.15-.17-.88,0-1.67.12-2.1.41-.47.33-.67,1.1-.67,1.93v.55c0,.9.22,1.65.72,1.96.43.26,1.28.34,1.98.34s1.79-.14,2.36-.26l.09.07v3.08c-.65.19-1.77.41-3.46.41-4.08,0-5.65-1.91-5.65-6.01s1.95-5.81,6.01-5.81Z"/>
        <path class="cls-7" d="M26.62,75.53c3.24,0,5.69,1.79,5.69,5.98,0,3.84-2.02,5.91-5.69,5.91s-5.67-2.12-5.67-5.91c0-4.19,2.43-5.98,5.67-5.98ZM26.62,84.11c1.33,0,1.91-.78,1.91-2.02v-1.28c0-1.22-.57-1.98-1.91-1.98s-1.91.76-1.91,1.98v1.28c0,1.26.59,2.02,1.91,2.02Z"/>
        <path class="cls-7" d="M32.93,75.72h4.01l2.15,3.38c.24.36.98,1.84,1.55,2.98l.12-.03c-.21-1.27-.48-3.17-.48-3.53v-2.79h3.72v11.51h-3.81l-2.31-3.6c-.21-.34-.83-1.52-1.36-2.46l-.12.02c.09.67.26,2.22.26,2.77v3.27h-3.74v-11.51Z"/>
        <path class="cls-7" d="M44.3,75.72h3.88l1.21,4.24c.09.26.59,2.79.78,3.95h.15c.21-1.15.71-3.69.78-3.95l1.22-4.24h3.86l.1.12-3.67,11.39h-4.74l-3.65-11.39.09-.12Z"/>
        <path class="cls-7" d="M65.13,84.33v2.89h-8.67v-11.51h8.56v2.89h-4.79v1.62h4.31v2.36h-4.31v1.74h4.89Z"/>
        <path class="cls-7" d="M65.67,75.72h4.01l2.15,3.38c.24.36.98,1.84,1.55,2.98l.12-.03c-.21-1.27-.48-3.17-.48-3.53v-2.79h3.72v11.51h-3.81l-2.31-3.6c-.21-.34-.83-1.52-1.36-2.46l-.12.02c.09.67.26,2.22.26,2.77v3.27h-3.74v-11.51Z"/>
        <path class="cls-7" d="M86.88,79.1h-3.02v8.13h-3.83v-8.13h-3.02v-3.38h9.86v3.38Z"/>
        <path class="cls-7" d="M90.98,75.72v11.51h-3.74v-11.51h3.74Z"/>
        <path class="cls-7" d="M97.36,75.53c3.24,0,5.69,1.79,5.69,5.98,0,3.84-2.02,5.91-5.69,5.91s-5.67-2.12-5.67-5.91c0-4.19,2.43-5.98,5.67-5.98ZM97.36,84.11c1.33,0,1.91-.78,1.91-2.02v-1.28c0-1.22-.57-1.98-1.91-1.98s-1.91.76-1.91,1.98v1.28c0,1.26.59,2.02,1.91,2.02Z"/>
        <path class="cls-7" d="M103.67,75.72h4.01l2.15,3.38c.24.36.98,1.84,1.55,2.98l.12-.03c-.21-1.27-.48-3.17-.48-3.53v-2.79h3.72v11.51h-3.81l-2.31-3.6c-.21-.34-.83-1.52-1.36-2.46l-.12.02c.09.67.26,2.22.26,2.77v3.27h-3.74v-11.51Z"/>
        <g>
          <path class="cls-7" d="M23.72,67.92v4.09h-11.06v-4.09l4.04-3.14c1.43-1.13,2.02-1.8,2.02-2.7v-.28c0-.79-.61-1.36-2.52-1.36-1.21,0-2.52.23-3.16.44l-.09-.07v-3.91c.99-.28,2.76-.58,4.28-.58,4.43,0,6.3,1.57,6.3,4.99,0,2.43-1.18,3.68-2,4.35l-1.67,1.34c-.29.23-.92.69-1.18.83v.09h5.05Z"/>
          <path class="cls-7" d="M30.61,56.32c3.14,0,5.68,1.71,5.68,8.07,0,5.92-2.28,7.89-5.68,7.89s-5.68-2.03-5.68-7.89c0-6.36,2.57-8.07,5.68-8.07ZM30.61,67.95c1.08,0,1.49-.6,1.49-2.41v-2.5c0-1.83-.44-2.4-1.49-2.4s-1.47.6-1.47,2.4v2.5c0,1.83.42,2.41,1.47,2.41Z"/>
          <path class="cls-7" d="M48.52,67.92v4.09h-11.06v-4.09l4.04-3.14c1.43-1.13,2.02-1.8,2.02-2.7v-.28c0-.79-.61-1.36-2.52-1.36-1.21,0-2.52.23-3.16.44l-.09-.07v-3.91c.99-.28,2.76-.58,4.28-.58,4.43,0,6.3,1.57,6.3,4.99,0,2.43-1.18,3.68-2,4.35l-1.67,1.34c-.29.23-.92.69-1.18.83v.09h5.05Z"/>
          <path class="cls-7" d="M53.54,68.52c2.37,0,3.05-.53,3.05-1.46v-.37c0-.72-.42-1.06-1.73-1.06h-3.69v-3.05h3.33c1.05,0,1.51-.44,1.51-1.04v-.35c0-.74-.57-1.13-2.59-1.13-1.18,0-2.35.16-3.14.3l-.09-.07v-3.49c.9-.18,2.52-.49,4.26-.49,4.43,0,5.86,1.64,5.86,3.88,0,1.76-.83,2.8-2.24,3.19v.09c2.15.49,2.85,1.92,2.85,3.63,0,3.4-2,5.16-6.54,5.16-1.82,0-3.75-.3-4.54-.44v-3.49l.11-.12c.92.16,2.5.3,3.58.3Z"/>
        </g>
      </g>
      <g>
        <path class="cls-6" d="M24.01,106.12v4.96h-11.56v-16.64h5.53v11.68h6.03Z"/>
        <path class="cls-6" d="M30.88,94.44v16.64h-5.41v-16.64h5.41Z"/>
        <path class="cls-6" d="M33.15,94.44h5.93l3.76,6.35h.05l3.74-6.35h5.93v16.64h-5.41v-5.13c0-.72.17-2.89.27-4.11l-.17-.03c-.37.72-.87,1.87-1.17,2.39l-2.59,4.51h-1.27l-2.59-4.51c-.3-.52-.8-1.64-1.17-2.39l-.15.03c.07,1.22.25,3.39.25,4.11v5.13h-5.41v-16.64Z"/>
        <path class="cls-6" d="M60.22,94.44v16.64h-5.41v-16.64h5.41Z"/>
        <path class="cls-6" d="M75.86,99.32h-4.36v11.76h-5.53v-11.76h-4.36v-4.88h14.25v4.88Z"/>
        <path class="cls-6" d="M89.64,106.89v4.18h-12.53v-16.64h12.38v4.18h-6.92v2.34h6.23v3.41h-6.23v2.52h7.07Z"/>
        <path class="cls-6" d="M91.28,94.44h6.75c6.35,0,8.42,2.74,8.42,8.22s-1.72,8.42-8.32,8.42h-6.85v-16.64ZM98.3,106.54c.7,0,1.49,0,2.07-.55.45-.42.67-1.22.67-2.34v-1.87c0-1.02-.12-1.79-.57-2.24-.42-.45-1.07-.57-2.07-.57h-1.72v7.57h1.62Z"/>
        <path class="cls-6" d="M24.21,125.34v4.18h-12.53v-16.64h12.38v4.18h-6.92v2.34h6.23v3.41h-6.23v2.52h7.07Z"/>
        <path class="cls-6" d="M25.85,112.88h6.75c6.35,0,8.42,2.74,8.42,8.22s-1.72,8.42-8.32,8.42h-6.85v-16.64ZM32.87,124.99c.7,0,1.49,0,2.07-.55.45-.42.67-1.22.67-2.34v-1.87c0-1.02-.12-1.79-.57-2.24-.42-.45-1.07-.57-2.07-.57h-1.72v7.57h1.62Z"/>
        <path class="cls-6" d="M48.32,112.88v16.64h-5.41v-16.64h5.41Z"/>
        <path class="cls-6" d="M63.96,117.77h-4.36v11.76h-5.53v-11.76h-4.36v-4.88h14.25v4.88Z"/>
        <path class="cls-6" d="M70.76,112.88v16.64h-5.41v-16.64h5.41Z"/>
        <path class="cls-6" d="M80.84,112.61c4.68,0,8.22,2.59,8.22,8.64,0,5.55-2.91,8.54-8.22,8.54s-8.19-3.06-8.19-8.54c0-6.05,3.51-8.64,8.19-8.64ZM80.84,125.01c1.92,0,2.76-1.12,2.76-2.91v-1.84c0-1.77-.82-2.86-2.76-2.86s-2.76,1.1-2.76,2.86v1.84c0,1.82.85,2.91,2.76,2.91Z"/>
        <path class="cls-6" d="M90.83,112.88h5.8l3.11,4.88c.35.52,1.42,2.67,2.24,4.31l.17-.05c-.3-1.84-.7-4.58-.7-5.11v-4.04h5.38v16.64h-5.5l-3.34-5.21c-.3-.5-1.2-2.19-1.97-3.56l-.17.02c.12.97.37,3.21.37,4.01v4.73h-5.41v-16.64Z"/>
      </g>
      <g>
        <g>
          <path class="cls-6" d="M61.51,41.79v1.63h-3.64v1.77h2.75v.81h-2.75v1.96h3.64v1.63h-5.42v-7.81h5.42Z"/>
          <path class="cls-6" d="M67.36,49.59l-1.48-2.98-1.53,2.98h-1.88s2.18-3.98,2.18-3.98l-2.22-3.82h2.02l1.55,2.89,1.47-2.89h1.88l-2.13,3.78,2.17,4.03h-2.02Z"/>
          <path class="cls-6" d="M69.81,45.76c0-2.44,1.32-4.15,3.19-4.15s2.94,1.43,2.97,2.8l-1.71.38c-.14-.85-.57-1.62-1.23-1.62-.83,0-1.4.88-1.4,2.36,0,1.66.59,2.51,1.61,2.6.85.06,2.12-.47,2.63-.69l-.14,1.71c-.88.38-1.57.63-2.81.63-1.83,0-3.11-1.67-3.11-4.01Z"/>
          <path class="cls-6" d="M77.26,41.79h1.79v6.18h2.9v1.63h-4.69v-7.81Z"/>
          <path class="cls-6" d="M84.38,41.79v4.79c0,.9.47,1.56,1.32,1.56s1.28-.66,1.28-1.56v-4.79h1.79v4.68c0,2.12-1.16,3.31-3.13,3.31s-3.05-1.19-3.05-3.31v-4.68h1.79Z"/>
          <path class="cls-6" d="M92.81,43.05c-.58,0-.96.27-.96.71,0,.58,1.15.96,2.14,1.33,1.38.5,2.09,1.23,2.09,2.32,0,1.5-1.12,2.36-2.84,2.36-1.08,0-2.18-.25-3.08-.7l.15-1.61c1.12.55,2.03.87,3.01.87.7,0,1.06-.33,1.06-.81,0-.57-.92-.98-2.29-1.44-1.28-.45-1.94-1.09-1.94-2.15,0-1.46.95-2.31,2.59-2.31,1.02,0,2.05.22,3.15.75l-.15,1.62c-1.03-.59-2.12-.93-2.94-.93Z"/>
          <path class="cls-6" d="M99.25,41.79v7.81h-1.79v-7.81h1.79Z"/>
          <path class="cls-6" d="M100.39,41.79h1.89l1.58,6.44,1.61-6.44h1.77l-2.19,7.81h-2.48l-2.19-7.81Z"/>
          <path class="cls-6" d="M113.74,41.79v1.63h-3.64v1.77h2.75v.81h-2.75v1.96h3.64v1.63h-5.42v-7.81h5.42Z"/>
        </g>
        <g>
          <path class="cls-8" d="M24.24,41.64c-.28-.26-1.14-.16-2.81-.07.33-1.39.57-2.61,1.18-3.56,2.86.16,6.38.56,10.41.55,7.93-.02,8-2.98,8-2.98-3.38.97-8.01.69-11.52.36-4.4-.4-8.81-1.42-12.44-.45-4.3,1.15-4.71,4.34-4.56,5.71,1.72-2.26,4.05-3.07,7.04-3.24.28-.02.58-.02.89-.02-.54.57-.96,1.46-1.4,2.86-.09.31-.19.6-.28.89-3.67.32-4.39,2-4.18,2.44.22.47,1.53-.15,3.15-.33.1-.01.2-.02.3-.03-.64,1.64-1.34,2.82-2.47,3.5-1.72,1.04-3.53.56-3.89.27.14,1.92,3.02,2.96,5.47,1.62,1.95-1.07,3.08-3.62,3.7-5.53.54,0,1.08-.02,1.62-.05,1.48-.1,2.13-1.61,1.77-1.95M53.88,39.49c-.31-.1-.63.07-.73.38,0,0,0,0,0,0-.05.15-.03.3.03.43-.56.51-1.07.89-1.34.8-.35-.11-.09-1.06.26-1.93.31.05.61-.14.7-.44.11-.34-.08-.7-.41-.81-.33-.11-.69.08-.8.41,0,0,0,0,0,0-.08.24,0,.49.16.65-.45.83-.93,1.56-1.34,1.43h-.02c-.42-.14-.39-1.01-.28-1.96.23-.03.44-.2.52-.44.11-.34-.08-.7-.41-.81-.33-.11-.69.08-.8.41,0,0,0,0,0,0-.1.3.04.62.31.76-.22.91-.55,1.84-.9,1.72-.27-.09-.47-.69-.63-1.43.28-.16.39-.52.23-.8-.07-.13-.19-.23-.33-.27-.31-.1-.63.07-.73.38,0,0,0,0,0,0-.1.31.07.64.38.74.02,0,.04.01.06.02l.1,2.47,4.04,1.31,1.51-1.95c.29.14.64.02.77-.27.01-.03.02-.05.03-.08.1-.31-.07-.64-.38-.74"/>
          <path class="cls-8" d="M49.23,46.38c-.75,1.33-1.82,2.01-2.39,1.52-.57-.49-.43-1.98.32-3.31.75-1.33,1.82-2.01,2.39-1.52.57.49.43,1.98-.32,3.31M48.21,41.8s-.96.36-1.63.99c-.23.22-.45.44-.65.69h0c-.18.24-.33.48-.48.75-.22.37-.4.75-.55,1.16h0s-.39.82-.67,1.22c-.28.4-.8.78-1.01.92-.24.11-.5.21-.76.29-1.72.5-2.03-.73-1.65-1.32.14-.21,1.09-.94,1.74-1.48,1.26-1.04,2.12-1.71,2.71-2.31.63-.64.22-.99-.26-1.07-1.21-.21-1.77.11-2.12.42-.43.37-2.97,3.43-2.97,3.43,0,0,4.13-8,4.81-9.37.56-1.13-2.13-1.29-2.87.34-.43.95-3.39,7.81-3.76,8.66-.66,1.55-.7,1.79-1.03,2.07,0,0,0,0,0,.01l-.03.02s0,0,0,0c-.32.26-.76.5-1.06.5-.18,0-.28-.11-.31-.33-.03-.22,0-.5.08-.84.05-.2.12-.43.2-.67.08-.24.17-.49.27-.73.1-.25.2-.49.3-.72l.29-.65c.09-.2.16-.37.22-.51.06-.14.1-.24.11-.3.1-.41.08-.77-.02-1-.1-.23-.29-.35-.56-.35s-.53.08-.77.21c-.26.15-.5.31-.74.61-.21.26-.41.51-.61.78-.14.18-.28.36-.43.56-.15.19-.3.38-.43.56-.19.25-.39.51-.58.76h-.16s.04-.11.08-.23c.04-.11.1-.24.16-.4.14-.34.27-.67.4-1.01.07-.17.12-.32.17-.46.05-.14.09-.25.1-.33.07-.3.08-.54,0-.72-.07-.18-.25-.27-.55-.27s-.55.09-.76.25c-.21.17-.38.39-.5.63-.18.39-.36.78-.52,1.17-.4.94-.76,1.9-1.08,2.87-.07.2-.13.41-.2.62-.39.2-.79.36-1.2.49-.16.05-.36.08-.47-.04-.08-.09-.09-.23-.07-.35.06-.65.34-1.25.6-1.85.44-1,.86-2.02,1.24-3.05.05-.13.1-.27.05-.4-.07-.2-.31-.28-.52-.31-.45-.06-.98-.01-1.27.34-.1.12-.16.26-.22.4l-1.51,3.44c-.32.72-.71,1.52-1.45,1.78-.13.04-.27.07-.4.01-.16-.07-.24-.26-.24-.43,0-.18.07-.34.13-.51.62-1.53,1.08-2.6,1.7-4.13.03-.07.18-.43.19-.6,0-.11-.06-.21-.16-.25-.4-.18-.88-.07-1.24.18-.56.4-.87,1.04-1.15,1.65-.31.68-.62,1.35-.9,2.04-.32.79-.67,1.56-.84,2.39-.09.43-.06.98.24,1.29.2.2.5.26.78.27,1.14.04,2.22-.57,3.05-1.35.03.42.09.89.44,1.13.22.15.5.15.77.12.53-.06,1.04-.22,1.53-.42.21-.08.41-.17.61-.27,0,.09.01.17.03.25.03.16.11.29.22.39.11.1.28.14.5.14.18,0,.35-.04.5-.12.16-.08.32-.24.48-.46l3.18-4.28h.13c-.16.41-.32.82-.46,1.23-.13.35-.24.7-.33,1.07-.21.84-.26,1.48-.16,1.91s.3.65.59.65.59-.04.89-.13c.3-.09.58-.2.86-.33.2-.09.39-.2.58-.31,0,.07-.02.21-.02.28,0,.24.03.29.13.39.11.1.22.11.45.11.17,0,.24-.02.39-.13.14-.1.67-.89,1.07-1.45.07-.09.14-.19.22-.29-.15.69.17,1.7,1.12,1.86.93.15,2.44-.06,4.38-1.58.03.21.09.41.16.6.14.36.36.65.67.87.3.22.71.33,1.21.33.35,0,.69-.06,1.03-.18.34-.12.67-.29.97-.49.32-.21.61-.46.87-.73.52-.55.95-1.17,1.27-1.86.28-.64.41-1.11.55-1.85.06-.39.1-.74.09-1.05,0,0-.03-.78-.14-.85-.11-.07-3.06-.97-3.06-.97"/>
        </g>
      </g>
    </g>
  </g>
  <g class="cls-3">
    <g>
      <path class="cls-2" d="M131.28,116.79v5.74h3.24v15.67h35.93v-15.2h2.82v-6.21h-41.99ZM148.61,127.52h-4.28v-5.21h4.28v5.21ZM154.67,127.52h-4.07v-5.21h4.07v5.21ZM161.35,127.52h-4.13v-5.21h4.13v5.21Z"/>
      <rect class="cls-2" x="133.05" y="112.41" width="36.29" height="3.96"/>
      <rect class="cls-2" x="135.87" y="109.54" width="31.7" height="2.4"/>
      <path class="cls-2" d="M137.38,109.02h26.63v-2.88c0-.29-.1-.58-.28-.81-.53-1.11-3.39-7-4.87-6.57-1.1.32-.97,3.98-.84,5.89.02.22-.07.44-.22.6-.74.77-1.48,1.54-2.23,2.3-.13.13-.35.02-.32-.17.16-.79.32-1.58.48-2.37.39-1.77.77-3.53,1.16-5.3.02-.08-.07-.15-.14-.12-1.14.52-2.28,1.05-3.42,1.57-.22.1-.36.32-.36.56v4.71c0,.23-.12.44-.32.55l-.79.44c-.2.11-.43-.04-.42-.26l.26-4.94c0-.16-.18-.24-.29-.13-.78.78-1.57,1.57-2.35,2.35-.13.13-.35.03-.35-.15l.04-1.37c0-.25.12-.48.32-.63.62-.49,2.13-1.51,4.01-1.62.44-.03.82-.32.96-.73.29-.83.87-2.12,1.75-2.66.29-.18.55-.39.75-.66.45-.63,1.16-1.75,1.13-2.51l-.03-8.54c0-.32-.4-.46-.59-.21-.9,1.14-2.48,3.49-2.32,5.65,0,.08.01.17.03.25,0,0-1.01,2.78-4.46,5.14l-.2,1c-.1.48-.35.93-.72,1.25-.76.66-2.1,1.92-2.85,3.13-.34.55-.52,1.18-.54,1.83l-.05,1.78c0,.15-.05.29-.14.41l-.87,1.23c-.1.14-.33.07-.33-.1v-1.77c0-.4-.36-.7-.76-.62-1.06.23-3.24,1.12-6.47,4.51Z"/>
      <path class="cls-2" d="M142.52,109.02v-1.65c-.27.16-.86.56-1.08,1.29-.04.13-.06.25-.07.36"/>
      <path class="cls-2" d="M152.14,92.18l-6.44,9.67c-1.09,1.64-3.49,1.72-4.68.14h0c-.1-.13-.01-.32.15-.33,1.03-.05,3.78-.4,4.66-2.63.09-.23-.09-.49-.34-.46-.49.06-1.43.37-3.1,1.5-.3.2-.69-.06-.62-.41.1-.48.29-1.01.61-1.53.12-.19.24-.36.37-.52.01-.02.03-.03.05-.05,2.98-1.93,5.96-3.86,8.94-5.78.26-.17.57.14.4.4Z"/>
      <path class="cls-2" d="M173.25,84.09c.6-.32,1.2-.63,1.81-.95-.06-.5-.07-.51-.13-1.02-2.48-.58-4.96-1.15-7.45-1.73-.21-.05-.43,0-.6.12-.9.63-1.7,1.14-2.35,1.53-1.15.69-1.47.81-1.78.69-.86-.33-.45-2.14-1.22-2.54-.49-.25-1.45.05-3.48,2.12v5c0,.14.05.28.14.38l.46.56s.79,4.72-1.45,8.59c-.04.07.05.14.11.08.56-.57,1.51-1.49,2.24-1.88.12-.07.25.08.17.2-.34.43-.84,1.15-.87,1.78-.01.22.16.41.37.41h.83c.34,0,.66.18.82.48.72,1.27,1.45,2.55,2.17,3.82.06.11.24.07.24-.06v-8.04c0-.23.16-.44.39-.49l2.39-.55c.16-.04.31-.12.43-.24l2.39-2.41c.12-.12.28-.19.45-.19h2.51c.27,0,.53-.11.72-.31.42-.45,1.06-1.32,1.13-2.57.06-1.04-.3-1.85-.57-2.3-.1-.17-.04-.39.14-.48ZM172.79,83.53l-2.68.21c-.21.02-.41.12-.54.28l-5.33,6.41c-.42.51-1.17.59-1.69.18l-3.07-2.4c-.27-.21-.29-.62-.02-.85l6.21-5.46c.28-.24.66-.33,1.01-.23l6.13,1.7c.09.02.08.16-.02.16Z"/>
      <path class="cls-2" d="M131.07,70.15h5.61s1.33-1.96,1.18-3.38c0-.07-.1-.09-.14-.03-.26.38-.92,1.32-1.47,1.73-.31.23-.75.01-.75-.38,0-.48.19-1.32,1.22-2.47.13-.15.21-.34.21-.54v-1.98s-.37-2.08-1.74-3.51c-.02-.02-.06,0-.06.02.12.7.78,4.95-.31,6.1-.17.18-.46.16-.61-.03-.32-.41-.65-1.22.77-2.03v-1.42s-2.96.35-2.47,4.23c0,.07.02.14.03.21,0,0-1.18-1.29-.66-2.09,0,0-2.51.63-.8,5.56Z"/>
      <path class="cls-2" d="M134.17,61.12h-7.22c-.16,0-.21.22-.06.28,1.59.71,3.19,1.42,4.78,2.13.31.14.68,0,.83-.31.14-.29.33-.62.61-.95.37-.44.78-.74,1.11-.93.1-.06.06-.22-.06-.22Z"/>
      <path class="cls-2" d="M181.59,64.23c-3.81-.7-7.62-1.39-11.43-2.09-.2-.12-.79-.51-1.07-1.28-.42-1.12.16-2.11.24-2.24,3.59-1.59,7.19-3.19,10.78-4.78.2-.09.1-.39-.11-.34-3.97.72-7.95,1.43-11.92,2.15-.23-.02-1.05-.11-1.7-.78-.95-.99-.68-2.33-.65-2.45l6.94-9.2c.29-.38-.21-.85-.58-.55l-9.57,8.07c-.49.12-1.41.27-2.53.03-1.18-.26-1.98-.83-2.38-1.15l-2-13.55c-.06-.4-.63-.4-.69,0l-2.14,12.93c-.42.4-1.27,1.11-2.56,1.51-1.48.46-2.74.26-3.32.13l-8.78-8.8c-.44-.44-1.16.09-.85.64l5.77,10.43c0,.21-.05,1.27-.91,2.08-1.07,1.01-2.46.78-2.61.76l-8.89-1.94c-.57-.12-.86.65-.35.94l7.94,4.36c.23.13.32.41.19.64-.42.79-1.05,1.36-1.4,1.64-.16.13-.26.34-.23.55.08.64.51.89.81,1,.18.06.3.24.3.43v2.32h.55v3.54c-.06.03-.88.41-.97,1.12-.09.74.64,1.63,1.8,1.72-.79,4.12,2.99,5.95,4.38,6.48.3.11.62.17.94.18l2.51.04v.29c-4.35,4.34-8.16,1.4-9.34.26-.24-.23-.38-.55-.38-.88v-6.72c0-.52-.43-.95-.95-.95h-4.82c-.15,0-.3.05-.41.15-1.71,1.64-1.03,4.88-.73,6.01.06.24.28.4.53.4h.09c.29,0,.51-.25.48-.54-.18-1.56.16-2.56.44-3.08.12-.23.46-.23.59,0l.85,1.42c.17.28.47.45.79.45h.29v-2.33h.45c.3,0,.54.24.54.54v2.48c0,.34-.27.61-.61.61h-.66c-.31,0-.55.25-.55.55v3.29h-.54v-3.39h-.99v3.76c0,.25.2.45.45.45h1.91c.22,0,.41-.13.48-.33.3-.78.69-2.32.86-2.97.01-.04.07-.03.07.01,0,4.09.83,5.9,1.3,6.6.17.25.02.59-.28.64-1.15.18-1.43-1.92-1.5-2.89-.02-.27-.24-.48-.52-.48h-2.34c-.42.9,1.72.73,1.72.73-.27,4.81,2.16,6.64,3.25,7.21.29.15.65.15.93-.02,3.55-2.23,5.55-5.61,6.11-6.66.03-.05.1-.02.09.04-.99,4.77-3.21,5.41-4.05,5.48-.23.02-.44.16-.52.37-.32.81-.04,1.56.22,2.02.18.32.57.47.91.33,2.3-.93,7.2-6.65,7.2-6.65,1.63.22-3.57,4.6-5.18,5.92-.24.2-.26.57-.04.79l.75.75c.27.27.72.26.98-.02l2.35-2.32c-1.01,3.45-3.29,3.81-4.31,3.79-.28,0-.51.22-.51.49l-.11,1.41c0,.24.24.42.47.34,8.19-2.77,12.15-13.4,13.09-16.3.01-.04.08-.02.07.02l-1.62,7.67c-.02.12.14.17.19.06l4.03-8.42c.12-.25.38-.42.66-.42h4.71s4.47-.07,5.14-5.77c.12-.06,2.35-1.24,2.54-3.79.14-1.85-.88-3.15-1.52-3.77-.16-.15-.05-.42.17-.42h11.19c.48,0,.53-.69.06-.77ZM141.42,84.12c-.49.92-1.64,2.93-2.88,4-.36.31-.89.31-1.27.02l-.57-.44c-.34-.26-.29-.78.09-.97,1.25-.63,3.57-1.86,4.52-2.69.06-.05.15.02.11.09ZM162.99,55.59l1.53.66-1.74,2.33-.91-.63,1.11-2.36ZM160.24,54.55l1.81.87-1.5,2.54-1.29-.83.97-2.57ZM156.31,53.72h2.05v3.41h-2.05v-3.41ZM153.03,53.37h1.95v3.37h-1.95v-3.37ZM151.5,53.72l.52,3.41-1.81.28-.97-3.3,2.26-.38ZM148.02,54.55l.91,2.85-1.36.42-1.6-2.92,2.05-.35ZM145.1,55.59l1.29,2.64-1.08.54-1.5-2.59,1.29-.59ZM142.83,57.09l1.39,2.26-.8.49-1.5-2.43.91-.31ZM144.96,71.48c-1.53,0-2.77-1.24-2.77-2.76s1.24-2.76,2.77-2.76,2.77,1.24,2.77,2.76-1.24,2.76-2.77,2.76ZM152.27,79.41l-5.8,5.78c-.18.18-.49.03-.45-.22.15-.95.59-2.47,1.85-3.84,1.4-1.51,3.08-2.04,4.12-2.24.29-.05.48.3.27.51ZM163.7,71.48c-1.53,0-2.77-1.24-2.77-2.76s1.24-2.76,2.77-2.76,2.77,1.24,2.77,2.76-1.24,2.76-2.77,2.76ZM164.31,59.58l-.61-.51,1.65-2.19,1.11.66-2.16,2.04Z"/>
      <path class="cls-1" d="M142.73,61.85c1.88-1.05,5.7-2.85,10.86-3.02,5.75-.19,10.06,1.76,11.98,2.78"/>
    </g>
  </g>
</svg>