<?xml version="1.0" encoding="UTF-8"?>
<svg id="Camada_2" data-name="Camada 2" xmlns="http://www.w3.org/2000/svg" xmlns:xlink="http://www.w3.org/1999/xlink" viewBox="0 0 168.52 168.52">
  <defs>
    <style>
      .cls-1 {
        clip-path: url(#clippath);
      }

      .cls-2 {
        fill: none;
      }

      .cls-2, .cls-3, .cls-4, .cls-5, .cls-6, .cls-7 {
        stroke-width: 0px;
      }

      .cls-3 {
        fill: #ff3d47;
      }

      .cls-4, .cls-8 {
        fill: #000;
      }

      .cls-8 {
        stroke: #ff3d47;
        stroke-linecap: round;
        stroke-miterlimit: 10;
        stroke-width: .47px;
      }

      .cls-5 {
        fill-rule: evenodd;
      }

      .cls-5, .cls-7 {
        fill: #fff;
      }

      .cls-6 {
        fill: #64c7f3;
      }
    </style>
    <clipPath id="clippath">
      <rect class="cls-2" x="1.26" y="30.32" width="166" height="107.89" rx="6.51" ry="6.51"/>
    </clipPath>
  </defs>
  <g>
    <rect class="cls-3" x="1.26" y="30.32" width="166" height="107.89" rx="6.51" ry="6.51"/>
    <path class="cls-6" d="M1.26,53.39h121.18c1.27,0,2.3,1.03,2.3,2.3v33.41c0,1.27-1.03,2.3-2.3,2.3H1.26v-38h0Z"/>
    <g>
      <g>
        <path class="cls-4" d="M23.43,106.71v4.98h-11.61v-16.71h5.55v11.73h6.05Z"/>
        <path class="cls-4" d="M30.34,94.98v16.71h-5.43v-16.71h5.43Z"/>
        <path class="cls-4" d="M32.61,94.98h5.95l3.78,6.38h.05l3.75-6.38h5.95v16.71h-5.43v-5.15c0-.73.18-2.9.28-4.13l-.17-.03c-.38.73-.88,1.88-1.18,2.4l-2.6,4.53h-1.28l-2.6-4.53c-.3-.53-.8-1.65-1.18-2.4l-.15.03c.07,1.23.25,3.4.25,4.13v5.15h-5.43v-16.71Z"/>
        <path class="cls-4" d="M59.8,94.98v16.71h-5.43v-16.71h5.43Z"/>
        <path class="cls-4" d="M75.5,99.88h-4.38v11.81h-5.55v-11.81h-4.38v-4.9h14.31v4.9Z"/>
        <path class="cls-4" d="M89.33,107.48v4.2h-12.58v-16.71h12.43v4.2h-6.95v2.35h6.25v3.43h-6.25v2.53h7.1Z"/>
        <path class="cls-4" d="M90.98,94.98h6.78c6.38,0,8.45,2.75,8.45,8.25s-1.73,8.45-8.35,8.45h-6.88v-16.71ZM98.04,107.13c.7,0,1.5,0,2.08-.55.45-.43.68-1.23.68-2.35v-1.88c0-1.03-.13-1.8-.58-2.25-.43-.45-1.08-.58-2.08-.58h-1.73v7.6h1.63Z"/>
        <path class="cls-4" d="M23.63,126v4.2h-12.58v-16.71h12.43v4.2h-6.95v2.35h6.25v3.43h-6.25v2.53h7.1Z"/>
        <path class="cls-4" d="M25.28,113.5h6.78c6.38,0,8.45,2.75,8.45,8.25s-1.73,8.45-8.35,8.45h-6.88v-16.71ZM32.34,125.65c.7,0,1.5,0,2.08-.55.45-.43.68-1.23.68-2.35v-1.88c0-1.03-.13-1.8-.58-2.25-.43-.45-1.08-.58-2.08-.58h-1.73v7.6h1.63Z"/>
        <path class="cls-4" d="M47.84,113.5v16.71h-5.43v-16.71h5.43Z"/>
        <path class="cls-4" d="M63.55,118.4h-4.38v11.81h-5.55v-11.81h-4.38v-4.9h14.31v4.9Z"/>
        <path class="cls-4" d="M70.38,113.5v16.71h-5.43v-16.71h5.43Z"/>
        <path class="cls-4" d="M80.51,113.22c4.7,0,8.25,2.6,8.25,8.68,0,5.58-2.93,8.58-8.25,8.58s-8.23-3.08-8.23-8.58c0-6.08,3.53-8.68,8.23-8.68ZM80.51,125.68c1.93,0,2.78-1.13,2.78-2.93v-1.85c0-1.78-.83-2.88-2.78-2.88s-2.78,1.1-2.78,2.88v1.85c0,1.83.85,2.93,2.78,2.93Z"/>
        <path class="cls-4" d="M90.53,113.5h5.83l3.13,4.9c.35.53,1.43,2.68,2.25,4.33l.18-.05c-.3-1.85-.7-4.6-.7-5.13v-4.05h5.4v16.71h-5.53l-3.35-5.23c-.3-.5-1.2-2.2-1.98-3.58l-.18.02c.13.98.38,3.23.38,4.03v4.75h-5.43v-16.71Z"/>
      </g>
      <g>
        <path class="cls-4" d="M71.2,60.77v2.45h5.45v3.54h-5.45v5.11h-5.06v-15.43h11.04v4.34h-5.98Z"/>
        <path class="cls-4" d="M92.44,71.7l-.12.16h-5.08l-.79-2.82h-4.83l-.79,2.82h-5.08l-.12-.16,5.01-15.27h6.77l5.01,15.27ZM82.55,65.78h2.98c-.49-1.64-.92-3.51-1.36-5.2h-.25c-.44,1.69-.88,3.56-1.36,5.2Z"/>
        <path class="cls-4" d="M103.43,67.26v4.6h-10.72v-15.43h5.13v10.84h5.59Z"/>
        <path class="cls-4" d="M114.57,67.26v4.6h-10.72v-15.43h5.13v10.84h5.59Z"/>
        <path class="cls-4" d="M17.42,75.53c1.28,0,2.37.17,2.96.31v3.11l-.07.07c-.64-.09-1.38-.17-2.16-.17-.88,0-1.68.12-2.11.42-.47.33-.67,1.11-.67,1.94v.55c0,.9.23,1.66.73,1.97.43.26,1.28.35,1.99.35s1.8-.14,2.37-.26l.09.07v3.1c-.66.19-1.78.42-3.48.42-4.1,0-5.68-1.92-5.68-6.04s1.96-5.83,6.04-5.83Z"/>
        <path class="cls-4" d="M26.38,75.49c3.25,0,5.71,1.8,5.71,6,0,3.86-2.02,5.93-5.71,5.93s-5.69-2.13-5.69-5.93c0-4.2,2.44-6,5.69-6ZM26.38,84.11c1.33,0,1.92-.78,1.92-2.02v-1.28c0-1.23-.57-1.99-1.92-1.99s-1.92.76-1.92,1.99v1.28c0,1.26.59,2.02,1.92,2.02Z"/>
        <path class="cls-4" d="M32.71,75.68h4.03l2.16,3.39c.24.36.99,1.85,1.56,2.99l.12-.03c-.21-1.28-.48-3.18-.48-3.55v-2.8h3.74v11.56h-3.82l-2.32-3.62c-.21-.35-.83-1.52-1.37-2.47l-.12.02c.09.68.26,2.23.26,2.79v3.29h-3.75v-11.56Z"/>
        <path class="cls-4" d="M44.13,75.68h3.89l1.21,4.26c.09.26.59,2.8.78,3.96h.16c.21-1.16.71-3.7.78-3.96l1.23-4.26h3.88l.1.12-3.69,11.44h-4.76l-3.67-11.44.09-.12Z"/>
        <path class="cls-4" d="M65.05,84.33v2.91h-8.7v-11.56h8.6v2.91h-4.81v1.63h4.33v2.37h-4.33v1.75h4.91Z"/>
        <path class="cls-4" d="M65.59,75.68h4.03l2.16,3.39c.24.36.99,1.85,1.56,2.99l.12-.03c-.21-1.28-.48-3.18-.48-3.55v-2.8h3.74v11.56h-3.82l-2.32-3.62c-.21-.35-.83-1.52-1.37-2.47l-.12.02c.09.68.26,2.23.26,2.79v3.29h-3.75v-11.56Z"/>
        <path class="cls-4" d="M86.89,79.07h-3.03v8.17h-3.84v-8.17h-3.03v-3.39h9.9v3.39Z"/>
        <path class="cls-4" d="M91.01,75.68v11.56h-3.75v-11.56h3.75Z"/>
        <path class="cls-4" d="M97.41,75.49c3.25,0,5.71,1.8,5.71,6,0,3.86-2.02,5.93-5.71,5.93s-5.69-2.13-5.69-5.93c0-4.2,2.44-6,5.69-6ZM97.41,84.11c1.33,0,1.92-.78,1.92-2.02v-1.28c0-1.23-.57-1.99-1.92-1.99s-1.92.76-1.92,1.99v1.28c0,1.26.59,2.02,1.92,2.02Z"/>
        <path class="cls-4" d="M103.75,75.68h4.03l2.16,3.39c.24.36.99,1.85,1.56,2.99l.12-.03c-.21-1.28-.48-3.18-.48-3.55v-2.8h3.74v11.56h-3.82l-2.32-3.62c-.21-.35-.83-1.52-1.37-2.47l-.12.02c.09.68.26,2.23.26,2.79v3.29h-3.75v-11.56Z"/>
        <g>
          <path class="cls-4" d="M23.48,67.86v4.11h-11.1v-4.11l4.05-3.16c1.43-1.14,2.03-1.81,2.03-2.72v-.28c0-.79-.62-1.37-2.53-1.37-1.21,0-2.53.23-3.17.44l-.09-.07v-3.92c.99-.28,2.78-.58,4.3-.58,4.45,0,6.32,1.58,6.32,5.02,0,2.44-1.19,3.69-2,4.37l-1.67,1.35c-.29.23-.93.7-1.19.84v.09h5.07Z"/>
          <path class="cls-4" d="M30.39,56.2c3.15,0,5.71,1.72,5.71,8.1,0,5.94-2.29,7.92-5.71,7.92s-5.71-2.04-5.71-7.92c0-6.39,2.58-8.1,5.71-8.1ZM30.39,67.88c1.08,0,1.5-.6,1.5-2.41v-2.51c0-1.83-.44-2.41-1.5-2.41s-1.48.6-1.48,2.41v2.51c0,1.83.42,2.41,1.48,2.41Z"/>
          <path class="cls-4" d="M48.37,67.86v4.11h-11.1v-4.11l4.05-3.16c1.43-1.14,2.03-1.81,2.03-2.72v-.28c0-.79-.62-1.37-2.53-1.37-1.21,0-2.53.23-3.17.44l-.09-.07v-3.92c.99-.28,2.78-.58,4.3-.58,4.45,0,6.32,1.58,6.32,5.02,0,2.44-1.19,3.69-2,4.37l-1.67,1.35c-.29.23-.93.7-1.19.84v.09h5.07Z"/>
          <path class="cls-4" d="M55.29,56.2c3.15,0,5.71,1.72,5.71,8.1,0,5.94-2.29,7.92-5.71,7.92s-5.71-2.04-5.71-7.92c0-6.39,2.58-8.1,5.71-8.1ZM55.29,67.88c1.08,0,1.5-.6,1.5-2.41v-2.51c0-1.83-.44-2.41-1.5-2.41s-1.48.6-1.48,2.41v2.51c0,1.83.42,2.41,1.48,2.41Z"/>
        </g>
      </g>
      <g>
        <path class="cls-7" d="M23.76,106.21v4.98h-11.61v-16.71h5.55v11.73h6.05Z"/>
        <path class="cls-7" d="M30.66,94.48v16.71h-5.43v-16.71h5.43Z"/>
        <path class="cls-7" d="M32.94,94.48h5.95l3.78,6.38h.05l3.75-6.38h5.95v16.71h-5.43v-5.15c0-.73.18-2.9.28-4.13l-.17-.03c-.38.73-.88,1.88-1.18,2.4l-2.6,4.53h-1.28l-2.6-4.53c-.3-.53-.8-1.65-1.18-2.4l-.15.03c.07,1.23.25,3.4.25,4.13v5.15h-5.43v-16.71Z"/>
        <path class="cls-7" d="M60.12,94.48v16.71h-5.43v-16.71h5.43Z"/>
        <path class="cls-7" d="M75.83,99.38h-4.38v11.81h-5.55v-11.81h-4.38v-4.9h14.31v4.9Z"/>
        <path class="cls-7" d="M89.66,106.99v4.2h-12.58v-16.71h12.43v4.2h-6.95v2.35h6.25v3.43h-6.25v2.53h7.1Z"/>
        <path class="cls-7" d="M91.31,94.48h6.78c6.38,0,8.45,2.75,8.45,8.25s-1.73,8.45-8.35,8.45h-6.88v-16.71ZM98.36,106.64c.7,0,1.5,0,2.08-.55.45-.43.68-1.23.68-2.35v-1.88c0-1.03-.13-1.8-.58-2.25-.43-.45-1.08-.58-2.08-.58h-1.73v7.6h1.63Z"/>
        <path class="cls-7" d="M23.96,125.51v4.2h-12.58v-16.71h12.43v4.2h-6.95v2.35h6.25v3.43h-6.25v2.53h7.1Z"/>
        <path class="cls-7" d="M25.61,113h6.78c6.38,0,8.45,2.75,8.45,8.25s-1.73,8.45-8.35,8.45h-6.88v-16.71ZM32.66,125.16c.7,0,1.5,0,2.08-.55.45-.43.68-1.23.68-2.35v-1.88c0-1.03-.13-1.8-.58-2.25-.43-.45-1.08-.58-2.08-.58h-1.73v7.6h1.63Z"/>
        <path class="cls-7" d="M48.17,113v16.71h-5.43v-16.71h5.43Z"/>
        <path class="cls-7" d="M63.87,117.9h-4.38v11.81h-5.55v-11.81h-4.38v-4.9h14.31v4.9Z"/>
        <path class="cls-7" d="M70.7,113v16.71h-5.43v-16.71h5.43Z"/>
        <path class="cls-7" d="M80.83,112.73c4.7,0,8.25,2.6,8.25,8.68,0,5.58-2.93,8.58-8.25,8.58s-8.23-3.08-8.23-8.58c0-6.08,3.53-8.68,8.23-8.68ZM80.83,125.18c1.93,0,2.78-1.13,2.78-2.93v-1.85c0-1.78-.83-2.88-2.78-2.88s-2.78,1.1-2.78,2.88v1.85c0,1.83.85,2.93,2.78,2.93Z"/>
        <path class="cls-7" d="M90.86,113h5.83l3.13,4.9c.35.53,1.43,2.68,2.25,4.33l.18-.05c-.3-1.85-.7-4.6-.7-5.13v-4.05h5.4v16.71h-5.53l-3.35-5.23c-.3-.5-1.2-2.2-1.98-3.58l-.18.02c.13.98.38,3.23.38,4.03v4.75h-5.43v-16.71Z"/>
      </g>
      <g>
        <g>
          <path class="cls-7" d="M61.41,41.61v1.64h-3.65v1.78h2.76v.82h-2.76v1.97h3.65v1.64h-5.45v-7.84h5.45Z"/>
          <path class="cls-7" d="M67.29,49.45l-1.49-2.99-1.54,2.99h-1.88s2.19-4,2.19-4l-2.23-3.83h2.03l1.56,2.9,1.48-2.9h1.88l-2.14,3.8,2.17,4.05h-2.03Z"/>
          <path class="cls-7" d="M69.75,45.6c0-2.45,1.32-4.17,3.21-4.17s2.95,1.43,2.98,2.81l-1.71.38c-.15-.85-.57-1.63-1.23-1.63-.83,0-1.4.89-1.4,2.36,0,1.67.59,2.52,1.61,2.61.85.06,2.13-.47,2.64-.69l-.15,1.71c-.89.38-1.58.63-2.82.63-1.84,0-3.13-1.68-3.13-4.02Z"/>
          <path class="cls-7" d="M77.23,41.61h1.79v6.21h2.91v1.64h-4.71v-7.84Z"/>
          <path class="cls-7" d="M84.38,41.61v4.81c0,.91.47,1.57,1.32,1.57s1.29-.66,1.29-1.57v-4.81h1.79v4.7c0,2.13-1.17,3.33-3.14,3.33s-3.06-1.2-3.06-3.33v-4.7h1.79Z"/>
          <path class="cls-7" d="M92.84,42.88c-.58,0-.96.27-.96.72,0,.58,1.15.96,2.15,1.33,1.39.5,2.1,1.23,2.1,2.33,0,1.5-1.12,2.36-2.85,2.36-1.09,0-2.19-.25-3.09-.71l.15-1.61c1.12.55,2.04.87,3.03.87.71,0,1.06-.34,1.06-.82,0-.57-.92-.99-2.3-1.45-1.29-.45-1.95-1.1-1.95-2.16,0-1.47.95-2.32,2.6-2.32,1.02,0,2.06.22,3.16.75l-.15,1.63c-1.03-.59-2.13-.93-2.95-.93Z"/>
          <path class="cls-7" d="M99.31,41.61v7.84h-1.79v-7.84h1.79Z"/>
          <path class="cls-7" d="M100.46,41.61h1.89l1.59,6.47,1.61-6.47h1.78l-2.2,7.84h-2.49l-2.2-7.84Z"/>
          <path class="cls-7" d="M113.86,41.61v1.64h-3.65v1.78h2.76v.82h-2.76v1.97h3.65v1.64h-5.45v-7.84h5.45Z"/>
        </g>
        <g>
          <path class="cls-5" d="M23.99,41.46c-.28-.26-1.15-.16-2.83-.07.33-1.4.57-2.62,1.19-3.58,2.87.16,6.41.56,10.45.55,7.97-.02,8.04-2.99,8.04-2.99-3.39.98-8.05.69-11.57.36-4.42-.41-8.84-1.42-12.49-.45-4.31,1.15-4.73,4.36-4.57,5.73,1.73-2.27,4.07-3.08,7.07-3.25.28-.02.58-.02.89-.02-.54.57-.97,1.47-1.41,2.87-.09.31-.19.6-.28.89-3.69.32-4.4,2.01-4.19,2.45.23.47,1.53-.15,3.17-.33.1-.01.2-.02.3-.03-.64,1.65-1.34,2.83-2.48,3.52-1.73,1.05-3.54.56-3.9.27.14,1.93,3.04,2.97,5.5,1.63,1.96-1.07,3.1-3.63,3.72-5.55.54,0,1.08-.02,1.62-.05,1.48-.1,2.14-1.61,1.77-1.96M53.76,39.3c-.31-.1-.64.07-.73.38,0,0,0,0,0,0-.05.15-.03.3.03.43-.56.51-1.07.89-1.35.8-.35-.11-.09-1.07.26-1.94.31.05.61-.14.7-.44.11-.34-.08-.7-.41-.81-.33-.11-.69.08-.8.41,0,0,0,0,0,0-.08.24,0,.49.16.66-.46.84-.93,1.56-1.35,1.44h-.02c-.42-.14-.39-1.01-.28-1.97.23-.03.44-.2.52-.44.11-.34-.08-.7-.41-.81-.33-.11-.69.08-.8.41,0,0,0,0,0,0-.1.3.04.62.31.77-.22.91-.55,1.84-.91,1.73-.27-.09-.47-.69-.63-1.43.29-.16.39-.52.23-.81-.07-.13-.19-.23-.33-.27-.31-.1-.64.07-.73.38,0,0,0,0,0,0-.1.31.07.65.38.74.02,0,.04.01.06.02l.1,2.48,4.06,1.32,1.51-1.96c.29.14.64.02.78-.27.01-.03.02-.05.03-.08.1-.31-.07-.64-.38-.74"/>
          <path class="cls-5" d="M49.09,46.22c-.75,1.34-1.83,2.02-2.4,1.52-.57-.5-.43-1.98.33-3.32.75-1.34,1.83-2.02,2.4-1.52.57.5.43,1.98-.33,3.32M48.07,41.62s-.97.36-1.64,1c-.23.22-.45.44-.65.69h0c-.19.24-.33.49-.49.75-.22.37-.41.76-.56,1.16h0s-.39.82-.67,1.23c-.28.4-.8.78-1.01.92-.25.11-.5.21-.76.29-1.72.5-2.04-.74-1.66-1.32.14-.21,1.09-.94,1.75-1.49,1.26-1.05,2.13-1.71,2.72-2.32.63-.64.22-.99-.27-1.08-1.22-.21-1.78.12-2.13.42-.43.37-2.98,3.44-2.98,3.44,0,0,4.15-8.03,4.83-9.41.56-1.14-2.13-1.3-2.88.34-.43.95-3.41,7.84-3.77,8.7-.66,1.56-.7,1.8-1.04,2.08,0,0,0,0,0,.01l-.03.02s0,0,0,0c-.32.26-.77.5-1.07.5-.18,0-.29-.11-.32-.33-.03-.22,0-.5.08-.84.05-.2.12-.43.2-.67.08-.24.18-.49.27-.74.1-.25.2-.49.3-.73l.29-.65c.09-.2.16-.37.22-.51.06-.14.1-.25.11-.31.1-.41.08-.77-.02-1.01-.1-.23-.29-.35-.57-.35s-.53.08-.77.21c-.26.15-.5.31-.75.61-.21.26-.42.52-.62.78-.14.18-.28.37-.44.56-.15.2-.3.38-.44.56-.2.25-.39.51-.59.76h-.16s.04-.11.08-.23c.04-.11.1-.25.16-.4.14-.34.27-.68.4-1.02.07-.17.12-.32.17-.46.05-.14.09-.25.11-.33.07-.3.08-.55,0-.73-.07-.18-.25-.27-.55-.27s-.55.09-.76.26c-.21.17-.39.39-.5.64-.18.39-.36.78-.52,1.17-.4.95-.76,1.91-1.09,2.88-.07.21-.13.41-.2.62-.39.2-.79.37-1.21.49-.16.05-.36.08-.47-.04-.08-.09-.09-.23-.07-.35.06-.65.34-1.26.6-1.86.45-1.01.86-2.03,1.25-3.06.05-.13.1-.27.05-.4-.07-.21-.31-.28-.52-.31-.46-.06-.98-.01-1.28.34-.1.12-.16.26-.22.4l-1.52,3.46c-.32.73-.71,1.52-1.45,1.78-.13.05-.27.07-.4.01-.16-.07-.24-.26-.24-.44,0-.18.07-.34.13-.51.62-1.54,1.09-2.61,1.71-4.14.03-.07.18-.43.19-.6,0-.11-.06-.21-.16-.26-.4-.18-.88-.07-1.24.18-.57.4-.88,1.04-1.16,1.66-.31.68-.62,1.36-.91,2.05-.32.79-.67,1.56-.84,2.4-.09.43-.06.98.24,1.29.2.2.5.26.78.27,1.14.04,2.22-.57,3.06-1.36.03.42.09.9.44,1.13.22.15.51.15.77.12.53-.06,1.04-.22,1.54-.42.21-.08.41-.17.61-.27,0,.09.01.17.03.25.04.16.11.29.22.39.11.1.28.14.51.14.18,0,.35-.04.51-.12.16-.08.32-.24.48-.46l3.2-4.3h.13c-.16.41-.32.82-.47,1.24-.13.35-.24.71-.33,1.07-.21.84-.26,1.48-.16,1.92s.3.66.6.66.6-.04.89-.13c.3-.09.59-.2.87-.33.2-.09.39-.2.58-.31,0,.07-.02.21-.02.28,0,.24.03.29.13.39.11.1.22.11.46.11.18,0,.24-.02.39-.13.15-.11.67-.89,1.08-1.45.07-.09.14-.19.22-.29-.15.7.17,1.71,1.13,1.87.93.15,2.45-.06,4.4-1.58.03.21.09.41.16.6.14.36.36.65.67.87.3.22.71.33,1.21.33.35,0,.7-.06,1.03-.18.34-.12.67-.29.98-.49.32-.21.61-.46.88-.74.53-.55.96-1.18,1.28-1.86.28-.64.42-1.12.56-1.85.06-.39.1-.74.09-1.06,0,0-.04-.78-.14-.85-.11-.07-3.07-.97-3.07-.97"/>
        </g>
      </g>
    </g>
  </g>
  <g class="cls-1">
    <g>
      <path class="cls-4" d="M131.47,116.92v5.76h3.25v15.73h36.08v-15.27h2.83v-6.23h-42.16ZM148.88,127.7h-4.3v-5.23h4.3v5.23ZM154.96,127.7h-4.09v-5.23h4.09v5.23ZM161.67,127.7h-4.14v-5.23h4.14v5.23Z"/>
      <rect class="cls-4" x="133.25" y="112.52" width="36.44" height="3.98"/>
      <rect class="cls-4" x="136.08" y="109.65" width="31.83" height="2.41"/>
      <path class="cls-4" d="M137.6,109.12h26.74v-2.89c0-.3-.1-.58-.28-.82-.53-1.11-3.4-7.03-4.89-6.6-1.1.32-.98,4-.85,5.92.02.22-.07.44-.22.6-.75.77-1.49,1.54-2.24,2.31-.13.13-.36.02-.32-.17.16-.79.32-1.59.48-2.38.39-1.77.77-3.55,1.16-5.32.02-.08-.07-.15-.14-.12-1.14.53-2.29,1.05-3.43,1.58-.22.1-.36.32-.36.56v4.73c0,.23-.12.44-.33.55l-.8.44c-.2.11-.43-.04-.42-.26l.26-4.96c0-.16-.18-.24-.29-.13-.79.79-1.58,1.57-2.36,2.36-.13.13-.35.03-.35-.15l.04-1.38c0-.25.12-.48.32-.64.62-.49,2.14-1.52,4.02-1.63.44-.03.82-.32.97-.74.3-.83.88-2.13,1.76-2.67.29-.18.55-.39.75-.66.45-.63,1.16-1.75,1.14-2.52l-.03-8.58c0-.32-.4-.46-.6-.21-.9,1.15-2.49,3.5-2.33,5.67,0,.08.01.17.03.25,0,0-1.01,2.79-4.47,5.16l-.2,1c-.1.49-.35.93-.72,1.25-.76.67-2.11,1.92-2.86,3.14-.34.55-.52,1.19-.54,1.84l-.05,1.78c0,.15-.05.29-.14.41l-.87,1.23c-.1.14-.33.07-.33-.1v-1.78c0-.4-.37-.71-.76-.62-1.07.23-3.25,1.12-6.49,4.52Z"/>
      <path class="cls-4" d="M142.76,109.12v-1.66c-.27.16-.87.56-1.08,1.29-.04.13-.06.25-.07.37"/>
      <path class="cls-4" d="M152.42,92.21l-6.46,9.71c-1.1,1.65-3.5,1.72-4.7.14h0c-.1-.13-.01-.32.15-.33,1.03-.05,3.79-.4,4.68-2.64.09-.24-.09-.49-.34-.46-.5.06-1.44.37-3.11,1.51-.3.2-.7-.06-.62-.42.1-.48.29-1.01.61-1.54.12-.19.24-.37.37-.52.01-.02.03-.03.05-.05,2.99-1.94,5.99-3.87,8.98-5.81.26-.17.57.14.4.4Z"/>
      <path class="cls-4" d="M173.61,84.08c.6-.32,1.21-.64,1.81-.95-.07-.5-.07-.52-.13-1.02-2.49-.58-4.98-1.16-7.48-1.74-.21-.05-.43,0-.61.12-.91.63-1.71,1.14-2.36,1.54-1.15.69-1.48.81-1.78.7-.86-.33-.45-2.14-1.22-2.55-.49-.25-1.46.05-3.5,2.13v5.02c0,.14.05.28.14.39l.46.56s.79,4.73-1.45,8.62c-.04.07.05.14.11.08.56-.58,1.52-1.5,2.25-1.89.13-.07.25.08.17.2-.34.43-.84,1.16-.88,1.79-.01.22.16.41.38.41h.83c.34,0,.66.18.83.48.73,1.28,1.45,2.56,2.18,3.84.06.11.24.07.24-.06v-8.08c0-.23.16-.44.39-.49l2.4-.55c.16-.04.31-.12.43-.24l2.4-2.42c.12-.12.28-.19.45-.19h2.53c.27,0,.53-.11.72-.31.42-.45,1.07-1.33,1.14-2.58.06-1.04-.3-1.86-.57-2.31-.1-.17-.04-.39.14-.48ZM173.16,83.53l-2.69.22c-.21.02-.41.12-.55.28l-5.35,6.44c-.42.51-1.18.59-1.7.18l-3.08-2.41c-.28-.22-.29-.63-.02-.86l6.24-5.48c.28-.24.66-.33,1.01-.23l6.16,1.71c.09.02.08.16-.02.16Z"/>
      <path class="cls-4" d="M131.26,70.09h5.63s1.34-1.97,1.19-3.4c0-.07-.1-.09-.14-.03-.26.38-.92,1.33-1.48,1.74-.32.23-.75.01-.76-.38,0-.49.19-1.32,1.22-2.48.13-.15.21-.34.21-.54v-1.99s-.37-2.09-1.75-3.52c-.02-.02-.06,0-.06.02.12.7.78,4.97-.31,6.13-.17.18-.46.16-.62-.03-.32-.41-.65-1.22.77-2.04v-1.43s-2.97.35-2.48,4.25c0,.07.02.14.03.21,0,0-1.19-1.29-.66-2.09,0,0-2.52.63-.8,5.58Z"/>
      <path class="cls-4" d="M134.38,61.02h-7.25c-.16,0-.21.22-.06.28,1.6.71,3.2,1.42,4.8,2.13.32.14.68,0,.83-.31.14-.29.33-.63.62-.96.38-.44.78-.74,1.11-.93.1-.06.06-.22-.06-.22Z"/>
      <path class="cls-4" d="M181.99,64.14c-3.83-.7-7.65-1.4-11.48-2.1-.2-.12-.79-.51-1.07-1.28-.42-1.13.16-2.12.24-2.25,3.61-1.6,7.22-3.2,10.82-4.8.2-.09.1-.39-.11-.35-3.99.72-7.98,1.44-11.97,2.16-.23-.02-1.05-.11-1.7-.79-.96-.99-.68-2.34-.66-2.46l6.97-9.23c.29-.38-.21-.86-.58-.55l-9.61,8.11c-.49.12-1.42.27-2.54.03-1.18-.26-1.99-.83-2.39-1.15l-2-13.6c-.06-.4-.63-.4-.7,0l-2.15,12.98c-.42.4-1.27,1.12-2.57,1.52-1.49.46-2.75.26-3.33.13l-8.81-8.84c-.44-.44-1.16.09-.86.64l5.79,10.47c0,.21-.05,1.27-.92,2.09-1.07,1.02-2.47.79-2.62.76l-8.93-1.95c-.57-.13-.87.66-.35.94l7.97,4.38c.23.13.32.41.2.64-.42.79-1.06,1.37-1.4,1.64-.17.13-.26.34-.23.55.08.64.51.9.82,1,.19.06.31.24.31.43v2.33h.55v3.56c-.06.03-.88.41-.97,1.13-.09.74.65,1.63,1.81,1.73-.79,4.14,3,5.97,4.4,6.5.3.11.62.17.94.18l2.52.04v.29c-4.36,4.36-8.19,1.41-9.37.27-.24-.23-.38-.55-.38-.88v-6.75c0-.53-.43-.95-.95-.95h-4.84c-.15,0-.3.05-.41.16-1.72,1.65-1.04,4.9-.73,6.04.06.24.28.4.53.4h.09c.29,0,.51-.25.48-.54-.18-1.57.16-2.57.44-3.1.12-.23.46-.23.59,0l.85,1.43c.17.28.47.45.8.45h.29v-2.34h.46c.3,0,.54.24.54.54v2.49c0,.34-.27.61-.61.61h-.67c-.31,0-.56.25-.56.55v3.3h-.54v-3.4h-1v3.77c0,.25.2.45.45.45h1.92c.22,0,.41-.13.49-.33.3-.79.7-2.33.86-2.99.01-.04.07-.03.07.01,0,4.11.83,5.93,1.31,6.63.17.25.02.6-.28.64-1.16.18-1.44-1.93-1.51-2.91-.02-.27-.25-.48-.52-.48h-2.35c-.42.91,1.73.73,1.73.73-.27,4.83,2.16,6.66,3.26,7.24.29.15.65.15.93-.02,3.56-2.24,5.57-5.63,6.13-6.68.03-.05.1-.02.09.04-1,4.79-3.23,5.43-4.07,5.5-.23.02-.44.16-.52.37-.32.82-.04,1.57.22,2.03.18.32.57.47.91.33,2.31-.93,7.23-6.68,7.23-6.68,1.64.22-3.59,4.62-5.2,5.94-.25.2-.26.57-.04.79l.75.75c.27.27.72.26.98-.02l2.36-2.33c-1.02,3.47-3.3,3.83-4.32,3.81-.28,0-.51.22-.51.5l-.11,1.42c0,.24.24.42.47.34,8.22-2.78,12.2-13.45,13.15-16.36.01-.04.08-.02.07.02l-1.62,7.7c-.02.12.14.17.19.06l4.05-8.45c.12-.26.38-.42.66-.42h4.73s4.49-.07,5.16-5.79c.12-.06,2.35-1.24,2.55-3.8.14-1.86-.88-3.16-1.53-3.79-.16-.15-.05-.42.17-.42h11.23c.48,0,.53-.7.06-.77ZM141.66,84.11c-.49.92-1.64,2.94-2.89,4.02-.36.31-.9.31-1.27.02l-.57-.44c-.34-.26-.29-.78.09-.98,1.25-.63,3.58-1.87,4.54-2.7.06-.05.15.02.11.09ZM163.32,55.47l1.54.66-1.75,2.34-.91-.63,1.12-2.37ZM160.55,54.43l1.82.87-1.5,2.55-1.29-.84.98-2.58ZM156.6,53.59h2.06v3.42h-2.06v-3.42ZM153.32,53.24h1.96v3.38h-1.96v-3.38ZM151.78,53.59l.52,3.42-1.82.28-.98-3.31,2.27-.38ZM148.28,54.43l.91,2.86-1.36.42-1.61-2.93,2.06-.35ZM145.35,55.47l1.29,2.65-1.08.54-1.5-2.6,1.29-.59ZM143.08,56.97l1.4,2.27-.8.49-1.5-2.44.91-.31ZM145.21,71.43c-1.53,0-2.78-1.24-2.78-2.77s1.24-2.77,2.78-2.77,2.78,1.24,2.78,2.77-1.24,2.77-2.78,2.77ZM152.55,79.39l-5.82,5.81c-.18.18-.49.03-.45-.22.15-.95.59-2.48,1.86-3.85,1.4-1.52,3.09-2.05,4.14-2.25.29-.05.48.3.27.51ZM164.03,71.43c-1.53,0-2.78-1.24-2.78-2.77s1.24-2.77,2.78-2.77,2.78,1.24,2.78,2.77-1.24,2.77-2.78,2.77ZM164.64,59.48l-.61-.52,1.66-2.2,1.12.66-2.17,2.05Z"/>
      <path class="cls-8" d="M142.97,61.75c1.89-1.05,5.73-2.87,10.91-3.04,5.77-.19,10.1,1.77,12.03,2.79"/>
    </g>
  </g>
</svg>