<?xml version="1.0" encoding="UTF-8"?>
<svg id="Camada_2" data-name="Camada 2" xmlns="http://www.w3.org/2000/svg" xmlns:xlink="http://www.w3.org/1999/xlink" viewBox="0 0 168.52 168.52">
  <defs>
    <style>
      .cls-1 {
        stroke: #000;
        stroke-linecap: round;
        stroke-miterlimit: 10;
        stroke-width: .32px;
      }

      .cls-1, .cls-2 {
        fill: #64c7f3;
      }

      .cls-3 {
        clip-path: url(#clippath);
      }

      .cls-4 {
        fill: none;
      }

      .cls-4, .cls-5, .cls-6, .cls-7, .cls-2, .cls-8 {
        stroke-width: 0px;
      }

      .cls-5 {
        fill: #ff3d47;
      }

      .cls-6 {
        fill: #000;
      }

      .cls-7 {
        fill-rule: evenodd;
      }

      .cls-7, .cls-8 {
        fill: #fff;
      }
    </style>
    <clipPath id="clippath">
      <rect class="cls-4" x=".92" y="30.09" width="166.68" height="108.33" rx="6.53" ry="6.53"/>
    </clipPath>
  </defs>
  <g>
    <g>
      <path class="cls-6" d="M7.45,31.39h153.61c2.89,0,5.24,2.35,5.24,5.24v95.26c0,2.89-2.35,5.24-5.24,5.24H7.45c-2.89,0-5.24-2.35-5.24-5.24V36.63c0-2.89,2.35-5.24,5.24-5.24Z"/>
      <path class="cls-2" d="M161.07,32.68c2.18,0,3.95,1.77,3.95,3.95v95.26c0,2.18-1.77,3.95-3.95,3.95H7.45c-2.18,0-3.95-1.77-3.95-3.95V36.63c0-2.18,1.77-3.95,3.95-3.95h153.61M161.07,30.09H7.45c-3.61,0-6.53,2.92-6.53,6.53v95.26c0,3.61,2.92,6.53,6.53,6.53h153.61c3.61,0,6.53-2.92,6.53-6.53V36.63c0-3.61-2.92-6.53-6.53-6.53h0Z"/>
    </g>
    <path class="cls-5" d="M.92,53.26h121.68c1.27,0,2.31,1.03,2.31,2.31v33.55c0,1.27-1.03,2.31-2.31,2.31H.92v-38.16h0Z"/>
    <g>
      <g>
        <path class="cls-8" d="M71.15,60.67v2.46h5.47v3.55h-5.47v5.13h-5.08v-15.5h11.09v4.36h-6.01Z"/>
        <path class="cls-8" d="M92.47,71.65l-.12.16h-5.1l-.79-2.83h-4.85l-.79,2.83h-5.1l-.12-.16,5.03-15.33h6.8l5.03,15.33ZM82.54,65.71h2.99c-.49-1.65-.93-3.53-1.37-5.22h-.26c-.44,1.69-.88,3.57-1.37,5.22Z"/>
        <path class="cls-8" d="M103.51,67.19v4.62h-10.76v-15.5h5.15v10.88h5.61Z"/>
        <path class="cls-8" d="M114.7,67.19v4.62h-10.76v-15.5h5.15v10.88h5.61Z"/>
        <path class="cls-8" d="M17.14,75.49c1.29,0,2.38.17,2.97.31v3.13l-.07.07c-.64-.09-1.39-.17-2.17-.17-.89,0-1.69.12-2.12.42-.47.33-.68,1.11-.68,1.95v.56c0,.9.23,1.67.73,1.98.43.26,1.29.35,2,.35s1.81-.14,2.38-.26l.09.07v3.11c-.66.19-1.79.42-3.49.42-4.12,0-5.7-1.93-5.7-6.06s1.96-5.86,6.06-5.86Z"/>
        <path class="cls-8" d="M26.14,75.46c3.27,0,5.73,1.81,5.73,6.03,0,3.87-2.03,5.96-5.73,5.96s-5.72-2.14-5.72-5.96c0-4.22,2.45-6.03,5.72-6.03ZM26.14,84.11c1.34,0,1.93-.78,1.93-2.03v-1.29c0-1.23-.57-2-1.93-2s-1.93.76-1.93,2v1.29c0,1.27.59,2.03,1.93,2.03Z"/>
        <path class="cls-8" d="M32.5,75.65h4.05l2.17,3.41c.24.36.99,1.86,1.56,3.01l.12-.03c-.21-1.29-.49-3.2-.49-3.56v-2.81h3.75v11.61h-3.84l-2.33-3.63c-.21-.35-.83-1.53-1.37-2.48l-.12.02c.09.68.26,2.24.26,2.8v3.3h-3.77v-11.61Z"/>
        <path class="cls-8" d="M43.97,75.65h3.91l1.22,4.27c.09.26.59,2.81.78,3.98h.16c.21-1.16.71-3.72.78-3.98l1.23-4.27h3.89l.1.12-3.7,11.48h-4.78l-3.68-11.48.09-.12Z"/>
        <path class="cls-8" d="M64.98,84.33v2.92h-8.74v-11.61h8.63v2.92h-4.83v1.63h4.34v2.38h-4.34v1.75h4.93Z"/>
        <path class="cls-8" d="M65.52,75.65h4.05l2.17,3.41c.24.36.99,1.86,1.56,3.01l.12-.03c-.21-1.29-.49-3.2-.49-3.56v-2.81h3.75v11.61h-3.84l-2.33-3.63c-.21-.35-.83-1.53-1.37-2.48l-.12.02c.09.68.26,2.24.26,2.8v3.3h-3.77v-11.61Z"/>
        <path class="cls-8" d="M86.9,79.05h-3.04v8.2h-3.86v-8.2h-3.04v-3.41h9.94v3.41Z"/>
        <path class="cls-8" d="M91.04,75.65v11.61h-3.77v-11.61h3.77Z"/>
        <path class="cls-8" d="M97.47,75.46c3.27,0,5.73,1.81,5.73,6.03,0,3.87-2.03,5.96-5.73,5.96s-5.72-2.14-5.72-5.96c0-4.22,2.45-6.03,5.72-6.03ZM97.47,84.11c1.34,0,1.93-.78,1.93-2.03v-1.29c0-1.23-.57-2-1.93-2s-1.93.76-1.93,2v1.29c0,1.27.59,2.03,1.93,2.03Z"/>
        <path class="cls-8" d="M103.83,75.65h4.05l2.17,3.41c.24.36.99,1.86,1.56,3.01l.12-.03c-.21-1.29-.49-3.2-.49-3.56v-2.81h3.75v11.61h-3.84l-2.33-3.63c-.21-.35-.83-1.53-1.37-2.48l-.12.02c.09.68.26,2.24.26,2.8v3.3h-3.77v-11.61Z"/>
        <g>
          <path class="cls-8" d="M23.22,67.79v4.13h-11.15v-4.13l4.07-3.17c1.44-1.14,2.04-1.82,2.04-2.73v-.28c0-.79-.62-1.38-2.54-1.38-1.22,0-2.54.23-3.19.44l-.09-.07v-3.94c1-.28,2.79-.58,4.31-.58,4.47,0,6.35,1.59,6.35,5.04,0,2.45-1.19,3.71-2.01,4.38l-1.68,1.35c-.29.23-.93.7-1.19.84v.09h5.09Z"/>
          <path class="cls-8" d="M30.17,56.08c3.16,0,5.73,1.73,5.73,8.14,0,5.97-2.3,7.95-5.73,7.95s-5.73-2.05-5.73-7.95c0-6.41,2.59-8.14,5.73-8.14ZM30.17,67.81c1.08,0,1.5-.61,1.5-2.42v-2.52c0-1.84-.44-2.42-1.5-2.42s-1.48.61-1.48,2.42v2.52c0,1.84.42,2.42,1.48,2.42Z"/>
          <path class="cls-8" d="M48.22,67.79v4.13h-11.15v-4.13l4.07-3.17c1.44-1.14,2.04-1.82,2.04-2.73v-.28c0-.79-.62-1.38-2.54-1.38-1.22,0-2.54.23-3.19.44l-.09-.07v-3.94c1-.28,2.79-.58,4.31-.58,4.47,0,6.35,1.59,6.35,5.04,0,2.45-1.19,3.71-2.01,4.38l-1.68,1.35c-.29.23-.93.7-1.19.84v.09h5.09Z"/>
          <path class="cls-8" d="M60.72,67.79v4.13h-11.15v-4.13l4.07-3.17c1.44-1.14,2.04-1.82,2.04-2.73v-.28c0-.79-.62-1.38-2.54-1.38-1.22,0-2.54.23-3.19.44l-.09-.07v-3.94c1-.28,2.79-.58,4.31-.58,4.47,0,6.35,1.59,6.35,5.04,0,2.45-1.19,3.71-2.01,4.38l-1.68,1.35c-.29.23-.93.7-1.19.84v.09h5.09Z"/>
        </g>
      </g>
      <g>
        <path class="cls-8" d="M23.51,106.3v5h-11.65v-16.78h5.58v11.78h6.08Z"/>
        <path class="cls-8" d="M30.44,94.52v16.78h-5.45v-16.78h5.45Z"/>
        <path class="cls-8" d="M32.72,94.52h5.98l3.79,6.4h.05l3.77-6.4h5.98v16.78h-5.45v-5.17c0-.73.18-2.91.28-4.14l-.18-.03c-.38.73-.88,1.88-1.18,2.41l-2.61,4.55h-1.28l-2.61-4.55c-.3-.53-.8-1.66-1.18-2.41l-.15.03c.08,1.23.25,3.42.25,4.14v5.17h-5.45v-16.78Z"/>
        <path class="cls-8" d="M60.02,94.52v16.78h-5.45v-16.78h5.45Z"/>
        <path class="cls-8" d="M75.79,99.44h-4.39v11.85h-5.58v-11.85h-4.4v-4.92h14.37v4.92Z"/>
        <path class="cls-8" d="M89.68,107.08v4.22h-12.63v-16.78h12.48v4.22h-6.98v2.36h6.28v3.44h-6.28v2.54h7.13Z"/>
        <path class="cls-8" d="M91.34,94.52h6.81c6.4,0,8.49,2.76,8.49,8.29s-1.73,8.49-8.39,8.49h-6.91v-16.78ZM98.42,106.73c.7,0,1.51,0,2.08-.55.45-.43.68-1.23.68-2.36v-1.88c0-1.03-.13-1.81-.58-2.26-.43-.45-1.08-.58-2.08-.58h-1.73v7.63h1.63Z"/>
        <path class="cls-8" d="M23.71,125.68v4.22h-12.63v-16.78h12.48v4.22h-6.98v2.36h6.28v3.44h-6.28v2.54h7.13Z"/>
        <path class="cls-8" d="M25.37,113.12h6.81c6.4,0,8.49,2.76,8.49,8.29s-1.73,8.49-8.39,8.49h-6.91v-16.78ZM32.45,125.33c.7,0,1.51,0,2.08-.55.45-.43.68-1.23.68-2.36v-1.88c0-1.03-.13-1.81-.58-2.26-.43-.45-1.08-.58-2.08-.58h-1.73v7.63h1.63Z"/>
        <path class="cls-8" d="M48.02,113.12v16.78h-5.45v-16.78h5.45Z"/>
        <path class="cls-8" d="M63.79,118.04h-4.39v11.85h-5.58v-11.85h-4.4v-4.92h14.37v4.92Z"/>
        <path class="cls-8" d="M70.65,113.12v16.78h-5.45v-16.78h5.45Z"/>
        <path class="cls-8" d="M80.82,112.84c4.72,0,8.29,2.61,8.29,8.71,0,5.6-2.94,8.61-8.29,8.61s-8.26-3.09-8.26-8.61c0-6.1,3.54-8.71,8.26-8.71ZM80.82,125.35c1.93,0,2.79-1.13,2.79-2.94v-1.86c0-1.78-.83-2.89-2.79-2.89s-2.79,1.1-2.79,2.89v1.86c0,1.83.85,2.94,2.79,2.94Z"/>
        <path class="cls-8" d="M90.89,113.12h5.85l3.14,4.92c.35.53,1.43,2.69,2.26,4.34l.18-.05c-.3-1.86-.7-4.62-.7-5.15v-4.07h5.42v16.78h-5.55l-3.37-5.25c-.3-.5-1.21-2.21-1.98-3.59l-.18.02c.13.98.38,3.24.38,4.04v4.77h-5.45v-16.78Z"/>
      </g>
      <g>
        <g>
          <path class="cls-8" d="M61.32,41.44v1.64h-3.67v1.79h2.77v.82h-2.77v1.98h3.67v1.64h-5.47v-7.88h5.47Z"/>
          <path class="cls-8" d="M67.22,49.3l-1.5-3-1.54,3h-1.89s2.19-4.02,2.19-4.02l-2.24-3.85h2.04l1.56,2.91,1.49-2.91h1.89l-2.15,3.81,2.18,4.06h-2.04Z"/>
          <path class="cls-8" d="M69.7,45.44c0-2.46,1.33-4.19,3.22-4.19s2.96,1.44,2.99,2.82l-1.72.38c-.15-.86-.57-1.63-1.24-1.63-.83,0-1.41.89-1.41,2.37,0,1.68.6,2.53,1.62,2.62.86.06,2.14-.47,2.66-.7l-.15,1.72c-.89.38-1.59.63-2.84.63-1.85,0-3.14-1.69-3.14-4.04Z"/>
          <path class="cls-8" d="M77.2,41.44h1.8v6.23h2.93v1.64h-4.73v-7.88Z"/>
          <path class="cls-8" d="M84.38,41.44v4.83c0,.91.47,1.58,1.33,1.58s1.29-.66,1.29-1.58v-4.83h1.8v4.71c0,2.14-1.17,3.34-3.15,3.34s-3.07-1.2-3.07-3.34v-4.71h1.8Z"/>
          <path class="cls-8" d="M92.88,42.71c-.59,0-.97.27-.97.72,0,.59,1.16.97,2.16,1.34,1.4.51,2.1,1.24,2.1,2.34,0,1.51-1.13,2.37-2.86,2.37-1.09,0-2.19-.25-3.11-.71l.15-1.62c1.13.55,2.05.88,3.04.88.71,0,1.07-.34,1.07-.82,0-.57-.92-.99-2.31-1.45-1.29-.45-1.96-1.1-1.96-2.17,0-1.47.96-2.33,2.61-2.33,1.02,0,2.07.22,3.17.75l-.15,1.63c-1.04-.6-2.14-.93-2.96-.93Z"/>
          <path class="cls-8" d="M99.37,41.44v7.88h-1.8v-7.88h1.8Z"/>
          <path class="cls-8" d="M100.52,41.44h1.9l1.6,6.49,1.62-6.49h1.79l-2.21,7.88h-2.5l-2.21-7.88Z"/>
          <path class="cls-8" d="M113.98,41.44v1.64h-3.67v1.79h2.77v.82h-2.77v1.98h3.67v1.64h-5.47v-7.88h5.47Z"/>
        </g>
        <g>
          <path class="cls-7" d="M23.74,41.28c-.28-.26-1.15-.16-2.84-.07.33-1.41.57-2.63,1.19-3.59,2.89.16,6.43.57,10.5.56,8-.02,8.07-3,8.07-3-3.4.98-8.08.69-11.61.37-4.44-.41-8.88-1.43-12.55-.45-4.33,1.16-4.75,4.37-4.59,5.75,1.74-2.28,4.09-3.09,7.1-3.26.29-.02.59-.02.89-.02-.55.57-.97,1.48-1.41,2.88-.1.31-.19.6-.28.89-3.7.32-4.42,2.01-4.21,2.46.23.47,1.54-.15,3.18-.33.1-.01.21-.02.31-.03-.64,1.66-1.35,2.84-2.49,3.53-1.74,1.05-3.56.57-3.92.27.14,1.93,3.05,2.99,5.52,1.63,1.97-1.08,3.11-3.65,3.73-5.58.54,0,1.09-.02,1.63-.05,1.49-.1,2.14-1.62,1.78-1.96M53.63,39.12c-.31-.1-.64.07-.74.38,0,0,0,0,0,0-.05.15-.03.3.03.43-.56.51-1.08.89-1.35.8-.35-.11-.09-1.07.26-1.95.31.05.61-.14.71-.44.11-.34-.08-.7-.41-.81-.34-.11-.69.08-.8.41,0,0,0,0,0,0-.08.24,0,.49.16.66-.46.84-.94,1.57-1.36,1.45h-.02c-.42-.14-.39-1.02-.28-1.98.24-.03.44-.2.52-.44.11-.34-.08-.7-.41-.81-.34-.11-.69.08-.8.41,0,0,0,0,0,0-.1.3.04.63.31.77-.22.91-.56,1.85-.91,1.74-.27-.09-.47-.7-.63-1.44.29-.16.39-.52.23-.81-.07-.13-.19-.23-.33-.27-.31-.1-.64.07-.74.38,0,0,0,0,0,0-.1.31.07.65.39.75.02,0,.04.01.06.02l.1,2.49,4.08,1.32,1.52-1.97c.29.14.64.02.78-.27.01-.03.02-.05.03-.08.1-.31-.07-.65-.38-.75"/>
          <path class="cls-7" d="M48.94,46.06c-.76,1.34-1.84,2.03-2.41,1.53-.58-.5-.43-1.99.33-3.34.76-1.34,1.84-2.03,2.41-1.53.58.5.43,1.99-.33,3.34M47.92,41.45s-.97.36-1.64,1c-.23.22-.45.44-.65.69h0c-.19.24-.33.49-.49.75-.22.37-.41.76-.56,1.17h0s-.39.82-.68,1.23c-.28.4-.8.78-1.01.93-.25.11-.5.21-.76.29-1.73.51-2.05-.74-1.66-1.33.14-.21,1.1-.95,1.75-1.49,1.27-1.05,2.14-1.72,2.73-2.33.63-.64.22-.99-.27-1.08-1.22-.21-1.78.12-2.14.42-.43.37-2.99,3.46-2.99,3.46,0,0,4.17-8.06,4.85-9.45.56-1.14-2.14-1.3-2.89.34-.44.96-3.42,7.88-3.79,8.73-.67,1.57-.71,1.81-1.04,2.08,0,0,0,0,0,.01l-.03.02s0,0,0,0c-.32.27-.77.5-1.07.5-.18,0-.29-.11-.32-.33-.03-.22,0-.5.08-.85.05-.2.12-.43.2-.67.08-.24.18-.49.28-.74.1-.25.2-.49.31-.73l.29-.66c.09-.2.16-.37.22-.51.06-.14.1-.25.11-.31.1-.41.08-.78-.02-1.01-.11-.23-.29-.35-.57-.35s-.53.08-.77.21c-.26.15-.5.32-.75.61-.21.26-.42.52-.62.78-.14.18-.28.37-.44.56-.15.2-.3.38-.44.56-.2.25-.39.51-.59.76h-.16s.04-.11.08-.23c.04-.11.1-.25.16-.4.14-.34.27-.68.41-1.02.07-.17.12-.32.18-.47.05-.14.09-.25.11-.34.07-.3.08-.55,0-.73-.07-.18-.25-.27-.55-.27s-.55.09-.77.26c-.21.17-.39.39-.51.64-.18.39-.36.78-.53,1.18-.4.95-.76,1.92-1.09,2.89-.07.21-.14.41-.2.62-.39.2-.79.37-1.21.49-.16.05-.36.08-.48-.04-.08-.09-.09-.23-.07-.35.06-.65.34-1.27.61-1.87.45-1.01.87-2.03,1.25-3.07.05-.13.1-.27.05-.4-.07-.21-.31-.28-.52-.31-.46-.06-.99-.01-1.28.34-.1.12-.16.26-.22.4l-1.52,3.47c-.32.73-.72,1.53-1.46,1.79-.13.05-.27.07-.4.01-.16-.07-.24-.26-.24-.44,0-.18.07-.35.13-.51.63-1.54,1.09-2.62,1.72-4.16.03-.07.18-.43.19-.6,0-.11-.07-.21-.16-.26-.4-.19-.89-.07-1.25.18-.57.4-.88,1.05-1.16,1.66-.31.68-.63,1.36-.91,2.06-.32.8-.67,1.57-.85,2.41-.09.43-.07.99.24,1.3.2.2.5.26.79.27,1.15.04,2.23-.57,3.07-1.37.03.42.09.9.44,1.13.22.15.51.15.77.12.53-.06,1.05-.22,1.54-.42.21-.08.41-.17.61-.27,0,.09.01.18.03.25.04.16.11.29.22.39.11.1.28.15.51.15.18,0,.35-.04.51-.12.16-.08.32-.24.48-.46l3.21-4.32h.13c-.16.41-.32.82-.47,1.24-.13.35-.24.71-.33,1.07-.21.85-.26,1.49-.16,1.93s.3.66.6.66.6-.04.9-.13c.3-.09.59-.2.87-.33.2-.09.39-.2.58-.31,0,.07-.02.21-.02.28,0,.24.03.29.14.39.11.1.22.11.46.11.18,0,.24-.02.39-.13.15-.11.67-.9,1.08-1.46.07-.09.14-.19.22-.29-.15.7.17,1.72,1.13,1.88.93.15,2.46-.06,4.42-1.59.03.21.09.42.16.6.14.36.37.65.67.88.31.22.71.34,1.22.34.35,0,.7-.06,1.04-.18.35-.12.68-.29.98-.5.32-.21.61-.46.88-.74.53-.55.96-1.18,1.28-1.87.28-.64.42-1.12.56-1.86.06-.39.1-.74.1-1.06,0,0-.04-.79-.14-.86-.11-.07-3.08-.98-3.08-.98"/>
        </g>
      </g>
    </g>
  </g>
  <g class="cls-3">
    <g>
      <path class="cls-2" d="M131.66,117.06v5.79h3.26v15.8h36.23v-15.33h2.84v-6.26h-42.33ZM149.14,127.88h-4.32v-5.26h4.32v5.26ZM155.25,127.88h-4.11v-5.26h4.11v5.26ZM161.99,127.88h-4.16v-5.26h4.16v5.26Z"/>
      <rect class="cls-2" x="133.45" y="112.64" width="36.59" height="3.99"/>
      <rect class="cls-2" x="136.3" y="109.75" width="31.96" height="2.42"/>
      <path class="cls-2" d="M137.82,109.22h26.85v-2.91c0-.3-.1-.59-.28-.82-.54-1.12-3.42-7.06-4.91-6.63-1.1.32-.98,4.02-.85,5.94.02.22-.07.44-.22.6-.75.77-1.5,1.55-2.25,2.32-.13.13-.36.02-.32-.17.16-.8.32-1.6.48-2.39.39-1.78.78-3.56,1.17-5.34.02-.08-.07-.15-.15-.12-1.15.53-2.3,1.06-3.45,1.59-.22.1-.36.32-.36.57v4.75c0,.23-.13.44-.33.55l-.8.44c-.2.11-.44-.04-.42-.27l.26-4.98c0-.16-.18-.24-.29-.13-.79.79-1.58,1.58-2.37,2.37-.13.13-.36.03-.35-.15l.04-1.39c0-.25.12-.48.32-.64.63-.49,2.15-1.52,4.04-1.63.44-.03.82-.32.97-.74.3-.83.88-2.13,1.77-2.68.29-.18.55-.39.75-.67.45-.64,1.17-1.76,1.14-2.53l-.03-8.61c0-.32-.4-.46-.6-.21-.9,1.15-2.5,3.52-2.34,5.7,0,.08.01.17.03.25,0,0-1.02,2.8-4.49,5.19l-.2,1.01c-.1.49-.35.93-.72,1.26-.77.67-2.12,1.93-2.87,3.15-.34.55-.52,1.19-.54,1.85l-.05,1.79c0,.15-.05.29-.14.41l-.87,1.24c-.1.14-.33.07-.33-.1v-1.79c0-.4-.37-.71-.76-.63-1.07.23-3.27,1.13-6.52,4.54Z"/>
      <path class="cls-2" d="M143,109.22v-1.66c-.27.16-.87.57-1.09,1.3-.04.13-.06.25-.07.37"/>
      <path class="cls-2" d="M152.7,92.24l-6.49,9.75c-1.1,1.66-3.52,1.73-4.72.14h0c-.1-.13-.01-.32.15-.33,1.03-.05,3.81-.4,4.7-2.65.09-.24-.09-.49-.34-.46-.5.06-1.45.38-3.13,1.51-.3.21-.7-.06-.62-.42.1-.48.29-1.01.62-1.55.12-.19.24-.37.37-.52.01-.02.03-.03.05-.05,3-1.94,6.01-3.89,9.01-5.83.26-.17.57.14.4.4Z"/>
      <path class="cls-2" d="M173.98,84.08c.61-.32,1.21-.64,1.82-.96-.07-.51-.07-.52-.13-1.03-2.5-.58-5-1.16-7.51-1.74-.21-.05-.43,0-.61.12-.91.64-1.72,1.15-2.37,1.54-1.16.7-1.48.82-1.79.7-.87-.33-.46-2.15-1.23-2.56-.49-.26-1.46.05-3.51,2.14v5.04c0,.14.05.28.14.39l.46.57s.79,4.75-1.46,8.66c-.04.07.05.14.11.08.57-.58,1.53-1.5,2.26-1.9.13-.07.26.09.17.2-.35.43-.84,1.16-.88,1.8-.01.22.16.41.38.41h.84c.34,0,.66.18.83.48.73,1.28,1.46,2.57,2.19,3.85.06.11.24.07.24-.06v-8.11c0-.24.16-.44.39-.49l2.41-.55c.16-.04.31-.12.43-.24l2.41-2.43c.12-.12.28-.19.46-.19h2.54c.27,0,.53-.12.72-.32.42-.45,1.07-1.33,1.14-2.59.06-1.05-.31-1.87-.57-2.32-.1-.17-.04-.39.14-.48ZM173.53,83.53l-2.71.22c-.21.02-.41.12-.55.28l-5.38,6.46c-.42.51-1.18.59-1.7.18l-3.09-2.42c-.28-.22-.29-.63-.02-.86l6.26-5.5c.28-.24.66-.33,1.02-.23l6.19,1.71c.09.02.08.16-.02.16Z"/>
      <path class="cls-2" d="M131.45,70.04h5.65s1.34-1.98,1.19-3.41c0-.07-.1-.09-.14-.03-.26.38-.92,1.33-1.48,1.75-.32.24-.75.01-.76-.38,0-.49.19-1.33,1.23-2.49.13-.15.21-.34.21-.54v-2s-.37-2.1-1.75-3.53c-.02-.02-.06,0-.06.02.12.7.79,4.99-.31,6.15-.17.18-.46.16-.62-.03-.32-.41-.66-1.23.77-2.05v-1.44s-2.98.35-2.49,4.27c0,.07.02.14.03.22,0,0-1.19-1.3-.67-2.1,0,0-2.53.63-.81,5.61Z"/>
      <path class="cls-2" d="M134.59,60.93h-7.28c-.16,0-.21.22-.06.28,1.61.71,3.22,1.43,4.82,2.14.32.14.69,0,.83-.31.14-.29.34-.63.62-.96.38-.44.78-.74,1.12-.94.1-.06.06-.22-.06-.22Z"/>
      <path class="cls-2" d="M182.39,64.06c-3.84-.7-7.69-1.41-11.53-2.11-.2-.12-.79-.52-1.08-1.29-.42-1.13.16-2.12.24-2.26,3.62-1.61,7.24-3.21,10.87-4.82.2-.09.1-.39-.11-.35-4.01.72-8.01,1.45-12.02,2.17-.23-.02-1.06-.11-1.71-.79-.96-.99-.68-2.35-.66-2.47l7-9.27c.29-.38-.22-.86-.58-.55l-9.65,8.14c-.49.12-1.42.27-2.55.03-1.19-.26-2-.83-2.4-1.16l-2.01-13.66c-.06-.4-.63-.4-.7,0l-2.16,13.03c-.42.41-1.28,1.12-2.58,1.52-1.49.46-2.76.26-3.34.13l-8.85-8.87c-.44-.45-1.17.09-.86.64l5.82,10.52c0,.22-.05,1.28-.92,2.1-1.08,1.02-2.48.79-2.63.76l-8.96-1.96c-.58-.13-.87.66-.35.94l8,4.4c.23.13.32.41.2.65-.42.8-1.06,1.38-1.41,1.65-.17.13-.26.34-.23.55.08.64.51.9.82,1.01.19.06.31.24.31.44v2.34h.55v3.57c-.06.03-.89.41-.97,1.13-.09.75.65,1.64,1.82,1.73-.8,4.15,3.01,6,4.42,6.53.3.11.62.17.95.18l2.53.04v.29c-4.38,4.37-8.22,1.41-9.41.27-.24-.23-.38-.55-.38-.89v-6.78c0-.53-.43-.96-.96-.96h-4.86c-.15,0-.3.05-.41.16-1.73,1.66-1.04,4.92-.73,6.06.06.24.28.4.53.4h.09c.29,0,.52-.25.48-.54-.18-1.57.16-2.58.45-3.11.12-.23.46-.23.59,0l.86,1.43c.17.28.47.45.8.45h.3v-2.35h.46c.3,0,.54.24.54.54v2.5c0,.34-.28.62-.62.62h-.67c-.31,0-.56.25-.56.56v3.31h-.54v-3.42h-1v3.79c0,.25.2.45.45.45h1.93c.22,0,.41-.13.49-.33.3-.79.7-2.34.86-3,.01-.04.07-.03.07.01,0,4.13.83,5.95,1.31,6.65.17.25.02.6-.28.65-1.16.18-1.44-1.94-1.51-2.92-.02-.27-.25-.49-.52-.49h-2.36c-.42.91,1.74.74,1.74.74-.27,4.85,2.17,6.69,3.27,7.27.3.16.65.15.93-.02,3.58-2.25,5.59-5.66,6.16-6.71.03-.05.11-.02.09.04-1,4.81-3.24,5.46-4.09,5.52-.23.02-.44.16-.52.38-.32.82-.04,1.58.22,2.04.18.32.57.47.92.33,2.32-.93,7.26-6.7,7.26-6.7,1.64.22-3.6,4.64-5.22,5.97-.25.2-.26.57-.04.8l.76.76c.27.27.72.26.98-.02l2.37-2.34c-1.02,3.48-3.32,3.85-4.34,3.83-.28,0-.51.22-.51.5l-.11,1.42c0,.24.24.42.47.34,8.25-2.79,12.25-13.51,13.2-16.43.01-.04.08-.02.07.02l-1.63,7.73c-.02.12.14.17.19.06l4.07-8.49c.12-.26.38-.42.67-.42h4.75s4.51-.07,5.18-5.82c.12-.06,2.36-1.25,2.56-3.82.14-1.87-.89-3.17-1.53-3.8-.16-.15-.05-.42.17-.42h11.28c.48,0,.54-.7.06-.77ZM141.89,84.11c-.49.93-1.65,2.96-2.9,4.03-.36.31-.9.31-1.28.02l-.57-.44c-.34-.26-.29-.79.09-.98,1.26-.64,3.6-1.88,4.55-2.72.06-.05.15.02.11.09ZM163.64,55.36l1.54.67-1.76,2.35-.91-.63,1.12-2.38ZM160.87,54.3l1.83.88-1.51,2.56-1.3-.84.98-2.59ZM156.9,53.46h2.07v3.43h-2.07v-3.43ZM153.6,53.11h1.97v3.4h-1.97v-3.4ZM152.06,53.46l.53,3.43-1.83.28-.98-3.33,2.28-.39ZM148.55,54.3l.91,2.87-1.37.42-1.61-2.94,2.07-.35ZM145.6,55.36l1.3,2.66-1.09.54-1.51-2.61,1.3-.6ZM143.32,56.86l1.4,2.28-.81.49-1.51-2.45.91-.32ZM145.46,71.37c-1.54,0-2.79-1.25-2.79-2.79s1.25-2.79,2.79-2.79,2.79,1.25,2.79,2.79-1.25,2.79-2.79,2.79ZM152.83,79.37l-5.84,5.83c-.18.18-.49.03-.45-.23.15-.95.59-2.49,1.87-3.87,1.41-1.52,3.11-2.06,4.16-2.26.29-.05.48.31.27.52ZM164.36,71.37c-1.54,0-2.79-1.25-2.79-2.79s1.25-2.79,2.79-2.79,2.79,1.25,2.79,2.79-1.25,2.79-2.79,2.79ZM164.98,59.38l-.61-.52,1.67-2.21,1.12.67-2.18,2.06Z"/>
      <path class="cls-1" d="M143.21,61.66c1.89-1.06,5.75-2.88,10.95-3.05,5.8-.19,10.14,1.78,12.08,2.8"/>
    </g>
  </g>
</svg>