<?xml version="1.0" encoding="UTF-8"?>
<svg id="Camada_2" data-name="Camada 2" xmlns="http://www.w3.org/2000/svg" viewBox="0 0 168.52 168.52">
  <defs>
    <style>
      .cls-1 {
        fill: #ff7dd1;
      }

      .cls-1, .cls-2, .cls-3, .cls-4 {
        stroke-width: 0px;
      }

      .cls-2 {
        fill: #a63a50;
      }

      .cls-3 {
        fill: #e40066;
      }

      .cls-4 {
        fill: #fff;
      }
    </style>
  </defs>
  <g>
    <circle class="cls-3" cx="84.26" cy="84.26" r="84.26"/>
    <polygon class="cls-1" points="121.77 41.59 121.62 46.21 126.24 45.97 125.58 50.55 130.2 50.82 129.03 55.3 133.6 56.08 131.95 60.4 136.4 61.68 134.28 65.79 138.56 67.55 136.01 71.41 140.07 73.62 137.11 77.18 140.9 79.83 137.57 83.04 141.05 86.09 137.38 88.91 140.5 92.32 136.55 94.72 139.27 98.46 135.08 100.41 137.38 104.43 132.99 105.9 134.84 110.15 130.32 111.13 131.68 115.56 127.08 116.04 127.95 120.58 123.32 120.55 123.69 125.17 119.09 124.63 118.95 129.26 114.44 128.22 113.79 132.8 109.42 131.27 108.27 135.75 104.1 133.75 102.46 138.08 98.53 135.64 96.43 139.76 92.79 136.9 90.25 140.76 86.95 137.51 84 141.08 81.08 137.49 77.75 140.7 75.24 136.81 71.58 139.64 69.51 135.5 65.56 137.91 63.97 133.57 59.78 135.53 58.67 131.04 54.28 132.53 53.67 127.94 49.16 128.94 49.06 124.31 44.45 124.8 44.86 120.19 40.24 120.18 41.15 115.64 36.55 115.12 37.96 110.71 33.45 109.68 35.33 105.45 30.96 103.94 33.3 99.94 29.12 97.95 31.88 94.24 27.95 91.8 31.1 88.42 27.46 85.56 30.97 82.55 27.66 79.31 31.48 76.69 28.55 73.11 32.63 70.93 30.11 67.05 34.41 65.33 32.33 61.2 36.79 59.96 35.19 55.62 39.75 54.89 38.63 50.4 43.26 50.17 42.64 45.59 47.25 45.87 47.14 41.24 51.7 42.03 52.1 37.42 56.55 38.71 57.45 34.17 61.73 35.93 63.12 31.52 67.18 33.75 69.05 29.52 72.84 32.17 75.17 28.17 78.64 31.23 81.39 27.51 84.51 30.94 87.65 27.54 90.37 31.29 93.87 28.26 96.16 32.28 99.97 29.66 101.81 33.91 105.88 31.72 107.24 36.14 111.53 34.42 112.39 38.96 116.85 37.72 117.2 42.33 121.77 41.59"/>
  </g>
  <g>
    <g>
      <path class="cls-4" d="M6.68,107.13c-1.03,0-1.87-.84-1.87-1.87v-41.99c0-1.03.84-1.87,1.87-1.87h17.55c1.03,0,1.87.84,1.87,1.87v11.82c0,1.03-.84,1.87-1.87,1.87h-7.64v2.92h6.79c1.03,0,1.87.84,1.87,1.87v9.62c0,1.03-.84,1.87-1.87,1.87h-6.79v12.02c0,1.03-.84,1.87-1.87,1.87H6.68Z"/>
      <path class="cls-2" d="M24.23,63.26v11.82h-9.51v6.66h8.66v9.62h-8.66v13.89H6.68v-41.99h17.55M24.23,59.52H6.68c-2.07,0-3.74,1.68-3.74,3.74v41.99c0,2.07,1.68,3.74,3.74,3.74h8.04c2.07,0,3.74-1.68,3.74-3.74v-10.15h4.92c2.07,0,3.74-1.68,3.74-3.74v-9.62c0-1.3-.67-2.45-1.68-3.12,1.47-.51,2.52-1.9,2.52-3.54v-11.82c0-2.07-1.68-3.74-3.74-3.74h0Z"/>
    </g>
    <g>
      <path class="cls-4" d="M26.5,107.13c-1.03,0-1.87-.84-1.87-1.87v-41.99c0-1.03.84-1.87,1.87-1.87h8.15c1.03,0,1.87.84,1.87,1.87v27.61h7.01c1.03,0,1.87.84,1.87,1.87v12.51c0,1.03-.84,1.87-1.87,1.87h-17.03Z"/>
      <path class="cls-2" d="M34.65,63.26v29.48h8.88v12.51h-17.03v-41.99h8.15M34.65,59.52h-8.15c-2.07,0-3.74,1.68-3.74,3.74v41.99c0,2.07,1.68,3.74,3.74,3.74h17.03c2.07,0,3.74-1.68,3.74-3.74v-12.51c0-2.07-1.68-3.74-3.74-3.74h-5.14v-25.74c0-2.07-1.68-3.74-3.74-3.74h0Z"/>
    </g>
    <g>
      <path class="cls-4" d="M56.6,107.82c-8.86,0-13.95-8.54-13.95-23.43,0-21.38,9.75-23.68,13.95-23.68s13.98,2.31,13.98,23.68-8.76,23.43-13.98,23.43ZM56.6,76.51c-1.82,0-2.2,2.91-2.2,5.36v4.65c0,2.5.38,5.48,2.2,5.48,1.92,0,2.2-3.44,2.2-5.48v-4.65c0-2.44-.38-5.36-2.2-5.36Z"/>
      <path class="cls-2" d="M56.6,62.57c6.9,0,12.11,6.54,12.11,21.81,0,14.02-4.29,21.56-12.11,21.56s-12.08-7.73-12.08-21.56c0-15.28,5.18-21.81,12.08-21.81M56.6,93.88c2.83,0,4.07-2.83,4.07-7.35v-4.65c0-4.46-1.21-7.23-4.07-7.23s-4.07,2.77-4.07,7.23v4.65c0,4.59,1.25,7.35,4.07,7.35M56.6,58.83c-4.76,0-15.82,2.49-15.82,25.56,0,7.54,1.21,13.52,3.6,17.79,2.75,4.91,6.97,7.51,12.22,7.51s9.51-2.57,12.25-7.43c2.39-4.25,3.61-10.26,3.61-17.88,0-23.07-11.09-25.56-15.86-25.56h0ZM56.6,89.59c-.17-.6-.33-1.58-.33-3.07v-4.65c0-1.53.17-2.47.34-3.01.16.57.33,1.53.33,3.01v4.65c0,1.55-.17,2.51-.34,3.07h0Z"/>
    </g>
    <g>
      <path class="cls-4" d="M82.81,107.69c-12.33,0-13.91-12.72-13.91-23.81,0-23.06,11.05-23.06,14.68-23.06s6.24.97,6.98,1.27c.71.29,1.17.97,1.17,1.74v11.31c0,.33-.09.66-.26.95l-.15.25c-.34.58-.96.92-1.61.92-.14,0-.28-.02-.42-.05-1.3-.3-2.71-.58-4.17-.58s-2.6.32-3.06.86c-.46.56-.98,2.63-.98,5.82v2.01c0,3.78.65,5.48,1.03,5.88.3.31,1.34.67,2.86.67,1.24,0,3.31-.44,4.39-.83.21-.08.42-.11.64-.11.58,0,1.15.27,1.51.77l.18.25c.23.32.36.71.36,1.1v11.25c0,.71-.4,1.36-1.04,1.68-1.57.78-4.26,1.7-8.21,1.7Z"/>
      <path class="cls-2" d="M83.58,62.7c2.72,0,5.03.63,6.28,1.13v11.31l-.15.25c-1.36-.31-2.94-.63-4.59-.63-1.87,0-3.56.44-4.48,1.51-.99,1.19-1.43,4.02-1.43,7.04v2.01c0,3.27.48,6.03,1.54,7.17.92.94,2.72,1.26,4.22,1.26s3.82-.5,5.03-.94l.18.25v11.25c-1.39.69-3.78,1.51-7.38,1.51-8.7,0-12.04-6.98-12.04-21.94s4.15-21.18,12.81-21.18M83.58,58.96c-5.73,0-10.05,2.31-12.84,6.86-2.5,4.07-3.71,9.98-3.71,18.06,0,7.02,0,25.68,15.78,25.68,3.41,0,6.53-.66,9.04-1.9,1.27-.63,2.08-1.93,2.08-3.35v-11.25c0-.79-.25-1.57-.72-2.21l-.18-.25c-.72-.99-1.85-1.54-3.02-1.54-.43,0-.86.07-1.28.23-.91.33-2.75.72-3.75.72-.69,0-1.21-.1-1.49-.18-.21-.56-.53-1.97-.53-4.5v-2.01c0-2.61.36-4.07.56-4.58.23-.09.75-.23,1.6-.23,1.27,0,2.55.26,3.74.53.28.07.56.1.84.1,1.31,0,2.55-.69,3.23-1.86l.15-.25c.33-.57.51-1.22.51-1.89v-11.31c0-1.53-.93-2.9-2.34-3.47-1.05-.42-3.89-1.4-7.68-1.4h0Z"/>
    </g>
    <g>
      <path class="cls-4" d="M107.55,107.13c-.76,0-1.45-.46-1.74-1.17l-3.22-8.01v7.31c0,1.03-.84,1.87-1.87,1.87h-7.97c-1.03,0-1.87-.84-1.87-1.87v-41.99c0-1.03.84-1.87,1.87-1.87h7.97c1.03,0,1.87.84,1.87,1.87v7.86l3.44-8.55c.29-.71.97-1.17,1.74-1.17h8.88c.75,0,1.44.45,1.73,1.15l.18.44c.19.46.19.97,0,1.43l-8.01,19.66,8.23,20.04c.19.46.19.97,0,1.43l-.18.44c-.29.7-.97,1.15-1.73,1.15h-9.32Z"/>
      <path class="cls-2" d="M116.65,63.26l.18.44-8.3,20.37,8.52,20.74-.18.44h-9.32l-6.24-15.53h-.59v15.53h-7.97v-41.99h7.97v16.16h.55l6.5-16.16h8.88M116.65,59.52h-8.88c-1.53,0-2.9.93-3.47,2.35l-.05.13c-.52-1.44-1.9-2.48-3.52-2.48h-7.97c-2.07,0-3.74,1.68-3.74,3.74v41.99c0,2.07,1.68,3.74,3.74,3.74h7.97c1.52,0,2.83-.91,3.41-2.21.6,1.34,1.94,2.21,3.41,2.21h9.32c1.51,0,2.87-.91,3.45-2.3l.18-.44c.38-.92.38-1.94,0-2.86l-7.93-19.33,7.72-18.95c.37-.92.37-1.94-.01-2.85l-.18-.44c-.58-1.39-1.94-2.3-3.45-2.3h0Z"/>
    </g>
    <g>
      <path class="cls-4" d="M118.6,107.13c-1.03,0-1.87-.84-1.87-1.87v-41.99c0-1.03.84-1.87,1.87-1.87h18.24c1.03,0,1.87.84,1.87,1.87v10.56c0,1.03-.84,1.87-1.87,1.87h-8.33v2.17h7.31c1.03,0,1.87.84,1.87,1.87v8.61c0,1.03-.84,1.87-1.87,1.87h-7.31v2.61h8.55c1.03,0,1.87.84,1.87,1.87v10.56c0,1.03-.84,1.87-1.87,1.87h-18.46Z"/>
      <path class="cls-2" d="M136.84,63.26v10.56h-10.2v5.91h9.18v8.61h-9.18v6.35h10.42v10.56h-18.46v-41.99h18.24M136.84,59.52h-18.24c-2.07,0-3.74,1.68-3.74,3.74v41.99c0,2.07,1.68,3.74,3.74,3.74h18.46c2.07,0,3.74-1.68,3.74-3.74v-10.56c0-1.64-1.05-3.03-2.52-3.54.78-.69,1.27-1.69,1.27-2.81v-8.61c0-1-.39-1.9-1.02-2.57,1.22-.62,2.05-1.88,2.05-3.34v-10.56c0-2.07-1.68-3.74-3.74-3.74h0Z"/>
    </g>
    <g>
      <path class="cls-4" d="M139.49,107.13c-1.03,0-1.87-.84-1.87-1.87v-41.99c0-1.03.84-1.87,1.87-1.87h9.95c12.58,0,14.28,11.43,14.28,22.62,0,12.01-1.71,23.12-14.13,23.12h-10.09ZM149.84,91.94c1.03,0,1.18-.05,1.45-.49.22-.35.72-1.53.72-4.93v-4.71c0-.92,0-3.71-.59-4.71-.17-.31-.29-.52-1.43-.52h-.66v15.37h.51Z"/>
      <path class="cls-2" d="M149.43,63.26c9.36,0,12.41,6.91,12.41,20.74s-2.53,21.25-12.26,21.25h-10.09v-41.99h9.95M147.45,93.81h2.39c1.03,0,2.2,0,3.05-1.38.66-1.07.99-3.08.99-5.91v-4.71c0-2.58-.18-4.53-.84-5.66-.62-1.13-1.58-1.45-3.05-1.45h-2.53v19.11M149.43,59.52h-9.95c-2.07,0-3.74,1.68-3.74,3.74v41.99c0,2.07,1.68,3.74,3.74,3.74h10.09c6.13,0,10.54-2.54,13.11-7.54,2-3.9,2.89-9.29,2.89-17.45s-1.01-13.51-3.17-17.38c-2.63-4.71-7-7.1-12.98-7.1h0Z"/>
    </g>
  </g>
</svg>