<?xml version="1.0" encoding="UTF-8"?>
<svg id="Camada_2" data-name="Camada 2" xmlns="http://www.w3.org/2000/svg" viewBox="0 0 168.52 168.52">
  <defs>
    <style>
      .cls-1, .cls-2, .cls-3, .cls-4 {
        stroke-width: 0px;
      }

      .cls-1, .cls-3 {
        fill: #fff;
      }

      .cls-1, .cls-4 {
        fill-rule: evenodd;
      }

      .cls-2, .cls-4 {
        fill: #64c7f3;
      }
    </style>
  </defs>
  <circle class="cls-3" cx="84.26" cy="84.26" r="83.28"/>
  <path class="cls-2" d="M158.75,121.54c-13.68,27.28-41.9,46-74.49,46s-60.96-18.82-74.59-46.21"/>
  <g>
    <g>
      <path class="cls-4" d="M32.07,28.96v65.81c0,1.92,1.55,3.47,3.47,3.47h97.5c1.88,0,3.4-1.52,3.4-3.4V28.96l-1.43,1.92-2.47-2.27-2.37,2.32-2.27-2.32-2.32,2.32-2.71-2.32-2.37,2.42-2.6-2.42-2.34,2.27-2.32-2.27v7.65h-6.91v-6.02l-2.47-1.63-2.62,2.22-2.37-2.22-2.32,2.22-2.66-2.22-2.42,2.22-2.17-2.22-2.52,2.32-2.32-2.32-2.42,2.12-2.62-2.12-2.22,2.07-2.27-2.07-2.22,2.17-2.62-2.17-2.76,2.12-2.32-2.12-2.71,2.12v5.38h-7.2l.15-7.5-2.32,2.27-2.47-2.27-2.32,2.27-2.27-2.27-2.42,2.22-2.42-2.22-2.27,2.02-2.57-2.02-2.25,2.22-1.89-1.88Z"/>
      <path class="cls-4" d="M107.33,34.69h4.84v-13.71c0-3.14-2.54-5.68-5.68-5.68h-43.92c-3.52,0-6.37,2.85-6.37,6.37v13.37h5.23v-13.85c0-.58.47-1.05,1.05-1.05h43.65c.63,0,1.15.51,1.15,1.14l.05,13.41Z"/>
    </g>
    <g>
      <path class="cls-1" d="M63.67,56.96c-.65-.62-2.69-.38-6.63-.16.78-3.28,1.33-6.15,2.78-8.39,6.74.38,15.03,1.32,24.52,1.3,18.68-.05,18.85-7.01,18.85-7.01-7.95,2.29-18.87,1.61-27.12.85-10.37-.95-20.73-3.34-29.3-1.05-10.12,2.7-11.09,10.22-10.73,13.44,4.06-5.33,9.55-7.22,16.58-7.62.67-.04,1.37-.05,2.08-.06-1.28,1.34-2.27,3.45-3.3,6.74-.22.72-.44,1.41-.66,2.09-8.65.75-10.33,4.7-9.83,5.74.53,1.1,3.6-.34,7.43-.77.24-.03.48-.05.71-.07-1.5,3.87-3.15,6.63-5.81,8.25-4.06,2.46-8.3,1.32-9.15.64.33,4.51,7.12,6.97,12.89,3.82,4.6-2.52,7.26-8.52,8.72-13.02,1.27,0,2.54-.04,3.8-.12,3.48-.23,5.01-3.78,4.16-4.59M133.47,51.9c-.72-.23-1.49.17-1.72.89,0,0,0,0,0,.01-.11.34-.08.7.06,1-1.31,1.2-2.52,2.08-3.16,1.88-.82-.27-.2-2.51.6-4.55.73.11,1.43-.33,1.65-1.03.25-.79-.18-1.64-.97-1.9-.78-.25-1.62.18-1.87.96,0,0,0,0,0,.01-.18.56-.01,1.15.38,1.54-1.07,1.96-2.19,3.66-3.16,3.38h-.04c-.98-.33-.92-2.38-.66-4.62.55-.08,1.04-.47,1.22-1.04.25-.79-.18-1.64-.97-1.9-.78-.25-1.62.18-1.87.96,0,0,0,0,0,.01-.23.71.1,1.47.73,1.8-.52,2.14-1.3,4.32-2.12,4.06-.63-.21-1.11-1.63-1.48-3.36.67-.38.91-1.22.53-1.89-.17-.3-.45-.53-.78-.64-.72-.23-1.49.17-1.72.89,0,0,0,0,0,.01-.23.73.17,1.51.9,1.75.05.02.1.03.14.04l.24,5.82,9.52,3.09,3.55-4.6c.68.33,1.5.04,1.82-.64.03-.06.05-.12.07-.18.23-.73-.16-1.51-.89-1.74"/>
      <path class="cls-1" d="M122.53,68.12c-1.77,3.14-4.29,4.74-5.64,3.57-1.35-1.16-1-4.65.76-7.79,1.77-3.14,4.29-4.74,5.64-3.57,1.35,1.16,1,4.65-.76,7.79M120.13,57.33s-2.26.85-3.84,2.34c-.54.51-1.05,1.03-1.52,1.62h0c-.44.56-.78,1.14-1.14,1.76-.51.86-.95,1.77-1.3,2.72h0s-.91,1.92-1.58,2.88c-.65.93-1.88,1.83-2.37,2.16-.57.27-1.17.49-1.78.67-4.04,1.18-4.79-1.73-3.88-3.1.33-.49,2.56-2.21,4.09-3.49,2.96-2.46,4.99-4.02,6.38-5.43,1.47-1.5.52-2.32-.62-2.52-2.86-.49-4.16.27-5,.98-1,.86-6.98,8.07-6.98,8.07,0,0,9.73-18.83,11.33-22.07,1.32-2.67-5.01-3.04-6.75.8-1.02,2.23-7.99,18.39-8.84,20.39-1.56,3.66-1.65,4.23-2.43,4.87,0,0-.02.02-.02.03l-.06.04s0,0,0,0c-.75.62-1.8,1.18-2.5,1.17-.42,0-.67-.26-.74-.77-.07-.52-.01-1.18.19-1.98.12-.48.27-1,.47-1.57.2-.57.41-1.14.64-1.72.23-.58.47-1.15.71-1.71l.67-1.53c.2-.46.37-.87.51-1.2.14-.34.23-.58.26-.72.23-.96.19-1.82-.06-2.36-.25-.54-.69-.81-1.33-.81s-1.25.18-1.8.5c-.61.35-1.17.74-1.75,1.43-.49.6-.98,1.21-1.45,1.83-.32.42-.66.86-1.02,1.32-.36.46-.7.89-1.02,1.31-.46.59-.92,1.19-1.38,1.78h-.38c.02-.09.09-.27.19-.53.1-.26.23-.58.37-.93.32-.79.64-1.59.95-2.38.15-.39.29-.76.41-1.09.12-.33.2-.59.25-.79.17-.71.18-1.28.01-1.7-.16-.43-.59-.64-1.28-.64s-1.29.2-1.79.6c-.5.4-.91.91-1.18,1.49-.43.91-.84,1.83-1.23,2.75-.93,2.22-1.78,4.47-2.55,6.76-.16.48-.32.97-.46,1.45-.91.46-1.85.86-2.83,1.15-.37.11-.84.19-1.11-.1-.2-.21-.2-.54-.17-.83.14-1.53.79-2.95,1.42-4.36,1.05-2.36,2.02-4.75,2.93-7.17.11-.3.23-.64.13-.94-.15-.48-.73-.66-1.22-.72-1.07-.14-2.31-.03-3,.8-.23.28-.37.61-.52.94l-3.55,8.11c-.75,1.7-1.67,3.58-3.41,4.18-.3.11-.64.16-.93.03-.37-.17-.57-.61-.57-1.02,0-.41.16-.81.31-1.19,1.46-3.61,2.55-6.11,4.01-9.72.07-.16.43-1.01.44-1.4,0-.25-.15-.48-.38-.6-.93-.43-2.07-.17-2.91.42-1.33.93-2.05,2.44-2.71,3.88-.73,1.59-1.46,3.19-2.13,4.81-.76,1.86-1.57,3.66-1.98,5.63-.21,1.01-.15,2.3.57,3.03.47.47,1.18.61,1.84.63,2.68.09,5.22-1.33,7.17-3.19.07.98.21,2.11,1.03,2.65.52.34,1.19.36,1.8.29,1.24-.13,2.45-.52,3.61-.99.48-.2.96-.41,1.43-.63,0,.21.03.41.06.59.08.38.25.68.52.91.26.23.66.34,1.18.34.42,0,.82-.1,1.18-.29.37-.19.74-.55,1.13-1.08l7.5-10.08h.31c-.38.96-.74,1.93-1.09,2.9-.3.82-.55,1.66-.77,2.51-.48,1.98-.61,3.48-.38,4.51s.7,1.54,1.4,1.54,1.4-.1,2.09-.3c.7-.2,1.38-.46,2.03-.78.46-.22.91-.47,1.37-.72,0,.17-.05.5-.06.65-.02.56.06.67.32.91.26.24.52.26,1.07.26.41,0,.56-.04.92-.3.34-.25,1.57-2.09,2.53-3.41.16-.22.33-.44.52-.67-.35,1.63.4,4.01,2.65,4.38,2.18.36,5.73-.14,10.32-3.71.08.5.21.97.38,1.41.33.84.86,1.52,1.57,2.05.71.52,1.66.78,2.84.78.82,0,1.63-.14,2.42-.43.81-.29,1.58-.68,2.29-1.16.75-.5,1.44-1.08,2.06-1.73,1.23-1.28,2.24-2.76,3-4.37.66-1.5.97-2.62,1.3-4.35.15-.92.23-1.73.22-2.48,0,0-.08-1.84-.33-2-.25-.17-7.19-2.28-7.19-2.28"/>
    </g>
    <g>
      <path class="cls-3" d="M37.9,84.72c-.59,0-.95.23-.95.61,0,.46.85.8,1.68,1.08,1.42.46,2.14,1.2,2.14,2.21,0,1.27-1.04,2.05-2.63,2.05-.74,0-1.66-.23-2.64-.67l.14-1.49c1.31.59,1.83.86,2.78.86.61,0,.93-.26.93-.71s-.64-.8-1.7-1.16c-1.4-.46-2.11-1.17-2.11-2.09,0-1.24.87-1.99,2.3-1.99,1,0,1.74.3,2.62.71l-.15,1.49c-.86-.52-1.69-.9-2.39-.9Z"/>
      <path class="cls-3" d="M45.42,84.63c-.63,0-.99.45-1.24.93v4.89h-1.69v-9.95h1.69v4.36c.45-.87,1.14-1.45,2.03-1.45,1.32,0,2.22.91,2.22,2.43v4.61h-1.69v-4.18c0-.89-.37-1.64-1.32-1.64Z"/>
      <path class="cls-3" d="M50.23,87.09c0-2.36,1.34-3.68,3.12-3.68s3.12,1.32,3.12,3.68-1.34,3.56-3.12,3.56-3.12-1.28-3.12-3.56ZM53.35,89.36c.9,0,1.4-.93,1.4-2.33s-.5-2.32-1.4-2.32-1.4.89-1.4,2.32.5,2.33,1.4,2.33Z"/>
      <path class="cls-3" d="M58.33,93.17v-9.54h1.55v1.01c.46-.72,1.2-1.23,2.06-1.23,1.42,0,2.52,1.24,2.52,3.63s-1.1,3.63-2.52,3.63c-.83,0-1.59-.48-2.06-1.24v3.75h-1.55ZM61.22,89.56c.89,0,1.53-.95,1.53-2.52s-.64-2.52-1.53-2.52c-.6,0-1.02.5-1.34,1.19v1.88c0,1.06.46,1.98,1.34,1.98Z"/>
      <path class="cls-3" d="M65.51,89.71c0-.55.46-.93,1.04-.93s1.04.38,1.04.93-.46.94-1.04.94-1.04-.38-1.04-.94Z"/>
      <path class="cls-3" d="M68.09,83.63h1.09v-.94c0-1.58.83-2.54,2.19-2.54.55,0,1.04.1,1.3.16l.12,1.38c-.26-.05-.6-.15-.94-.15-.64,0-.98.34-.98,1.01v1.08h1.92v.72h-1.92v6.09h-1.69v-6.09h-1.09v-.72Z"/>
      <path class="cls-3" d="M76.89,89.45c.63,0,1-.45,1.24-.93v-4.89h1.69v6.82h-1.69v-1.23c-.45.87-1.15,1.45-2.03,1.45-1.32,0-2.22-.91-2.22-2.43v-4.61h1.69v4.19c0,.89.37,1.64,1.32,1.64Z"/>
      <path class="cls-3" d="M84.93,84.63c-.63,0-.99.45-1.24.93v4.89h-1.69v-6.82h1.69v1.23c.45-.87,1.14-1.45,2.03-1.45,1.32,0,2.22.91,2.22,2.43v4.61h-1.69v-4.18c0-.89-.37-1.64-1.32-1.64Z"/>
      <path class="cls-3" d="M90.05,80.5h1.69v6.01l2.39-2.88h2.09l-2.73,3.14c.9,1.55,1.84,2.4,2.71,2.21l-.12,1.44c-.22.08-.42.11-.67.11-1.55,0-2.62-1.91-3.67-3.72v3.64h-1.69v-9.95Z"/>
      <path class="cls-3" d="M97.32,87.09c0-2.36,1.34-3.68,3.12-3.68s3.12,1.32,3.12,3.68-1.34,3.56-3.12,3.56-3.12-1.28-3.12-3.56ZM100.45,89.36c.9,0,1.4-.93,1.4-2.33s-.5-2.32-1.4-2.32-1.4.89-1.4,2.32.5,2.33,1.4,2.33Z"/>
      <path class="cls-3" d="M104.53,89.71c0-.55.46-.93,1.04-.93s1.04.38,1.04.93-.46.94-1.04.94-1.04-.38-1.04-.94Z"/>
      <path class="cls-3" d="M110.75,84.71c-.98,0-1.58.82-1.58,2.15,0,1.42.53,2.18,1.57,2.3.79.1,1.5-.19,2.62-.61l-.14,1.51c-.89.34-1.81.59-2.56.59-1.76,0-3.08-1.28-3.08-3.56s1.36-3.68,3.18-3.68c1.36,0,2.6,1.05,2.6,2.32l-1.46.53s-.04-1.55-1.14-1.55Z"/>
      <path class="cls-3" d="M114.7,87.09c0-2.36,1.34-3.68,3.12-3.68s3.12,1.32,3.12,3.68-1.34,3.56-3.12,3.56-3.12-1.28-3.12-3.56ZM117.82,89.36c.9,0,1.4-.93,1.4-2.33s-.5-2.32-1.4-2.32-1.4.89-1.4,2.32.5,2.33,1.4,2.33Z"/>
      <path class="cls-3" d="M125.67,84.63c-.59,0-.94.45-1.17.93v4.89h-1.69v-6.82h1.69v1.21c.44-.86,1.12-1.43,1.96-1.43,1.02,0,1.81.61,2.07,1.68.44-.99,1.16-1.68,2.07-1.68,1.25,0,2.15.91,2.15,2.43v4.61h-1.69v-4.18c0-.89-.37-1.64-1.25-1.64-.61,0-.97.49-1.2.99v4.83h-1.69v-4.18c0-.89-.37-1.64-1.25-1.64Z"/>
    </g>
  </g>
  <g>
    <g>
      <path class="cls-2" d="M45.8,112.62v5.91h-12.18v-16.95h6.72v11.04h5.45Z"/>
      <path class="cls-2" d="M53.94,101.59v16.95h-6.44v-16.95h6.44Z"/>
      <path class="cls-2" d="M56.27,101.59h7.03l3.37,5.58h.05l3.37-5.58h7.03v16.95h-6.44v-4.11c0-.56.2-2.82.3-4.01l-.18-.03c-.41.76-.81,1.65-1.09,2.11l-2.33,4.03h-1.4l-2.31-4.03c-.28-.46-.71-1.34-1.09-2.11l-.18.03c.1,1.19.3,3.45.3,4.01v4.11h-6.44v-16.95Z"/>
      <path class="cls-2" d="M85.9,101.59v16.95h-6.44v-16.95h6.44Z"/>
      <path class="cls-2" d="M102.41,107.4h-4.11v11.14h-6.62v-11.14h-4.11v-5.81h14.84v5.81Z"/>
      <path class="cls-2" d="M117.17,113.79v4.74h-13.24v-16.95h13.19v4.74h-6.62v1.83h5.81v3.7h-5.81v1.93h6.67Z"/>
      <path class="cls-2" d="M119.02,101.59h7.36c6.62,0,8.78,2.82,8.78,8.37s-1.85,8.57-8.75,8.57h-7.38v-16.95ZM126.65,113.21c.56,0,1.17-.03,1.57-.43.33-.3.48-.91.48-1.73v-2.08c0-.74-.1-1.32-.43-1.65-.33-.33-.79-.41-1.47-.41h-1.34v6.29h1.19Z"/>
    </g>
    <g>
      <path class="cls-3" d="M45.98,137.48v4.74h-13.24v-16.95h13.19v4.74h-6.62v1.83h5.81v3.7h-5.81v1.93h6.67Z"/>
      <path class="cls-3" d="M47.83,125.27h7.36c6.62,0,8.78,2.82,8.78,8.37s-1.85,8.57-8.75,8.57h-7.38v-16.95ZM55.46,136.89c.56,0,1.17-.03,1.57-.43.33-.3.48-.91.48-1.73v-2.08c0-.74-.1-1.32-.43-1.65-.33-.33-.79-.41-1.47-.41h-1.34v6.29h1.19Z"/>
      <path class="cls-3" d="M72.43,125.27v16.95h-6.44v-16.95h6.44Z"/>
      <path class="cls-3" d="M88.94,131.08h-4.11v11.14h-6.62v-11.14h-4.11v-5.81h14.84v5.81Z"/>
      <path class="cls-3" d="M97.06,125.27v16.95h-6.44v-16.95h6.44Z"/>
      <path class="cls-3" d="M107.79,124.99c4.97,0,8.7,2.64,8.7,8.8,0,5.66-3.07,8.7-8.7,8.7s-8.7-3.12-8.7-8.7c0-6.16,3.7-8.8,8.7-8.8ZM107.79,136.84c1.52,0,2.23-.84,2.23-2.18v-1.85c0-1.34-.69-2.16-2.23-2.16s-2.23.81-2.23,2.16v1.85c0,1.37.71,2.18,2.23,2.18Z"/>
      <path class="cls-3" d="M118.41,125.27h6.82l2.51,3.83c.25.43,1.34,2.56,2.21,4.26l.2-.05c-.36-1.93-.84-4.67-.84-5.05v-2.99h6.42v16.95h-6.6l-2.64-4.08c-.25-.38-1.07-1.9-1.9-3.3l-.18.02c.15.99.43,3.15.43,3.73v3.63h-6.44v-16.95Z"/>
    </g>
  </g>
</svg>