<?xml version="1.0" encoding="UTF-8"?>
<svg id="Camada_2" data-name="Camada 2" xmlns="http://www.w3.org/2000/svg" viewBox="0 0 168.52 168.52">
  <defs>
    <style>
      .cls-1, .cls-2, .cls-3, .cls-4 {
        stroke-width: 0px;
      }

      .cls-1, .cls-3 {
        fill: #fff;
      }

      .cls-1, .cls-4 {
        fill-rule: evenodd;
      }

      .cls-2, .cls-4 {
        fill: #64c7f3;
      }
    </style>
  </defs>
  <circle class="cls-3" cx="84.26" cy="84.26" r="83.39"/>
  <path class="cls-2" d="M158.85,121.59c-13.7,27.31-41.95,46.06-74.59,46.06s-61.04-18.85-74.7-46.28"/>
  <g>
    <g>
      <path class="cls-4" d="M32,28.89v65.9c0,1.92,1.56,3.48,3.48,3.48h97.64c1.88,0,3.4-1.52,3.4-3.4V28.89l-1.43,1.93-2.47-2.27-2.37,2.32-2.27-2.32-2.32,2.32-2.72-2.32-2.37,2.42-2.6-2.42-2.34,2.27-2.32-2.27v7.66h-6.92v-6.03l-2.47-1.63-2.62,2.22-2.37-2.22-2.32,2.22-2.67-2.22-2.42,2.22-2.17-2.22-2.52,2.32-2.32-2.32-2.42,2.12-2.62-2.12-2.22,2.08-2.27-2.08-2.22,2.17-2.62-2.17-2.77,2.12-2.32-2.12-2.72,2.12v5.39h-7.21l.15-7.51-2.32,2.27-2.47-2.27-2.32,2.27-2.27-2.27-2.42,2.22-2.42-2.22-2.27,2.03-2.57-2.03-2.25,2.22-1.9-1.88Z"/>
      <path class="cls-4" d="M107.36,34.62h4.84v-13.73c0-3.14-2.55-5.69-5.69-5.69h-43.98c-3.52,0-6.37,2.85-6.37,6.37v13.39h5.24v-13.87c0-.58.47-1.05,1.05-1.05h43.71c.63,0,1.15.51,1.15,1.15l.05,13.43Z"/>
    </g>
    <g>
      <path class="cls-1" d="M63.64,56.92c-.65-.62-2.69-.38-6.64-.16.78-3.29,1.33-6.16,2.79-8.4,6.75.38,15.05,1.33,24.55,1.3,18.71-.05,18.87-7.02,18.87-7.02-7.96,2.29-18.89,1.62-27.16.85-10.38-.95-20.76-3.34-29.34-1.05-10.13,2.71-11.1,10.23-10.74,13.46,4.06-5.33,9.56-7.23,16.6-7.63.67-.04,1.37-.05,2.09-.06-1.28,1.34-2.27,3.45-3.3,6.75-.22.72-.44,1.41-.66,2.09-8.66.75-10.34,4.71-9.85,5.75.53,1.11,3.6-.34,7.44-.77.24-.03.48-.05.71-.07-1.5,3.87-3.15,6.64-5.82,8.26-4.06,2.46-8.31,1.32-9.17.64.33,4.52,7.13,6.98,12.9,3.82,4.61-2.52,7.27-8.53,8.73-13.04,1.27,0,2.54-.04,3.81-.12,3.49-.23,5.02-3.79,4.17-4.59M133.54,51.86c-.72-.23-1.49.17-1.72.89,0,0,0,0,0,.01-.11.34-.08.7.06,1-1.31,1.2-2.52,2.09-3.16,1.88-.82-.27-.2-2.51.6-4.55.73.11,1.43-.33,1.65-1.03.25-.79-.18-1.64-.97-1.9-.78-.25-1.62.18-1.88.97,0,0,0,0,0,.01-.18.56-.01,1.15.38,1.54-1.07,1.97-2.19,3.67-3.17,3.38h-.04c-.98-.33-.92-2.38-.66-4.62.55-.08,1.04-.47,1.22-1.04.25-.79-.18-1.64-.97-1.9-.78-.25-1.62.18-1.88.96,0,0,0,0,0,.01-.23.71.1,1.47.73,1.8-.52,2.14-1.3,4.33-2.13,4.06-.63-.21-1.11-1.63-1.48-3.37.67-.38.91-1.22.53-1.89-.17-.3-.45-.53-.78-.64-.72-.23-1.49.17-1.72.89,0,0,0,0,0,.01-.23.73.17,1.51.9,1.75.05.02.1.03.14.04l.24,5.83,9.54,3.1,3.55-4.61c.68.33,1.5.04,1.82-.64.03-.06.05-.12.07-.18.23-.73-.16-1.51-.89-1.75"/>
      <path class="cls-1" d="M122.58,68.1c-1.77,3.14-4.3,4.74-5.65,3.58-1.35-1.17-1-4.66.77-7.8,1.77-3.14,4.3-4.74,5.64-3.58,1.35,1.17,1.01,4.66-.76,7.8M120.18,57.3s-2.27.85-3.84,2.35c-.54.51-1.05,1.04-1.52,1.62h0c-.44.56-.78,1.14-1.14,1.77-.51.86-.95,1.77-1.3,2.73h0s-.91,1.92-1.58,2.89c-.65.93-1.88,1.83-2.37,2.17-.58.27-1.17.49-1.78.67-4.05,1.18-4.79-1.73-3.89-3.11.33-.49,2.57-2.22,4.1-3.49,2.96-2.46,4.99-4.02,6.39-5.44,1.48-1.5.52-2.33-.62-2.52-2.86-.49-4.17.27-5,.99-1,.86-6.99,8.08-6.99,8.08,0,0,9.75-18.86,11.34-22.1,1.32-2.67-5.01-3.04-6.76.8-1.02,2.24-8,18.42-8.85,20.42-1.56,3.66-1.65,4.23-2.43,4.87,0,0-.02.02-.02.03l-.06.04s0,0,0,0c-.75.62-1.8,1.18-2.5,1.17-.42,0-.67-.26-.74-.78-.07-.52-.01-1.18.19-1.98.12-.48.27-1,.47-1.57.2-.57.41-1.14.64-1.73.23-.58.47-1.15.71-1.71l.67-1.53c.2-.46.37-.87.51-1.2.14-.34.23-.58.26-.72.23-.96.19-1.82-.06-2.36-.25-.54-.69-.82-1.33-.82s-1.25.18-1.81.5c-.61.35-1.17.74-1.76,1.44-.49.6-.98,1.21-1.45,1.83-.32.42-.66.86-1.02,1.32-.36.46-.7.89-1.02,1.31-.46.6-.92,1.19-1.38,1.79h-.38c.02-.09.09-.27.19-.53.1-.27.23-.58.37-.93.32-.79.64-1.59.95-2.39.15-.39.29-.76.41-1.09.12-.33.2-.59.25-.79.17-.71.18-1.28.01-1.71-.16-.43-.59-.64-1.29-.64s-1.29.2-1.79.6c-.5.4-.91.91-1.18,1.49-.43.91-.84,1.83-1.23,2.76-.93,2.22-1.79,4.48-2.56,6.76-.16.48-.32.97-.46,1.45-.91.46-1.86.86-2.84,1.15-.38.11-.84.19-1.11-.1-.2-.21-.2-.54-.17-.83.14-1.53.8-2.96,1.42-4.36,1.05-2.36,2.03-4.76,2.93-7.18.11-.3.23-.64.13-.94-.15-.48-.73-.66-1.22-.72-1.07-.14-2.31-.03-3,.81-.23.28-.38.61-.52.94l-3.56,8.12c-.75,1.7-1.67,3.58-3.42,4.19-.3.11-.64.16-.93.03-.37-.17-.57-.61-.57-1.02,0-.41.16-.81.31-1.19,1.47-3.61,2.55-6.12,4.01-9.73.07-.16.43-1.01.44-1.41,0-.25-.15-.48-.38-.6-.93-.43-2.07-.17-2.92.42-1.33.93-2.06,2.45-2.71,3.89-.73,1.6-1.47,3.19-2.13,4.82-.76,1.86-1.57,3.67-1.98,5.64-.21,1.01-.15,2.31.57,3.03.47.47,1.18.61,1.84.63,2.68.09,5.22-1.34,7.18-3.19.07.98.21,2.11,1.03,2.65.52.35,1.19.36,1.81.29,1.24-.13,2.45-.52,3.61-.99.49-.2.96-.41,1.44-.63,0,.21.03.41.06.6.08.38.25.68.52.91.26.23.66.34,1.19.34.42,0,.82-.1,1.19-.29.37-.19.75-.56,1.13-1.09l7.51-10.09h.31c-.38.96-.74,1.93-1.09,2.9-.3.82-.56,1.66-.77,2.51-.48,1.98-.61,3.49-.38,4.51s.7,1.54,1.4,1.54,1.4-.1,2.09-.3c.7-.2,1.38-.46,2.03-.78.46-.22.92-.47,1.37-.72,0,.17-.05.5-.06.65-.02.56.06.67.32.91.26.24.52.26,1.07.26.41,0,.56-.04.92-.3.34-.25,1.58-2.1,2.53-3.41.16-.22.33-.44.52-.67-.35,1.63.4,4.01,2.65,4.39,2.19.36,5.74-.14,10.33-3.72.08.5.21.97.38,1.41.33.84.86,1.53,1.57,2.05.71.52,1.66.79,2.85.79.82,0,1.63-.14,2.43-.43.81-.29,1.58-.68,2.3-1.16.75-.5,1.44-1.08,2.06-1.73,1.23-1.29,2.25-2.76,3-4.38.66-1.5.98-2.63,1.31-4.36.15-.92.23-1.74.22-2.48,0,0-.08-1.84-.33-2.01-.25-.17-7.2-2.28-7.2-2.28"/>
    </g>
    <g>
      <path class="cls-3" d="M37.83,84.72c-.59,0-.96.23-.96.61,0,.46.85.8,1.68,1.08,1.42.46,2.14,1.2,2.14,2.21,0,1.27-1.04,2.05-2.63,2.05-.74,0-1.67-.23-2.65-.67l.14-1.49c1.31.59,1.83.86,2.79.86.61,0,.93-.26.93-.71s-.64-.8-1.71-1.16c-1.41-.46-2.12-1.17-2.12-2.09,0-1.24.87-1.99,2.31-1.99,1,0,1.75.3,2.62.71l-.15,1.49c-.86-.52-1.69-.9-2.39-.9Z"/>
      <path class="cls-3" d="M45.37,84.63c-.63,0-1,.45-1.24.93v4.9h-1.69v-9.96h1.69v4.37c.45-.87,1.15-1.45,2.03-1.45,1.32,0,2.23.91,2.23,2.43v4.61h-1.69v-4.19c0-.89-.37-1.64-1.32-1.64Z"/>
      <path class="cls-3" d="M50.18,87.1c0-2.36,1.34-3.69,3.13-3.69s3.13,1.32,3.13,3.69-1.34,3.56-3.13,3.56-3.13-1.28-3.13-3.56ZM53.31,89.36c.9,0,1.41-.93,1.41-2.33s-.51-2.32-1.41-2.32-1.41.89-1.41,2.32.5,2.33,1.41,2.33Z"/>
      <path class="cls-3" d="M58.3,93.18v-9.56h1.56v1.01c.46-.72,1.2-1.23,2.06-1.23,1.42,0,2.53,1.24,2.53,3.63s-1.11,3.63-2.53,3.63c-.83,0-1.6-.48-2.06-1.24v3.75h-1.56ZM61.19,89.57c.89,0,1.53-.96,1.53-2.53s-.64-2.53-1.53-2.53c-.6,0-1.02.5-1.34,1.19v1.88c0,1.06.46,1.98,1.34,1.98Z"/>
      <path class="cls-3" d="M65.49,89.72c0-.55.46-.93,1.04-.93s1.04.38,1.04.93-.46.94-1.04.94-1.04-.38-1.04-.94Z"/>
      <path class="cls-3" d="M68.07,83.63h1.09v-.94c0-1.58.83-2.54,2.2-2.54.55,0,1.04.1,1.3.16l.12,1.38c-.26-.05-.6-.15-.94-.15-.64,0-.98.34-.98,1.01v1.08h1.93v.72h-1.93v6.1h-1.69v-6.1h-1.09v-.72Z"/>
      <path class="cls-3" d="M76.88,89.46c.63,0,1-.45,1.24-.93v-4.9h1.69v6.83h-1.69v-1.23c-.45.87-1.15,1.45-2.03,1.45-1.32,0-2.23-.91-2.23-2.43v-4.61h1.69v4.19c0,.89.37,1.64,1.32,1.64Z"/>
      <path class="cls-3" d="M84.93,84.63c-.63,0-1,.45-1.24.93v4.9h-1.69v-6.83h1.69v1.23c.45-.87,1.15-1.45,2.03-1.45,1.32,0,2.23.91,2.23,2.43v4.61h-1.69v-4.19c0-.89-.37-1.64-1.32-1.64Z"/>
      <path class="cls-3" d="M90.06,80.49h1.69v6.02l2.39-2.88h2.09l-2.73,3.14c.9,1.56,1.84,2.4,2.72,2.21l-.12,1.45c-.22.08-.42.11-.67.11-1.56,0-2.62-1.91-3.67-3.73v3.64h-1.69v-9.96Z"/>
      <path class="cls-3" d="M97.34,87.1c0-2.36,1.34-3.69,3.13-3.69s3.13,1.32,3.13,3.69-1.34,3.56-3.13,3.56-3.13-1.28-3.13-3.56ZM100.47,89.36c.9,0,1.41-.93,1.41-2.33s-.51-2.32-1.41-2.32-1.41.89-1.41,2.32.5,2.33,1.41,2.33Z"/>
      <path class="cls-3" d="M104.56,89.72c0-.55.46-.93,1.04-.93s1.04.38,1.04.93-.46.94-1.04.94-1.04-.38-1.04-.94Z"/>
      <path class="cls-3" d="M110.78,84.71c-.98,0-1.58.82-1.58,2.16,0,1.42.53,2.18,1.57,2.31.79.1,1.5-.19,2.62-.61l-.14,1.51c-.89.34-1.82.59-2.57.59-1.76,0-3.09-1.28-3.09-3.56s1.36-3.69,3.18-3.69c1.36,0,2.61,1.05,2.61,2.32l-1.46.53s-.04-1.56-1.15-1.56Z"/>
      <path class="cls-3" d="M114.74,87.1c0-2.36,1.34-3.69,3.13-3.69s3.13,1.32,3.13,3.69-1.34,3.56-3.13,3.56-3.13-1.28-3.13-3.56ZM117.86,89.36c.9,0,1.41-.93,1.41-2.33s-.51-2.32-1.41-2.32-1.41.89-1.41,2.32.5,2.33,1.41,2.33Z"/>
      <path class="cls-3" d="M125.72,84.63c-.59,0-.94.45-1.17.93v4.9h-1.69v-6.83h1.69v1.21c.44-.86,1.12-1.43,1.97-1.43,1.02,0,1.82.61,2.08,1.68.44-1,1.16-1.68,2.08-1.68,1.25,0,2.16.91,2.16,2.43v4.61h-1.69v-4.19c0-.89-.37-1.64-1.26-1.64-.61,0-.97.49-1.2,1v4.83h-1.69v-4.19c0-.89-.37-1.64-1.26-1.64Z"/>
    </g>
  </g>
  <g>
    <g>
      <path class="cls-2" d="M45.75,112.66v5.92h-12.19v-16.97h6.73v11.05h5.46Z"/>
      <path class="cls-2" d="M53.9,101.61v16.97h-6.45v-16.97h6.45Z"/>
      <path class="cls-2" d="M56.24,101.61h7.04l3.38,5.59h.05l3.38-5.59h7.04v16.97h-6.45v-4.12c0-.56.2-2.82.3-4.01l-.18-.03c-.41.76-.81,1.65-1.09,2.11l-2.34,4.04h-1.4l-2.31-4.04c-.28-.46-.71-1.35-1.09-2.11l-.18.03c.1,1.19.3,3.46.3,4.01v4.12h-6.45v-16.97Z"/>
      <path class="cls-2" d="M85.9,101.61v16.97h-6.45v-16.97h6.45Z"/>
      <path class="cls-2" d="M102.44,107.43h-4.12v11.15h-6.63v-11.15h-4.11v-5.82h14.86v5.82Z"/>
      <path class="cls-2" d="M117.22,113.83v4.75h-13.26v-16.97h13.21v4.75h-6.63v1.83h5.82v3.71h-5.82v1.93h6.68Z"/>
      <path class="cls-2" d="M119.07,101.61h7.37c6.63,0,8.79,2.82,8.79,8.38s-1.85,8.59-8.76,8.59h-7.39v-16.97ZM126.71,113.25c.56,0,1.17-.03,1.58-.43.33-.3.48-.91.48-1.73v-2.08c0-.74-.1-1.32-.43-1.65-.33-.33-.79-.41-1.47-.41h-1.35v6.3h1.19Z"/>
    </g>
    <g>
      <path class="cls-3" d="M45.93,137.55v4.75h-13.26v-16.97h13.21v4.75h-6.63v1.83h5.82v3.71h-5.82v1.93h6.68Z"/>
      <path class="cls-3" d="M47.78,125.33h7.37c6.63,0,8.79,2.82,8.79,8.38s-1.85,8.59-8.76,8.59h-7.39v-16.97ZM55.43,136.97c.56,0,1.17-.03,1.58-.43.33-.3.48-.91.48-1.73v-2.08c0-.74-.1-1.32-.43-1.65-.33-.33-.79-.41-1.47-.41h-1.35v6.3h1.19Z"/>
      <path class="cls-3" d="M72.42,125.33v16.97h-6.45v-16.97h6.45Z"/>
      <path class="cls-3" d="M88.95,131.15h-4.12v11.15h-6.63v-11.15h-4.11v-5.82h14.86v5.82Z"/>
      <path class="cls-3" d="M97.08,125.33v16.97h-6.45v-16.97h6.45Z"/>
      <path class="cls-3" d="M107.82,125.05c4.98,0,8.71,2.64,8.71,8.82,0,5.67-3.07,8.71-8.71,8.71s-8.71-3.12-8.71-8.71c0-6.17,3.71-8.82,8.71-8.82ZM107.82,136.91c1.52,0,2.24-.84,2.24-2.18v-1.85c0-1.35-.69-2.16-2.24-2.16s-2.24.81-2.24,2.16v1.85c0,1.37.71,2.18,2.24,2.18Z"/>
      <path class="cls-3" d="M118.46,125.33h6.83l2.51,3.84c.25.43,1.35,2.57,2.21,4.27l.2-.05c-.36-1.93-.84-4.67-.84-5.06v-3h6.43v16.97h-6.61l-2.64-4.09c-.25-.38-1.07-1.9-1.9-3.3l-.18.02c.15.99.43,3.15.43,3.73v3.63h-6.45v-16.97Z"/>
    </g>
  </g>
</svg>