<svg id="Grupo_5559" data-name="Grupo 5559" xmlns="http://www.w3.org/2000/svg" xmlns:xlink="http://www.w3.org/1999/xlink" width="137.047" height="46" viewBox="0 0 137.047 46">
  <defs>
    <clipPath id="clip-path">
      <rect id="Ret창ngulo_206" data-name="Ret창ngulo 206" width="137.047" height="46" fill="none"/>
    </clipPath>
  </defs>
  <g id="Grupo_5558" data-name="Grupo 5558" transform="translate(0 0)" clip-path="url(#clip-path)">
    <path id="Caminho_3015" data-name="Caminho 3015" d="M106.339,18.219H95.54v3.2h7.65c-.375,4.5-4.125,6.4-7.65,6.4a8.407,8.407,0,0,1-8.449-8.524A8.42,8.42,0,0,1,95.54,10.72a8.325,8.325,0,0,1,5.775,2.325l2.25-2.325a11.394,11.394,0,0,0-8.125-3.2A11.963,11.963,0,0,0,83.591,19.244a11.929,11.929,0,0,0,12.024,11.8c6.3,0,10.9-4.325,10.9-10.7a10.656,10.656,0,0,0-.175-2.125" transform="translate(-39.037 -3.512)" fill="#4285f4"/>
    <path id="Caminho_3016" data-name="Caminho 3016" d="M136.167,23.232a7.562,7.562,0,1,0,7.575,7.6,7.374,7.374,0,0,0-7.575-7.6m.05,2.975a4.35,4.35,0,0,1,4.25,4.6,4.3,4.3,0,1,1-8.574,0,4.364,4.364,0,0,1,4.325-4.6" transform="translate(-60.04 -10.849)" fill="#ea4335"/>
    <path id="Caminho_3017" data-name="Caminho 3017" d="M167.216,23.232a7.562,7.562,0,1,0,7.575,7.6,7.4,7.4,0,0,0-7.575-7.6m.05,2.975a4.35,4.35,0,0,1,4.25,4.6,4.3,4.3,0,1,1-8.574,0,4.349,4.349,0,0,1,4.325-4.6" transform="translate(-74.54 -10.849)" fill="#fbbc05"/>
    <path id="Caminho_3018" data-name="Caminho 3018" d="M197.913,23.232a7.57,7.57,0,0,0-.05,15.124,4.97,4.97,0,0,0,4.15-1.85v1.5c0,2.6-1.575,4.174-3.975,4.174a4.213,4.213,0,0,1-3.875-2.7l-2.9,1.225a7.264,7.264,0,0,0,6.8,4.45c4.049,0,7.124-2.549,7.124-7.874v-13.6h-3.175v1.275a5.474,5.474,0,0,0-4.1-1.725m.3,2.975a4.276,4.276,0,0,1,4.05,4.6c0,2.95-2.05,4.574-4.075,4.574a4.278,4.278,0,0,1-4.175-4.549,4.319,4.319,0,0,1,4.2-4.625" transform="translate(-89.039 -10.849)" fill="#4285f4"/>
    <path id="Caminho_3019" data-name="Caminho 3019" d="M238.141,23.232c-3.824,0-7.05,3.049-7.05,7.549a7.323,7.323,0,0,0,7.424,7.6,7.607,7.607,0,0,0,6.325-3.325l-2.625-1.75a4.241,4.241,0,0,1-3.7,2.075,3.879,3.879,0,0,1-3.7-2.3l10.149-4.2-.525-1.225a6.835,6.835,0,0,0-6.3-4.424m.15,2.9a3,3,0,0,1,2.8,1.625l-6.774,2.824a4.187,4.187,0,0,1,3.975-4.45" transform="translate(-107.919 -10.849)" fill="#ea4335"/>
    <rect id="Ret창ngulo_205" data-name="Ret창ngulo 205" width="3.325" height="22.298" transform="translate(118.348 4.783)" fill="#34a853"/>
    <path id="Caminho_3020" data-name="Caminho 3020" d="M36.8,10.224a1.762,1.762,0,0,0-.964-1.562l-4.38-2.231-.009-.011L19.228.193a1.765,1.765,0,0,0-1.6,0L5.4,6.42l-.009.011L1.013,8.662a1.763,1.763,0,0,0-.964,1.562C.035,12.911,0,19.74,0,20.189,0,30.62,8.756,40.447,17.731,44.41a1.725,1.725,0,0,0,1.391,0C28.1,40.447,36.854,30.62,36.854,20.189c0-.449-.035-7.278-.049-9.965M18.427,7.618a4.958,4.958,0,1,1-4.959,4.958,4.958,4.958,0,0,1,4.959-4.958m5.092,27.588c-.476.421-.965.824-1.462,1.205a.4.4,0,0,1-.57-.092,3.7,3.7,0,0,0-6.121,0,.4.4,0,0,1-.569.093c-.5-.379-.987-.783-1.463-1.206a.4.4,0,0,1-.064-.535,6.357,6.357,0,0,1,10.316,0,.4.4,0,0,1-.066.534m3.734-3.978q-.583.758-1.224,1.476a.407.407,0,0,1-.618-.025,9.021,9.021,0,0,0-13.972,0,.407.407,0,0,1-.618.023q-.638-.718-1.22-1.475a.409.409,0,0,1,.014-.515,11.684,11.684,0,0,1,17.625,0,.409.409,0,0,1,.014.515m2.872-4.82A19.288,19.288,0,0,1,29.24,28.2a.4.4,0,0,1-.639.077,14.327,14.327,0,0,0-20.354,0,.4.4,0,0,1-.639-.078q-.491-.883-.884-1.793a.408.408,0,0,1,.1-.458,16.995,16.995,0,0,1,23.21,0,.409.409,0,0,1,.1.457" transform="translate(0 0)" fill="#30b757"/>
    <path id="Caminho_3021" data-name="Caminho 3021" d="M114.3,72.766a1.4,1.4,0,0,0,1.575,1.105c.9,0,1.278-.385,1.278-.947,0-.613-.34-.91-1.6-1.209-1.813-.43-2.318-1.078-2.318-2.034,0-1.156.861-1.989,2.482-1.989,1.789,0,2.509.985,2.607,1.971h-1.323c-.091-.5-.381-.978-1.321-.978-.695,0-1.1.3-1.1.852s.33.762,1.492,1.036c2.018.481,2.432,1.244,2.432,2.2,0,1.224-.921,2.1-2.72,2.1-1.767,0-2.64-.9-2.8-2.107Zm9.441.741a10.345,10.345,0,0,0,.071,1.271h-1.2a2.369,2.369,0,0,1-.077-.566,1.555,1.555,0,0,1-1.508.687,1.593,1.593,0,0,1-1.769-1.614c0-1.175.937-1.715,2.466-1.715h.789v-.36c0-.4-.137-.828-.906-.828-.694,0-.832.316-.908.7h-1.2c.075-.853.6-1.627,2.152-1.62,1.35.007,2.088.542,2.088,1.759Zm-1.224-1.149h-.671c-.923,0-1.323.272-1.323.85a.749.749,0,0,0,.836.773c1.027,0,1.158-.7,1.158-1.477Zm2.73-1.809h-.784v-.963h.784v-.512c0-1.032.476-1.784,1.608-1.784a2.724,2.724,0,0,1,.636.063v1.009a1.938,1.938,0,0,0-.354-.033c-.462,0-.634.212-.634.836v.421h.952v.963H126.5v4.229h-1.256Zm3.839,1.892c0,.786.4,1.46,1.169,1.46a.946.946,0,0,0,1.023-.638h1.258a2.219,2.219,0,0,1-2.315,1.637,2.378,2.378,0,0,1-2.4-2.649c0-1.6.817-2.786,2.454-2.786a2.265,2.265,0,0,1,2.334,2.541,3.41,3.41,0,0,1-.018.435Zm2.26-.8c-.01-.689-.314-1.257-1.078-1.257s-1.084.529-1.152,1.257Zm0,0Zm4.883-3.85h2.925c1.616,0,2.272.844,2.272,1.773a1.568,1.568,0,0,1-.928,1.517,1.686,1.686,0,0,1,1.138,1.62,2.132,2.132,0,0,1-2.392,2.076h-3.015Zm3.9,1.9c0-.548-.407-.873-1.071-.873h-1.542V70.6h1.464C139.792,70.6,140.122,70.25,140.122,69.694Zm-2.613,4.055H139c.837,0,1.289-.365,1.289-1.08,0-.63-.406-1.041-1.355-1.041h-1.421Zm5.193-2.754c0-.586,0-1.028-.01-1.409h1.232c.017.126.034.6.034.961a1.72,1.72,0,0,1,1.694-1.083v1.212c-1.051-.007-1.694.366-1.694,1.752v2.35H142.7Zm8.453,1.177a2.484,2.484,0,0,1-2.538,2.728,2.458,2.458,0,0,1-2.5-2.7,2.489,2.489,0,0,1,2.56-2.732A2.444,2.444,0,0,1,151.155,72.171Zm-3.754.01c0,1.046.477,1.719,1.25,1.719s1.226-.658,1.226-1.711c0-1.114-.443-1.726-1.246-1.726C147.861,70.463,147.4,71.055,147.4,72.181Zm4.243-2.6h1.328c.528,2.2.821,3.457.916,4.064h.017c.1-.545.324-1.522.991-4.064h1.183c.664,2.682.861,3.468.938,4h.01c.113-.542.289-1.32.963-4h1.25l-1.561,5.192h-1.348c-.454-1.944-.784-3.222-.9-3.864h-.01c-.087.623-.429,1.935-.93,3.864h-1.363l-1.485-5.192Zm9.226,3.656a.992.992,0,0,0,1.08.732c.609,0,.837-.237.837-.6,0-.384-.228-.547-1.055-.749-1.622-.4-1.91-.9-1.91-1.621,0-.754.539-1.535,2.028-1.535s2.034.831,2.086,1.542h-1.2c-.055-.24-.226-.638-.943-.638-.56,0-.735.257-.735.527,0,.3.179.449,1.059.656,1.679.393,1.948.964,1.948,1.729,0,.877-.677,1.62-2.162,1.62s-2.152-.734-2.272-1.657Zm4.209-5.852h1.256v1.228h-1.256Zm0,2.2h1.256v5.192h-1.256Zm2.633,1.308c0-.445,0-.918-.01-1.308h1.217a7.234,7.234,0,0,1,.048.726,1.593,1.593,0,0,1,1.549-.847c1.02,0,1.725.668,1.725,2v3.315h-1.255V71.607c0-.651-.232-1.109-.92-1.109-.734,0-1.1.476-1.1,1.435v2.845H167.71ZM178.174,74.2c0,1.666-.64,2.684-2.515,2.684-1.788,0-2.2-1-2.263-1.625h1.28a.948.948,0,0,0,1.039.69c1.016,0,1.231-.629,1.231-1.707v-.305a1.547,1.547,0,0,1-1.517.79,2.246,2.246,0,0,1-2.147-2.532c0-1.648.976-2.732,2.26-2.732.924,0,1.312.435,1.4.712.01-.173.042-.5.052-.591h1.19c-.007.408-.013.994-.013,1.493Zm-3.6-2.06c0,.961.488,1.561,1.2,1.561.951,0,1.215-.647,1.215-1.613s-.206-1.6-1.184-1.6C175.063,70.484,174.574,71.074,174.574,72.14Z" transform="translate(-52.757 -31.424)" fill="#9e9e9e"/>
  </g>
</svg>
