<svg xmlns="http://www.w3.org/2000/svg" width="20.744" height="18" viewBox="0 0 20.744 18">
  <g id="Grupo_5467" data-name="Grupo 5467" transform="translate(-467.747 -12.672)">
    <path id="Caminho_2961" data-name="Caminho 2961" d="M16.483,22.375h4.261c0,2.43-4.2,4.4-9.37,4.4S2,24.805,2,22.375H6.264" transform="translate(466.747 -2.963)" fill="none" stroke="#000" stroke-linecap="round" stroke-linejoin="round" stroke-width="2"/>
    <path id="Caminho_2962" data-name="Caminho 2962" d="M27.3,7.144a5.126,5.126,0,0,1-.035.6H17.043a5.065,5.065,0,0,1-.035-.6c0-.052,0-.109,0-.161C17.1,4.215,18.591,2,22.152,2s5.058,2.215,5.142,4.983C27.3,7.035,27.3,7.092,27.3,7.144Z" transform="translate(455.967 11.672)" fill="none" stroke="#000" stroke-linecap="round" stroke-width="2"/>
    <line id="Linha_9" data-name="Linha 9" y2="3.393" transform="translate(478.12 23.81)" fill="none" stroke="#000" stroke-linecap="round" stroke-width="2"/>
    <ellipse id="Elipse_6" data-name="Elipse 6" cx="2.411" cy="2.21" rx="2.411" ry="2.21" transform="translate(475.708 26.253)"/>
    <line id="Linha_10" data-name="Linha 10" x1="1.922" y2="3.838" transform="translate(471.465 23.52)" fill="none" stroke="#000" stroke-linecap="round" stroke-width="2"/>
    <path id="Caminho_2963" data-name="Caminho 2963" d="M3.9,48.706a2.509,2.509,0,0,1,3.206-1.063,2.135,2.135,0,0,1,1.16,2.939A2.509,2.509,0,0,1,5.06,51.645,2.135,2.135,0,0,1,3.9,48.706Z" transform="translate(464.48 -21.183)"/>
    <line id="Linha_11" data-name="Linha 11" x2="2.128" y2="3.701" transform="translate(482.853 23.52)" fill="none" stroke="#000" stroke-linecap="round" stroke-width="2"/>
    <path id="Caminho_2964" data-name="Caminho 2964" d="M60.7,49.4a2.509,2.509,0,0,0-3.206-1.063,2.135,2.135,0,0,0-1.16,2.939,2.509,2.509,0,0,0,3.206,1.063A2.135,2.135,0,0,0,60.7,49.4Z" transform="translate(427.16 -21.88)"/>
  </g>
</svg>
