<?xml version="1.0" encoding="UTF-8"?>
<svg id="Camada_2" data-name="Camada 2" xmlns="http://www.w3.org/2000/svg" viewBox="0 0 168.52 168.52">
  <defs>
    <style>
      .cls-1, .cls-2, .cls-3, .cls-4, .cls-5 {
        stroke-width: 0px;
      }

      .cls-1, .cls-3, .cls-5 {
        fill: #ff3d47;
      }

      .cls-2 {
        fill: #000;
      }

      .cls-3 {
        opacity: .9;
      }

      .cls-4 {
        fill: #fff;
      }

      .cls-5 {
        opacity: .7;
      }
    </style>
  </defs>
  <g>
    <path class="cls-4" d="M17.23,3.04h134.07c7.83,0,14.19,6.36,14.19,14.19v134.07c0,7.83-6.36,14.19-14.19,14.19H17.23c-7.83,0-14.19-6.36-14.19-14.19V17.23c0-7.83,6.36-14.19,14.19-14.19Z"/>
    <path class="cls-2" d="M151.29,4.82c6.84,0,12.41,5.57,12.41,12.41v134.07c0,6.84-5.57,12.41-12.41,12.41H17.23c-6.84,0-12.41-5.57-12.41-12.41V17.23c0-6.84,5.57-12.41,12.41-12.41h134.07M151.29,1.26H17.23C8.44,1.26,1.26,8.44,1.26,17.23v134.07c0,8.78,7.18,15.96,15.96,15.96h134.07c8.78,0,15.96-7.18,15.96-15.96V17.23c0-8.78-7.18-15.96-15.96-15.96h0Z"/>
  </g>
  <g>
    <path class="cls-5" d="M11.15,35.5c.95.18,2.09.26,3.4.26,2.59,0,3.86-.79,3.86-3.17V14.53h9.71v18.42c0,8.28-3.29,11.5-10.75,11.5-2.8,0-5.29-.35-6.4-.62v-8.15l.18-.18Z"/>
    <path class="cls-5" d="M31.35,14.85h9.71v17.63c0,2.68,1.26,3.73,3.46,3.73h.85c2.2,0,3.46-1.05,3.46-3.73V14.85h9.71v18.42c0,7.75-5.16,11.5-13.55,11.5s-13.63-3.75-13.63-11.5V14.85Z"/>
    <path class="cls-5" d="M62.09,14.53h10.48l6.65,11.33h.09l6.6-11.33h10.48v29.45h-9.71v-9.12c0-1.28.31-5.14.49-7.31l-.31-.04c-.67,1.28-1.57,3.32-2.1,4.25l-4.65,8.01h-1.73l-4.65-8.01c-.54-.93-1.43-2.92-2.1-4.25l-.27.04c.13,2.17.45,6.02.45,7.31v9.12h-9.71V14.53Z"/>
    <path class="cls-5" d="M100.28,14.53h15.52c6.66,0,9.38,2.91,9.38,7.32,0,3.44-1.27,5.73-4.52,6.57v.22c3.81.48,5.7,3,5.7,6.74,0,5.6-3.02,8.6-9.65,8.6h-16.44V14.53ZM113.73,26.5c1.85,0,2.41-.82,2.41-2.23v-1c0-1.41-.56-1.95-2.41-1.95h-3.74v5.18h3.74ZM114.36,37.5c1.86,0,2.42-.67,2.42-2.13v-1.33c0-1.29-.56-2.04-2.81-2.04h-3.98v5.5h4.37Z"/>
    <path class="cls-5" d="M142.99,14.19c8.28,0,14.54,4.58,14.54,15.29,0,9.83-5.16,15.11-14.54,15.11s-14.5-5.42-14.5-15.11c0-10.71,6.21-15.29,14.5-15.29ZM142.99,36.08c3.37,0,4.85-1.97,4.85-5.12v-3.24c0-3.1-1.44-5.03-4.85-5.03s-4.85,1.92-4.85,5.03v3.24c0,3.19,1.49,5.12,4.85,5.12Z"/>
  </g>
  <g>
    <path class="cls-3" d="M32.21,58.77c4.15,0,7.59.41,9.18.67v8.12l-.2.2c-1.94-.15-5.35-.36-8.26-.36-5.45,0-6.42.66-6.42,2.19v.23c0,1.19.36,1.65,3.82,2.17l4.08.67c6.04.88,9.19,3.82,9.19,9.5,0,7.75-3.56,11.83-17.51,11.83-5.27,0-9.14-.46-10.59-.72v-8.45l.2-.15c2.92.36,6.41.61,9.94.61,5.38,0,6.36-.67,6.36-2.46v-.36c0-1.33-.31-1.85-4.77-2.51l-4.2-.67c-4.97-.72-8-3.44-8-9.28,0-7.08,3.95-11.23,17.18-11.23Z"/>
    <path class="cls-3" d="M58.21,59.51v33.98h-11v-33.98h11Z"/>
    <path class="cls-3" d="M61.77,83.65l10.08-10.61c.35-.41,3.7-3.07,4.81-3.89v-.26h-14.56v-9.71h28.48v9.62l-10.3,10.95c-.56.62-3.36,2.84-4.59,3.77v.26h14.88v9.71h-28.8v-9.84Z"/>
    <path class="cls-3" d="M119.37,84.75v8.74h-25.56v-33.98h25.56v8.41h-14.24v4.53h12.62v7.12h-12.62v5.18h14.24Z"/>
    <path class="cls-3" d="M122.93,59.51h13.78c12.97,0,17.19,5.59,17.19,16.78s-3.51,17.19-16.99,17.19h-13.99v-33.98ZM137.3,84.1c1.45,0,3.11,0,4.3-1.12.93-.87,1.4-2.5,1.4-4.8v-3.83c0-2.09-.26-3.68-1.19-4.6-.88-.92-2.23-1.18-4.3-1.18h-3.57v15.53h3.37Z"/>
  </g>
  <g>
    <path class="cls-1" d="M12.91,109.66h20.17c11.99,0,17.98,4.61,17.98,16.33s-5.6,17.32-16.46,17.32h-7.44v10.35h-14.24v-44.01ZM32.94,132.96c3.13,0,4.23-1.79,4.23-4.43v-3.04c0-2.85-1.11-4.17-4.3-4.17h-5.73v11.65h5.8Z"/>
    <path class="cls-1" d="M75.49,108.99c12.34,0,21.66,6.83,21.66,22.78,0,14.64-7.68,22.52-21.66,22.52s-21.6-8.07-21.6-22.52c0-15.95,9.26-22.78,21.6-22.78ZM75.52,141.67c5.05,0,7.28-2.95,7.28-7.67v-4.85c0-4.66-2.16-7.54-7.28-7.54s-7.28,2.89-7.28,7.54v4.85c0,4.79,2.23,7.67,7.28,7.67Z"/>
    <path class="cls-1" d="M101.9,109.66h20.16c11.99,0,17.98,4.61,17.98,16.33s-5.6,17.32-16.46,17.32h-7.44v10.35h-14.24v-44.01ZM121.93,132.96c3.13,0,4.23-1.79,4.23-4.43v-3.04c0-2.85-1.11-4.17-4.3-4.17h-5.73v11.65h5.8Z"/>
    <path class="cls-1" d="M150.07,141.48c5.84,0,6.76,1.05,6.76,6.17s-.92,6.17-6.76,6.17-6.76-1.05-6.76-6.17.92-6.17,6.76-6.17ZM143.64,116.05v-4.53c0-1.84.52-2.49,6.31-2.49s6.31.66,6.31,2.49v4.53l-2.8,19.82h-7.03l-2.8-19.82Z"/>
  </g>
</svg>