<?xml version="1.0" encoding="UTF-8"?>
<svg id="Camada_2" data-name="Camada 2" xmlns="http://www.w3.org/2000/svg" viewBox="0 0 741.97 125.43">
  <defs>
    <style>
      .cls-1 {
        fill: #000;
        stroke-width: 0px;
      }
    </style>
  </defs>
  <g id="Layer_1" data-name="Layer 1">
    <path class="cls-1" d="M676.06,70.98c-1.4-.22-2.8.11-3.95.95-.1.07-2.1,1.44-5.56,2.79-3.32,1.29-8.73,2.83-15.59,2.83s-12.3-1.54-15.65-2.83c-3.55-1.37-5.54-2.74-5.61-2.79-2.39-1.71-5.73-1.15-7.44,1.24-1.71,2.4-1.16,5.75,1.23,7.47.43.31,10.78,7.62,27.48,7.62s26.97-7.33,27.4-7.64c2.39-1.74,2.92-5.09,1.2-7.48-.84-1.16-2.08-1.93-3.49-2.15Z"/>
    <path class="cls-1" d="M611.44,56.14c-4.22,0-7.65,3.44-7.65,7.67s3.43,7.67,7.65,7.67,7.64-3.44,7.64-7.67-3.43-7.67-7.64-7.67Z"/>
    <g>
      <path class="cls-1" d="M230.42,29.96h-42.59c-1.06,0-1.93.86-1.93,1.93v40.93c0,2.21-.38,7.94-7.5,8.1-7.98.18-8.04-5.27-8.04-8.1V31.88c0-1.06-.86-1.93-1.93-1.93h-42.38c-1.06,0-1.93.86-1.93,1.93v56.51c0,20.48,13.81,30.8,31.62,30.8,20.65,0,30.98-12.1,32.36-30.86h4.83l3.84,26.75c.22.85.99,1.44,1.86,1.44h31.78c1.06,0,1.93-.86,1.93-1.93V31.88c0-1.06-.86-1.93-1.93-1.93Z"/>
      <path class="cls-1" d="M127.53,2.91l-40.54,111.37c-.58,1.37-1.92,2.27-3.41,2.27h-39.81c-1.6,0-2.66-1.67-1.96-3.12l12.9-34.32h-12.9c-6.87,0-13.04-4.19-15.58-10.57L.08,2.83C-.31,1.41.77.01,2.24.01h42.03c1.16,0,2.12.89,2.23,2.04l14.93,47.81c.1,1.16,1.07,2.04,2.23,2.04h1.33c1.14,0,2.1-.87,2.22-2L83.04,2c.12-1.14,1.08-2,2.23-2l40.13.02c1.5,0,2.58,1.46,2.13,2.89Z"/>
      <path class="cls-1" d="M320.68,27.3c-20.65,0-30.98,12.1-32.36,30.86h-4.83l-3.84-26.75c-.22-.85-.99-1.44-1.86-1.44h-31.78c-1.06,0-1.93.86-1.93,1.93v82.73c0,1.06.86,1.93,1.93,1.93h42.59c1.06,0,1.93-.86,1.93-1.93v-40.93c0-2.21.38-7.94,7.5-8.1,7.98-.18,8.04,5.27,8.04,8.1v40.93c0,1.06.86,1.93,1.93,1.93h42.38c1.06,0,1.93-.86,1.93-1.93v-56.51c0-20.48-13.8-30.8-31.62-30.8Z"/>
      <path class="cls-1" d="M411.43,35.38c-7.54,1.76-15.07,2.58-22.6,2.58s-15.07-.82-22.6-2.58c-1.21-.28-2.37.63-2.37,1.87v77.37c0,1.06.86,1.93,1.93,1.93h46.1c1.06,0,1.93-.86,1.93-1.93V37.25c0-1.24-1.16-2.15-2.37-1.87Z"/>
      <path class="cls-1" d="M531.72,30.05h-42.46c-.99,0-1.82.76-1.92,1.75l-6.77,52.06c-.09.99-.92,1.75-1.92,1.75h-1.11c-1.01,0-1.84-.77-1.92-1.77l-5.99-52c-.08-1-.92-1.77-1.92-1.77h-42.79c-1.23,0-2.14,1.14-1.88,2.34l20.9,82.64c.19.88.98,1.51,1.88,1.51h64.21c.9,0,1.68-.62,1.88-1.5l21.69-82.64c.28-1.21-.64-2.36-1.88-2.36Z"/>
      <path class="cls-1" d="M404.14,1.83C399.98.67,394.82,0,388.83,0s-11.15.67-15.32,1.83c-4,1.17-7.16,2.83-9.16,5.16-2.16,2.33-3.33,5.33-3.33,8.82s1.17,6.49,3.33,8.82c2,2.33,5.16,4,9.16,5.16,4.16,1.17,9.32,1.83,15.32,1.83s11.16-.67,15.32-1.83c4-1.17,7.16-2.83,9.16-5.16,2.16-2.33,3.33-5.33,3.33-8.82s-1.17-6.49-3.33-8.82c-2-2.33-5.16-4-9.16-5.16Z"/>
    </g>
    <g>
      <path class="cls-1" d="M569.81,34.67c1.16,0,2.27-.21,3.31-.58l7.05,7.26c-7.76,8.25-11.69,18.75-11.69,31.38,0,18.65,8.53,32.66,25.36,41.62,13.79,7.35,32.98,11.08,57.05,11.08s43.26-3.73,57.05-11.08c16.83-8.97,25.36-22.97,25.36-41.62,0-12.63-3.93-23.12-11.68-31.37l7.07-7.27c1.04.37,2.15.58,3.31.58,5.49,0,9.96-4.48,9.96-9.99s-4.47-9.99-9.96-9.99-9.96,4.48-9.96,9.99c0,1.13.2,2.2.54,3.22l-7.5,7.72c-2.19-1.61-4.56-3.13-7.14-4.5-13.79-7.35-32.98-11.08-57.05-11.08s-43.26,3.73-57.05,11.08c-2.58,1.37-4.94,2.88-7.13,4.49l-7.49-7.7c.34-1.01.54-2.09.54-3.22,0-5.51-4.47-9.99-9.96-9.99s-9.96,4.48-9.96,9.99,4.47,9.99,9.96,9.99ZM578.82,72.73c0-35.01,39.19-42.36,72.08-42.36s72.08,7.35,72.08,42.36-39.2,42.36-72.08,42.36-72.08-7.35-72.08-42.36Z"/>
      <path class="cls-1" d="M682.04,64.91c1.03-1.02,2.55-2.2,3.95-2.07,1.46.13,2.82,1.63,3.18,2.15.8,1.18,2.1,1.81,3.42,1.81.78,0,1.58-.22,2.28-.69,1.9-1.26,2.41-3.82,1.15-5.72-.35-.53-3.59-5.18-9.16-5.76-2.54-.26-6.46.29-10.63,4.41-1.62,1.6-1.64,4.22-.03,5.84,1.6,1.62,4.22,1.64,5.84.03Z"/>
    </g>
  </g>
</svg>