<?xml version="1.0" encoding="UTF-8"?>
<svg id="Camada_2" data-name="Camada 2" xmlns="http://www.w3.org/2000/svg" viewBox="0 0 168.52 168.52">
  <defs>
    <style>
      .cls-1, .cls-2, .cls-3, .cls-4, .cls-5 {
        stroke-width: 0px;
      }

      .cls-1, .cls-3, .cls-5 {
        fill: #ff3d47;
      }

      .cls-2 {
        fill: #000;
      }

      .cls-3 {
        opacity: .9;
      }

      .cls-4 {
        fill: #fff;
      }

      .cls-5 {
        opacity: .7;
      }
    </style>
  </defs>
  <g>
    <g>
      <rect class="cls-4" x="2.3" y="2.3" width="163.93" height="163.93" rx="14.3" ry="14.3"/>
      <path class="cls-2" d="M151.92,4.09c6.9,0,12.51,5.61,12.51,12.51v135.32c0,6.9-5.61,12.51-12.51,12.51H16.6c-6.9,0-12.51-5.61-12.51-12.51V16.6c0-6.9,5.61-12.51,12.51-12.51h135.32M151.92.5H16.6C7.75.5.5,7.75.5,16.6v135.32c0,8.85,7.24,16.1,16.1,16.1h135.32c8.85,0,16.1-7.24,16.1-16.1V16.6c0-8.85-7.24-16.1-16.1-16.1h0Z"/>
    </g>
    <g>
      <path class="cls-5" d="M13.86,13.5h12.26l7.78,13.14h.1l7.73-13.14h12.26v34.41h-11.18v-10.61c0-1.49.36-5.98.57-8.5l-.36-.05c-.77,1.49-1.8,3.86-2.42,4.95l-5.36,9.32h-2.63l-5.36-9.32c-.62-1.08-1.65-3.4-2.42-4.95l-.31.05c.15,2.52.52,7.01.52,8.5v10.61h-11.18V13.5Z"/>
      <path class="cls-5" d="M84.29,39.25v8.65h-25.91V13.5h25.6v8.65h-14.32v4.84h12.88v7.06h-12.88v5.2h14.63Z"/>
      <path class="cls-5" d="M117.05,29.83v18.08h-7.47l-1.8-3.25h-.21c-1.24,2.63-3.5,3.71-6.95,3.71-9.07,0-13.7-5.72-13.7-17.21,0-12.88,5.77-18.13,19.73-18.13,4.28,0,8.14.41,9.94.72l.05,9.43-.21.26c-2.06-.26-5.1-.52-8.04-.52-3.61,0-6.29.46-7.73,1.39-1.6,1.03-2.27,3.4-2.27,6.03v1.55c0,2.83.67,5.31,1.96,6.13.98.67,2.58.98,4.69.98.82,0,1.75-.1,2.47-.31v-8.86h9.53Z"/>
      <path class="cls-5" d="M156.61,47.55l-.26.36h-11.33l-1.75-6.29h-10.77l-1.75,6.29h-11.33l-.26-.36,11.18-34.05h15.09l11.18,34.05ZM134.56,34.36h6.65c-1.08-3.66-2.06-7.83-3.04-11.59h-.57c-.98,3.76-1.96,7.93-3.04,11.59Z"/>
    </g>
    <g>
      <path class="cls-3" d="M31.48,61.17c4.17,0,7.62.41,9.22.67v8.14l-.21.21c-1.96-.15-5.41-.36-8.35-.36-5.51,0-6.49.67-6.49,2.22v.36c0,1.18.36,1.65,3.81,2.16l4.07.67c6.03.88,9.17,3.81,9.17,9.48,0,7.73-3.55,11.8-17.46,11.8-5.25,0-9.12-.46-10.56-.72v-8.4l.21-.15c2.94.36,6.44.62,9.99.62,5.41,0,6.39-.67,6.39-2.47v-.41c0-1.34-.31-1.85-4.79-2.52l-4.22-.67c-5-.72-8.04-3.45-8.04-9.32,0-7.11,3.97-11.28,17.26-11.28Z"/>
      <path class="cls-3" d="M57.6,61.64v34.41h-11.18v-34.41h11.18Z"/>
      <path class="cls-3" d="M61.1,86.16l10.25-10.66c.36-.41,3.76-3.09,4.89-3.92v-.26h-14.68v-9.69h28.8v9.79l-10.41,10.92c-.57.62-3.4,2.83-4.64,3.76v.26h15.04v9.69h-29.26v-9.89Z"/>
      <path class="cls-3" d="M119.47,87.4v8.65h-25.91v-34.41h25.6v8.65h-14.32v4.84h12.88v7.06h-12.88v5.2h14.63Z"/>
      <path class="cls-3" d="M122.87,61.64h13.96c13.14,0,17.41,5.67,17.41,17s-3.55,17.41-17.21,17.41h-14.17v-34.41ZM137.4,86.68c1.44,0,3.09,0,4.28-1.13.93-.88,1.39-2.52,1.39-4.84v-3.86c0-2.11-.26-3.71-1.18-4.64-.88-.93-2.22-1.18-4.28-1.18h-3.55v15.66h3.35Z"/>
    </g>
  </g>
  <g>
    <path class="cls-1" d="M11.88,112.5h20.45c12.05,0,18.07,4.63,18.07,16.41s-5.63,17.41-16.55,17.41h-7.48v10.39h-14.5v-44.21ZM32.27,135.99c3.18,0,4.3-1.79,4.3-4.43v-3.04c0-2.85-1.13-4.17-4.37-4.17h-5.82v11.65h5.89Z"/>
    <path class="cls-1" d="M75.03,111.77c12.44,0,21.84,6.88,21.84,22.97,0,14.76-7.74,22.7-21.84,22.7s-21.78-8.14-21.78-22.7c0-16.08,9.33-22.97,21.78-22.97ZM75.03,144.73c5.1,0,7.35-2.98,7.35-7.74v-4.9c0-4.7-2.18-7.61-7.35-7.61s-7.35,2.91-7.35,7.61v4.9c0,4.83,2.25,7.74,7.35,7.74Z"/>
    <path class="cls-1" d="M101.5,112.5h20.45c12.05,0,18.07,4.63,18.07,16.41s-5.63,17.41-16.55,17.41h-7.48v10.39h-14.5v-44.21ZM121.89,135.99c3.18,0,4.3-1.79,4.3-4.43v-3.04c0-2.85-1.13-4.17-4.37-4.17h-5.82v11.65h5.89Z"/>
    <path class="cls-1" d="M150.22,144.53c5.89,0,6.82,1.06,6.82,6.22s-.93,6.22-6.82,6.22-6.82-1.06-6.82-6.22.93-6.22,6.82-6.22ZM143.8,118.92v-4.57c0-1.85.53-2.52,6.42-2.52s6.42.66,6.42,2.52v4.57l-2.85,19.99h-7.15l-2.85-19.99Z"/>
  </g>
</svg>