<?xml version="1.0" encoding="UTF-8"?>
<svg id="Camada_3" xmlns="http://www.w3.org/2000/svg" xmlns:xlink="http://www.w3.org/1999/xlink" viewBox="0 0 137.05 46">
  <defs>
    <style>
      .cls-1, .cls-2 {
        fill: none;
      }

      .cls-3 {
        fill: #727272;
      }

      .cls-4, .cls-5 {
        fill: #ff3d47;
      }

      .cls-4, .cls-6 {
        fill-rule: evenodd;
      }

      .cls-2 {
        stroke: #fff;
        stroke-linecap: round;
        stroke-linejoin: round;
        stroke-width: 3.63px;
      }

      .cls-7 {
        clip-path: url(#clippath);
      }

      .cls-6 {
        fill: #e60012;
      }
    </style>
    <clipPath id="clippath">
      <rect class="cls-1" x="0" y="3.68" width="39.32" height="38.64"/>
    </clipPath>
  </defs>
  <g>
    <g id="Grupo_5483">
      <g class="cls-7">
        <g id="Grupo_5477">
          <path id="Caminho_2967" class="cls-5" d="M39.32,23c0,16.79-8.8,19.32-19.66,19.32S0,39.79,0,23,8.8,3.68,19.66,3.68s19.66,2.53,19.66,19.32"/>
        </g>
      </g>
    </g>
    <polyline class="cls-2" points="10.76 22.39 16.25 28.4 28.56 17.6"/>
  </g>
  <g>
    <g>
      <path class="cls-3" d="M48.65,35.41v1.84h-4.3v-6.19h2.06v4.34h2.24Z"/>
      <path class="cls-3" d="M51.95,30.96c1.74,0,3.06.96,3.06,3.21,0,2.07-1.08,3.18-3.06,3.18s-3.05-1.14-3.05-3.18c0-2.25,1.31-3.21,3.05-3.21ZM51.95,35.58c.71,0,1.03-.42,1.03-1.08v-.69c0-.66-.31-1.07-1.03-1.07s-1.03.41-1.03,1.07v.69c0,.68.31,1.08,1.03,1.08Z"/>
      <path class="cls-3" d="M55.26,35.47c.19.04.43.06.69.06.53,0,.79-.17.79-.67v-3.8h2.06v3.87c0,1.74-.69,2.42-2.24,2.42-.58,0-1.1-.07-1.33-.13v-1.71l.04-.04Z"/>
      <path class="cls-3" d="M65.71,37.19l-.05.06h-2.04l-.31-1.13h-1.94l-.31,1.13h-2.04l-.05-.06,2.01-6.12h2.71l2.01,6.12ZM61.74,34.82h1.19c-.19-.66-.37-1.41-.55-2.08h-.1c-.18.68-.35,1.43-.55,2.08Z"/>
      <path class="cls-3" d="M71.19,30.96c1.74,0,3.06.96,3.06,3.21,0,2.07-1.08,3.18-3.06,3.18s-3.05-1.14-3.05-3.18c0-2.25,1.31-3.21,3.05-3.21ZM71.19,35.58c.71,0,1.03-.42,1.03-1.08v-.69c0-.66-.31-1.07-1.03-1.07s-1.03.41-1.03,1.07v.69c0,.68.31,1.08,1.03,1.08Z"/>
      <path class="cls-3" d="M76.93,32.81v.98h2.19v1.42h-2.19v2.05h-2.03v-6.19h4.43v1.74h-2.4Z"/>
      <path class="cls-3" d="M81.96,31.07v6.19h-2.01v-6.19h2.01Z"/>
      <path class="cls-3" d="M85.9,30.98c.68,0,1.27.09,1.58.17v1.67l-.04.04c-.34-.05-.74-.09-1.16-.09-.47,0-.9.06-1.13.22-.25.18-.36.59-.36,1.04v.3c0,.48.12.89.39,1.06.23.14.69.18,1.07.18s.96-.07,1.27-.14l.05.04v1.66c-.35.1-.95.22-1.86.22-2.19,0-3.04-1.03-3.04-3.23s1.05-3.12,3.23-3.12Z"/>
      <path class="cls-3" d="M90.27,31.07v6.19h-2.01v-6.19h2.01Z"/>
      <path class="cls-3" d="M97.5,37.19l-.05.06h-2.04l-.32-1.13h-1.94l-.32,1.13h-2.04l-.05-.06,2.01-6.12h2.71l2.01,6.12ZM93.53,34.82h1.2c-.19-.66-.37-1.41-.55-2.08h-.1c-.18.68-.35,1.43-.55,2.08Z"/>
      <path class="cls-3" d="M102.23,35.41v1.84h-4.3v-6.19h2.06v4.34h2.24Z"/>
    </g>
    <g>
      <path class="cls-4" d="M44.23,10.44h4.17l5.77,9.34v-9.34s4.13,0,4.13,0v13.39h-4.13l-5.8-9.34v9.34h-4.14v-13.39ZM80.81,11.81h4.03v1.8h2.18v1.32h-2.18v8.89s-4.03,0-4.03,0v-8.89s-2.19,0-2.19,0v-1.32h2.19v-1.8ZM60.61,14.92h4.03v8.9h-4.03v-8.9ZM60.6,10.43h4.04v2.74h-4.04v-2.74ZM132.78,19.3s0,1.34,0,1.89c0,1.42-.84,2.01-1.65,2.01s-1.65-.59-1.65-2.01c0-.54,0-1.92,0-1.92,0,0,0-1.32,0-1.86,0-1.41.84-1.99,1.64-1.99s1.65.58,1.65,1.99c0,.54,0,1.54,0,1.9h0s0,0,0,0ZM131.16,14.31c-3.25,0-5.88,2.24-5.88,5s2.63,5,5.88,5,5.89-2.24,5.89-5-2.63-5-5.89-5h0ZM119.99,10.44h3.97v13.39h-3.98v-.51c-1.54.97-3.28.96-4.64.33-.36-.17-2.75-1.32-2.75-4.41,0-2.35,2.22-4.92,5.12-4.66.96.09,1.63.43,2.28.79v-4.93ZM120.02,19.33v-1.59c0-1.38-.95-1.73-1.58-1.73s-1.58.35-1.58,1.73c0,.45,0,1.59,0,1.59,0,0,0,1.11,0,1.58,0,1.38.94,1.74,1.58,1.74s1.58-.36,1.58-1.74v-1.58ZM74.06,14.51c1.5-.04,4.56.94,4.54,4.47,0,.62,0,4.84,0,4.84h-4v-5.85c0-.78-.74-1.64-1.84-1.64s-1.91.86-1.91,1.64v5.85s-3.99,0-3.99,0v-8.9s4,0,4,0c0,0,0,.72,0,.94.87-.83,2.01-1.31,3.21-1.34h0ZM106.78,14.51c1.5-.04,4.56.94,4.54,4.47,0,.62,0,4.84,0,4.84h-4v-5.85c0-.78-.74-1.64-1.84-1.64s-1.91.86-1.91,1.64v5.85s-3.99,0-3.99,0v-8.9s4,0,4,0c0,0,0,.72,0,.94.87-.83,2.01-1.31,3.21-1.34h0ZM90.77,18.02c0-.78,0-1.3.26-1.75.32-.55.9-.81,1.42-.81h0c.53,0,1.1.26,1.42.81.26.45.27.97.26,1.75h-3.36ZM94.11,20.71s0,.04,0,.54c0,1.63-1.07,1.99-1.66,1.99s-1.69-.36-1.69-1.99c0-.49,0-1.84,0-1.84,0,0,7.58,0,7.58,0,0-2.76-2.66-5.05-5.94-5.05s-5.93,2.24-5.93,5,2.66,5,5.93,5c2.72,0,5.01-1.55,5.71-3.66h-4.02s0,0,0,0ZM132.84,12.08h-.39v-2.59h.99c.61,0,.91.23.91.73,0,.46-.29.66-.67.71l.73,1.14h-.44l-.68-1.12h-.45v1.12h0ZM133.31,10.63c.33,0,.63-.02.63-.42,0-.32-.29-.38-.56-.38h-.53v.8h.47Z"/>
      <path class="cls-6" d="M131.13,10.78c0-1.23,1-2.14,2.18-2.14s2.16.91,2.16,2.14-1,2.15-2.16,2.15-2.18-.91-2.18-2.15ZM133.31,12.57c.97,0,1.73-.76,1.73-1.79s-.76-1.78-1.73-1.78-1.74.77-1.74,1.78.76,1.79,1.74,1.79Z"/>
    </g>
  </g>
</svg>