<?xml version="1.0" encoding="UTF-8"?>
<svg id="Camada_1" data-name="Camada 1" xmlns="http://www.w3.org/2000/svg" xmlns:xlink="http://www.w3.org/1999/xlink" viewBox="0 0 59 41">
  <defs>
    <style>
      .cls-1 {
        fill: #820ad1;
      }

      .cls-1, .cls-2, .cls-3 {
        stroke-width: 0px;
      }

      .cls-4 {
        clip-path: url(#clippath);
      }

      .cls-2 {
        fill: none;
      }

      .cls-3 {
        fill: #eae6e1;
        fill-rule: evenodd;
      }
    </style>
    <clipPath id="clippath">
      <rect class="cls-2" width="59" height="41"/>
    </clipPath>
  </defs>
  <g id="Grupo_5580" data-name="Grupo 5580">
    <g class="cls-4">
      <g id="Grupo_5579" data-name="Grupo 5579">
        <path id="Caminho_3073" data-name="Caminho 3073" class="cls-3" d="M56.94,0c1.26,0,2.28,1.02,2.28,2.28v36.44c0,1.26-1.02,2.28-2.28,2.28H2.29c-1.26,0-2.28-1.02-2.29-2.28V2.28C0,1.02,1.03,0,2.29,0h54.65Z"/>
      </g>
    </g>
  </g>
  <g>
    <path id="path2" class="cls-1" d="M17.64,12.22c1.17-1.23,2.72-1.95,4.56-1.95,3.56,0,5.92,2.6,6.38,6.5.15,1.27.15,3.05.14,5.11v8.39h-4.9v-5.72s0-4.9-.04-5.82c-.13-3.99-2.49-6.5-6.14-6.5-1.11,1.17-1.69,2.59-1.78,4.77-.01.3,0,1.38,0,2.79,0,.73,0,1.56,0,2.42v8.08h-4.9v-8.81c0-.3,0-.61,0-.91,0-.62-.02-1.23,0-1.85.05-1.02.23-2.03.71-2.97,1.09-2.14,3.33-3.52,5.72-3.52.08,0,.16,0,.25,0Z"/>
    <path id="path4" class="cls-1" d="M48.04,22.31c.03-.62.02-1.23,0-1.85,0-.3,0-.61,0-.91v-8.81h-4.9v8.08c0,.86,0,1.69,0,2.42,0,1.42,0,2.49,0,2.79-.09,2.18-.68,3.59-1.77,4.76-3.65,0-6.01-2.51-6.14-6.5-.03-.91-.04-3.19-.04-5.82v-5.74h-4.9v8.4c0,2.06,0,3.85.14,5.11.45,3.9,2.81,6.5,6.38,6.5,1.83,0,3.39-.72,4.56-1.95.08,0,.16,0,.25,0,2.39,0,4.62-1.38,5.72-3.52.48-.94.66-1.94.71-2.96h0Z"/>
  </g>
</svg>