<svg xmlns="http://www.w3.org/2000/svg" xmlns:xlink="http://www.w3.org/1999/xlink" width="60" height="41" viewBox="0 0 60 41">
  <defs>
    <clipPath id="clip-path">
      <rect id="Retângulo_211" data-name="Retângulo 211" width="60" height="41" transform="translate(0 0.424)" fill="none"/>
    </clipPath>
    <clipPath id="clip-path-3">
      <rect id="Retângulo_208" data-name="Retângulo 208" width="36.651" height="23.906" fill="none"/>
    </clipPath>
  </defs>
  <g id="Grupo_5566" data-name="Grupo 5566" transform="translate(0 -0.424)">
    <g id="Grupo_5565" data-name="Grupo 5565" clip-path="url(#clip-path)">
      <g id="Grupo_5564" data-name="Grupo 5564">
        <g id="Grupo_5563" data-name="Grupo 5563" clip-path="url(#clip-path)">
          <path id="Caminho_3022" data-name="Caminho 3022" d="M57.526,0a2.31,2.31,0,0,1,2.308,2.3V39.122a2.305,2.305,0,0,1-2.308,2.3H2.309A2.31,2.31,0,0,1,0,39.122V2.3A2.307,2.307,0,0,1,2.309,0Z" fill="#eae6e1" fill-rule="evenodd"/>
          <g id="Grupo_5562" data-name="Grupo 5562" transform="translate(11.507 8.745)" opacity="0">
            <g id="Grupo_5561" data-name="Grupo 5561">
              <g id="Grupo_5560" data-name="Grupo 5560" clip-path="url(#clip-path-3)">
                <rect id="Retângulo_207" data-name="Retângulo 207" width="36.651" height="23.906" fill="#fff"/>
              </g>
            </g>
          </g>
          <rect id="Retângulo_209" data-name="Retângulo 209" width="9.668" height="15.573" transform="translate(25 12.91)" fill="#ff5f00"/>
          <path id="Caminho_3023" data-name="Caminho 3023" d="M27.167,21.63A9.838,9.838,0,0,1,31,13.844,10.146,10.146,0,0,0,17.42,14.912a9.8,9.8,0,0,0,0,13.438A10.144,10.144,0,0,0,31,29.418a9.834,9.834,0,0,1-3.836-7.788" transform="translate(-1.173 -0.932)" fill="#eb001b" fill-rule="evenodd"/>
          <path id="Caminho_3024" data-name="Caminho 3024" d="M49.018,29.516v-.647h.154v-.134h-.365v.134h.145v.647Zm.709,0v-.782h-.11l-.129.559-.129-.559h-.11v.782h.08v-.591l.12.507h.083l.12-.507v.591Z" transform="translate(-3.879 -2.284)" fill="#f79e1b"/>
          <path id="Caminho_3025" data-name="Caminho 3025" d="M48.655,21.63A9.893,9.893,0,0,1,43,30.538a10.158,10.158,0,0,1-10.6-1.123,9.819,9.819,0,0,0,0-15.573A10.159,10.159,0,0,1,43,12.719a9.893,9.893,0,0,1,5.654,8.908Z" transform="translate(-2.575 -0.932)" fill="#f79e1b" fill-rule="evenodd"/>
        </g>
      </g>
    </g>
  </g>
</svg>
