<svg xmlns="http://www.w3.org/2000/svg" xmlns:xlink="http://www.w3.org/1999/xlink" width="60" height="41" viewBox="0 0 60 41">
  <defs>
    <clipPath id="clip-path">
      <rect id="Retângulo_212" data-name="Retângulo 212" width="60" height="41" transform="translate(0.04 0.424)" fill="none"/>
    </clipPath>
  </defs>
  <g id="Grupo_5568" data-name="Grupo 5568" transform="translate(-0.04 -0.424)">
    <g id="Grupo_5567" data-name="Grupo 5567" clip-path="url(#clip-path)">
      <path id="Caminho_3026" data-name="Caminho 3026" d="M57.526,0a2.31,2.31,0,0,1,2.308,2.3V39.122a2.305,2.305,0,0,1-2.308,2.3H2.309A2.31,2.31,0,0,1,0,39.122V2.3A2.307,2.307,0,0,1,2.309,0Z" fill="#eae6e1" fill-rule="evenodd"/>
      <path id="Caminho_3027" data-name="Caminho 3027" d="M29.241,28.184H25.982L28.02,15.912h3.259Z" transform="translate(-2.065 -1.265)" fill="#0742a6" fill-rule="evenodd"/>
      <path id="Caminho_3028" data-name="Caminho 3028" d="M41.51,16.193a8.214,8.214,0,0,0-2.923-.523c-3.217,0-5.484,1.672-5.5,4.06-.027,1.763,1.622,2.742,2.855,3.33,1.261.6,1.689.992,1.689,1.528-.013.822-1.018,1.2-1.957,1.2a6.641,6.641,0,0,1-3.057-.653l-.429-.2-.456,2.754a10.13,10.13,0,0,0,3.634.654c3.419,0,5.645-1.645,5.67-4.191.013-1.4-.857-2.468-2.735-3.342-1.14-.562-1.837-.94-1.837-1.515.013-.522.59-1.057,1.877-1.057a5.661,5.661,0,0,1,2.427.469l.3.131Z" transform="translate(-2.522 -1.245)" fill="#0742a6" fill-rule="evenodd"/>
      <path id="Caminho_3029" data-name="Caminho 3029" d="M46.624,23.837c.268-.705,1.3-3.434,1.3-3.434-.014.026.268-.718.429-1.176l.227,1.058s.617,2.937.751,3.551Zm4.022-7.925h-2.52a1.612,1.612,0,0,0-1.7,1.018l-4.84,11.254H45s.563-1.515.684-1.841h4.184c.093.431.388,1.841.388,1.841h3.017Z" transform="translate(-3.305 -1.265)" fill="#0742a6"/>
      <path id="Caminho_3030" data-name="Caminho 3030" d="M22.331,15.912,19.14,24.281l-.348-1.7a9.464,9.464,0,0,0-4.505-5.144L17.21,28.172h3.446l5.122-12.26Z" transform="translate(-1.135 -1.265)" fill="#0742a6" fill-rule="evenodd"/>
      <path id="Caminho_3031" data-name="Caminho 3031" d="M15.884,15.912H10.641l-.053.248c4.089,1.019,6.8,3.474,7.91,6.424l-1.14-5.64a1.345,1.345,0,0,0-1.475-1.032" transform="translate(-0.841 -1.265)" fill="#0742a6" fill-rule="evenodd"/>
    </g>
  </g>
</svg>
