<svg xmlns="http://www.w3.org/2000/svg" xmlns:xlink="http://www.w3.org/1999/xlink" width="60" height="41" viewBox="0 0 60 41">
  <defs>
    <clipPath id="clip-path">
      <rect id="Retângulo_216" data-name="Retângulo 216" width="60" height="41" transform="translate(0.239 0.344)" fill="none"/>
    </clipPath>
  </defs>
  <g id="Grupo_5574" data-name="Grupo 5574" transform="translate(-0.239 -0.344)">
    <g id="Grupo_5573" data-name="Grupo 5573" clip-path="url(#clip-path)">
      <path id="Caminho_3055" data-name="Caminho 3055" d="M57.526,0a2.31,2.31,0,0,1,2.308,2.3V39.122a2.305,2.305,0,0,1-2.308,2.3H2.309A2.31,2.31,0,0,1,0,39.122V2.3A2.307,2.307,0,0,1,2.309,0Z" fill="#991915" fill-rule="evenodd"/>
      <path id="Caminho_3056" data-name="Caminho 3056" d="M15.67,17.388c.27-.186.618-1.033.22-1.385a.749.749,0,0,0-.63-.095.76.76,0,0,0-.535.284c-.171.233-.328.935-.064,1.2s.836.118,1.008,0M11.829,16c-.193,1.255-.411,2.485-.63,3.715-1.4.015-2.834.069-4.187-.031.256-1.2.439-2.479.693-3.684H6.194C5.652,19.072,5.161,22.19,4.556,25.2H6.1c.242-1.542.469-3.1.787-4.565a37.615,37.615,0,0,1,4.156.031c-.261,1.523-.575,2.993-.818,4.534h1.543c.5-3.114,1.018-6.2,1.637-9.193Zm21.818,2.645a2.076,2.076,0,0,0-2.581,1.1c.1-.342.14-.741.22-1.1h-1.2c-.292,2.268-.724,4.4-1.133,6.549h1.354A25.756,25.756,0,0,1,31,20.977a1.889,1.889,0,0,1,2.487-1.354c.018-.36.122-.634.157-.976m.756,5.006a3.318,3.318,0,0,1-.126-1.259,4.408,4.408,0,0,1,.913-2.519c.706-.692,2.1-.577,3.212-.189.034-.375.11-.709.157-1.071-1.824-.3-3.553-.112-4.471.85a5.38,5.38,0,0,0-1.071,4.471c.487,1.594,2.671,1.681,4.44,1.071.078-.32.12-.678.189-1.008-.966.5-2.813.763-3.243-.346M49.61,18.679a2.069,2.069,0,0,0-2.582,1.008c.111-.309.118-.723.221-1.039h-1.2q-.483,3.373-1.164,6.549h1.385a14.683,14.683,0,0,1,.315-2.361c.289-1.818.714-3.811,2.833-3.212.07-.307.1-.656.189-.944m-35.325-.031c-.037.006-.034.05-.031.095-.3,2.23-.7,4.356-1.134,6.454h1.354c.325-2.246.7-4.444,1.165-6.549Zm11.9-.126a3.537,3.537,0,0,0-2.392.976,5.469,5.469,0,0,0-1.133,3.967c.244,2.182,2.959,2.1,5.132,1.574.037-.383.13-.71.189-1.071-.895.335-2.449.8-3.369.221-.695-.44-.7-1.552-.472-2.519,1.46-.046,2.978-.037,4.44,0a4.667,4.667,0,0,0,.126-2.109c-.307-.894-1.4-1.125-2.519-1.039m1.291,2.393H24.3a1.877,1.877,0,0,1,1.8-1.575c.975-.037,1.674.358,1.385,1.575m-6.423-2.267a3.575,3.575,0,0,0-3.147.572c0,.022-.015.025-.032.027l.032-.027v0c.01-.211.085-.357.095-.567H16.835c-.485,3.23-1.061,6.369-1.669,9.477H16.52c.2-1.21.326-2.487.6-3.62.309,1.192,2.328.964,3.18.5,1.757-.951,3.113-5.474.755-6.36m-1.071,5.321c-.724.768-2.5.756-2.645-.535a6.432,6.432,0,0,1,.252-1.732c.1-.588.18-1.153.284-1.669.713-.871,2.809-.977,3.022.472a4.8,4.8,0,0,1-.913,3.463m34.664-8.154c-.116,1.017-.271,2-.472,2.928-3.32-1.051-5.357,1.392-5.321,4.407a2.374,2.374,0,0,0,.472,1.574,3.064,3.064,0,0,0,3.338.284,2.365,2.365,0,0,0,.472-.472c.087-.11.226-.4.251-.315a6.98,6.98,0,0,0-.125.976H54.49A85.7,85.7,0,0,1,56,15.814Zm-3.022,8.658c-.911.02-1.364-.544-1.385-1.479-.036-1.638.682-3.457,2.141-3.62a3.553,3.553,0,0,1,1.669.251c-.458,1.84-.293,4.8-2.425,4.848M39.945,18.647c-.067.374-.169.712-.252,1.071.8-.2,3.287-.815,3.527.251a1.875,1.875,0,0,1-.157,1.008c-2.25-.214-4.083.16-4.565,1.763a1.989,1.989,0,0,0,.724,2.425,3.012,3.012,0,0,0,3.5-.976,4.1,4.1,0,0,0-.095,1.007h1.165a17.964,17.964,0,0,1,.346-3.022,11.914,11.914,0,0,0,.377-2.456c-.1-1.728-2.962-1.117-4.565-1.071m2.2,5.289c-.7.683-2.656.877-2.456-.756.167-1.356,1.643-1.644,3.243-1.448a4.027,4.027,0,0,1-.787,2.2" transform="translate(-0.362 -1.257)" fill="#fff" fill-rule="evenodd"/>
    </g>
  </g>
</svg>
