<svg xmlns="http://www.w3.org/2000/svg" xmlns:xlink="http://www.w3.org/1999/xlink" width="61" height="42" viewBox="0 0 61 42">
  <defs>
    <clipPath id="clip-path">
      <rect id="Ret창ngulo_214" data-name="Ret창ngulo 214" width="61" height="42" transform="translate(0.08 0.344)" fill="none"/>
    </clipPath>
  </defs>
  <g id="Grupo_5570" data-name="Grupo 5570" transform="translate(-0.08 -0.344)">
    <g id="Grupo_5569" data-name="Grupo 5569" clip-path="url(#clip-path)">
      <path id="Caminho_3032" data-name="Caminho 3032" d="M0,2.762A2.766,2.766,0,0,1,2.768,0H57.987a2.77,2.77,0,0,1,2.768,2.762v36.82a2.767,2.767,0,0,1-2.768,2.763H2.768A2.77,2.77,0,0,1,0,39.582Z" fill="#016fd0" fill-rule="evenodd"/>
      <path id="Caminho_3033" data-name="Caminho 3033" d="M12.821,33.975V24.529H22.875l1.079,1.4,1.115-1.4H61.563v8.794a4.226,4.226,0,0,1-2.058.652H39.3l-1.216-1.488v1.488H34.1V31.433a3.359,3.359,0,0,1-1.721.354H31.017v2.187H24.983l-1.077-1.429-1.094,1.429Z" transform="translate(-1.019 -1.949)" fill="#fff" fill-rule="evenodd"/>
      <path id="Caminho_3034" data-name="Caminho 3034" d="M.066,16.341l2.267-5.258H6.255L7.541,14.03V11.083h4.874l.766,2.13.743-2.13H35.8v1.071a4.732,4.732,0,0,1,3.041-1.071l7.1.026,1.265,2.907V11.083h4.079l1.123,1.671V11.083h4.117v9.446H52.41l-1.076-1.675v1.675H45.341l-.6-1.488H43.127l-.593,1.488H38.47A4.03,4.03,0,0,1,35.8,19.481v1.048H29.676L28.46,19.041v1.488H5.674l-.6-1.488H3.466l-.6,1.488H.066Z" transform="translate(-0.005 -0.881)" fill="#fff" fill-rule="evenodd"/>
      <path id="Caminho_3035" data-name="Caminho 3035" d="M3.137,12.349.079,19.421H2.07L2.634,18h3.28l.562,1.417H8.51L5.455,12.349Zm1.131,1.646,1,2.474h-2Z" transform="translate(-0.006 -0.981)" fill="#016fd0"/>
      <path id="Caminho_3036" data-name="Caminho 3036" d="M9.467,19.42V12.348l2.83.01,1.645,4.56,1.606-4.57h2.807V19.42H16.577V14.209L14.693,19.42H13.134l-1.89-5.211V19.42Z" transform="translate(-0.752 -0.981)" fill="#016fd0" fill-rule="evenodd"/>
      <path id="Caminho_3037" data-name="Caminho 3037" d="M20.443,19.42V12.348h5.8v1.581h-4v1.21h3.91v1.488h-3.91v1.257h4V19.42Z" transform="translate(-1.625 -0.981)" fill="#016fd0" fill-rule="evenodd"/>
      <path id="Caminho_3038" data-name="Caminho 3038" d="M27.862,12.348V19.42H29.64V16.908h.748l2.131,2.512h2.172l-2.339-2.605A2.159,2.159,0,0,0,34.3,14.643a2.3,2.3,0,0,0-2.485-2.295ZM29.64,13.93h2.032a.814.814,0,0,1,.842.745.8.8,0,0,1-.816.744H29.64Z" transform="translate(-2.214 -0.981)" fill="#016fd0"/>
      <rect id="Ret창ngulo_213" data-name="Ret창ngulo 213" width="1.815" height="7.072" transform="translate(32.814 11.367)" fill="#016fd0"/>
      <path id="Caminho_3039" data-name="Caminho 3039" d="M42,19.42h-.392c-1.9,0-3.046-1.486-3.046-3.507a3.248,3.248,0,0,1,3.532-3.565h1.964v1.675H42.019a1.7,1.7,0,0,0-1.66,1.907,1.737,1.737,0,0,0,1.918,1.945h.468Z" transform="translate(-3.064 -0.981)" fill="#016fd0" fill-rule="evenodd"/>
      <path id="Caminho_3040" data-name="Caminho 3040" d="M46.232,12.349l-3.058,7.072h1.991L45.729,18h3.28l.562,1.417h2.034l-3.054-7.072Zm1.131,1.646,1,2.474h-2Z" transform="translate(-3.431 -0.981)" fill="#016fd0"/>
      <path id="Caminho_3041" data-name="Caminho 3041" d="M52.558,19.42V12.348h2.26L57.7,16.791V12.348h1.778V19.42H57.295l-2.959-4.56v4.56Z" transform="translate(-4.177 -0.981)" fill="#016fd0" fill-rule="evenodd"/>
      <path id="Caminho_3042" data-name="Caminho 3042" d="M14.142,32.865V25.793h5.8v1.582h-4v1.21h3.91v1.488h-3.91V31.33h4v1.535Z" transform="translate(-1.124 -2.05)" fill="#016fd0" fill-rule="evenodd"/>
      <path id="Caminho_3043" data-name="Caminho 3043" d="M45.017,32.865V25.793h5.8v1.582h-4v1.21h3.892v1.488H46.813V31.33h4v1.535Z" transform="translate(-3.578 -2.05)" fill="#016fd0" fill-rule="evenodd"/>
      <path id="Caminho_3044" data-name="Caminho 3044" d="M20.682,32.865l2.824-3.492-2.891-3.58h2.24l1.721,2.213L26.3,25.793h2.152L25.6,29.33l2.83,3.536h-2.24L24.52,30.687l-1.631,2.178Z" transform="translate(-1.638 -2.05)" fill="#016fd0" fill-rule="evenodd"/>
      <path id="Caminho_3045" data-name="Caminho 3045" d="M29.335,25.794v7.073h1.824V30.633h1.871c1.583,0,2.783-.835,2.783-2.46a2.334,2.334,0,0,0-2.552-2.38Zm1.824,1.6H33.13a.8.8,0,0,1,.876.815.818.818,0,0,1-.883.814H31.159Z" transform="translate(-2.331 -2.05)" fill="#016fd0"/>
      <path id="Caminho_3046" data-name="Caminho 3046" d="M37.212,25.792v7.073H38.99V30.353h.748l2.131,2.512h2.172L41.7,30.26a2.161,2.161,0,0,0,1.951-2.173,2.3,2.3,0,0,0-2.485-2.295Zm1.778,1.582h2.032a.815.815,0,0,1,.842.745.8.8,0,0,1-.816.744H38.99Z" transform="translate(-2.957 -2.05)" fill="#016fd0"/>
      <path id="Caminho_3047" data-name="Caminho 3047" d="M52.194,32.865V31.33h3.558c.526,0,.754-.283.754-.594s-.227-.6-.754-.6H54.143a1.982,1.982,0,0,1-2.175-2.118c0-1.134.712-2.228,2.789-2.228h3.461l-.748,1.592H54.476c-.573,0-.748.3-.748.584a.618.618,0,0,0,.654.617h1.685a1.946,1.946,0,0,1,2.233,2.03,2.126,2.126,0,0,1-2.318,2.251Z" transform="translate(-4.13 -2.05)" fill="#016fd0" fill-rule="evenodd"/>
      <path id="Caminho_3048" data-name="Caminho 3048" d="M59.281,32.865V31.33h3.558c.526,0,.754-.283.754-.594s-.227-.6-.754-.6H61.23a1.982,1.982,0,0,1-2.175-2.118c0-1.134.712-2.228,2.789-2.228h3.461l-.748,1.592H61.563c-.573,0-.748.3-.748.584a.618.618,0,0,0,.654.617h1.685a1.946,1.946,0,0,1,2.233,2.03,2.126,2.126,0,0,1-2.319,2.251Z" transform="translate(-4.693 -2.05)" fill="#016fd0" fill-rule="evenodd"/>
    </g>
  </g>
</svg>
