<svg xmlns="http://www.w3.org/2000/svg" xmlns:xlink="http://www.w3.org/1999/xlink" width="60" height="41" viewBox="0 0 60 41">
  <defs>
    <clipPath id="clip-path">
      <rect id="Retângulo_215" data-name="Retângulo 215" width="60" height="41" transform="translate(0.199 0.424)" fill="none"/>
    </clipPath>
  </defs>
  <g id="Grupo_5572" data-name="Grupo 5572" transform="translate(-0.199 -0.424)">
    <g id="Grupo_5571" data-name="Grupo 5571" clip-path="url(#clip-path)">
      <path id="Caminho_3049" data-name="Caminho 3049" d="M57.526,0a2.31,2.31,0,0,1,2.308,2.3V39.122a2.305,2.305,0,0,1-2.308,2.3H2.309A2.31,2.31,0,0,1,0,39.122V2.3A2.307,2.307,0,0,1,2.309,0Z" fill-rule="evenodd"/>
      <path id="Caminho_3050" data-name="Caminho 3050" d="M12.25,27.874a9.475,9.475,0,0,1-.558-1.073,8.139,8.139,0,0,1,4.063-10.587,8.149,8.149,0,0,1,7.488.545,8.008,8.008,0,0,1,3.344,4.036c.1.238.191.493.279.71Zm4.881-8.5a4.034,4.034,0,0,0-2.446,4.282l7.351-3.164a3.9,3.9,0,0,0-4.905-1.118m5.822,6.884,0,0-.152-.1a4.309,4.309,0,0,1-1.987,1.663,3.859,3.859,0,0,1-4.259-.429l-.1.153,0,0-1.865,2.79a7.932,7.932,0,0,0,1.482.812,7.722,7.722,0,0,0,6.245-.087,7.679,7.679,0,0,0,3.486-2.9Z" transform="translate(-0.876 -1.236)" fill="#fff"/>
      <path id="Caminho_3051" data-name="Caminho 3051" d="M33.489,11.806V27.319L35.9,28.3l-1.371,3.2-2.662-1.107a3.025,3.025,0,0,1-1.312-1.1,3.464,3.464,0,0,1-.515-1.921V11.806Z" transform="translate(-2.388 -0.938)" fill="#fff"/>
      <path id="Caminho_3052" data-name="Caminho 3052" d="M40.254,23.841a4.386,4.386,0,0,1,1.508-3.31l-2.474-2.759a8.106,8.106,0,0,0-.008,12.138l2.472-2.762a4.387,4.387,0,0,1-1.5-3.307" transform="translate(-2.905 -1.412)" fill="#00a3df"/>
      <path id="Caminho_3053" data-name="Caminho 3053" d="M45.128,28.845a4.466,4.466,0,0,1-1.394-.227l-1.182,3.514A8.111,8.111,0,0,0,53.071,26.08l-3.632-.742a4.4,4.4,0,0,1-4.311,3.507" transform="translate(-3.382 -2.014)" fill="#ee4023"/>
      <path id="Caminho_3054" data-name="Caminho 3054" d="M45.139,15.565a8.112,8.112,0,0,0-2.569.413l1.171,3.516a4.453,4.453,0,0,1,1.395-.225,4.4,4.4,0,0,1,4.308,3.525l3.632-.736a8.109,8.109,0,0,0-7.937-6.493" transform="translate(-3.383 -1.237)" fill="#ffca05"/>
    </g>
  </g>
</svg>
