<svg xmlns="http://www.w3.org/2000/svg" xmlns:xlink="http://www.w3.org/1999/xlink" width="59" height="41" viewBox="0 0 59 41">
  <defs>
    <clipPath id="clip-path">
      <rect id="Retângulo_228" data-name="Retângulo 228" width="59" height="41" transform="translate(0 0)" fill="none"/>
    </clipPath>
  </defs>
  <g id="Grupo_5580" data-name="Grupo 5580" transform="translate(0 0)">
    <g id="Grupo_5579" data-name="Grupo 5579" transform="translate(0 0)" clip-path="url(#clip-path)">
      <path id="Caminho_3073" data-name="Caminho 3073" d="M56.938,0a2.286,2.286,0,0,1,2.284,2.278V38.722A2.282,2.282,0,0,1,56.938,41H2.285A2.286,2.286,0,0,1,0,38.722V2.278A2.283,2.283,0,0,1,2.285,0Z" transform="translate(0 0)" fill="#eae6e1" fill-rule="evenodd"/>
      <path id="Caminho_3074" data-name="Caminho 3074" d="M44.035,18.07l-3.264-3.264a.636.636,0,0,1-.232.046H39.054a2.937,2.937,0,0,0-2.062.855L32.739,19.96a2.045,2.045,0,0,1-2.887,0l-4.269-4.27a2.934,2.934,0,0,0-2.062-.854H21.695a.659.659,0,0,1-.22-.044L18.2,18.07a4.309,4.309,0,0,0,0,6.093l3.277,3.279a.638.638,0,0,1,.22-.045h1.826a2.937,2.937,0,0,0,2.062-.853l4.269-4.27a2.093,2.093,0,0,1,2.888,0l4.253,4.253a2.937,2.937,0,0,0,2.062.855h1.484a.619.619,0,0,1,.232.047l3.264-3.266a4.309,4.309,0,0,0,0-6.093M39.054,28.631a4.137,4.137,0,0,1-2.947-1.219l-4.254-4.254a.81.81,0,0,0-1.118,0l-4.269,4.269a4.135,4.135,0,0,1-2.947,1.221h-.838l5.387,5.387a4.309,4.309,0,0,0,6.093,0l5.4-5.4ZM23.521,13.585a4.142,4.142,0,0,1,2.947,1.22l4.269,4.271a.792.792,0,0,0,1.118,0l4.254-4.253A4.139,4.139,0,0,1,39.054,13.6h.512l-5.4-5.4a4.309,4.309,0,0,0-6.093,0l-5.387,5.387Z" transform="translate(-1.506 -0.617)" fill="#37b4aa"/>
    </g>
  </g>
</svg>
