<?xml version="1.0" encoding="UTF-8"?>
<svg id="Camada_1" data-name="Camada 1" xmlns="http://www.w3.org/2000/svg" xmlns:xlink="http://www.w3.org/1999/xlink" viewBox="0 0 59 41">
  <defs>
    <style>
      .cls-1 {
        clip-path: url(#clippath);
      }

      .cls-2 {
        fill: none;
      }

      .cls-2, .cls-3, .cls-4, .cls-5, .cls-6, .cls-7 {
        stroke-width: 0px;
      }

      .cls-3 {
        fill: #ff7dd1;
      }

      .cls-4 {
        fill: #fe35f1;
      }

      .cls-5 {
        fill: #1232a1;
      }

      .cls-6 {
        fill: #eae6e1;
        fill-rule: evenodd;
      }

      .cls-7 {
        fill: #30b757;
      }
    </style>
    <clipPath id="clippath">
      <rect class="cls-2" width="59" height="41"/>
    </clipPath>
  </defs>
  <g id="Grupo_5580" data-name="Grupo 5580">
    <g class="cls-1">
      <g id="Grupo_5579" data-name="Grupo 5579">
        <path id="Caminho_3073" data-name="Caminho 3073" class="cls-6" d="M56.94,0c1.26,0,2.28,1.02,2.28,2.28v36.44c0,1.26-1.02,2.28-2.28,2.28H2.29c-1.26,0-2.28-1.02-2.29-2.28V2.28C0,1.02,1.03,0,2.29,0h54.65Z"/>
      </g>
    </g>
  </g>
  <g>
    <path class="cls-7" d="M20.43,12.78c-.99-1.26-.76-3.09.5-4.07.51-.4,1.13-.61,1.78-.62.5,0,.99.13,1.43.37.33.19.62.44.86.74l5.97,7.61c2.44-.05,4.88-.31,7.27-.79l2-2.54c1.49-1.91,1.16-4.66-.75-6.15-.91-.71-2.07-1.04-3.21-.9-1.15.14-2.2.73-2.92,1.64l-3.46,4.41-3.46-4.4c-1.62-2.05-4.6-2.4-6.64-.77-.98.77-1.61,1.9-1.76,3.14-.15,1.24.19,2.5.96,3.48l1.6,2.03c.85.19,1.76.35,2.71.48l-2.86-3.64ZM28.72,27.02l-3.73,4.75c-.99,1.26-2.81,1.48-4.07.49-1.26-.99-1.48-2.81-.49-4.07l2.36-3.01c-.7-.08-1.4-.19-2.09-.3l-1.71,2.17c-1.62,2.05-1.27,5.03.78,6.65.99.78,2.25,1.14,3.51.99,1.25-.15,2.39-.8,3.16-1.79l3.46-4.4,3.46,4.41c1.49,1.9,4.25,2.23,6.15.74,1.9-1.49,2.23-4.25.74-6.15l-2.03-2.58c-2.76.43-5.56.65-8.36.66l-1.13,1.43Z"/>
    <path class="cls-3" d="M23.29,16.43l2.13,2.71c.62.79.62,1.91,0,2.7l-.29.37-2.34,2.98c2.25.27,4.51.41,6.78.41h.28l2.59-3.31c.83-1.05.83-2.53,0-3.58l-1.48-1.89c-2.56.08-5.13-.05-7.67-.38M45.46,18.53c-.68-2.32-3.11-3.64-5.43-2.96-.56.17-1.16.31-1.79.45l-3.52,4.47,3.48,4.44c1.45-.23,2.89-.55,4.3-.95,1.7-.5,2.93-1.98,3.11-3.74.06-.57,0-1.15-.16-1.7"/>
    <path class="cls-4" d="M23.98,20.27l-3.39-4.32c-.49-.11-.98-.23-1.46-.37-2.29-.77-4.77.46-5.55,2.75-.21.61-.27,1.26-.2,1.9.21,1.8,1.5,3.29,3.26,3.75,1.33.39,2.68.69,4.05.91l3.29-4.17c.1-.13.1-.31,0-.44"/>
    <path class="cls-5" d="M25.14,22.21l.29-.37c.62-.79.62-1.91,0-2.7l-2.13-2.71c-.91-.12-1.81-.28-2.71-.48l3.39,4.32c.1.13.1.31,0,.43l-3.28,4.18c.68.11,1.38.21,2.09.3l2.34-2.98ZM38.24,16.02c-2.39.48-4.83.74-7.27.79l1.48,1.89c.83,1.05.83,2.53,0,3.58l-2.59,3.31c2.8,0,5.59-.23,8.36-.66l-3.48-4.44,3.51-4.47Z"/>
  </g>
</svg>