<?xml version="1.0" encoding="UTF-8"?>
<svg id="Camada_2" data-name="Camada 2" xmlns="http://www.w3.org/2000/svg" viewBox="0 0 60.6 60.6">
  <defs>
    <style>
      .cls-1 {
        stroke-linejoin: round;
        stroke-width: 4px;
      }

      .cls-1, .cls-2 {
        fill: none;
        stroke: #000;
      }

      .cls-2 {
        stroke-linecap: round;
        stroke-miterlimit: 10;
        stroke-width: 4.01px;
      }

      .cls-3 {
        fill: #000;
        stroke-width: 0px;
      }
    </style>
  </defs>
  <g id="Layer_1" data-name="Layer 1">
    <rect class="cls-1" x="6.99" y="6.99" width="46.62" height="46.62" rx="11.12" ry="11.12" transform="translate(33.8 73.01) rotate(-139.69)"/>
    <path class="cls-1" d="M13.25,14.37l5.05-.41c1.76-.14,3.49.47,4.77,1.68l4.53,4.31c1.07,1.02,2.79.88,3.68-.3l3.77-4.99c1.06-1.4,2.67-2.29,4.43-2.43l5.05-.41"/>
    <path class="cls-1" d="M18.59,50.93l2.72-.22c1.76-.14,3.37-1.03,4.43-2.44l3.77-4.99c.89-1.17,2.61-1.32,3.68-.3l4.53,4.31c1.28,1.22,3.01,1.83,4.77,1.69l2.72-.22"/>
    <path class="cls-3" d="M16.52,24.57c-1.72.14-3,1.65-2.86,3.37s1.65,3,3.37,2.86,3-1.65,2.86-3.37-1.65-3-3.37-2.86Z"/>
    <path class="cls-3" d="M42.96,22.4c-1.72.14-3,1.65-2.86,3.37s1.65,3,3.37,2.86,3-1.65,2.86-3.37-1.65-3-3.37-2.86Z"/>
    <path class="cls-2" d="M21.57,34.35c.15.09,3.72,2.19,9.22,1.74,5.5-.45,8.66-3.11,8.79-3.22"/>
  </g>
</svg>