<?xml version="1.0" encoding="UTF-8"?>
<svg id="Camada_2" data-name="Camada 2" xmlns="http://www.w3.org/2000/svg" viewBox="0 0 168.52 168.52">
  <defs>
    <style>
      .cls-1 {
        fill: #000;
        font-family: Allotrope-ExtraBold, Allotrope;
        font-size: 41.19px;
        font-weight: 700;
      }

      .cls-2 {
        letter-spacing: -.03em;
      }

      .cls-3 {
        fill: #ff7dd1;
        stroke-width: 0px;
      }
    </style>
  </defs>
  <path class="cls-3" d="M39.53,121.28c-5.81-1.12-8.06-13.26-12.88-15.25-5.48-2.26-16.71,3.38-20.08-.93-3.1-3.96,4.95-12.97,4.38-19.46-.42-4.73-11.22-10.8-9.98-17.22,1.24-6.42,13.53-8.04,15.68-12.27,2.95-5.81-1.16-17.17,3.19-19.69,4.72-2.74,13.05,6.68,18.98,6.62,5.22-.05,11.82-10.48,17.63-9.36,9.06,1.75,6.93,12.82,15.99,14.57,9.07,1.75,11.2-9.32,20.27-7.57,9.07,1.75,6.93,12.82,15.99,14.57,9.07,1.75,11.2-9.32,20.27-7.57,5.81,1.12,8.06,13.26,12.88,15.25,5.48,2.26,16.71-3.38,20.08.93,3.1,3.96-4.95,12.97-4.38,19.46.42,4.73,11.22,10.8,9.98,17.22-1.24,6.42-13.53,8.04-15.68,12.27-2.95,5.81,1.16,17.17-3.19,19.69-4.72,2.74-13.05-6.68-18.98-6.62-5.22.05-11.82,10.48-17.63,9.36-9.06-1.75-6.93-12.82-15.99-14.57-9.07-1.75-11.2,9.32-20.27,7.57-9.07-1.75-7.89-14.77-17.12-14.67-9.76.1-10.08,9.42-19.15,7.67Z"/>
  <text class="cls-1" transform="translate(21.09 85.81) rotate(10.93)"><tspan class="cls-2" x="0" y="0">WO</tspan><tspan x="69.69" y="0">W!</tspan></text>
</svg>