<?xml version="1.0" encoding="UTF-8"?>
<svg id="Camada_2" data-name="Camada 2" xmlns="http://www.w3.org/2000/svg" viewBox="0 0 168.52 168.52">
  <defs>
    <style>
      .cls-1 {
        fill: #30b757;
        stroke-width: 0px;
      }

      .cls-2 {
        fill: none;
        stroke: #000;
        stroke-linecap: round;
        stroke-linejoin: round;
        stroke-width: 15.3px;
      }
    </style>
  </defs>
  <path class="cls-1" d="M164.76,108.34c-1.16,3.88-13.45,3.34-15.19,6.86-1.79,3.61,6.08,13.04,3.75,16.24-2.36,3.24-13.77-1.35-16.61,1.44s1.5,14.28-1.76,16.58-12.61-5.7-16.2-3.94c-3.56,1.74-2.99,14.03-6.82,15.21s-10.27-9.27-14.25-8.67c-3.91.59-7.02,12.49-11.05,12.49-3.94,0-7.07-11.89-11.07-12.48s-10.31,9.92-14.19,8.76c-3.88-1.16-3.49-13.46-7.05-15.11-3.66-1.7-12.81,6.51-16.1,4.35-3.37-2.21.57-13.87-2.37-16.51-2.99-2.68-14.15,2.48-16.67-.58s4.67-13.05,2.65-16.46c-2.04-3.44-14.24-1.91-15.71-5.6-1.47-3.71,8.48-10.93,7.63-14.82-.85-3.89-12.9-6.32-13.09-10.32-.19-3.95,11.56-7.52,12.05-11.51s-10.09-10.19-8.93-14.07,13.45-3.34,15.19-6.86-6.08-13.04-3.75-16.24c2.36-3.24,13.77,1.35,16.61-1.44,2.85-2.79-1.5-14.28,1.76-16.58,3.25-2.28,12.61,5.7,16.2,3.94s2.99-14.03,6.82-15.21c3.78-1.17,10.27,9.27,14.25,8.67,3.91-.59,7.02-12.49,11.05-12.49,3.94,0,7.07,11.89,11.07,12.48s10.31-9.92,14.19-8.76c3.88,1.16,3.49,13.46,7.05,15.11,3.66,1.7,12.81-6.51,16.1-4.35s-.57,13.87,2.37,16.51c2.99,2.68,14.15-2.48,16.67.58s-4.67,13.05-2.65,16.46,14.24,1.91,15.71,5.6-8.48,10.93-7.63,14.82,12.9,6.32,13.09,10.32c.19,3.95-11.56,7.52-12.05,11.51-.48,3.9,10.09,10.19,8.93,14.07Z"/>
  <polyline class="cls-2" points="45.53 72.84 63.69 101.96 122.99 66.56"/>
</svg>