<?xml version="1.0" encoding="UTF-8"?>
<svg id="Camada_2" data-name="Camada 2" xmlns="http://www.w3.org/2000/svg" viewBox="0 0 168.52 168.52">
  <defs>
    <style>
      .cls-1 {
        fill: #000;
        stroke-width: 0px;
      }

      .cls-2 {
        stroke-linejoin: round;
      }

      .cls-2, .cls-3 {
        stroke-linecap: round;
      }

      .cls-2, .cls-3, .cls-4 {
        fill: none;
        stroke: #000;
        stroke-width: 8.51px;
      }

      .cls-3, .cls-4 {
        stroke-miterlimit: 10;
      }
    </style>
  </defs>
  <path class="cls-1" d="M58.35,112.23c-3.67,0-6.64,2.97-6.64,6.64s2.97,6.64,6.64,6.64,6.64-2.97,6.64-6.64-2.97-6.64-6.64-6.64Z"/>
  <path class="cls-1" d="M114.67,112.23c-3.67,0-6.64,2.97-6.64,6.64s2.97,6.64,6.64,6.64,6.64-2.97,6.64-6.64-2.97-6.64-6.64-6.64Z"/>
  <path class="cls-3" d="M68.44,135.6c.3.22,7.5,5.28,19.21,5.28s18.86-5.07,19.15-5.29"/>
  <path class="cls-4" d="M142.17,87.89c.74,6.59.72,14.78.72,24.89,0,35.63.28,47.3-33.84,50.07-6.27.51-13.72.72-22.55.72s-16.27-.21-22.55-.72c-34.12-2.77-33.84-14.44-33.84-50.07,0-10.1-.02-18.29.72-24.89"/>
  <path class="cls-2" d="M145.19,87.9H23.33c-7.94,0-12.27-7.46-7.17-12.36l11.44-10.99c1.71-1.64,4.06-2.57,6.52-2.57h100.29c2.45,0,4.81.93,6.52,2.57l11.44,10.99c5.1,4.9.77,12.36-7.17,12.36Z"/>
  <line class="cls-2" x1="54.54" y1="43.98" x2="54.54" y2="10.5"/>
  <polyline class="cls-2" points="36.34 23.15 54.54 4.95 72.74 23.15"/>
  <line class="cls-2" x1="112.63" y1="4.95" x2="112.63" y2="38.43"/>
  <polyline class="cls-2" points="130.84 25.78 112.63 43.98 94.43 25.78"/>
</svg>