<?xml version="1.0" encoding="UTF-8"?>
<svg id="Camada_2" data-name="Camada 2" xmlns="http://www.w3.org/2000/svg" viewBox="0 0 168.52 168.52">
  <defs>
    <style>
      .cls-1 {
        fill: #30b757;
        stroke-width: 0px;
      }

      .cls-2 {
        fill: none;
        stroke: #000;
        stroke-linecap: round;
        stroke-linejoin: round;
        stroke-width: 14.04px;
      }
    </style>
  </defs>
  <path class="cls-1" d="M164.19,108.21c-1.16,3.86-13.38,3.32-15.11,6.83-1.78,3.59,6.05,12.98,3.73,16.16s-13.7-1.34-16.53,1.43c-2.84,2.78,1.49,14.21-1.76,16.49s-12.55-5.67-16.12-3.92c-3.55,1.73-2.98,13.96-6.79,15.14s-10.22-9.22-14.18-8.63c-3.89.59-6.98,12.43-10.99,12.43s-7.04-11.83-11.01-12.41c-3.87-.57-10.26,9.87-14.12,8.72-3.86-1.16-3.47-13.39-7.01-15.04-3.65-1.69-12.75,6.48-16.02,4.33-3.35-2.2.57-13.8-2.36-16.42s-14.08,2.47-16.58-.57,4.65-12.98,2.64-16.38c-2.03-3.43-14.17-1.9-15.63-5.58s8.44-10.87,7.59-14.75c-.84-3.87-12.84-6.29-13.03-10.27-.19-3.93,11.51-7.48,11.99-11.45s-10.04-10.14-8.88-14,13.38-3.32,15.11-6.83-6.05-12.98-3.73-16.16c2.35-3.22,13.7,1.34,16.53-1.43,2.84-2.78-1.49-14.21,1.76-16.49,3.24-2.27,12.55,5.67,16.12,3.92s2.98-13.96,6.79-15.14c3.76-1.17,10.22,9.22,14.18,8.63,3.89-.59,6.98-12.43,10.99-12.43,3.92,0,7.04,11.83,11.01,12.41s10.26-9.87,14.12-8.72c3.86,1.16,3.47,13.39,7.01,15.04,3.65,1.69,12.75-6.48,16.02-4.33s-.57,13.8,2.36,16.42,14.08-2.47,16.58.57-4.65,12.98-2.64,16.38,14.17,1.9,15.63,5.58c1.46,3.69-8.44,10.87-7.59,14.75s12.84,6.29,13.03,10.27c.19,3.93-11.51,7.48-11.99,11.45s10.04,10.14,8.88,14Z"/>
  <polyline class="cls-2" points="49.68 81.88 70.9 105.14 118.53 63.36"/>
</svg>