<?xml version="1.0" encoding="UTF-8"?>
<svg id="Camada_2" data-name="Camada 2" xmlns="http://www.w3.org/2000/svg" viewBox="0 0 168.52 168.52">
  <defs>
    <style>
      .cls-1 {
        fill: #000;
      }

      .cls-1, .cls-2 {
        stroke-width: 0px;
      }

      .cls-2 {
        fill: #ffeb57;
      }
    </style>
  </defs>
  <circle class="cls-2" cx="84.26" cy="84.26" r="84.26"/>
  <g>
    <path class="cls-1" d="M54.55,101.32c-1.22-1.7-8.45-7.28-10.24-7.97h-13.73c-.94,0-1.71.76-1.73,1.7.15,14.57.02,28.37-.73,40.37,0,0,.39.94.91.96l18.96.73s7.15-4.66,7.11-7.13c-.18-9.55-.36-19.11-.55-28.66ZM38.75,130.31c-.83,0-1.51-.71-1.52-1.58-.13-8.62-.26-17.25-.4-25.87,0-.72.55-1.3,1.24-1.3h5.45c.06,9.66.12,19.27.18,28.81-1.65-.02-3.3-.04-4.95-.05Z"/>
    <path class="cls-1" d="M83.66,101.97v-.63c-1.67-2.79-4.51-5.43-7.97-7.99h-7.83c-2.97,1.32-6.23,3.57-9.17,5.7.24,10.97-.38,21.14-1.59,31.31-.05,1.1.8,2.02,1.9,2.06l9.27.34c.68,0,1.12-.36,1.38-.84.33-.61.33-1.25.29-1.56-.2-1.37-.57-4.08-.97-7.18v-.05s1.57-4.09,6.91-1.55h0c.15,4.59.13,9.55-.06,14.87-.04,1.09.83,2,1.93,2h4.97c.85,0,1.54-.7,1.53-1.55l-.57-34.94ZM71.19,116.78l-.89-.03c-1.64-.05-2.94-1.39-2.94-3.01l.23-10.4c.02-.76.64-1.36,1.39-1.36h3.32c.73,0,1.34.57,1.39,1.3.16,3.57.34,7.1.69,10.33.07,1.78-1.39,3.24-3.19,3.18Z"/>
    <path class="cls-1" d="M115.84,132.12h-5.01c-.17,0-.32-.09-.4-.24l-5.27-9.96c-.14-.26-.21-.56-.21-.85v-.62c.01-.33.21-.62.51-.75,2.81-1.26,5.24-2.63,7.2-4.14.65-.5,1-1.29.95-2.1l-.61-11.32c0-.09-.04-.18-.09-.25-1.96-2.61-5.5-4.78-9.86-6.7-.06-.03-.13-.04-.2-.04l-15.32.03c-.65,0-1.17.55-1.14,1.2l1.14,22.2v12.67c0,1.33,1.08,2.41,2.41,2.41h3.77c.76,0,1.37-.61,1.37-1.37l-.66-10.78c0-.15.04-.3.14-.41l.48-.54c.15-.17.37-.27.59-.27,0,0,1.68,0,2.75,0,1.07,0,1.48,2.01,1.48,2.01l2.49,9.93s.01.07.01.1v3.54c0,.79.64,1.44,1.44,1.44h12.89c.37,0,.67-.3.67-.67v-2.98c0-.84-.68-1.51-1.51-1.51ZM101.04,113.95h-5.85c-.75,0-1.37-.57-1.42-1.32l-.78-10.13c-.05-.69.49-1.27,1.18-1.27h6.32c.87,0,1.6.68,1.65,1.55l.57,9.4c.06.96-.71,1.77-1.67,1.77Z"/>
    <path class="cls-1" d="M130.12,107.62l-.45-11.1c-.02-.56-.48-1-1.04-1h-9.1c-.83,0-1.49.69-1.45,1.52-.12-1.67,1.3,15.59,1.23,34.53,0,.72.58,1.33,1.3,1.36l6.12.26c.79.03,1.42-.65,1.31-1.43l-1.63-12.63c-.01-.11-.01-.22,0-.33l.02-.19c.07-.56.55-.98,1.11-.99l.99-.02c.2,0,.4.03.58.1l3.47,1.3c.51.19.88.65.96,1.19l1.5,10.66c0,.07.01.14.01.21v2.51c0,1.2.97,2.18,2.18,2.18h9.39c.64,0,1.16-.52,1.16-1.16v-2.5c0-.62-.51-1.13-1.13-1.13h-3.16c-.62,0-1.11-.51-1.1-1.12l.31-12.39v-.66c0-.54-.35-1.01-.86-1.17l-6.34-1.94c-.21-.06-.36-.25-.37-.47h0c-.02-.27.08-.54.28-.73l16.37-15.63c.22-.21.34-.5.34-.8h0c0-.3-.24-.54-.54-.55l-8.97-.21c-.55-.01-1.08.23-1.43.66l-9.49,11.82c-.13.16-.32.25-.52.24l-.68-.02c-.2,0-.37-.17-.38-.38Z"/>
  </g>
  <g>
    <path class="cls-1" d="M36.63,90.41l-2.93-.07c-.88-.02-1.6-.72-1.64-1.6l-.76-15.6c-.04-.78.58-1.43,1.36-1.44l4.7-.02c.87,0,1.56.72,1.53,1.58l-.64,15.63c-.04.86-.75,1.53-1.61,1.51Z"/>
    <g>
      <path class="cls-1" d="M46.99,83.39v8.42s-5.38,0-5.38,0v-15.3c0-1.8,1.46-3.26,3.26-3.26h4.63c.58,0,1.12.31,1.41.81l4.58,7.96c.18.32.52.52.88.53h.28c.38.02.69-.3.66-.69l-.71-8.01c0-.65.51-1.19,1.16-1.22l3.64-.17c.91-.04,1.65.71,1.6,1.62l-.91,15.45c-.04.68-.57,1.22-1.25,1.28-1.79.27-3.62.4-5.52.34-.34,0-.66-.16-.87-.43l-6.14-7.97c-.13-.17-.33-.26-.54-.25-.49-.02-.77.25-.78.88Z"/>
      <path class="cls-1" d="M87.17,74.92c-.26,0-.46.23-.45.49.19,3.44.86,8.06.78,14.13,0,.52-.42.94-.94.94h-2.7c-1,0-1.8-.81-1.8-1.8v-12.17c0-.28-.22-.5-.5-.5h-4.64c-.66,0-1.2-.54-1.2-1.2v-3.24c0-.79.64-1.43,1.43-1.43h15.45c.91,0,1.64.73,1.64,1.64v1.98c0,.54-.43.98-.96.99l-6.09.17Z"/>
      <path class="cls-1" d="M115.03,87.05v-14.96c0-.92-.75-1.67-1.67-1.67h-5.03c-1.4,0-2.48,1.21-2.33,2.6l.45,4.16c.06.53-.35.99-.87,1.01l-2.01.07c-.71.02-1.3-.55-1.3-1.26v-4.62c0-.51-.37-.94-.87-1.03-1.45-.28-2.79-.41-3.85-.13-.96.26-1.61,1.15-1.58,2.15,1.28,4.98,1.39,10.04.43,15.16.03,1.09.92,1.96,2.01,1.96h2.23c1.14,0,2.04-.96,1.97-2.1l-.25-3.94c-.05-.84.41-1.63,1.17-2h0s2.03,0,2.03,0c.87,0,1.74.21,2.51.61h0c.45.23.73.69.73,1.19l.03,5.51c0,.78.64,1.41,1.41,1.41h4.83c.72,0,1.31-.59,1.31-1.31h0c0-.59-.25-1.15-.7-1.54l-.13-.12c-.33-.29-.52-.7-.52-1.14Z"/>
      <path class="cls-1" d="M126.76,85.86h0c0,.78.62,1.41,1.4,1.41h6.86c.51,0,.92.41.92.92v.94c0,.55-.45.99-.99.99h-15.55c-.63,0-1.15-.51-1.15-1.15v-16.56c0-.64.52-1.15,1.15-1.15h14.49c.86,0,1.55.7,1.55,1.55v1.89c0,.47-.38.86-.86.86h-7.13c-1.25,0-2.26,1.01-2.26,2.26v1.71c0,1.11.9,2.01,2.01,2.01h6.39c.48,0,.86.39.86.86v1.39c0,.37-.3.67-.67.67l-5.67.05c-.74,0-1.35.61-1.35,1.35Z"/>
    </g>
  </g>
  <g>
    <path class="cls-1" d="M37.41,68.71c.29.12.61.19.92.18,2.06-.05,4.13-.1,6.19-.16.53-.02,1.04-.21,1.46-.54,2.64-2.14,4.23-3.67,6.07-6.44.15-.23.23-.5.23-.78l-.23-11.73c-.02-1.02-.85-1.84-1.87-1.84h-8.52c-1.11,0-2.02.9-2.02,2.02v2.44c0,.85.69,1.54,1.54,1.54h1.57c.51,0,.92.41.91.92l-.02,4.87c0,.41-.15.8-.43,1.1l-.63.69c-.26.29-.64.45-1.03.45h-3.83c-.84,0-1.53-.68-1.52-1.53l.08-26.73c0-1.4,1.16-2.51,2.56-2.46l4.21.15c.75.03,1.35.63,1.37,1.38l.26,8.41c.03.92.82,1.63,1.74,1.56l6.11-.47c.51-.04.9-.48.88-.99l-.43-9.84c-1.3-3.33-3.76-5.87-7.28-7.7-.5-.26-1.05-.39-1.61-.39h-5.93c-.52,0-1.03.16-1.46.46-3,2.09-5.61,4.83-7.95,8.02-.43.58-.66,1.29-.66,2.01v26s0,1.12,0,1.12c0,.59.22,1.16.61,1.59,2.41,2.67,5.05,5.14,8.69,6.69Z"/>
    <path class="cls-1" d="M62.47,67.11h7.09c.62,0,1.13-.51,1.13-1.13v-2.44c0-2.07-1.68-3.75-3.75-3.75h-3.59c-.49,0-.88-.4-.88-.88v-27.81c0-.78-.63-1.41-1.41-1.41h-4.72c-.93,0-1.69.76-1.69,1.69v34.37c0,.75.61,1.36,1.36,1.36h6.47Z"/>
    <path class="cls-1" d="M86.98,31.73c-.02-.97-.44-1.89-1.16-2.54l-3.82-3.42c-.46-.41-1.07-.62-1.69-.56l-3.85.35c-.84.08-1.62.45-2.22,1.04l-4.33,4.36c-.73.74-1.13,1.73-1.12,2.77l.27,22.54c0,.53.22,1.04.59,1.41l3.01,3.06c.73.74,1.77,1.1,2.8.97l5.91-.76c.91-.12,1.74-.59,2.31-1.32l3.02-3.88c.41-.52.62-1.17.61-1.83l-.35-22.19ZM77.88,55.83h-2.26c-.99,0-1.78-.8-1.78-1.78v-19.38c0-.9.73-1.63,1.63-1.63h2.63c.67,0,1.22.53,1.25,1.2l.86,19.17c.06,1.32-1,2.43-2.32,2.43Z"/>
    <path class="cls-1" d="M103.68,49.65c.02-.19.3-.21.34-.02l3.28,15.68c.15.75.86,1.24,1.61,1.13l4.64-.69c.71-.11,1.26-.67,1.35-1.38,1.67-15.12,3.38-30.97,4.7-37,.09-.74-.5-1.39-1.24-1.37l-5.75.15c-.83.02-1.5.7-1.5,1.54.66,6.18.5,13.62-.09,21.71-.02.23-.32.3-.44.1-1.26-2.25-2.11-9.7-2.79-18.01-.13-1.55-1.46-2.74-3.01-2.68l-1.23.04c-2.08.07-3.65,1.83-3.5,3.9.38,5.34.1,12.73-.59,18.7-.04.32-.46.39-.6.1-1.07-2.22-1.45-9.32-1.48-18.88-.13-1.3-1.31-2.24-2.61-2.07l-3.77.49c-1.34.17-2.26,1.42-2.05,2.75,1.54,7.31,3.17,18.06,4.82,29.85.14.84.91,1.42,1.75,1.31l5.53-.69c.68-.08,1.2-.63,1.26-1.31l1.37-13.36Z"/>
    <path class="cls-1" d="M127.54,53.32c1.81,0,3.28,1.74,3.28,3.89s-1.47,3.89-3.28,3.89-3.28-1.74-3.28-3.89c0-.35.48-1.03.11-1.01h0l-5.99.05c-.41,0-.75.33-.75.74,0,0,0,0,0,0,0,4.18,3.07,7.7,7.23,8.71.13.03.26.04.4.03l5.03-.26c.2-.01.39-.05.57-.11,3.58-1.32,6.1-4.57,6.1-8.36,0-3.3-1.91-6.18-4.76-7.75-.45-.25-.96-.38-1.48-.38h-5.1c-.74,0-1.36-.57-1.41-1.32l-.64-8.95c-.06-.81.57-1.51,1.38-1.55l2.42-.1c.62-.03,1.14.48,1.14,1.1l-.05,6.09c0,.83.67,1.5,1.5,1.48l4.95-.11c.87-.02,1.57-.73,1.57-1.61v-8.34c0-.58-.21-1.14-.6-1.57l-4.03-4.52c-.44-.49-1.06-.77-1.72-.77h-3.04c-.7,0-1.36.3-1.81.83l-5.38,6.2c-.57.66-.88,1.52-.85,2.4l.46,13.09c.04,1.16,1,2.09,2.16,2.09h5.84Z"/>
  </g>
</svg>