<?xml version="1.0" encoding="UTF-8"?>
<svg id="Camada_2" data-name="Camada 2" xmlns="http://www.w3.org/2000/svg" viewBox="0 0 168.52 168.52">
  <defs>
    <style>
      .cls-1 {
        fill: #000;
      }

      .cls-1, .cls-2 {
        stroke-width: 0px;
      }

      .cls-2 {
        fill: #ff7dd1;
      }
    </style>
  </defs>
  <path class="cls-2" d="M39.53,121.28c-5.81-1.12-8.06-13.26-12.88-15.25-5.48-2.26-16.71,3.38-20.08-.93-3.1-3.96,4.95-12.97,4.38-19.46-.42-4.73-11.22-10.8-9.98-17.22,1.24-6.42,13.53-8.04,15.68-12.27,2.95-5.81-1.16-17.17,3.19-19.69,4.72-2.74,13.05,6.68,18.98,6.62,5.22-.05,11.82-10.48,17.63-9.36,9.06,1.75,6.93,12.82,15.99,14.57,9.07,1.75,11.2-9.32,20.27-7.57,9.07,1.75,6.93,12.82,15.99,14.57,9.07,1.75,11.2-9.32,20.27-7.57,5.81,1.12,8.06,13.26,12.88,15.25,5.48,2.26,16.71-3.38,20.08.93,3.1,3.96-4.95,12.97-4.38,19.46.42,4.73,11.22,10.8,9.98,17.22-1.24,6.42-13.53,8.04-15.68,12.27-2.95,5.81,1.16,17.17-3.19,19.69-4.72,2.74-13.05-6.68-18.98-6.62-5.22.05-11.82,10.48-17.63,9.36-9.06-1.75-6.93-12.82-15.99-14.57-9.07-1.75-11.2,9.32-20.27,7.57-9.07-1.75-7.89-14.77-17.12-14.67-9.76.1-10.08,9.42-19.15,7.67Z"/>
  <g>
    <path class="cls-1" d="M67.78,67.1l-11.83,25.44-10.59-2.05-.46-10.2c-.06-.98.29-5.4.4-7.09l-.28-.05c-.52,1.62-1.84,5.81-2.27,6.74l-4.23,9.29-10.59-2.05-1.51-28.02.26-.24,8.98,1.73.21,10.86c.03,1.14-.52,6.4-.69,8.13l.36.07c.59-1.73,1.72-4.78,2.15-5.71l5.24-11.95,8.45,1.63.46,13.05c.01,1.01-.07,4.27-.17,6.09l.36.07c.55-1.74,1.95-6.84,2.39-7.8l4.24-10,8.98,1.73.15.32Z"/>
    <path class="cls-1" d="M81.42,68.98c7.6,1.47,12.53,6.78,10.63,16.61-1.74,9.02-7.41,12.96-16.02,11.29-8.57-1.66-12.34-7.54-10.62-16.44,1.9-9.83,8.41-12.93,16.01-11.46ZM77.54,89.12c3.11.6,4.84-.95,5.4-3.86l.58-2.99c.55-2.87-.44-4.91-3.59-5.52-3.11-.6-4.83.91-5.39,3.78l-.58,2.99c-.57,2.95.46,5,3.58,5.6Z"/>
    <path class="cls-1" d="M136.2,80.31l-11.83,25.44-10.59-2.05-.46-10.2c-.06-.98.29-5.4.41-7.09l-.28-.05c-.52,1.62-1.83,5.81-2.26,6.74l-4.23,9.29-10.59-2.05-1.51-28.02.26-.24,8.98,1.73.21,10.86c.03,1.14-.52,6.4-.69,8.13l.36.07c.59-1.73,1.72-4.78,2.15-5.71l5.24-11.95,8.45,1.63.46,13.05c.01,1.01-.07,4.26-.17,6.09l.36.07c.54-1.74,1.95-6.84,2.39-7.8l4.24-10,8.98,1.73.15.32Z"/>
    <path class="cls-1" d="M138.26,100.72c3.6.7,4.04,1.45,3.43,4.61s-1.3,3.69-4.9,3c-3.6-.69-4.04-1.45-3.43-4.6s1.3-3.69,4.9-3ZM137.36,84.31l.54-2.79c.22-1.13.62-1.47,4.22-.78,3.6.7,3.84,1.16,3.62,2.29l-.54,2.79-4.1,11.88-4.37-.84.62-12.55Z"/>
  </g>
</svg>