<?xml version="1.0" encoding="UTF-8"?>
<svg id="Camada_2" data-name="Camada 2" xmlns="http://www.w3.org/2000/svg" viewBox="0 0 54.25 73.1">
  <defs>
    <style>
      .cls-1 {
        fill: #fff;
        stroke-width: 0px;
      }
    </style>
  </defs>
  <g id="Layer_1" data-name="Layer 1">
    <path class="cls-1" d="M38.48,0H15.76C7.06,0,0,7.06,0,15.76v41.57c0,8.71,7.06,15.76,15.76,15.76h22.72c8.71,0,15.76-7.06,15.76-15.76V15.76c0-8.71-7.06-15.76-15.76-15.76ZM41.01,38.67l-19.61,21.89c-1.36,1.51-3.67,1.66-5.21.34-1.59-1.37-1.73-3.78-.32-5.33l17.21-18.95L15.88,18.29c-1.42-1.52-1.31-3.91.25-5.29,1.5-1.32,3.79-1.2,5.14.27l19.69,21.33c1.06,1.15,1.07,2.91.03,4.07Z"/>
  </g>
</svg>