<?xml version="1.0" encoding="UTF-8"?>
<svg id="Camada_2" data-name="Camada 2" xmlns="http://www.w3.org/2000/svg" viewBox="0 0 54.25 73.1">
  <defs>
    <style>
      .cls-1 {
        fill: #000;
        stroke-width: 0px;
      }
    </style>
  </defs>
  <g id="Layer_1" data-name="Layer 1">
    <path class="cls-1" d="M38.48,0H15.76C7.06,0,0,7.06,0,15.76v41.57c0,8.71,7.06,15.76,15.76,15.76h22.72c8.71,0,15.76-7.06,15.76-15.76V15.76c0-8.71-7.06-15.76-15.76-15.76ZM41.01,38.67l-19.54,21.81c-1.19,1.33-3.17,1.73-4.7.83-2.11-1.24-2.47-4.02-.9-5.74l16.68-18.37c.3-.33.29-.82,0-1.14l-16.51-17.62c-1.37-1.46-1.49-3.81-.09-5.24,1.49-1.52,3.93-1.47,5.35.07l19.69,21.33c1.06,1.15,1.07,2.91.03,4.07Z"/>
  </g>
</svg>