<?xml version="1.0" encoding="UTF-8"?>
<svg id="Camada_2" xmlns="http://www.w3.org/2000/svg" xmlns:xlink="http://www.w3.org/1999/xlink" viewBox="0 0 137.05 46">
  <defs>
    <style>
      .cls-1 {
        fill: none;
      }

      .cls-2 {
        fill: #4d4d4d;
      }

      .cls-3 {
        fill-rule: evenodd;
      }

      .cls-4 {
        fill: #fff;
      }

      .cls-5 {
        clip-path: url(#clippath);
      }
    </style>
    <clipPath id="clippath">
      <rect class="cls-1" x="0" y="3.68" width="39.32" height="38.64"/>
    </clipPath>
  </defs>
  <g>
    <g id="Grupo_5483">
      <g class="cls-5">
        <g id="Grupo_5477">
          <path id="Caminho_2967" d="M39.32,23c0,16.79-8.8,19.32-19.66,19.32S0,39.79,0,23,8.8,3.68,19.66,3.68s19.66,2.53,19.66,19.32"/>
        </g>
      </g>
    </g>
    <path class="cls-4" d="M34.9,29.36c-.61.77-2.09,1.31-2.09,1.31l-11.05,3.97v-2.93l8.13-2.9c.92-.33,1.06-.8.31-1.04-.75-.25-2.1-.18-3.03.16l-5.42,1.91v-3.04l.31-.11s1.57-.56,3.77-.8c2.2-.24,4.9.03,7.01.84,2.38.75,2.65,1.87,2.05,2.63h0ZM22.81,24.37v-7.49c0-.88-.16-1.69-.99-1.92-.63-.2-1.02.38-1.02,1.26v18.76l-5.05-1.61V11.01c2.15.4,5.28,1.34,6.96,1.91,4.28,1.47,5.73,3.3,5.73,7.43s-2.48,5.55-5.63,4.02h0ZM6.47,31.41c-2.45-.69-2.85-2.13-1.74-2.96,1.03-.76,2.78-1.34,2.78-1.34l7.25-2.58v2.94l-5.21,1.87c-.92.33-1.06.8-.31,1.04.75.25,2.11.18,3.03-.16l2.5-.91v2.63l-.5.08c-2.5.41-5.17.24-7.79-.63h0Z"/>
  </g>
  <g>
    <g>
      <path class="cls-2" d="M48.65,34.54v1.84h-4.3v-6.19h2.06v4.34h2.24Z"/>
      <path class="cls-2" d="M51.95,30.1c1.74,0,3.06.96,3.06,3.21,0,2.07-1.08,3.18-3.06,3.18s-3.05-1.14-3.05-3.18c0-2.25,1.31-3.21,3.05-3.21ZM51.95,34.71c.71,0,1.03-.42,1.03-1.08v-.69c0-.66-.31-1.07-1.03-1.07s-1.03.41-1.03,1.07v.69c0,.68.31,1.08,1.03,1.08Z"/>
      <path class="cls-2" d="M55.26,34.61c.19.04.43.06.69.06.53,0,.79-.17.79-.67v-3.8h2.06v3.87c0,1.74-.69,2.42-2.24,2.42-.58,0-1.1-.07-1.33-.13v-1.71l.04-.04Z"/>
      <path class="cls-2" d="M65.71,36.32l-.05.06h-2.04l-.31-1.13h-1.94l-.31,1.13h-2.04l-.05-.06,2.01-6.12h2.71l2.01,6.12ZM61.74,33.95h1.19c-.19-.66-.37-1.41-.55-2.08h-.1c-.18.68-.35,1.43-.55,2.08Z"/>
      <path class="cls-2" d="M71.19,30.1c1.74,0,3.06.96,3.06,3.21,0,2.07-1.08,3.18-3.06,3.18s-3.05-1.14-3.05-3.18c0-2.25,1.31-3.21,3.05-3.21ZM71.19,34.71c.71,0,1.03-.42,1.03-1.08v-.69c0-.66-.31-1.07-1.03-1.07s-1.03.41-1.03,1.07v.69c0,.68.31,1.08,1.03,1.08Z"/>
      <path class="cls-2" d="M76.92,31.94v.98h2.19v1.42h-2.19v2.05h-2.03v-6.19h4.43v1.74h-2.4Z"/>
      <path class="cls-2" d="M81.96,30.2v6.19h-2.01v-6.19h2.01Z"/>
      <path class="cls-2" d="M85.9,30.12c.68,0,1.27.09,1.58.17v1.67l-.04.04c-.34-.05-.74-.09-1.16-.09-.47,0-.9.06-1.13.22-.25.18-.36.59-.36,1.04v.3c0,.48.12.89.39,1.06.23.14.69.18,1.07.18s.96-.07,1.27-.14l.05.04v1.66c-.35.1-.95.22-1.86.22-2.19,0-3.04-1.03-3.04-3.23s1.05-3.12,3.23-3.12Z"/>
      <path class="cls-2" d="M90.27,30.2v6.19h-2.01v-6.19h2.01Z"/>
      <path class="cls-2" d="M97.5,36.32l-.05.06h-2.04l-.32-1.13h-1.94l-.32,1.13h-2.04l-.05-.06,2.01-6.12h2.71l2.01,6.12ZM93.53,33.95h1.2c-.19-.66-.37-1.41-.55-2.08h-.1c-.18.68-.35,1.43-.55,2.08Z"/>
      <path class="cls-2" d="M102.23,34.54v1.84h-4.3v-6.19h2.06v4.34h2.24Z"/>
    </g>
    <path class="cls-3" d="M54.84,9.51h2.15v13.73h-2.15v-13.73ZM76.47,12.71l-2.86,7.05-2.59-7.05h-2.32l3.7,10.04-2.33,5.76h2.03l6.4-15.81h-2.04ZM52.9,11.41c-.41-1.29-1.68-1.9-4.04-1.9h-4.51v13.73h2.15v-12.3h2.45c.42,0,1.3.05,1.79,1.1.37.8.31,2.59.08,3.43-.31,1.11-1.2,1.11-2.08,1.11h-1.05v1.35h2.3c1.6-.04,2.51-.73,2.93-1.9.53-1.48.44-3.24,0-4.63h0ZM87.18,16.88c-.41-1.29-.89-1.79-3.25-1.9-1.13-.05-1.67-.09-2.02-.83-.29-.62-.12-1.94.2-2.51.35-.62,1.16-.76,2.05-.76h2.36v-1.35h-3.6c-1.6.04-2.57.68-2.95,1.76-.54,1.49-.5,2.63-.06,4.03.39,1.21,1.6,1.66,3,1.74,1.4.08,1.89.17,2.18.79.31.66.25,2.21,0,2.86-.29.77-1.19,1.14-2.07,1.14h-2.95v1.35h4.19c1.6-.05,2.51-.73,2.93-1.9.53-1.48.44-3.03,0-4.42ZM67.17,14.34c-.53-1.14-1.57-1.56-3.7-1.6h-3.01v1.34h2.91c.74,0,1.56.35,1.8,1.12.07.23.12.5.11.77v5.84s-2.02.02-2.44.02-1.44-.08-1.59-.91c-.12-.68-.13-1.05-.04-1.83.1-.89,1.15-1.15,1.9-1.15h.88v-1.34h-.99c-2.12.04-3.52.42-3.85,1.63-.31,1.12-.29,2.2.05,3.36.31,1.04,1.36,1.66,3.72,1.66l4.5-.02v-7.22c-.05-.52-.04-1.21-.26-1.67h0ZM103.63,14.34c-.53-1.14-1.57-1.56-3.7-1.6h-3.01v1.34h2.91c.75,0,1.56.35,1.8,1.12.07.23.12.5.11.77v5.84s-2.02.02-2.44.02-1.44-.08-1.59-.91c-.12-.68-.13-1.05-.04-1.83.1-.89,1.15-1.15,1.9-1.15h.89v-1.34h-.99c-2.12.04-3.52.42-3.85,1.63-.3,1.12-.29,2.2.05,3.36.3,1.04,1.36,1.66,3.72,1.66l4.5-.02v-7.22c-.04-.52-.04-1.21-.25-1.67h0ZM94.3,14.07v-1.35h-2.45v-1.95h-2.14v10.61c0,.9.32,1.84,2.09,1.84h2v-1.4s-.65-.02-1.01,0c-.67.03-.93-.66-.93-1.39v-6.36h2.45,0ZM110.98,14.07v-1.35h-2.44v-1.95h-2.15v10.61c0,.9.32,1.84,2.09,1.84h2v-1.4s-.65-.02-1.02,0c-.67.03-.92-.66-.92-1.39v-6.36h2.44ZM112.7,12.71h2.15v10.53h-2.15v-10.53ZM112.7,9.51h2.15v1.9h-2.15v-1.9ZM136.79,14.34c-.53-1.14-1.57-1.56-3.7-1.6h-2.32s-2.15,0-2.15,0v10.51h2.15v-9.16h2.21c.74,0,1.56.35,1.81,1.12.07.23.12.5.11.77l.02,7.26h2.13v-7.24c-.05-.52-.04-1.21-.26-1.67ZM121.69,23.29c2.19,0,3.42-.46,4.05-1.77.6-1.22.59-2.61.59-3.58s0-2.36-.59-3.58c-.63-1.3-1.87-1.77-4.05-1.77s-3.43.46-4.06,1.77c-.59,1.22-.59,2.61-.59,3.58s0,2.36.59,3.58c.63,1.31,1.87,1.77,4.06,1.77ZM119.24,17.94c0-2.98.68-3.84,2.45-3.88,1.76.04,2.44.9,2.44,3.88s-.8,3.87-2.44,3.87-2.45-.89-2.45-3.87Z"/>
  </g>
</svg>