<?xml version="1.0" encoding="UTF-8"?>
<svg id="Camada_2" xmlns="http://www.w3.org/2000/svg" xmlns:xlink="http://www.w3.org/1999/xlink" viewBox="0 0 164.27 38.64">
  <defs>
    <style>
      .cls-1 {
        fill: none;
      }

      .cls-2 {
        fill-rule: evenodd;
      }

      .cls-3 {
        fill: #fff;
      }

      .cls-4 {
        fill: #004c8a;
      }

      .cls-5 {
        clip-path: url(#clippath);
      }
    </style>
    <clipPath id="clippath">
      <rect class="cls-1" width="39.32" height="38.64"/>
    </clipPath>
  </defs>
  <g id="Camada_2-2" data-name="Camada_2">
    <g>
      <g>
        <g id="Grupo_5483">
          <g class="cls-5">
            <g id="Grupo_5477">
              <path id="Caminho_2967" class="cls-4" d="M39.32,19.32c0,16.79-8.8,19.32-19.66,19.32S0,36.11,0,19.32,8.8,0,19.66,0s19.66,2.53,19.66,19.32"/>
            </g>
          </g>
        </g>
        <path class="cls-3" d="M34.9,25.68c-.61.77-2.09,1.31-2.09,1.31l-11.05,3.97v-2.93l8.13-2.9c.92-.33,1.06-.8.31-1.04-.75-.25-2.1-.18-3.03.16l-5.42,1.91v-3.04l.31-.11s1.57-.56,3.77-.8c2.2-.24,4.9.03,7.01.84,2.38.75,2.65,1.87,2.05,2.63h0ZM22.81,20.69v-7.49c0-.88-.16-1.69-.99-1.92-.63-.2-1.02.38-1.02,1.26v18.76l-5.05-1.61V7.33c2.15.4,5.28,1.34,6.96,1.91,4.28,1.47,5.73,3.3,5.73,7.43s-2.48,5.55-5.63,4.02h0ZM6.47,27.73c-2.45-.69-2.85-2.13-1.74-2.96,1.03-.76,2.78-1.34,2.78-1.34l7.25-2.58v2.94l-5.21,1.87c-.92.33-1.06.8-.31,1.04.75.25,2.11.18,3.03-.16l2.5-.91v2.63l-.5.08c-2.5.41-5.17.24-7.79-.63h0Z"/>
      </g>
      <g>
        <g>
          <path class="cls-4" d="M49.91,34.25v2.38h-5.56v-8h2.66v5.62h2.9Z"/>
          <path class="cls-4" d="M54.18,28.5c2.25,0,3.95,1.25,3.95,4.16,0,2.67-1.4,4.11-3.95,4.11s-3.94-1.47-3.94-4.11c0-2.91,1.69-4.16,3.94-4.16ZM54.18,34.47c.92,0,1.33-.54,1.33-1.4v-.89c0-.85-.4-1.38-1.33-1.38s-1.33.53-1.33,1.38v.89c0,.87.41,1.4,1.33,1.4Z"/>
          <path class="cls-4" d="M58.46,34.34c.25.05.55.07.9.07.68,0,1.02-.22,1.02-.86v-4.91h2.66v5.01c0,2.25-.89,3.13-2.9,3.13-.75,0-1.43-.1-1.73-.17v-2.22l.05-.05Z"/>
          <path class="cls-4" d="M71.98,36.55l-.06.08h-2.64l-.41-1.46h-2.5l-.41,1.46h-2.64l-.06-.08,2.6-7.92h3.51l2.6,7.92ZM66.85,33.49h1.55c-.25-.85-.48-1.82-.71-2.7h-.13c-.23.87-.46,1.84-.71,2.7Z"/>
          <path class="cls-4" d="M79.07,28.5c2.25,0,3.95,1.25,3.95,4.16,0,2.67-1.4,4.11-3.95,4.11s-3.94-1.47-3.94-4.11c0-2.91,1.69-4.16,3.94-4.16ZM79.07,34.47c.92,0,1.33-.54,1.33-1.4v-.89c0-.85-.4-1.38-1.33-1.38s-1.33.53-1.33,1.38v.89c0,.87.41,1.4,1.33,1.4Z"/>
          <path class="cls-4" d="M86.49,30.89v1.27h2.83v1.83h-2.83v2.65h-2.62v-8h5.73v2.25h-3.1Z"/>
          <path class="cls-4" d="M93.01,28.63v8h-2.6v-8h2.6Z"/>
          <path class="cls-4" d="M98.1,28.53c.89,0,1.64.12,2.05.22v2.16l-.05.05c-.44-.06-.96-.12-1.5-.12-.61,0-1.16.08-1.46.29-.32.23-.47.77-.47,1.34v.38c0,.62.16,1.15.5,1.37.3.18.89.24,1.38.24s1.25-.1,1.64-.18l.06.05v2.15c-.46.13-1.23.29-2.41.29-2.84,0-3.93-1.33-3.93-4.18s1.35-4.04,4.18-4.04Z"/>
          <path class="cls-4" d="M103.76,28.63v8h-2.6v-8h2.6Z"/>
          <path class="cls-4" d="M113.11,36.55l-.06.08h-2.64l-.41-1.46h-2.5l-.41,1.46h-2.64l-.06-.08,2.6-7.92h3.51l2.6,7.92ZM107.98,33.49h1.55c-.25-.85-.48-1.82-.71-2.7h-.13c-.23.87-.46,1.84-.71,2.7Z"/>
          <path class="cls-4" d="M119.23,34.25v2.38h-5.56v-8h2.66v5.62h2.9Z"/>
        </g>
        <path class="cls-2" d="M57.92,1.87h2.78v17.76h-2.78V1.87ZM85.91,6.01l-3.69,9.12-3.35-9.12h-3l4.78,12.99-3.02,7.46h2.63l8.28-20.45h-2.63ZM55.41,4.32c-.53-1.67-2.18-2.45-5.23-2.45h-5.83v17.76h2.78V3.72h3.16c.54,0,1.69.07,2.32,1.42.48,1.04.41,3.35.11,4.44-.4,1.44-1.55,1.44-2.7,1.44h-1.36v1.75h2.97c2.07-.05,3.24-.94,3.79-2.45.69-1.91.57-4.2,0-5.99h0ZM99.76,11.4c-.53-1.67-1.16-2.32-4.21-2.46-1.46-.07-2.17-.12-2.61-1.08-.37-.8-.16-2.51.26-3.24.46-.81,1.51-.99,2.66-.99h3.05v-1.75h-4.66c-2.07.06-3.32.88-3.82,2.28-.69,1.93-.65,3.4-.08,5.22.5,1.56,2.07,2.14,3.89,2.25,1.82.11,2.45.22,2.82,1.03.4.86.32,2.86,0,3.7-.37.99-1.54,1.47-2.68,1.47h-3.81v1.75h5.42c2.07-.06,3.25-.94,3.79-2.46.68-1.91.57-3.92,0-5.72ZM73.88,8.11c-.68-1.47-2.03-2.02-4.78-2.06h-3.9v1.74h3.76c.96,0,2.02.45,2.33,1.45.09.29.15.65.14,1v7.55s-2.62.02-3.16.02-1.86-.1-2.06-1.18c-.16-.88-.16-1.35-.05-2.37.13-1.16,1.49-1.49,2.45-1.49h1.14v-1.74h-1.28c-2.75.05-4.55.54-4.98,2.1-.4,1.45-.38,2.84.07,4.35.4,1.35,1.76,2.15,4.82,2.15l5.83-.02v-9.34c-.06-.67-.05-1.56-.33-2.16h0ZM121.04,8.11c-.69-1.47-2.03-2.02-4.79-2.06h-3.9v1.74h3.76c.96,0,2.02.45,2.33,1.45.1.29.15.65.14,1v7.55s-2.62.02-3.16.02-1.87-.1-2.06-1.18c-.16-.88-.16-1.35-.05-2.37.12-1.16,1.49-1.49,2.45-1.49h1.15v-1.74h-1.29c-2.75.05-4.55.54-4.98,2.1-.39,1.45-.38,2.84.07,4.35.39,1.35,1.76,2.15,4.82,2.15l5.83-.02v-9.34c-.06-.67-.05-1.56-.33-2.16h0ZM108.97,7.77v-1.74h-3.17v-2.52h-2.77v13.73c0,1.16.41,2.38,2.7,2.38h2.58v-1.81s-.84-.02-1.31,0c-.87.03-1.2-.85-1.2-1.8V7.77h3.17,0ZM130.54,7.77v-1.74h-3.16v-2.52h-2.78v13.73c0,1.16.42,2.38,2.7,2.38h2.58v-1.81s-.84-.02-1.31,0c-.87.03-1.2-.85-1.2-1.8V7.77h3.16ZM132.77,6.01h2.78v13.62h-2.78V6.01ZM132.77,1.87h2.78v2.45h-2.78V1.87ZM163.93,8.11c-.68-1.47-2.03-2.02-4.78-2.06h-3s-2.78,0-2.78,0v13.59h2.78V7.78h2.86c.96,0,2.02.45,2.34,1.45.1.29.15.65.14,1l.03,9.4h2.75v-9.36c-.06-.67-.05-1.56-.33-2.16ZM144.4,19.69c2.83,0,4.43-.6,5.24-2.29.77-1.58.77-3.38.77-4.63s0-3.05-.77-4.63c-.82-1.69-2.41-2.29-5.24-2.29s-4.44.6-5.25,2.29c-.76,1.58-.76,3.38-.76,4.63s0,3.05.76,4.63c.82,1.69,2.42,2.29,5.25,2.29ZM141.23,12.77c0-3.85.88-4.96,3.17-5.02,2.28.06,3.16,1.16,3.16,5.02s-1.04,5.01-3.16,5.01-3.17-1.16-3.17-5.01Z"/>
      </g>
    </g>
  </g>
</svg>