<?xml version="1.0" encoding="UTF-8"?>
<svg id="Camada_2" data-name="Camada 2" xmlns="http://www.w3.org/2000/svg" viewBox="0 0 168.52 168.52">
  <defs>
    <style>
      .cls-1 {
        stroke-width: .2px;
      }

      .cls-1, .cls-2, .cls-3, .cls-4 {
        stroke: #1d1d1b;
        stroke-miterlimit: 10;
      }

      .cls-1, .cls-2, .cls-5, .cls-4 {
        fill-rule: evenodd;
      }

      .cls-1, .cls-2, .cls-4, .cls-6 {
        fill: #fff;
      }

      .cls-7, .cls-5 {
        fill: #522a08;
      }

      .cls-7, .cls-5, .cls-6 {
        stroke-width: 0px;
      }

      .cls-2 {
        stroke-width: .12px;
      }

      .cls-3 {
        fill: #64c7f3;
      }

      .cls-3, .cls-4 {
        stroke-width: .34px;
      }
    </style>
  </defs>
  <g>
    <circle class="cls-7" cx="83.95" cy="84.24" r="84.28"/>
    <g>
      <path class="cls-3" d="M11.96,113.53c11.79,29.27,40.3,48.57,71.85,48.63,31.56.06,60.16-19.14,72.05-48.38l-143.9-.25Z"/>
      <path class="cls-3" d="M11.65,54.81C23.66,25.71,52.03,6.55,83.41,6.33c31.75-.22,60.66,18.99,72.83,48.43l-144.59.05Z"/>
    </g>
  </g>
  <g>
    <path class="cls-5" d="M69.98,35c-.44-.42-1.82-.26-4.49-.11.53-2.23.9-4.17,1.89-5.69,4.57.26,10.19.9,16.62.88,12.67-.04,12.78-4.75,12.78-4.75-5.39,1.55-12.79,1.09-18.39.58-7.03-.65-14.06-2.26-19.86-.71-6.86,1.83-7.52,6.93-7.27,9.11,2.75-3.61,6.47-4.9,11.24-5.17.45-.03.93-.03,1.41-.04-.87.91-1.54,2.34-2.23,4.57-.15.49-.3.96-.44,1.41-5.86.51-7,3.19-6.67,3.89.36.75,2.44-.23,5.04-.52.17-.02.33-.03.48-.05-1.01,2.62-2.14,4.5-3.94,5.59-2.75,1.67-5.63.9-6.21.43.22,3.06,4.83,4.73,8.74,2.59,3.12-1.71,4.92-5.78,5.91-8.83.86,0,1.72-.03,2.58-.08,2.36-.16,3.4-2.56,2.82-3.11M117.31,31.57c-.49-.16-1.01.11-1.17.6,0,0,0,0,0,0-.07.23-.05.47.04.68-.89.81-1.71,1.41-2.14,1.27-.56-.18-.14-1.7.41-3.08.49.08.97-.22,1.12-.7.17-.54-.12-1.11-.66-1.29-.53-.17-1.1.12-1.27.65,0,0,0,0,0,0-.12.38,0,.78.26,1.04-.73,1.33-1.48,2.48-2.15,2.29h-.02c-.67-.22-.62-1.61-.45-3.13.37-.05.7-.32.82-.7.17-.54-.12-1.11-.65-1.29-.53-.17-1.1.12-1.27.65,0,0,0,0,0,0-.15.48.07.99.49,1.22-.35,1.45-.88,2.93-1.44,2.75-.43-.14-.75-1.1-1.01-2.28.45-.25.62-.83.36-1.28-.12-.21-.3-.36-.53-.43-.49-.16-1.01.11-1.17.6,0,0,0,0,0,0-.16.5.12,1.03.61,1.18.03.01.06.02.1.03l.16,3.95,6.46,2.1,2.4-3.12c.46.22,1.01.03,1.24-.44.02-.04.04-.08.05-.13.16-.49-.11-1.02-.6-1.18"/>
    <path class="cls-5" d="M109.89,42.57c-1.2,2.13-2.91,3.21-3.82,2.42-.91-.79-.68-3.15.52-5.28,1.2-2.13,2.91-3.21,3.82-2.42.91.79.68,3.15-.52,5.28M108.26,35.26s-1.54.58-2.6,1.59c-.36.34-.71.7-1.03,1.1h0c-.3.38-.53.77-.77,1.2-.34.58-.65,1.2-.88,1.85h0s-.62,1.3-1.07,1.95c-.44.63-1.27,1.24-1.61,1.47-.39.18-.79.33-1.21.46-2.74.8-3.25-1.17-2.63-2.1.22-.33,1.74-1.5,2.78-2.36,2.01-1.67,3.38-2.72,4.33-3.68,1-1.01.35-1.58-.42-1.71-1.94-.33-2.82.18-3.39.67-.68.58-4.73,5.47-4.73,5.47,0,0,6.6-12.77,7.68-14.96.89-1.81-3.39-2.06-4.58.54-.69,1.51-5.42,12.47-6,13.83-1.06,2.48-1.12,2.87-1.65,3.3,0,0-.01.01-.01.02l-.04.03s0,0,0,0c-.51.42-1.22.8-1.69.79-.29,0-.45-.17-.5-.53-.05-.35,0-.8.13-1.34.08-.32.18-.68.32-1.06.13-.39.28-.77.44-1.17.16-.39.32-.78.48-1.16l.46-1.04c.14-.31.25-.59.35-.81.09-.23.15-.39.18-.49.16-.65.13-1.23-.04-1.6-.17-.37-.47-.55-.9-.55s-.84.12-1.22.34c-.42.24-.79.5-1.19.97-.33.41-.66.82-.98,1.24-.22.28-.45.58-.69.89-.24.31-.48.61-.69.89-.31.4-.62.81-.93,1.21h-.26c.01-.06.06-.18.13-.36.07-.18.15-.39.25-.63.22-.54.43-1.08.64-1.62.1-.27.2-.51.28-.74.08-.22.14-.4.17-.53.12-.48.12-.87,0-1.16-.11-.29-.4-.43-.87-.43s-.87.14-1.21.41c-.34.27-.61.62-.8,1.01-.29.62-.57,1.24-.83,1.87-.63,1.51-1.21,3.03-1.73,4.58-.11.33-.21.65-.31.98-.62.31-1.26.58-1.92.78-.25.08-.57.13-.75-.07-.13-.14-.14-.36-.12-.56.09-1.04.54-2,.96-2.95.71-1.6,1.37-3.22,1.99-4.86.08-.2.15-.43.09-.64-.1-.33-.49-.45-.83-.49-.73-.1-1.56-.02-2.03.55-.15.19-.25.42-.35.64l-2.41,5.5c-.51,1.15-1.13,2.42-2.31,2.83-.2.07-.43.11-.63.02-.25-.11-.38-.41-.38-.69,0-.28.11-.55.21-.81.99-2.44,1.73-4.14,2.72-6.59.05-.11.29-.68.3-.95,0-.17-.1-.33-.26-.41-.63-.29-1.4-.12-1.98.29-.9.63-1.39,1.66-1.84,2.63-.49,1.08-.99,2.16-1.44,3.26-.51,1.26-1.06,2.48-1.34,3.82-.14.68-.1,1.56.39,2.05.32.32.8.41,1.25.43,1.82.06,3.54-.9,4.86-2.16.05.67.14,1.43.7,1.8.35.23.8.24,1.22.2.84-.09,1.66-.35,2.45-.67.33-.13.65-.27.97-.43,0,.14.02.28.04.4.06.26.17.46.35.62.18.15.45.23.8.23.29,0,.55-.07.8-.2.25-.13.5-.38.77-.74l5.08-6.83h.21c-.26.65-.5,1.31-.74,1.97-.2.56-.38,1.13-.52,1.7-.33,1.34-.41,2.36-.26,3.06s.47,1.04.95,1.04.95-.07,1.42-.2c.47-.14.93-.31,1.38-.53.31-.15.62-.32.93-.49,0,.12-.03.34-.04.44-.02.38.04.46.21.62.17.16.35.18.73.18.28,0,.38-.03.62-.2.23-.17,1.07-1.42,1.71-2.31.11-.15.22-.3.35-.46-.24,1.1.27,2.72,1.79,2.97,1.48.24,3.89-.1,6.99-2.52.05.34.14.66.26.96.23.57.58,1.03,1.06,1.39.48.35,1.13.53,1.93.53.56,0,1.1-.1,1.64-.29.55-.2,1.07-.46,1.55-.79.51-.34.97-.73,1.39-1.17.83-.87,1.52-1.87,2.03-2.96.45-1.02.66-1.78.88-2.95.1-.62.16-1.17.15-1.68,0,0-.06-1.25-.23-1.36-.17-.11-4.88-1.55-4.88-1.55"/>
  </g>
  <g>
    <path class="cls-6" d="M33.36,121.68h1.38v6.5h3.05v1.31h-4.43v-7.81Z"/>
    <path class="cls-6" d="M41.59,121.68v7.81h-1.38v-7.81h1.38Z"/>
    <path class="cls-6" d="M48.69,127.6l2.35-5.92h1.75v7.81h-1.33l-.03-5.98-2.35,5.98h-.83l-2.32-5.89-.03,5.89h-1.34v-7.81h1.76l2.37,5.92Z"/>
    <path class="cls-6" d="M57.16,121.68v7.81h-1.38v-7.81h1.38Z"/>
    <path class="cls-6" d="M64.84,122.94h-2.02v6.55h-1.36v-6.55h-2.02v-1.26h5.4v1.26Z"/>
    <path class="cls-6" d="M72.25,121.68v1.31h-3.83v2.15h2.93v.7h-2.93v2.34h3.83v1.31h-5.21v-7.81h5.21Z"/>
    <path class="cls-6" d="M77.28,121.68c2.02,0,3.73,1.35,3.73,3.76,0,2.6-1.71,4.05-3.73,4.05h-2.47v-7.81h2.47ZM77.01,128.22c1.34,0,2.6-.9,2.6-2.79,0-1.72-1.26-2.49-2.6-2.49h-.81v5.28h.81Z"/>
    <path class="cls-6" d="M92.15,121.68v1.31h-3.83v2.15h2.93v.7h-2.93v2.34h3.83v1.31h-5.21v-7.81h5.21Z"/>
    <path class="cls-6" d="M97.18,121.68c2.02,0,3.73,1.35,3.73,3.76,0,2.6-1.71,4.05-3.73,4.05h-2.47v-7.81h2.47ZM96.92,128.22c1.34,0,2.6-.9,2.6-2.79,0-1.72-1.26-2.49-2.6-2.49h-.81v5.28h.81Z"/>
    <path class="cls-6" d="M104.89,121.68v7.81h-1.38v-7.81h1.38Z"/>
    <path class="cls-6" d="M112.57,122.94h-2.02v6.55h-1.36v-6.55h-2.02v-1.26h5.4v1.26Z"/>
    <path class="cls-6" d="M116.23,121.68v7.81h-1.38v-7.81h1.38Z"/>
    <path class="cls-6" d="M118.96,125.64c0-2.66,1.31-4.14,3.28-4.14s3.27,1.48,3.27,4.14-1.29,4.02-3.27,4.02-3.28-1.44-3.28-4.02ZM122.24,128.38c1.15,0,1.85-.98,1.85-2.81s-.7-2.8-1.85-2.8-1.86.96-1.86,2.8.7,2.81,1.86,2.81Z"/>
    <path class="cls-6" d="M134.53,129.49h-1.25l-3.76-5.63v5.63h-1.38v-7.81h1.26l3.75,5.62v-5.62h1.38v7.81Z"/>
    <path class="cls-6" d="M59.19,137.18v2.26h-3.26v1.03h2.37v1.04h-2.37v1.22h3.26v2.26h-5.85v-7.81h5.85Z"/>
    <path class="cls-6" d="M64.96,144.98l-1.22-2.93-1.12,2.93h-2.71s1.84-4.03,1.84-4.03l-1.95-3.77h2.82l1.17,2.72,1.16-2.72h2.71l-1.89,3.65,2,4.16h-2.82Z"/>
    <path class="cls-6" d="M67.86,141.15c0-2.44,1.38-4.15,3.54-4.15s3.35,1.46,3.35,3.1l-2.51.56c-.02-.42-.23-1.53-.84-1.53-.54,0-.9.64-.9,1.75,0,1.33.47,1.86,1.19,1.91.98.06,2.77-.49,2.93-.58l-.2,2.37c-.85.37-1.58.58-3.02.58-2.19,0-3.54-1.67-3.54-4.01Z"/>
    <path class="cls-6" d="M75.76,137.18h2.59v5.54h2.59v2.26h-5.18v-7.81Z"/>
    <path class="cls-6" d="M83.95,137.18v4.57c0,.81.32,1.27.91,1.27.55,0,.85-.46.85-1.27v-4.57h2.59v4.24c0,2.51-1.26,3.75-3.58,3.75-2.18,0-3.36-1.24-3.36-3.75v-4.24h2.59Z"/>
    <path class="cls-6" d="M92.38,138.87c-.36,0-.6.07-.6.41,0,.4,1.39.76,2.41,1.18,1.04.44,1.74,1.06,1.74,2.23,0,1.6-1.08,2.48-2.91,2.48-1.37,0-2.38-.16-3.6-.81l.18-2.16c.68.42,2.23,1.12,3.3,1.12.39,0,.65-.12.65-.48,0-.41-1.19-.76-2.41-1.22-1.05-.39-1.74-.97-1.74-2.16,0-1.56,1.02-2.44,2.61-2.44,1.28,0,2.44.3,3.64.84l-.18,2.05c-.88-.5-2.24-1.03-3.08-1.03Z"/>
    <path class="cls-6" d="M99.61,137.18v7.81h-2.59v-7.81h2.59Z"/>
    <path class="cls-6" d="M100.4,137.17h2.68l1.18,5.97,1.27-5.97h2.52l-1.96,7.81h-3.73l-1.96-7.81Z"/>
    <path class="cls-6" d="M114.66,137.18v2.26h-3.26v1.03h2.37v1.04h-2.37v1.22h3.26v2.26h-5.85v-7.81h5.85Z"/>
  </g>
  <g>
    <path class="cls-4" d="M41.38,82.2l-4.89-3.47c-.32-.23-.75-.26-1.1-.06-7.84,4.41-9.42,8.08-9.47,10.57-.1,5.67,7.63,9.12,6.69,14.63-.43,2.5-2.44,4.26-4.02,5.33-.23.16-.25.49-.03.67l2.24,1.81c.29.23.68.3,1.03.16,2.09-.84,9.02-4.02,10.32-9.92.2-.91.61-2.77-.02-4.91-.38-1.29-.83-1.64-3.53-5.53-2.1-3.02-2.8-4.21-2.55-5.63.12-.69.44-1.25.75-1.66.11-.15.32-.19.48-.09l.77.44c.37.21.82.18,1.16-.07l2.18-1.66c.2-.16.2-.47-.01-.61Z"/>
    <path class="cls-4" d="M140.88,82.2l-4.89-3.47c-.32-.23-.75-.26-1.1-.06-7.84,4.41-9.42,8.08-9.47,10.57-.1,5.67,7.63,9.12,6.69,14.63-.43,2.5-2.44,4.26-4.02,5.33-.23.16-.25.49-.03.67l2.24,1.81c.29.23.68.3,1.03.16,2.09-.84,9.02-4.02,10.32-9.92.2-.91.61-2.77-.02-4.91-.38-1.29-.83-1.64-3.53-5.53-2.1-3.02-2.8-4.21-2.55-5.63.12-.69.44-1.25.75-1.66.11-.15.32-.19.48-.09l.77.44c.37.21.82.18,1.16-.07l2.18-1.66c.2-.16.2-.47-.01-.61Z"/>
    <path class="cls-1" d="M35.19,59.3l-2.89-2.05c-.19-.14-.45-.15-.65-.04-4.64,2.61-5.58,4.78-5.6,6.26-.06,3.36,4.52,5.4,3.96,8.66-.25,1.48-1.44,2.52-2.38,3.16-.14.09-.15.29-.02.4l1.33,1.07c.17.14.4.17.61.09,1.24-.5,5.34-2.38,6.11-5.87.12-.54.36-1.64,0-2.9-.22-.76-.49-.97-2.09-3.27-1.24-1.79-1.66-2.49-1.51-3.33.07-.41.26-.74.44-.98.07-.09.19-.11.28-.06l.46.26c.22.12.49.11.69-.04l1.29-.98c.12-.09.12-.28,0-.36Z"/>
    <path class="cls-1" d="M64.08,79.77v4.3c0,.26-.21.47-.47.47h-3.15v-.83c0-.71-.58-1.29-1.29-1.29h-2.21c-1.33,0-2.42,1.08-2.42,2.42v11.97h7.19v3h-7.19v6.07c0,.92.75,1.67,1.67,1.67h3.18c.9,0,1.62-.73,1.62-1.62v-.04c0-.21.17-.38.38-.38h3.06c.21,0,.38.17.38.38v4.68c0,.22-.18.41-.41.41h-12.53c-3.94,0-7.14-3.2-7.14-7.14v-4.02h-1.2c-.19,0-.35-.16-.35-.35v-2.47c0-.19.16-.35.35-.35h1.32v-10.2c0-3.94,3.19-7.13,7.13-7.13h11.6c.26,0,.47.21.47.47Z"/>
    <path class="cls-2" d="M63.1,57.88v2.52c0,.15-.12.28-.28.28h-1.85v-.49c0-.42-.34-.76-.76-.76h-1.3c-.78,0-1.42.64-1.42,1.42v7.03h4.23v1.76h-4.23v3.57c0,.54.44.98.98.98h1.87c.53,0,.95-.43.95-.95v-.03c0-.12.1-.22.22-.22h1.8c.12,0,.22.1.22.22v2.75c0,.13-.11.24-.24.24h-7.36c-2.32,0-4.2-1.88-4.2-4.2v-2.36h-.7c-.11,0-.21-.09-.21-.21v-1.45c0-.11.09-.21.21-.21h.78v-5.99c0-2.31,1.88-4.19,4.19-4.19h6.81c.15,0,.28.12.28.28Z"/>
    <path class="cls-1" d="M125.2,79.84v4.3c0,.26-.21.47-.47.47h-3.15v-.83c0-.71-.58-1.29-1.29-1.29h-2.21c-1.33,0-2.42,1.08-2.42,2.42v11.97h7.19v3h-7.19v6.07c0,.92.75,1.67,1.67,1.67h3.18c.9,0,1.62-.73,1.62-1.62v-.04c0-.21.17-.38.38-.38h3.06c.21,0,.38.17.38.38v4.68c0,.22-.18.41-.41.41h-12.53c-3.94,0-7.14-3.2-7.14-7.14v-4.02h-1.2c-.19,0-.35-.16-.35-.35v-2.47c0-.19.16-.35.35-.35h1.32v-10.2c0-3.94,3.19-7.13,7.13-7.13h11.6c.26,0,.47.21.47.47Z"/>
    <path class="cls-1" d="M90.32,107.62h-.97c-.18-1.04-.62-2.82-1.85-4.68-1.17-1.77-2.55-2.87-3.47-3.48-.12-.08-.11-.26.02-.32,3.62-1.82,6.06-5.25,6.19-8.93.18-5.16-4.19-10.19-10.38-10.9h-13.67c-.37,0-.67.3-.67.67v2.06c0,.37.3.67.67.67h.83v24.82h-.88c-.34,0-.62.28-.62.62v2.21c0,.34.28.62.62.62h9.8c.32,0,.57-.26.57-.57v-7.77c0-.22.25-.35.44-.23,3.32,2.21,4.13,6.7,4.31,8.12.03.26.25.45.51.45h8.55c.35,0,.63-.28.63-.63v-2.09c0-.35-.28-.63-.63-.63ZM76.77,98.1c-.09.12-.28.06-.28-.09v-15.25c0-.11.12-.19.22-.14,1.2.57,1.92,1.29,2.37,1.88,2.29,3.07,1.39,8.51-2.31,13.6Z"/>
    <polygon class="cls-1" points="91.45 79.3 103.98 79.3 103.98 82.61 102.49 82.61 102.49 107.72 103.98 107.72 103.98 110.96 91.45 110.96 91.45 107.57 92.85 107.57 92.85 82.61 91.45 82.61 91.45 79.3 91.45 79.3"/>
    <path class="cls-1" d="M50.81,62.75c-1.04-4.3-5.98-5.16-5.98-5.16h-8.99v2h1.1v14.23h-1.1v2.37h7.87v-2.15h-1.02v-3.35c6.67-.21,7.96-4.74,8.13-5.51.01-.07.02-.13.02-.2v-2.02c0-.08,0-.15-.03-.23ZM44.83,64.84s-.22,2.1-2.2,3.82v-9.11s2.02.57,2.2,3.45v1.85Z"/>
    <path class="cls-4" d="M74.67,57.6h-4.42s-.07,0-.11,0c-.72.13-2.71.57-4.41,2.33-1.7,1.75-2.09,3.75-2.19,4.49,0,.05-.01.1-.01.15v4.63c0,.06,0,.11.01.17.14.89.58,2.86,2.19,4.64,1.04,1.15,2.18,1.78,2.93,2.12.09.04.19.06.29.06h5.76c.17,0,.3-.14.3-.3v-1.5c0-.17-.14-.3-.3-.3h-2.24c-.12,0-.24-.04-.34-.11-.38-.28-.84-.68-1.27-1.24-.07-.09-.13-.17-.19-.26-.68-.99-1.01-2.18-1.01-3.38v-3.94c0-1.48.31-2.96.95-4.3.46-.96.87-1.42,1.22-1.38.31.03.57.45.8,1.26.04.14.17.24.32.24h1.7c.2,0,.36-.16.36-.36v-2.66c0-.2-.16-.36-.36-.36Z"/>
    <path class="cls-4" d="M75.87,57.6h6.98c.11,0,.2.09.2.2v1.71c0,.11-.09.2-.2.2h-.69c-.11,0-.2.09-.2.2v13.87c0,.11.09.2.2.2h.69c.11,0,.2.09.2.2v1.82c0,.11-.09.2-.2.2h-6.98c-.11,0-.2-.09-.2-.2v-1.82c0-.11.09-.2.2-.2h.42c.11,0,.2-.09.2-.2v-14.02c0-.11-.09-.2-.2-.2h-.42c-.11,0-.2-.09-.2-.2v-1.56c0-.11.09-.2.2-.2Z"/>
    <path class="cls-4" d="M98.48,73.87c-.06,0-.11-.05-.11-.11v-10.81c0-2.96-2.4-5.35-5.35-5.35h-3.28c-2.93,0-5.3,2.37-5.3,5.3v4.6c0,.06-.05.11-.11.11h-.83c-.06,0-.11.05-.11.11v1.91c0,.06.05.11.11.11h.86c.06,0,.11.05.11.11v3.93c0,.06-.05.11-.11.11h-.86c-.06,0-.11.05-.11.11v2.07c0,.06.05.11.11.11h6.37c.06,0,.11-.05.11-.11v-6.46c0-.06.05-.11.11-.11h2.59c.06,0,.11.05.11.11v6.46c0,.06.05.11.11.11h6.52v-2.33h-.94ZM93.05,67.69h-3.18v-7.08c.12-.76.75-1.34,1.5-1.39.8-.05,1.54.53,1.69,1.35v7.12Z"/>
    <path class="cls-4" d="M99.65,57.6h7.24c.13,0,.24.11.24.24v1.6c0,.13-.11.24-.24.24h-.57c-.13,0-.24.11-.24.24v14.22h2.71c.17,0,.33-.11.38-.28l.76-2.44c.05-.16.2-.28.38-.28h1.71c.22,0,.39.18.39.39v4.28c0,.22-.18.39-.39.39h-12.17c-.06,0-.1-.04-.1-.1v-1.98c0-.06.04-.1.1-.1h.62c.06,0,.1-.04.1-.1v-14.12c0-.13-.11-.24-.24-.24h-.69c-.13,0-.24-.11-.24-.24v-1.49c0-.13.11-.24.24-.24Z"/>
    <path class="cls-4" d="M109.79,57.6h15.63v5.15h-2.51c-.12,0-.22-.08-.26-.19l-.79-2.72c-.03-.11-.14-.19-.26-.19h-1.11c-.15,0-.27.12-.27.27v14.04h.97v2.26h-7.75v-2.26h1.12v-14.15c0-.15-.12-.27-.27-.27h-1.22c-.12,0-.22.08-.26.19l-.82,2.77c-.03.11-.14.19-.26.19h-1.97c-.15,0-.27-.12-.27-.27v-4.54c0-.15.12-.27.27-.27Z"/>
    <path class="cls-4" d="M141.97,57.88v1.63c0,.15-.12.28-.28.28h-1.19v11.01s-.05,1.75-1.5,3.38c-1.18,1.33-2.92,2.03-4.69,2.03h-6.09c-.27,0-.49-.22-.49-.49v-3.49c0-.27.22-.49.49-.49h2.32l.41,1.42c.11.4.48.68.9.68h1.17c.24-.07.67-.24,1.09-.6.43-.37.65-.78.75-1.01v-2.93c0-.09-.11-.13-.17-.06-.17.22-.41.47-.74.7-.06.04-.12.08-.18.12-.54.33-1.17.48-1.8.48h-.43c-1.07,0-2.12-.32-2.97-.95-.18-.13-.36-.28-.54-.44l-.03-.02c-1.06-.95-1.66-2.31-1.66-3.73v-5.83h-.71v-1.96h5.99c.19,0,.34.15.34.34v9.26c.04.06.58.78,1.5.75.66-.03,1.26-.43,1.54-1.05v-8.96c0-.19.15-.34.34-.34h6.35c.15,0,.28.12.28.28Z"/>
  </g>
</svg>