<?xml version="1.0" encoding="UTF-8"?>
<svg id="Camada_2" data-name="Camada 2" xmlns="http://www.w3.org/2000/svg" viewBox="0 0 168.52 168.52">
  <defs>
    <style>
      .cls-1 {
        stroke-width: 1.01px;
      }

      .cls-1, .cls-2, .cls-3 {
        fill: none;
        stroke: #fff;
        stroke-miterlimit: 10;
      }

      .cls-4 {
        letter-spacing: -.03em;
      }

      .cls-5 {
        fill: #ff3d47;
      }

      .cls-5, .cls-6, .cls-7, .cls-8 {
        stroke-width: 0px;
      }

      .cls-2 {
        font-family: Allotrope-ExtraBold, Allotrope;
        font-size: 28.62px;
        font-weight: 700;
        stroke-width: .58px;
      }

      .cls-9 {
        letter-spacing: -.04em;
      }

      .cls-10 {
        letter-spacing: -.04em;
      }

      .cls-6 {
        fill: #000;
      }

      .cls-11 {
        letter-spacing: -.11em;
      }

      .cls-12 {
        font-family: VeniceBlvd-SemiBold, 'Venice Blvd';
        font-size: 37.22px;
        font-weight: 600;
      }

      .cls-12, .cls-7, .cls-8 {
        fill: #fff;
      }

      .cls-13 {
        letter-spacing: -.04em;
      }

      .cls-7 {
        fill-rule: evenodd;
      }

      .cls-3 {
        stroke-width: 2.28px;
      }

      .cls-14 {
        letter-spacing: -.04em;
      }

      .cls-15 {
        letter-spacing: -.03em;
      }

      .cls-16 {
        letter-spacing: -.03em;
      }
    </style>
  </defs>
  <g>
    <g>
      <rect class="cls-5" x="90.05" y="62.81" width="77.82" height="44.36" rx="10.49" ry="10.49"/>
      <rect class="cls-3" x="94.78" y="65.51" width="68.36" height="38.97" rx="9.21" ry="9.21"/>
    </g>
    <g>
      <path class="cls-8" d="M112.82,79.97v1.94h-5.81v-7.71h5.74v1.94h-3.21v1.09h2.89v1.58h-2.89v1.17h3.28Z"/>
      <path class="cls-8" d="M116.86,74.09c.94,0,1.71.09,2.07.15v1.82l-.05.05c-.44-.03-1.21-.08-1.87-.08-1.24,0-1.45.15-1.45.5v.08c0,.27.08.37.85.48l.91.15c1.35.2,2.05.85,2.05,2.12,0,1.73-.8,2.64-3.91,2.64-1.18,0-2.04-.1-2.37-.16v-1.88l.05-.03c.66.08,1.44.14,2.24.14,1.21,0,1.43-.15,1.43-.55v-.09c0-.3-.07-.42-1.07-.57l-.95-.15c-1.12-.16-1.8-.77-1.8-2.09,0-1.59.89-2.53,3.87-2.53Z"/>
      <path class="cls-8" d="M119.74,74.19h3.57c2.1,0,3.15.81,3.15,2.86s-.98,3.04-2.89,3.04h-1.3v1.81h-2.53v-7.71ZM123.29,78.29c.55,0,.75-.31.75-.77v-.53c0-.5-.2-.73-.76-.73h-1.02v2.03h1.03Z"/>
      <path class="cls-8" d="M132.52,79.97v1.94h-5.81v-7.71h5.74v1.94h-3.21v1.09h2.89v1.58h-2.89v1.17h3.28Z"/>
      <path class="cls-8" d="M136.73,74.09c.85,0,1.58.12,1.97.21v2.08l-.05.05c-.43-.06-.92-.12-1.44-.12-.59,0-1.12.08-1.41.28-.31.22-.45.74-.45,1.29v.37c0,.6.15,1.11.48,1.32.29.17.85.23,1.33.23s1.2-.09,1.58-.17l.06.05v2.07c-.44.13-1.19.28-2.32.28-2.74,0-3.79-1.28-3.79-4.03s1.3-3.89,4.03-3.89Z"/>
      <path class="cls-8" d="M141.78,74.19v7.71h-2.51v-7.71h2.51Z"/>
      <path class="cls-8" d="M150.38,81.83l-.06.08h-2.54l-.39-1.41h-2.41l-.39,1.41h-2.54l-.06-.08,2.51-7.63h3.38l2.51,7.63ZM145.43,78.87h1.49c-.24-.82-.46-1.75-.68-2.6h-.13c-.22.84-.44,1.78-.68,2.6Z"/>
      <path class="cls-8" d="M155.87,79.61v2.3h-5.36v-7.71h2.56v5.41h2.79Z"/>
      <path class="cls-8" d="M116.22,93.82v1.94h-5.81v-7.71h5.74v1.94h-3.21v1.09h2.89v1.58h-2.89v1.17h3.28Z"/>
      <path class="cls-8" d="M116.58,88.05h3.13c2.94,0,3.9,1.27,3.9,3.81s-.8,3.9-3.86,3.9h-3.17v-7.71ZM119.84,93.66c.32,0,.69,0,.96-.25.21-.2.31-.57.31-1.09v-.87c0-.47-.06-.83-.27-1.04-.2-.21-.5-.27-.96-.27h-.8v3.51h.75Z"/>
      <path class="cls-8" d="M126.59,88.05v7.71h-2.51v-7.71h2.51Z"/>
      <path class="cls-8" d="M133.43,90.31h-2.02v5.45h-2.56v-5.45h-2.02v-2.26h6.6v2.26Z"/>
      <path class="cls-8" d="M136.18,88.05v7.71h-2.51v-7.71h2.51Z"/>
      <path class="cls-8" d="M140.45,87.92c2.17,0,3.81,1.2,3.81,4.01,0,2.57-1.35,3.96-3.81,3.96s-3.8-1.42-3.8-3.96c0-2.81,1.63-4.01,3.8-4.01ZM140.45,93.67c.89,0,1.28-.52,1.28-1.35v-.85c0-.82-.38-1.33-1.28-1.33s-1.28.51-1.28,1.33v.85c0,.84.39,1.35,1.28,1.35Z"/>
      <path class="cls-8" d="M144.68,88.05h2.69l1.44,2.26c.16.24.66,1.24,1.04,2l.08-.02c-.14-.85-.32-2.12-.32-2.37v-1.87h2.49v7.71h-2.55l-1.55-2.41c-.14-.23-.55-1.02-.91-1.65h-.08c.06.46.17,1.5.17,1.87v2.19h-2.51v-7.71Z"/>
    </g>
  </g>
  <g>
    <g>
      <polygon class="cls-6" points="105 114.39 105 54.13 52.83 24.01 .65 54.13 .65 114.39 52.83 144.51 105 114.39"/>
      <g>
        <path class="cls-7" d="M30.91,58.92l2.64-8.1h3.99l2.69,8.1h-3.04l-.51-1.46h-2.39l-.51,1.46h-2.88ZM35.55,52.61l-1.15,3.21h2.22l-1.06-3.21ZM64.72,58.92l2.64-8.1h3.99l2.69,8.1h-3.04l-.5-1.46h-2.39l-.51,1.46h-2.88,0ZM69.37,52.61l-1.15,3.21h2.22l-1.06-3.21ZM40.92,58.92v-8.1h5.75c.65,0,1.18.23,1.59.52.41.28.77.65.91,1.15.2.7.16,1.27.02,1.66-.13.39-.37.72-.7.98s-.61.47-1.23.62c.24.24.24.25.52.46.39.27.74.31,2.06.32h2.27v2.41h-2.29c-2.49.01-3.37,0-3.85-.44-.6-.54-1.25-1.17-2.16-2.24v2.68h-2.91ZM43.83,52.83v1.49h2.03c.11,0,.23-.04.35-.12.13-.08.19-.28.2-.61-.02-.31-.1-.52-.23-.61-.13-.1-.24-.15-.33-.15h-2.02,0ZM92.34,50.82h-5.93c-1.02,0-1.63.5-1.83,1.5-.19,1,.36,2.1,1.65,3.3.78.62.65.92-.4.89h-1.38s-.73,0-.73,0c-1.32,0-1.68-.04-2.06-.32-.28-.2-.28-.21-.52-.46.62-.15.9-.36,1.23-.62s.57-.59.7-.98c.13-.39.18-.96-.02-1.66-.14-.5-.5-.86-.91-1.15-.42-.28-.94-.52-1.59-.52h-5.75v8.1h2.91v-2.68c.91,1.07,1.56,1.7,2.16,2.24.48.43,1.35.46,3.85.44h.43s0,0,0,0h4.28c1.16-.2,1.75-.79,1.77-1.8.02-1-.56-2.05-1.77-3.1-.66-.57-.53-.8.42-.8h3.5v-2.41h0ZM77.7,52.83v1.49h2.03c.11,0,.23-.04.35-.12.13-.08.19-.28.2-.61-.02-.31-.1-.52-.23-.61-.13-.1-.24-.15-.33-.15h-2.02ZM19.7,50.81c-1.02,0-1.63.5-1.83,1.5-.19,1,.33,2.14,1.65,3.3.75.66.65.89-.4.89h-5.81v2.41h8.39c1.17,0,1.75-.79,1.77-1.8.02-1-.57-2.03-1.77-3.1-.67-.56-.53-.83.42-.8h3.6v5.69h2.61v-5.69h3.65v-2.41h-12.29ZM58.04,50.81l-.72,2.41-.8-2.41h-3l2.64,8.1h2.59l.89-2.71.89,2.71h2.59l2.64-8.1h-3l-.8,2.41-.72-2.41h-3.21,0Z"/>
        <g>
          <text class="cls-12" transform="translate(12.67 91.34) scale(.55 1)"><tspan class="cls-13" x="0" y="0">G</tspan><tspan class="cls-4" x="25.72" y="0">A</tspan><tspan class="cls-10" x="49.06" y="0">MI</tspan><tspan class="cls-15" x="93.21" y="0">NG</tspan></text>
          <text class="cls-2" transform="translate(12.34 114.49) scale(.8 1)"><tspan class="cls-16" x="0" y="0">GRE</tspan><tspan class="cls-11" x="50.88" y="0">A</tspan><tspan class="cls-9" x="68.72" y="0">T</tspan><tspan class="cls-14" x="84.49" y="0">S</tspan></text>
        </g>
      </g>
      <line class="cls-1" x1="13.32" y1="60.6" x2="92.34" y2="60.6"/>
      <g>
        <line class="cls-1" x1="26.62" y1="44.49" x2="52.83" y2="29.75"/>
        <line class="cls-1" x1="79.03" y1="44.23" x2="52.83" y2="29.75"/>
      </g>
    </g>
    <g>
      <line class="cls-1" x1="79.03" y1="124.07" x2="52.82" y2="138.81"/>
      <line class="cls-1" x1="26.62" y1="124.33" x2="52.82" y2="138.81"/>
    </g>
  </g>
</svg>