<?xml version="1.0" encoding="UTF-8"?>
<svg id="Camada_2" data-name="Camada 2" xmlns="http://www.w3.org/2000/svg" xmlns:xlink="http://www.w3.org/1999/xlink" viewBox="0 0 168.52 168.52">
  <defs>
    <style>
      .cls-1 {
        clip-path: url(#clippath);
      }

      .cls-2 {
        fill: none;
      }

      .cls-2, .cls-3, .cls-4, .cls-5, .cls-6 {
        stroke-width: 0px;
      }

      .cls-3 {
        fill-rule: evenodd;
      }

      .cls-3, .cls-4 {
        fill: #36aa4c;
      }

      .cls-5 {
        fill: #fff;
      }

      .cls-6 {
        fill: #fbf503;
      }
    </style>
    <clipPath id="clippath">
      <rect class="cls-2" x="17.6" y="8.3" width="133.53" height="152.93" rx="9.18" ry="9.18"/>
    </clipPath>
  </defs>
  <g>
    <rect class="cls-4" x="10.43" y=".17" width="147.67" height="168.18" rx="17.04" ry="17.04"/>
    <g class="cls-1">
      <rect class="cls-6" x="14.68" y="8.3" width="136.43" height="152.93" rx="9.28" ry="9.28"/>
      <rect class="cls-4" x="12.05" y="42.88" width="140.85" height="56.54"/>
    </g>
  </g>
  <g>
    <g>
      <g>
        <path class="cls-3" d="M40.69,25.05c-.37-.36-1.55-.22-3.82-.09.45-1.89.77-3.54,1.6-4.83,3.88.22,8.66.76,14.12.75,10.76-.03,10.86-4.04,10.86-4.04-4.58,1.32-10.87.93-15.62.49-5.97-.55-11.94-1.92-16.88-.6-5.83,1.56-6.39,5.88-6.18,7.74,2.34-3.07,5.5-4.16,9.55-4.39.38-.02.79-.03,1.2-.03-.74.77-1.31,1.99-1.9,3.88-.13.42-.25.81-.38,1.2-4.98.43-5.95,2.71-5.66,3.31.3.64,2.07-.2,4.28-.44.14-.02.28-.03.41-.04-.86,2.23-1.81,3.82-3.35,4.75-2.34,1.42-4.78.76-5.27.37.19,2.6,4.1,4.02,7.42,2.2,2.65-1.45,4.18-4.91,5.02-7.5.73,0,1.46-.03,2.19-.07,2-.13,2.89-2.18,2.4-2.64M80.9,22.14c-.41-.13-.86.1-.99.51,0,0,0,0,0,0-.06.2-.04.4.03.58-.75.69-1.45,1.2-1.82,1.08-.47-.15-.12-1.44.35-2.62.42.06.82-.19.95-.59.15-.46-.1-.94-.56-1.09-.45-.14-.93.1-1.08.56,0,0,0,0,0,0-.1.32,0,.66.22.89-.62,1.13-1.26,2.11-1.82,1.94h-.02c-.57-.19-.53-1.37-.38-2.66.32-.05.6-.27.7-.6.15-.46-.1-.94-.56-1.09-.45-.14-.93.1-1.08.55,0,0,0,0,0,0-.13.41.06.84.42,1.04-.3,1.23-.75,2.49-1.22,2.34-.36-.12-.64-.94-.85-1.94.39-.22.52-.7.31-1.09-.1-.17-.26-.31-.45-.37-.41-.13-.86.1-.99.51,0,0,0,0,0,0-.13.42.1.87.52,1.01.03,0,.06.02.08.02l.14,3.35,5.49,1.78,2.04-2.65c.39.19.86.02,1.05-.37.02-.03.03-.07.04-.11.13-.42-.09-.87-.51-1"/>
        <path class="cls-3" d="M74.6,31.48c-1.02,1.81-2.47,2.73-3.25,2.06-.78-.67-.58-2.68.44-4.49,1.02-1.81,2.47-2.73,3.25-2.06.78.67.58,2.68-.44,4.49M73.22,25.27s-1.3.49-2.21,1.35c-.31.29-.61.6-.88.93h0c-.25.32-.45.66-.66,1.02-.29.5-.55,1.02-.75,1.57h0s-.53,1.11-.91,1.66c-.37.54-1.08,1.05-1.37,1.25-.33.15-.67.28-1.02.39-2.33.68-2.76-1-2.24-1.79.19-.28,1.48-1.27,2.36-2.01,1.7-1.42,2.87-2.31,3.67-3.13.85-.86.3-1.34-.36-1.45-1.65-.28-2.4.16-2.88.57-.58.5-4.02,4.65-4.02,4.65,0,0,5.61-10.85,6.53-12.71.76-1.54-2.88-1.75-3.89.46-.59,1.29-4.6,10.6-5.09,11.75-.9,2.11-.95,2.43-1.4,2.8,0,0,0,.01-.01.02l-.03.02s0,0,0,0c-.43.36-1.04.68-1.44.67-.24,0-.39-.15-.43-.45-.04-.3,0-.68.11-1.14.07-.28.16-.58.27-.9.11-.33.24-.66.37-.99.13-.34.27-.66.41-.98l.39-.88c.12-.27.22-.5.3-.69.08-.19.13-.33.15-.41.13-.55.11-1.05-.03-1.36-.14-.31-.4-.47-.77-.47s-.72.1-1.04.29c-.35.2-.68.42-1.01.83-.28.35-.56.7-.83,1.06-.18.24-.38.49-.59.76-.21.26-.4.51-.59.75-.26.34-.53.69-.79,1.03h-.22c.01-.05.05-.15.11-.31.06-.15.13-.33.22-.54.19-.46.37-.91.55-1.37.09-.23.17-.44.24-.63.07-.19.12-.34.14-.45.1-.41.1-.74,0-.98-.09-.25-.34-.37-.74-.37s-.74.12-1.03.35c-.29.23-.52.53-.68.86-.25.52-.48,1.05-.71,1.59-.54,1.28-1.03,2.58-1.47,3.89-.09.28-.18.56-.27.84-.52.27-1.07.49-1.63.66-.22.07-.48.11-.64-.06-.11-.12-.12-.31-.1-.48.08-.88.46-1.7.82-2.51.6-1.36,1.17-2.74,1.69-4.13.06-.17.13-.37.07-.54-.09-.28-.42-.38-.7-.42-.62-.08-1.33-.02-1.73.46-.13.16-.22.35-.3.54l-2.05,4.67c-.43.98-.96,2.06-1.96,2.41-.17.06-.37.09-.54.02-.22-.1-.33-.35-.33-.59,0-.24.09-.47.18-.69.84-2.08,1.47-3.52,2.31-5.6.04-.09.25-.58.25-.81,0-.15-.09-.28-.22-.34-.54-.25-1.19-.1-1.68.24-.76.54-1.18,1.41-1.56,2.24-.42.92-.84,1.83-1.22,2.77-.44,1.07-.9,2.11-1.14,3.24-.12.58-.09,1.33.33,1.74.27.27.68.35,1.06.36,1.54.05,3.01-.77,4.13-1.84.04.57.12,1.21.59,1.53.3.2.68.2,1.04.17.72-.08,1.41-.3,2.08-.57.28-.11.55-.23.83-.36,0,.12.02.24.04.34.05.22.15.39.3.52.15.13.38.2.68.2.24,0,.47-.06.68-.17.21-.11.43-.32.65-.62l4.32-5.81h.18c-.22.55-.43,1.11-.63,1.67-.17.47-.32.96-.44,1.44-.28,1.14-.35,2-.22,2.6s.4.89.81.89.81-.06,1.2-.17c.4-.12.79-.27,1.17-.45.27-.13.53-.27.79-.42,0,.1-.03.29-.03.37-.01.32.03.39.18.53.15.14.3.15.62.15.24,0,.32-.02.53-.17.2-.14.91-1.21,1.45-1.96.09-.12.19-.25.3-.39-.2.94.23,2.31,1.52,2.52,1.26.21,3.3-.08,5.94-2.14.05.29.12.56.22.81.19.48.49.88.9,1.18.41.3.96.45,1.64.45.47,0,.94-.08,1.4-.25.47-.17.91-.39,1.32-.67.43-.29.83-.62,1.18-1,.71-.74,1.29-1.59,1.73-2.52.38-.86.56-1.51.75-2.51.09-.53.13-1,.13-1.43,0,0-.05-1.06-.19-1.15-.14-.1-4.14-1.31-4.14-1.31"/>
      </g>
      <g>
        <path class="cls-4" d="M98.76,23.73c0-1.35-.85-2.09-2.11-2.09-1.62,0-2.52,1.64-2.83,3.44l-3.63-.81c.1-2.92,2.23-5.96,6.32-5.96,3.78,0,6.1,2.07,6.1,4.96,0,3.54-4.51,5.77-8.86,8.79h8.76v3.25h-12.04v-3.25c5.08-3.87,8.29-5.82,8.29-8.34Z"/>
        <path class="cls-4" d="M104.01,27.12c0-5.2,2.87-8.81,6.6-8.81s6.58,3.61,6.58,8.81-2.68,8.55-6.58,8.55-6.6-3.25-6.6-8.55ZM110.61,32.44c1.64,0,2.71-2.02,2.71-5.49s-1.07-5.41-2.71-5.41-2.71,1.99-2.71,5.41,1.07,5.49,2.71,5.49Z"/>
        <path class="cls-4" d="M127.12,23.73c0-1.35-.85-2.09-2.11-2.09-1.62,0-2.52,1.64-2.83,3.44l-3.63-.81c.1-2.92,2.23-5.96,6.32-5.96,3.78,0,6.1,2.07,6.1,4.96,0,3.54-4.51,5.77-8.86,8.79h8.76v3.25h-12.04v-3.25c5.08-3.87,8.29-5.82,8.29-8.34Z"/>
        <path class="cls-4" d="M141.01,23.73c0-1.35-.86-2.09-2.11-2.09-1.62,0-2.52,1.64-2.83,3.44l-3.63-.81c.1-2.92,2.23-5.96,6.32-5.96,3.78,0,6.1,2.07,6.1,4.96,0,3.54-4.51,5.77-8.86,8.79h8.76v3.25h-12.04v-3.25c5.08-3.87,8.29-5.82,8.29-8.34Z"/>
      </g>
    </g>
    <g>
      <path class="cls-5" d="M27.77,54.17c-1.57,0-2.59.72-2.59,1.93,0,1.57,3.1,2.59,5.78,3.59,3.74,1.36,5.63,3.31,5.63,6.27,0,4.04-3.01,6.36-7.65,6.36-2.92,0-5.87-.66-8.31-1.9l.39-4.34c3.01,1.48,5.48,2.35,8.13,2.35,1.9,0,2.86-.9,2.86-2.2,0-1.54-2.47-2.65-6.18-3.89-3.46-1.21-5.24-2.95-5.24-5.81,0-3.95,2.56-6.24,6.99-6.24,2.74,0,5.54.6,8.5,2.02l-.39,4.37c-2.77-1.6-5.72-2.5-7.92-2.5Z"/>
      <path class="cls-5" d="M43.95,50.76v12.92c0,2.44,1.27,4.22,3.55,4.22s3.46-1.78,3.46-4.22v-12.92h4.82v12.62c0,5.72-3.13,8.95-8.44,8.95s-8.22-3.22-8.22-8.95v-12.62h4.82Z"/>
      <path class="cls-5" d="M71.12,65.86l5.81-15.09h6.03v21.09h-4.7l-.12-15.18-5.72,15.18h-2.65l-5.66-14.97-.12,14.97h-4.73v-21.09h6.02l5.84,15.09Z"/>
      <path class="cls-5" d="M98.32,65.86l5.81-15.09h6.03v21.09h-4.7l-.12-15.18-5.72,15.18h-2.65l-5.66-14.97-.12,14.97h-4.73v-21.09h6.02l5.84,15.09Z"/>
      <path class="cls-5" d="M128.3,50.76v4.4h-9.82v4.79h7.41v2.2h-7.41v5.3h9.82v4.4h-14.64v-21.09h14.64Z"/>
      <path class="cls-5" d="M131.16,50.76h8.22c5.12,0,8.1,2.77,8.1,6.72,0,3.65-2.35,6.24-6.9,6.24h-.15c1.81,2.8,3.49,3.95,6.33,4.01.45,0,.84-.03,1.17-.06l-.39,4.34c-.66.21-1.39.27-1.99.27-4.79,0-7.95-5.3-9.58-8.86v8.44h-4.82v-21.09ZM139.17,61.49c2.17,0,3.46-1.48,3.46-3.34s-1.48-3.43-4.19-3.43h-2.47v5.87c.84.45,1.96.9,3.19.9Z"/>
      <path class="cls-5" d="M20.58,84.14c0-4.56,2.45-7.74,5.95-7.74s5.47,2.66,5.53,5.22l-3.18.71c-.27-1.58-1.06-3.02-2.29-3.02-1.54,0-2.6,1.64-2.6,4.39,0,3.1,1.1,4.68,3,4.85,1.58.1,3.95-.87,4.91-1.29l-.27,3.18c-1.64.71-2.93,1.16-5.24,1.16-3.41,0-5.8-3.12-5.8-7.47Z"/>
      <path class="cls-5" d="M33.23,84.12c0-4.95,2.5-7.72,6.41-7.72s6.39,2.77,6.39,7.72-2.5,7.49-6.39,7.49-6.41-2.68-6.41-7.49ZM39.63,88.69c1.87,0,2.97-1.64,2.97-4.7s-1.1-4.7-2.97-4.7-3,1.62-3,4.7,1.1,4.7,3,4.7Z"/>
      <path class="cls-5" d="M60.75,91.29h-3.45l-5.99-10.23v10.23h-3.33v-14.56h3.47l5.97,10.21v-10.21h3.33v14.56Z"/>
      <path class="cls-5" d="M62.12,76.73h3.52l2.95,12,3-12h3.31l-4.08,14.56h-4.62l-4.08-14.56Z"/>
      <path class="cls-5" d="M86.37,76.73v3.04h-6.78v3.31h5.12v1.52h-5.12v3.66h6.78v3.04h-10.11v-14.56h10.11Z"/>
      <path class="cls-5" d="M101.12,91.29h-3.45l-5.99-10.23v10.23h-3.33v-14.56h3.47l5.97,10.21v-10.21h3.33v14.56Z"/>
      <path class="cls-5" d="M112.95,79.71h-3.68v11.59h-3.27v-11.59h-3.68v-2.97h10.63v2.97Z"/>
      <path class="cls-5" d="M117.65,76.73v14.56h-3.33v-14.56h3.33Z"/>
      <path class="cls-5" d="M119.77,84.12c0-4.95,2.5-7.72,6.41-7.72s6.39,2.77,6.39,7.72-2.5,7.49-6.39,7.49-6.41-2.68-6.41-7.49ZM126.18,88.69c1.87,0,2.97-1.64,2.97-4.7s-1.1-4.7-2.97-4.7-3,1.62-3,4.7,1.1,4.7,3,4.7Z"/>
      <path class="cls-5" d="M147.29,91.29h-3.45l-5.99-10.23v10.23h-3.33v-14.56h3.47l5.97,10.21v-10.21h3.33v14.56Z"/>
    </g>
    <g>
      <path class="cls-4" d="M38.9,121.45v6.38h-14.87v-21.41h7.12v15.03h7.76Z"/>
      <path class="cls-4" d="M47.74,106.42v21.41h-6.95v-21.41h6.95Z"/>
      <path class="cls-4" d="M50.66,106.42h7.63l4.84,8.17h.06l4.81-8.17h7.63v21.41h-6.96v-6.6c0-.93.22-3.72.35-5.29l-.22-.03c-.48.93-1.12,2.4-1.51,3.08l-3.33,5.8h-1.63l-3.33-5.8c-.38-.67-1.03-2.12-1.51-3.08l-.19.03c.1,1.57.32,4.36.32,5.29v6.6h-6.95v-21.41Z"/>
      <path class="cls-4" d="M85.49,106.42v21.41h-6.95v-21.41h6.95Z"/>
      <path class="cls-4" d="M105.62,112.7h-5.61v15.13h-7.11v-15.13h-5.61v-6.28h18.33v6.28Z"/>
      <path class="cls-4" d="M123.34,122.45v5.38h-16.12v-21.41h15.93v5.38h-8.91v3.01h8.01v4.39h-8.01v3.24h9.1Z"/>
      <path class="cls-4" d="M125.46,106.42h8.69c8.17,0,10.83,3.53,10.83,10.58s-2.21,10.83-10.7,10.83h-8.81v-21.41ZM134.5,122c.9,0,1.92,0,2.66-.7.58-.54.87-1.57.87-3.01v-2.4c0-1.31-.16-2.31-.74-2.88-.54-.58-1.38-.74-2.66-.74h-2.21v9.74h2.08Z"/>
      <path class="cls-4" d="M39.15,147.6v5.38h-16.12v-21.41h15.93v5.38h-8.91v3.01h8.01v4.39h-8.01v3.24h9.1Z"/>
      <path class="cls-4" d="M41.27,131.58h8.69c8.17,0,10.83,3.53,10.83,10.58s-2.21,10.83-10.7,10.83h-8.81v-21.41ZM50.3,147.15c.9,0,1.92,0,2.66-.7.58-.54.87-1.57.87-3.01v-2.4c0-1.31-.16-2.31-.74-2.88-.54-.58-1.38-.74-2.66-.74h-2.21v9.74h2.08Z"/>
      <path class="cls-4" d="M70.17,131.58v21.41h-6.95v-21.41h6.95Z"/>
      <path class="cls-4" d="M90.3,137.86h-5.61v15.13h-7.11v-15.13h-5.61v-6.28h18.33v6.28Z"/>
      <path class="cls-4" d="M99.05,131.58v21.41h-6.95v-21.41h6.95Z"/>
      <path class="cls-4" d="M112.03,131.22c6.03,0,10.58,3.33,10.58,11.12,0,7.15-3.75,10.99-10.58,10.99s-10.54-3.94-10.54-10.99c0-7.79,4.52-11.12,10.54-11.12ZM112.03,147.18c2.47,0,3.56-1.44,3.56-3.75v-2.37c0-2.28-1.06-3.69-3.56-3.69s-3.56,1.41-3.56,3.69v2.37c0,2.34,1.09,3.75,3.56,3.75Z"/>
      <path class="cls-4" d="M124.88,131.58h7.47l4.01,6.28c.45.67,1.83,3.43,2.88,5.54l.22-.06c-.38-2.37-.9-5.9-.9-6.57v-5.19h6.92v21.41h-7.08l-4.29-6.7c-.38-.64-1.54-2.82-2.53-4.58l-.22.03c.16,1.25.48,4.13.48,5.16v6.09h-6.95v-21.41Z"/>
    </g>
  </g>
</svg>