<?xml version="1.0" encoding="UTF-8"?>
<svg id="Camada_2" data-name="Camada 2" xmlns="http://www.w3.org/2000/svg" viewBox="0 0 168.52 168.52">
  <defs>
    <style>
      .cls-1 {
        fill: #ffeb57;
      }

      .cls-1, .cls-2, .cls-3, .cls-4 {
        stroke-width: 0px;
      }

      .cls-2 {
        fill: #9a7aff;
      }

      .cls-3 {
        fill-rule: evenodd;
      }

      .cls-3, .cls-4 {
        fill: #fff;
      }
    </style>
  </defs>
  <g>
    <rect class="cls-2" x="10.09" y=".66" width="147.78" height="167.54" rx="16.48" ry="16.48"/>
    <rect class="cls-4" x="10.09" y="43.18" width="147.78" height="56.75"/>
  </g>
  <g>
    <g>
      <g>
        <path class="cls-3" d="M37.86,23.45c-.44-.42-1.82-.25-4.48-.1.53-2.22.9-4.16,1.88-5.67,4.56.26,10.17.9,16.59.88,12.64-.04,12.75-4.74,12.75-4.74-5.38,1.55-12.76,1.09-18.35.58-7.01-.64-14.03-2.26-19.82-.71-6.84,1.83-7.5,6.91-7.26,9.09,2.75-3.6,6.46-4.88,11.22-5.15.45-.03.93-.03,1.41-.04-.86.91-1.53,2.33-2.23,4.56-.15.49-.3.95-.44,1.41-5.85.51-6.99,3.18-6.65,3.88.36.75,2.43-.23,5.03-.52.17-.02.33-.03.48-.05-1.01,2.62-2.13,4.49-3.93,5.58-2.74,1.66-5.62.89-6.19.43.22,3.05,4.82,4.72,8.72,2.58,3.11-1.7,4.91-5.76,5.9-8.81.86,0,1.72-.03,2.57-.08,2.35-.16,3.39-2.56,2.81-3.1M85.09,20.03c-.49-.16-1.01.11-1.16.6,0,0,0,0,0,0-.07.23-.05.47.04.68-.89.81-1.7,1.41-2.13,1.27-.56-.18-.14-1.7.41-3.08.49.08.97-.22,1.12-.7.17-.54-.12-1.11-.65-1.28-.53-.17-1.1.12-1.27.65,0,0,0,0,0,0-.12.38,0,.78.26,1.04-.72,1.33-1.48,2.48-2.14,2.28h-.02c-.67-.22-.62-1.61-.45-3.12.37-.05.7-.31.82-.7.17-.53-.12-1.11-.65-1.28-.53-.17-1.1.12-1.27.65,0,0,0,0,0,0-.15.48.07.99.49,1.22-.35,1.44-.88,2.92-1.44,2.74-.43-.14-.75-1.1-1-2.28.45-.25.61-.83.36-1.28-.11-.21-.3-.36-.53-.43-.49-.16-1.01.11-1.16.6,0,0,0,0,0,0-.16.49.12,1.02.61,1.18.03.01.06.02.1.03l.16,3.94,6.44,2.09,2.4-3.11c.46.22,1.01.03,1.23-.43.02-.04.04-.08.05-.12.16-.49-.11-1.02-.6-1.18"/>
        <path class="cls-3" d="M77.68,31.01c-1.2,2.12-2.9,3.2-3.81,2.42-.91-.79-.68-3.15.52-5.27,1.2-2.12,2.9-3.2,3.81-2.42.91.79.68,3.15-.52,5.27M76.06,23.71s-1.53.58-2.6,1.58c-.36.34-.71.7-1.03,1.09h0c-.29.38-.52.77-.77,1.19-.34.58-.64,1.2-.88,1.84h0s-.62,1.3-1.07,1.95c-.44.63-1.27,1.24-1.6,1.46-.39.18-.79.33-1.2.45-2.74.8-3.24-1.17-2.63-2.1.22-.33,1.73-1.5,2.77-2.36,2-1.66,3.37-2.72,4.32-3.67,1-1.01.35-1.57-.42-1.71-1.93-.33-2.82.18-3.38.67-.68.58-4.72,5.46-4.72,5.46,0,0,6.58-12.74,7.66-14.93.89-1.8-3.39-2.05-4.57.54-.69,1.51-5.41,12.44-5.98,13.8-1.05,2.47-1.12,2.86-1.64,3.29,0,0-.01.01-.01.02l-.04.03s0,0,0,0c-.51.42-1.22.8-1.69.79-.29,0-.45-.17-.5-.52-.05-.35,0-.8.13-1.34.08-.32.18-.68.32-1.06.13-.38.28-.77.43-1.17.16-.39.32-.78.48-1.15l.46-1.04c.14-.31.25-.59.35-.81.09-.23.15-.39.18-.49.16-.65.13-1.23-.04-1.6-.17-.37-.47-.55-.9-.55s-.84.12-1.22.34c-.42.24-.79.5-1.19.97-.33.41-.66.82-.98,1.24-.22.28-.45.58-.69.89-.24.31-.47.6-.69.88-.31.4-.62.8-.93,1.21h-.26c.01-.06.06-.18.13-.36.07-.18.15-.39.25-.63.22-.54.43-1.07.64-1.61.1-.27.2-.51.28-.73.08-.22.14-.4.17-.53.12-.48.12-.86,0-1.15-.11-.29-.4-.43-.87-.43s-.87.14-1.21.41c-.34.27-.61.62-.8,1.01-.29.61-.57,1.24-.83,1.86-.63,1.5-1.21,3.03-1.73,4.57-.11.33-.21.65-.31.98-.62.31-1.25.58-1.92.78-.25.08-.57.13-.75-.07-.13-.14-.14-.36-.12-.56.09-1.03.54-2,.96-2.95.71-1.6,1.37-3.21,1.98-4.85.08-.2.15-.43.09-.64-.1-.33-.49-.44-.83-.49-.72-.1-1.56-.02-2.03.54-.15.19-.25.41-.35.64l-2.4,5.48c-.51,1.15-1.13,2.42-2.31,2.83-.2.07-.43.11-.63.02-.25-.11-.38-.41-.38-.69,0-.28.11-.55.21-.81.99-2.44,1.72-4.14,2.71-6.58.05-.11.29-.68.3-.95,0-.17-.1-.33-.26-.4-.63-.29-1.4-.12-1.97.29-.9.63-1.39,1.65-1.83,2.63-.49,1.08-.99,2.16-1.44,3.25-.51,1.26-1.06,2.48-1.34,3.81-.14.68-.1,1.56.39,2.05.32.32.8.41,1.24.42,1.81.06,3.53-.9,4.85-2.16.05.66.14,1.42.69,1.79.35.23.8.24,1.22.2.84-.09,1.65-.35,2.44-.67.33-.13.65-.27.97-.42,0,.14.02.28.04.4.06.26.17.46.35.62.18.15.45.23.8.23.29,0,.55-.07.8-.2.25-.13.5-.38.76-.73l5.07-6.82h.21c-.26.65-.5,1.3-.74,1.96-.2.56-.38,1.12-.52,1.7-.33,1.34-.41,2.35-.26,3.05s.47,1.04.95,1.04.95-.07,1.41-.2c.47-.14.93-.31,1.37-.52.31-.15.62-.31.92-.49,0,.12-.03.34-.04.44-.02.38.04.46.21.62.17.16.35.18.72.18.28,0,.38-.03.62-.2.23-.17,1.07-1.42,1.71-2.3.11-.15.22-.3.35-.45-.24,1.1.27,2.71,1.79,2.96,1.48.24,3.88-.1,6.98-2.51.05.34.14.66.26.95.22.57.58,1.03,1.06,1.38.48.35,1.12.53,1.92.53.56,0,1.1-.1,1.64-.29.55-.2,1.07-.46,1.55-.78.5-.34.97-.73,1.39-1.17.83-.87,1.52-1.87,2.03-2.96.45-1.01.66-1.77.88-2.94.1-.62.16-1.17.15-1.68,0,0-.06-1.24-.22-1.36-.17-.11-4.87-1.54-4.87-1.54"/>
      </g>
      <g>
        <path class="cls-4" d="M102.61,31.16v4.96h-14.11v-4.96l5.15-3.81c1.82-1.37,2.58-2.18,2.58-3.28v-.34c0-.95-.78-1.65-3.22-1.65-1.54,0-3.22.28-4.03.53l-.11-.08v-4.73c1.26-.34,3.53-.7,5.46-.7,5.66,0,8.04,1.9,8.04,6.05,0,2.94-1.51,4.45-2.55,5.26l-2.13,1.62c-.36.28-1.18.84-1.51,1.01v.11h6.44Z"/>
        <path class="cls-4" d="M111.41,17.11c4,0,7.25,2.07,7.25,9.77,0,7.17-2.91,9.55-7.25,9.55s-7.25-2.46-7.25-9.55c0-7.7,3.28-9.77,7.25-9.77ZM111.41,31.19c1.37,0,1.9-.73,1.9-2.91v-3.02c0-2.21-.56-2.91-1.9-2.91s-1.88.73-1.88,2.91v3.02c0,2.21.53,2.91,1.88,2.91Z"/>
        <path class="cls-4" d="M134.26,31.16v4.96h-14.11v-4.96l5.15-3.81c1.82-1.37,2.58-2.18,2.58-3.28v-.34c0-.95-.78-1.65-3.22-1.65-1.54,0-3.22.28-4.03.53l-.11-.08v-4.73c1.26-.34,3.53-.7,5.46-.7,5.66,0,8.04,1.9,8.04,6.05,0,2.94-1.51,4.45-2.55,5.26l-2.13,1.62c-.36.28-1.18.84-1.51,1.01v.11h6.44Z"/>
        <path class="cls-4" d="M140.67,31.89c3.02,0,3.89-.64,3.89-1.76v-.45c0-.87-.53-1.29-2.21-1.29h-4.7v-3.7h4.26c1.34,0,1.93-.53,1.93-1.26v-.42c0-.9-.73-1.37-3.3-1.37-1.51,0-3,.2-4,.36l-.11-.08v-4.23c1.15-.22,3.22-.59,5.43-.59,5.66,0,7.48,1.99,7.48,4.7,0,2.13-1.06,3.39-2.86,3.86v.11c2.74.59,3.64,2.32,3.64,4.4,0,4.12-2.55,6.24-8.34,6.24-2.32,0-4.79-.36-5.8-.53v-4.23l.14-.14c1.18.2,3.19.36,4.56.36Z"/>
      </g>
    </g>
    <g>
      <path class="cls-2" d="M33.82,49.71c2.29,0,4.19.23,5.07.37v4.48l-.11.11c-1.08-.08-2.97-.2-4.59-.2-3.03,0-3.57.37-3.57,1.22v.2c0,.65.2.91,2.1,1.19l2.24.37c3.31.48,5.04,2.1,5.04,5.21,0,4.25-1.95,6.49-9.6,6.49-2.89,0-5.01-.26-5.81-.4v-4.62l.11-.09c1.61.2,3.54.34,5.5.34,2.98,0,3.51-.37,3.51-1.36v-.23c0-.74-.17-1.02-2.63-1.39l-2.32-.37c-2.75-.4-4.42-1.9-4.42-5.13,0-3.91,2.18-6.2,9.49-6.2Z"/>
      <path class="cls-2" d="M41.72,49.97h6.29v11.39c0,1.73.79,2.41,2.18,2.41h.54c1.39,0,2.18-.68,2.18-2.41v-11.39h6.26v11.84c0,4.99-3.32,7.39-8.7,7.39s-8.75-2.41-8.75-7.39v-11.84Z"/>
      <path class="cls-2" d="M61.46,49.97h6.74l4.28,7.22h.06l4.25-7.22h6.74v18.92h-6.15v-5.84c0-.82.2-3.29.31-4.67l-.2-.03c-.42.82-.99,2.12-1.33,2.72l-2.95,5.13h-1.44l-2.95-5.13c-.34-.59-.91-1.87-1.33-2.72l-.17.03c.09,1.39.28,3.85.28,4.67v5.84h-6.15v-18.92Z"/>
      <path class="cls-2" d="M85.97,49.97h6.74l4.28,7.22h.06l4.25-7.22h6.74v18.92h-6.15v-5.84c0-.82.2-3.29.31-4.67l-.2-.03c-.42.82-.99,2.12-1.33,2.72l-2.95,5.13h-1.44l-2.95-5.13c-.34-.59-.91-1.87-1.33-2.72l-.17.03c.09,1.39.28,3.85.28,4.67v5.84h-6.15v-18.92Z"/>
      <path class="cls-2" d="M124.69,64.13v4.76h-14.25v-18.92h14.08v4.76h-7.88v2.66h7.08v3.88h-7.08v2.86h8.05Z"/>
      <path class="cls-2" d="M143.67,68.7l-.08.2h-6.54l-2.1-5.16h-2.21v5.16h-6.2v-18.92h9.38c5.07,0,7.48,2.07,7.48,6.63,0,2.72-.82,4.67-2.38,5.86l2.66,6.23ZM132.74,59.63h2.69c1.36,0,1.78-.82,1.78-1.95v-.94c0-1.3-.59-1.73-1.78-1.73h-2.69v4.62Z"/>
      <path class="cls-2" d="M30.89,78.77c1.4,0,2.59.19,3.23.34v3.4l-.08.08c-.7-.09-1.51-.19-2.36-.19-.96,0-1.83.13-2.3.45-.51.36-.74,1.21-.74,2.12v.6c0,.98.25,1.81.79,2.15.47.28,1.4.38,2.17.38s1.97-.15,2.59-.28l.09.08v3.38c-.72.21-1.95.45-3.8.45-4.48,0-6.2-2.1-6.2-6.59s2.14-6.37,6.59-6.37Z"/>
      <path class="cls-2" d="M41.33,78.73c3.55,0,6.23,1.96,6.23,6.56,0,4.21-2.21,6.48-6.23,6.48s-6.22-2.32-6.22-6.48c0-4.59,2.66-6.56,6.22-6.56ZM41.33,88.14c1.45,0,2.1-.85,2.1-2.21v-1.4c0-1.34-.62-2.17-2.1-2.17s-2.1.83-2.1,2.17v1.4c0,1.38.64,2.21,2.1,2.21Z"/>
      <path class="cls-2" d="M48.9,78.94h4.4l2.36,3.7c.26.4,1.08,2.02,1.7,3.27l.13-.04c-.23-1.4-.53-3.48-.53-3.87v-3.06h4.08v12.62h-4.18l-2.53-3.95c-.23-.38-.91-1.66-1.49-2.7l-.13.02c.09.74.28,2.44.28,3.04v3.59h-4.1v-12.62Z"/>
      <path class="cls-2" d="M62.03,78.94h4.25l1.32,4.65c.09.28.64,3.06.85,4.33h.17c.23-1.27.77-4.04.85-4.33l1.34-4.65h4.23l.11.13-4.02,12.49h-5.2l-4-12.49.09-.13Z"/>
      <path class="cls-2" d="M85.52,88.38v3.17h-9.5v-12.62h9.39v3.17h-5.25v1.78h4.72v2.59h-4.72v1.91h5.36Z"/>
      <path class="cls-2" d="M86.77,78.94h4.4l2.36,3.7c.26.4,1.08,2.02,1.7,3.27l.13-.04c-.23-1.4-.53-3.48-.53-3.87v-3.06h4.08v12.62h-4.18l-2.53-3.95c-.23-.38-.91-1.66-1.49-2.7l-.13.02c.09.74.28,2.44.28,3.04v3.59h-4.1v-12.62Z"/>
      <path class="cls-2" d="M110.68,82.64h-3.31v8.92h-4.19v-8.92h-3.31v-3.7h10.81v3.7Z"/>
      <path class="cls-2" d="M115.83,78.94v12.62h-4.1v-12.62h4.1Z"/>
      <path class="cls-2" d="M123.48,78.73c3.55,0,6.23,1.96,6.23,6.56,0,4.21-2.21,6.48-6.23,6.48s-6.22-2.32-6.22-6.48c0-4.59,2.66-6.56,6.22-6.56ZM123.48,88.14c1.45,0,2.1-.85,2.1-2.21v-1.4c0-1.34-.62-2.17-2.1-2.17s-2.1.83-2.1,2.17v1.4c0,1.38.64,2.21,2.1,2.21Z"/>
      <path class="cls-2" d="M131.05,78.94h4.4l2.36,3.7c.26.4,1.08,2.02,1.7,3.27l.13-.04c-.23-1.4-.53-3.48-.53-3.87v-3.06h4.08v12.62h-4.18l-2.53-3.95c-.23-.38-.91-1.66-1.49-2.7l-.13.02c.09.74.28,2.44.28,3.04v3.59h-4.1v-12.62Z"/>
    </g>
    <g>
      <path class="cls-1" d="M39.88,123.51v6.2h-14.46v-20.82h6.92v14.62h7.54Z"/>
      <path class="cls-1" d="M48.48,108.89v20.82h-6.76v-20.82h6.76Z"/>
      <path class="cls-1" d="M51.31,108.89h7.42l4.71,7.95h.06l4.67-7.95h7.42v20.82h-6.76v-6.42c0-.9.22-3.61.34-5.14l-.22-.03c-.47.9-1.09,2.34-1.46,2.99l-3.24,5.64h-1.59l-3.24-5.64c-.37-.65-1-2.06-1.46-2.99l-.19.03c.09,1.53.31,4.24.31,5.14v6.42h-6.76v-20.82Z"/>
      <path class="cls-1" d="M85.18,108.89v20.82h-6.76v-20.82h6.76Z"/>
      <path class="cls-1" d="M104.75,115h-5.45v14.71h-6.92v-14.71h-5.45v-6.11h17.83v6.11Z"/>
      <path class="cls-1" d="M121.98,124.48v5.24h-15.67v-20.82h15.49v5.24h-8.66v2.93h7.79v4.27h-7.79v3.15h8.85Z"/>
      <path class="cls-1" d="M124.04,108.89h8.44c7.95,0,10.53,3.43,10.53,10.28s-2.15,10.53-10.41,10.53h-8.57v-20.82ZM132.83,124.04c.87,0,1.87,0,2.59-.69.56-.53.84-1.53.84-2.93v-2.34c0-1.28-.16-2.24-.72-2.8-.53-.56-1.34-.72-2.59-.72h-2.15v9.47h2.03Z"/>
      <path class="cls-1" d="M40.13,150.25v5.24h-15.67v-20.82h15.49v5.24h-8.66v2.93h7.79v4.27h-7.79v3.15h8.85Z"/>
      <path class="cls-1" d="M42.18,134.67h8.44c7.95,0,10.53,3.43,10.53,10.28s-2.15,10.53-10.41,10.53h-8.57v-20.82ZM50.97,149.81c.87,0,1.87,0,2.59-.69.56-.53.84-1.53.84-2.93v-2.34c0-1.28-.16-2.24-.72-2.8-.53-.56-1.34-.72-2.59-.72h-2.15v9.47h2.03Z"/>
      <path class="cls-1" d="M70.29,134.67v20.82h-6.76v-20.82h6.76Z"/>
      <path class="cls-1" d="M89.86,140.78h-5.45v14.71h-6.92v-14.71h-5.45v-6.11h17.83v6.11Z"/>
      <path class="cls-1" d="M98.36,134.67v20.82h-6.76v-20.82h6.76Z"/>
      <path class="cls-1" d="M110.98,134.33c5.86,0,10.28,3.24,10.28,10.81,0,6.95-3.65,10.69-10.28,10.69s-10.25-3.83-10.25-10.69c0-7.57,4.39-10.81,10.25-10.81ZM110.98,149.85c2.4,0,3.46-1.4,3.46-3.65v-2.31c0-2.21-1.03-3.58-3.46-3.58s-3.46,1.37-3.46,3.58v2.31c0,2.27,1.06,3.65,3.46,3.65Z"/>
      <path class="cls-1" d="M123.48,134.67h7.26l3.89,6.11c.44.65,1.78,3.33,2.8,5.39l.22-.06c-.37-2.31-.87-5.73-.87-6.39v-5.05h6.73v20.82h-6.89l-4.18-6.51c-.37-.62-1.5-2.74-2.46-4.46l-.22.03c.16,1.21.47,4.02.47,5.02v5.92h-6.76v-20.82Z"/>
    </g>
  </g>
</svg>