<?xml version="1.0" encoding="UTF-8"?>
<svg id="Camada_2" data-name="Camada 2" xmlns="http://www.w3.org/2000/svg" xmlns:xlink="http://www.w3.org/1999/xlink" viewBox="0 0 168.52 168.52">
  <defs>
    <style>
      .cls-1 {
        clip-path: url(#clippath);
      }

      .cls-2 {
        fill: none;
      }

      .cls-2, .cls-3, .cls-4, .cls-5, .cls-6, .cls-7 {
        stroke-width: 0px;
      }

      .cls-3 {
        fill: #ff3d47;
      }

      .cls-4 {
        fill: #1e51a4;
      }

      .cls-5 {
        fill-rule: evenodd;
      }

      .cls-5, .cls-6 {
        fill: #fff;
      }

      .cls-7 {
        fill: #e53738;
      }
    </style>
    <clipPath id="clippath">
      <rect class="cls-2" x="17.44" y="6.94" width="133.64" height="154.64" rx="8.6" ry="8.6"/>
    </clipPath>
  </defs>
  <g>
    <g>
      <rect class="cls-7" x="9.88" width="148.76" height="168.52" rx="15.55" ry="15.55"/>
      <rect class="cls-4" x="17.42" y="6.94" width="133.64" height="154.64" rx="8.6" ry="8.6"/>
    </g>
    <g class="cls-1">
      <rect class="cls-6" x="17" y="40.25" width="136.17" height="65.75"/>
    </g>
  </g>
  <g>
    <g>
      <g>
        <path class="cls-5" d="M71.42,23.13c-.47-.45-1.95-.27-4.8-.11.56-2.38.97-4.46,2.02-6.08,4.89.27,10.89.96,17.77.94,13.54-.04,13.66-5.08,13.66-5.08-5.76,1.66-13.67,1.17-19.66.62-7.51-.69-15.03-2.42-21.23-.76-7.33,1.96-8.04,7.4-7.77,9.74,2.94-3.86,6.92-5.23,12.02-5.52.48-.03.99-.04,1.51-.04-.93.97-1.64,2.5-2.39,4.88-.16.52-.32,1.02-.48,1.51-6.27.54-7.49,3.41-7.13,4.16.38.8,2.61-.25,5.38-.56.18-.02.35-.04.52-.05-1.08,2.8-2.28,4.81-4.21,5.98-2.94,1.78-6.02.96-6.63.46.24,3.27,5.16,5.05,9.34,2.77,3.33-1.82,5.26-6.18,6.32-9.44.92,0,1.84-.03,2.76-.09,2.52-.17,3.63-2.74,3.02-3.33M122.01,19.46c-.52-.17-1.08.12-1.25.64,0,0,0,0,0,0-.08.25-.06.51.04.73-.95.87-1.82,1.51-2.29,1.36-.6-.19-.15-1.82.44-3.3.53.08,1.04-.24,1.2-.75.18-.57-.13-1.19-.7-1.38-.57-.18-1.18.13-1.36.7,0,0,0,0,0,0-.13.41,0,.84.27,1.12-.78,1.42-1.59,2.65-2.29,2.45h-.03c-.71-.24-.67-1.72-.48-3.35.4-.06.75-.34.88-.75.18-.57-.13-1.19-.7-1.38-.57-.18-1.18.13-1.36.7,0,0,0,0,0,0-.16.51.07,1.06.53,1.3-.38,1.55-.94,3.13-1.54,2.94-.46-.15-.8-1.18-1.07-2.44.49-.27.66-.89.39-1.37-.12-.22-.32-.39-.56-.46-.52-.17-1.08.12-1.25.64,0,0,0,0,0,0-.17.53.12,1.1.65,1.27.03.01.07.02.1.03l.18,4.22,6.9,2.24,2.57-3.33c.49.24,1.08.03,1.32-.47.02-.04.04-.09.05-.13.17-.53-.12-1.09-.64-1.26"/>
        <path class="cls-5" d="M114.08,31.22c-1.28,2.27-3.11,3.43-4.09,2.59-.98-.84-.73-3.37.55-5.65,1.28-2.27,3.11-3.43,4.08-2.59.98.84.73,3.37-.55,5.65M112.34,23.4s-1.64.62-2.78,1.7c-.39.37-.76.75-1.1,1.17h0c-.32.4-.56.83-.83,1.28-.37.62-.69,1.28-.94,1.97h0s-.66,1.39-1.14,2.09c-.47.68-1.36,1.32-1.72,1.57-.42.19-.85.36-1.29.49-2.93.85-3.47-1.25-2.81-2.25.24-.36,1.86-1.6,2.97-2.53,2.14-1.78,3.61-2.91,4.62-3.94,1.07-1.08.38-1.68-.45-1.83-2.07-.36-3.02.2-3.62.71-.73.62-5.06,5.85-5.06,5.85,0,0,7.05-13.65,8.21-15.99.96-1.93-3.63-2.2-4.89.58-.74,1.62-5.79,13.33-6.41,14.78-1.13,2.65-1.2,3.06-1.76,3.53,0,0-.01.01-.02.02l-.04.03s0,0,0,0c-.54.45-1.3.85-1.81.85-.31,0-.49-.19-.54-.56-.05-.37,0-.85.13-1.43.08-.35.2-.73.34-1.14.14-.41.3-.83.47-1.25.17-.42.34-.83.52-1.24l.49-1.11c.15-.34.27-.63.37-.87.1-.24.16-.42.19-.52.17-.69.14-1.32-.04-1.71-.18-.39-.5-.59-.96-.59s-.9.13-1.31.36c-.44.25-.85.53-1.27,1.04-.36.44-.71.88-1.05,1.33-.23.3-.48.62-.74.96-.26.33-.51.65-.74.95-.33.43-.66.86-1,1.29h-.28c.02-.07.06-.19.14-.39.08-.19.17-.42.27-.67.23-.57.46-1.15.69-1.73.11-.29.21-.55.3-.79.09-.24.15-.43.18-.57.13-.51.13-.93,0-1.23-.12-.31-.43-.46-.93-.46s-.93.15-1.3.43c-.36.29-.66.66-.86,1.08-.31.66-.61,1.32-.89,2-.68,1.61-1.29,3.24-1.85,4.9-.12.35-.23.7-.34,1.05-.66.34-1.34.62-2.05.84-.27.08-.61.14-.8-.07-.14-.15-.15-.39-.13-.6.1-1.11.58-2.14,1.03-3.16.76-1.71,1.47-3.44,2.12-5.2.08-.22.16-.46.09-.68-.11-.35-.53-.48-.89-.52-.78-.1-1.67-.02-2.17.58-.17.2-.27.44-.38.68l-2.58,5.87c-.54,1.23-1.21,2.59-2.47,3.03-.22.08-.46.12-.68.02-.27-.12-.41-.44-.41-.74,0-.3.12-.59.23-.86,1.06-2.61,1.84-4.43,2.91-7.04.05-.12.31-.73.32-1.02,0-.18-.11-.35-.27-.43-.68-.31-1.5-.12-2.11.31-.96.68-1.49,1.77-1.96,2.81-.53,1.16-1.06,2.31-1.54,3.49-.55,1.35-1.14,2.65-1.43,4.08-.15.73-.11,1.67.41,2.19.34.34.85.44,1.33.45,1.94.06,3.78-.97,5.2-2.31.05.71.15,1.53.74,1.92.38.25.86.26,1.31.21.9-.1,1.77-.38,2.61-.72.35-.14.7-.29,1.04-.45,0,.15.02.3.05.43.06.28.18.5.38.66.19.16.48.25.86.25.31,0,.59-.07.86-.21.27-.14.54-.4.82-.79l5.43-7.3h.22c-.28.7-.54,1.4-.79,2.1-.22.6-.4,1.2-.56,1.82-.35,1.43-.44,2.52-.28,3.27s.5,1.12,1.01,1.12,1.01-.07,1.52-.22c.51-.15,1-.34,1.47-.56.33-.16.66-.34.99-.52,0,.12-.04.36-.04.47-.02.4.04.49.23.66.19.17.38.19.78.19.3,0,.41-.03.67-.22.25-.18,1.14-1.52,1.83-2.47.11-.16.24-.32.38-.49-.25,1.18.29,2.91,1.92,3.17,1.58.26,4.16-.1,7.48-2.69.06.36.15.7.27,1.02.24.61.62,1.1,1.14,1.48.52.38,1.2.57,2.06.57.6,0,1.18-.1,1.76-.31.59-.21,1.14-.49,1.66-.84.54-.36,1.04-.78,1.49-1.25.89-.93,1.63-2,2.17-3.17.48-1.09.71-1.9.95-3.15.11-.67.17-1.26.16-1.8,0,0-.06-1.33-.24-1.45-.18-.12-5.21-1.65-5.21-1.65"/>
      </g>
      <path class="cls-5" d="M34.25,18.25l2.19,6.73c.03.1.12.16.22.16h7.07c.23,0,.32.29.14.43l-5.72,4.16c-.08.06-.12.17-.09.26l2.19,6.73c.07.22-.18.4-.36.26l-5.72-4.16c-.08-.06-.19-.06-.28,0l-5.72,4.16c-.18.13-.43-.05-.36-.26l2.19-6.73c.03-.1,0-.2-.09-.26l-5.72-4.16c-.18-.13-.09-.43.14-.43h7.07c.1,0,.19-.07.22-.16l2.19-6.73c.07-.22.38-.22.45,0Z"/>
      <path class="cls-5" d="M134.72,18.25l2.19,6.73c.03.1.12.16.22.16h7.07c.23,0,.32.29.14.43l-5.72,4.16c-.08.06-.12.17-.09.26l2.19,6.73c.07.22-.18.4-.36.26l-5.72-4.16c-.08-.06-.19-.06-.28,0l-5.72,4.16c-.18.13-.43-.05-.36-.26l2.19-6.73c.03-.1,0-.2-.09-.26l-5.72-4.16c-.18-.13-.09-.43.14-.43h7.07c.1,0,.19-.07.22-.16l2.19-6.73c.07-.22.38-.22.45,0Z"/>
    </g>
    <g>
      <g>
        <g>
          <path class="cls-3" d="M30.48,68.06c-1.44,0-2.38.66-2.38,1.77,0,1.44,2.85,2.38,5.31,3.29,3.43,1.24,5.17,3.04,5.17,5.75,0,3.71-2.77,5.83-7.02,5.83-2.68,0-5.39-.61-7.63-1.74l.36-3.98c2.77,1.36,5.03,2.16,7.47,2.16,1.74,0,2.63-.83,2.63-2.02,0-1.41-2.27-2.43-5.67-3.57-3.18-1.11-4.81-2.71-4.81-5.34,0-3.62,2.35-5.72,6.42-5.72,2.52,0,5.09.55,7.8,1.85l-.36,4.01c-2.54-1.47-5.25-2.3-7.27-2.3Z"/>
          <path class="cls-3" d="M46.16,64.94v11.86c0,2.24,1.16,3.87,3.26,3.87s3.18-1.63,3.18-3.87v-11.86h4.43v11.59c0,5.25-2.88,8.21-7.74,8.21s-7.55-2.96-7.55-8.21v-11.59h4.43Z"/>
          <path class="cls-3" d="M71.93,78.79l5.34-13.85h5.53v19.36h-4.31l-.11-13.94-5.25,13.94h-2.43l-5.2-13.74-.11,13.74h-4.34v-19.36h5.53l5.37,13.85Z"/>
          <path class="cls-3" d="M97.74,78.79l5.34-13.85h5.53v19.36h-4.31l-.11-13.94-5.25,13.94h-2.43l-5.2-13.74-.11,13.74h-4.34v-19.36h5.53l5.36,13.85Z"/>
          <path class="cls-3" d="M126.08,64.94v4.04h-9.01v4.4h6.8v2.02h-6.8v4.87h9.01v4.04h-13.44v-19.36h13.44Z"/>
          <path class="cls-3" d="M129.54,64.94h7.55c4.7,0,7.44,2.54,7.44,6.17,0,3.35-2.16,5.72-6.33,5.72h-.14c1.66,2.57,3.21,3.62,5.81,3.68.41,0,.77-.03,1.08-.06l-.36,3.98c-.61.19-1.27.25-1.83.25-4.4,0-7.3-4.87-8.79-8.13v7.74h-4.43v-19.36ZM136.89,74.78c1.99,0,3.18-1.36,3.18-3.07s-1.35-3.15-3.84-3.15h-2.27v5.39c.77.41,1.8.83,2.93.83Z"/>
          <path class="cls-3" d="M23.58,94.54c0-4.17,2.25-7.08,5.44-7.08s5,2.44,5.06,4.78l-2.91.65c-.25-1.45-.97-2.76-2.09-2.76-1.41,0-2.38,1.5-2.38,4.02,0,2.84,1.01,4.28,2.74,4.43,1.45.1,3.62-.8,4.49-1.18l-.25,2.91c-1.5.65-2.68,1.07-4.79,1.07-3.12,0-5.31-2.85-5.31-6.83Z"/>
          <path class="cls-3" d="M35.72,94.52c0-4.53,2.28-7.06,5.86-7.06s5.84,2.53,5.84,7.06-2.28,6.85-5.84,6.85-5.86-2.45-5.86-6.85ZM41.58,98.71c1.71,0,2.72-1.5,2.72-4.3s-1.01-4.3-2.72-4.3-2.74,1.48-2.74,4.3,1.01,4.3,2.74,4.3Z"/>
          <path class="cls-3" d="M61.47,101.08h-3.16l-5.48-9.36v9.36h-3.04v-13.32h3.18l5.46,9.34v-9.34h3.04v13.32Z"/>
          <path class="cls-3" d="M63.3,87.76h3.22l2.7,10.98,2.74-10.98h3.03l-3.73,13.32h-4.22l-3.73-13.32Z"/>
          <path class="cls-3" d="M86.05,87.76v2.78h-6.2v3.03h4.68v1.39h-4.68v3.35h6.2v2.78h-9.25v-13.32h9.25Z"/>
          <path class="cls-3" d="M100.12,101.08h-3.16l-5.48-9.36v9.36h-3.04v-13.32h3.18l5.46,9.34v-9.34h3.04v13.32Z"/>
          <path class="cls-3" d="M111.52,90.48h-3.37v10.6h-2.99v-10.6h-3.37v-2.72h9.72v2.72Z"/>
          <path class="cls-3" d="M116.39,87.76v13.32h-3.04v-13.32h3.04Z"/>
          <path class="cls-3" d="M118.9,94.52c0-4.53,2.28-7.06,5.86-7.06s5.84,2.53,5.84,7.06-2.28,6.85-5.84,6.85-5.86-2.45-5.86-6.85ZM124.76,98.71c1.71,0,2.72-1.5,2.72-4.3s-1.01-4.3-2.72-4.3-2.74,1.48-2.74,4.3,1.01,4.3,2.74,4.3Z"/>
          <path class="cls-3" d="M144.65,101.08h-3.16l-5.48-9.36v9.36h-3.04v-13.32h3.18l5.46,9.34v-9.34h3.04v13.32Z"/>
        </g>
        <g>
          <path class="cls-3" d="M34.05,48.66c0-1.58-1-2.43-2.46-2.43-1.88,0-2.93,1.91-3.29,4.01l-4.23-.94c.11-3.4,2.6-6.94,7.36-6.94,4.4,0,7.11,2.41,7.11,5.78,0,4.12-5.25,6.72-10.32,10.23h10.2v3.79h-14.02v-3.79c5.92-4.51,9.65-6.78,9.65-9.71Z"/>
          <path class="cls-3" d="M61.04,52.61c0-6.06,3.35-10.26,7.69-10.26s7.66,4.2,7.66,10.26-3.12,9.96-7.66,9.96-7.69-3.79-7.69-9.96ZM68.73,58.8c1.91,0,3.15-2.35,3.15-6.39s-1.24-6.31-3.15-6.31-3.15,2.32-3.15,6.31,1.24,6.39,3.15,6.39Z"/>
          <path class="cls-3" d="M108.83,48.66c0-1.58-1-2.43-2.46-2.43-1.88,0-2.93,1.91-3.29,4.01l-4.23-.94c.11-3.4,2.6-6.94,7.36-6.94,4.4,0,7.11,2.41,7.11,5.78,0,4.12-5.25,6.72-10.32,10.23h10.2v3.79h-14.02v-3.79c5.92-4.51,9.65-6.78,9.65-9.71Z"/>
          <path class="cls-3" d="M139.3,47.22c-1.16.69-2.57,1.19-4.09,1.19l-.33-1.83c1.85-.14,4.4-.75,5.92-3.79h2.93v19.36h-4.42v-14.93Z"/>
        </g>
      </g>
      <g>
        <path class="cls-6" d="M40.16,123.68v6.2h-14.46v-20.81h6.92v14.61h7.54Z"/>
        <path class="cls-6" d="M48.76,109.07v20.81h-6.76v-20.81h6.76Z"/>
        <path class="cls-6" d="M51.59,109.07h7.42l4.7,7.94h.06l4.67-7.94h7.42v20.81h-6.76v-6.42c0-.9.22-3.61.34-5.14l-.22-.03c-.47.9-1.09,2.34-1.46,2.99l-3.24,5.64h-1.59l-3.24-5.64c-.37-.65-1-2.06-1.46-2.99l-.19.03c.09,1.53.31,4.24.31,5.14v6.42h-6.76v-20.81Z"/>
        <path class="cls-6" d="M85.46,109.07v20.81h-6.76v-20.81h6.76Z"/>
        <path class="cls-6" d="M105.02,115.18h-5.45v14.71h-6.92v-14.71h-5.45v-6.11h17.82v6.11Z"/>
        <path class="cls-6" d="M122.25,124.65v5.23h-15.67v-20.81h15.48v5.23h-8.66v2.93h7.79v4.27h-7.79v3.15h8.85Z"/>
        <path class="cls-6" d="M124.31,109.07h8.44c7.94,0,10.53,3.43,10.53,10.28s-2.15,10.53-10.41,10.53h-8.57v-20.81ZM133.09,124.21c.87,0,1.87,0,2.59-.69.56-.53.84-1.53.84-2.93v-2.34c0-1.28-.16-2.24-.72-2.8-.53-.56-1.34-.72-2.59-.72h-2.15v9.47h2.02Z"/>
        <path class="cls-6" d="M40.41,150.99v5.23h-15.67v-20.81h15.48v5.23h-8.66v2.93h7.79v4.27h-7.79v3.15h8.85Z"/>
        <path class="cls-6" d="M42.47,135.41h8.44c7.94,0,10.53,3.43,10.53,10.28s-2.15,10.53-10.41,10.53h-8.57v-20.81ZM51.25,150.55c.87,0,1.87,0,2.59-.69.56-.53.84-1.53.84-2.93v-2.34c0-1.28-.16-2.24-.72-2.8-.53-.56-1.34-.72-2.59-.72h-2.15v9.47h2.03Z"/>
        <path class="cls-6" d="M70.57,135.41v20.81h-6.76v-20.81h6.76Z"/>
        <path class="cls-6" d="M90.13,141.52h-5.45v14.71h-6.92v-14.71h-5.45v-6.11h17.82v6.11Z"/>
        <path class="cls-6" d="M98.64,135.41v20.81h-6.76v-20.81h6.76Z"/>
        <path class="cls-6" d="M111.26,135.07c5.86,0,10.28,3.24,10.28,10.81,0,6.95-3.65,10.69-10.28,10.69s-10.25-3.83-10.25-10.69c0-7.57,4.39-10.81,10.25-10.81ZM111.26,150.58c2.4,0,3.46-1.4,3.46-3.65v-2.31c0-2.21-1.03-3.58-3.46-3.58s-3.46,1.37-3.46,3.58v2.31c0,2.27,1.06,3.65,3.46,3.65Z"/>
        <path class="cls-6" d="M123.75,135.41h7.26l3.89,6.11c.44.65,1.78,3.33,2.8,5.39l.22-.06c-.37-2.31-.87-5.73-.87-6.39v-5.05h6.73v20.81h-6.89l-4.18-6.51c-.37-.62-1.5-2.74-2.46-4.46l-.22.03c.16,1.21.47,4.02.47,5.02v5.92h-6.76v-20.81Z"/>
      </g>
    </g>
  </g>
</svg>