<?xml version="1.0" encoding="UTF-8"?>
<svg id="Camada_3" data-name="Camada 3" xmlns="http://www.w3.org/2000/svg" viewBox="0 0 168.52 168.52">
  <defs>
    <style>
      .cls-1 {
        fill: #ffeb57;
      }

      .cls-1, .cls-2, .cls-3, .cls-4 {
        stroke-width: 0px;
      }

      .cls-2 {
        fill: #9a7aff;
      }

      .cls-3 {
        fill-rule: evenodd;
      }

      .cls-3, .cls-4 {
        fill: #fff;
      }
    </style>
  </defs>
  <rect class="cls-2" x="10.33" y=".45" width="147.86" height="167.63" rx="16.49" ry="16.49"/>
  <rect class="cls-4" x="10.33" y="42.99" width="147.86" height="56.78"/>
  <g>
    <g>
      <g>
        <path class="cls-3" d="M38.12,23.25c-.44-.42-1.82-.25-4.49-.11.53-2.22.9-4.16,1.88-5.68,4.56.26,10.17.9,16.59.88,12.64-.04,12.76-4.74,12.76-4.74-5.38,1.55-12.77,1.09-18.36.58-7.02-.64-14.03-2.26-19.83-.71-6.85,1.83-7.51,6.91-7.26,9.1,2.75-3.61,6.46-4.89,11.22-5.16.45-.03.93-.03,1.41-.04-.86.91-1.54,2.33-2.23,4.56-.15.49-.3.95-.44,1.41-5.86.51-6.99,3.18-6.66,3.88.36.75,2.43-.23,5.03-.52.17-.02.33-.03.48-.05-1.01,2.62-2.13,4.49-3.93,5.58-2.75,1.67-5.62.89-6.2.43.22,3.06,4.82,4.72,8.72,2.58,3.11-1.7,4.91-5.77,5.9-8.81.86,0,1.72-.03,2.57-.08,2.36-.16,3.39-2.56,2.82-3.11M85.37,19.83c-.49-.16-1.01.11-1.16.6,0,0,0,0,0,0-.07.23-.05.47.04.68-.89.81-1.7,1.41-2.14,1.27-.56-.18-.14-1.7.41-3.08.49.08.97-.22,1.12-.7.17-.54-.12-1.11-.65-1.29-.53-.17-1.1.12-1.27.65,0,0,0,0,0,0-.12.38,0,.78.26,1.04-.72,1.33-1.48,2.48-2.14,2.29h-.02c-.67-.22-.62-1.61-.45-3.12.37-.05.7-.32.82-.7.17-.54-.12-1.11-.65-1.29-.53-.17-1.1.12-1.27.65,0,0,0,0,0,0-.15.48.07.99.49,1.22-.35,1.45-.88,2.93-1.44,2.75-.43-.14-.75-1.1-1-2.28.45-.25.61-.83.36-1.28-.11-.21-.3-.36-.53-.43-.49-.16-1.01.11-1.16.6,0,0,0,0,0,0-.16.49.12,1.02.61,1.18.03.01.06.02.1.03l.16,3.94,6.45,2.09,2.4-3.11c.46.22,1.01.03,1.23-.43.02-.04.04-.08.05-.12.16-.49-.11-1.02-.6-1.18"/>
        <path class="cls-3" d="M77.96,30.81c-1.2,2.12-2.91,3.21-3.82,2.42-.91-.79-.68-3.15.52-5.27,1.2-2.12,2.9-3.21,3.82-2.42.91.79.68,3.15-.52,5.27M76.33,23.51s-1.53.58-2.6,1.59c-.36.34-.71.7-1.03,1.09h0c-.29.38-.53.77-.77,1.19-.34.58-.64,1.2-.88,1.84h0s-.62,1.3-1.07,1.95c-.44.63-1.27,1.24-1.6,1.46-.39.18-.79.33-1.2.45-2.74.8-3.24-1.17-2.63-2.1.22-.33,1.74-1.5,2.77-2.36,2-1.66,3.38-2.72,4.32-3.68,1-1.01.35-1.57-.42-1.71-1.93-.33-2.82.18-3.38.67-.68.58-4.73,5.46-4.73,5.46,0,0,6.59-12.75,7.67-14.94.89-1.81-3.39-2.06-4.57.54-.69,1.51-5.41,12.45-5.99,13.8-1.05,2.47-1.12,2.86-1.64,3.29,0,0-.01.01-.01.02l-.04.03s0,0,0,0c-.51.42-1.22.8-1.69.79-.29,0-.45-.17-.5-.52-.05-.35,0-.8.13-1.34.08-.32.18-.68.32-1.06.13-.38.28-.77.43-1.17.16-.39.32-.78.48-1.15l.46-1.04c.14-.31.25-.59.35-.81.09-.23.15-.39.18-.49.16-.65.13-1.23-.04-1.6-.17-.37-.47-.55-.9-.55s-.84.12-1.22.34c-.42.24-.79.5-1.19.97-.33.41-.66.82-.98,1.24-.22.28-.45.58-.69.89-.24.31-.47.6-.69.88-.31.4-.62.81-.93,1.21h-.26c.01-.06.06-.18.13-.36.07-.18.15-.39.25-.63.22-.54.43-1.07.64-1.61.1-.27.2-.51.28-.74.08-.22.14-.4.17-.53.12-.48.12-.87,0-1.15-.11-.29-.4-.43-.87-.43s-.87.14-1.21.41c-.34.27-.61.62-.8,1.01-.29.61-.57,1.24-.83,1.86-.63,1.5-1.21,3.03-1.73,4.57-.11.33-.21.65-.31.98-.62.31-1.25.58-1.92.78-.25.08-.57.13-.75-.07-.13-.14-.14-.36-.12-.56.09-1.04.54-2,.96-2.95.71-1.6,1.37-3.22,1.98-4.85.08-.2.15-.43.09-.64-.1-.33-.49-.45-.83-.49-.72-.1-1.56-.02-2.03.54-.15.19-.25.41-.35.64l-2.41,5.49c-.51,1.15-1.13,2.42-2.31,2.83-.2.07-.43.11-.63.02-.25-.11-.38-.41-.38-.69,0-.28.11-.55.21-.81.99-2.44,1.72-4.14,2.71-6.58.05-.11.29-.68.3-.95,0-.17-.1-.33-.26-.41-.63-.29-1.4-.12-1.97.29-.9.63-1.39,1.65-1.83,2.63-.49,1.08-.99,2.16-1.44,3.26-.51,1.26-1.06,2.48-1.34,3.81-.14.68-.1,1.56.39,2.05.32.32.8.41,1.25.42,1.81.06,3.53-.9,4.86-2.16.05.66.14,1.43.69,1.79.35.23.8.24,1.22.2.84-.09,1.66-.35,2.44-.67.33-.13.65-.27.97-.42,0,.14.02.28.04.4.06.26.17.46.35.62.18.15.45.23.8.23.29,0,.55-.07.8-.2.25-.13.5-.38.76-.73l5.07-6.82h.21c-.26.65-.5,1.3-.74,1.96-.2.56-.38,1.12-.52,1.7-.33,1.34-.41,2.36-.26,3.05s.47,1.04.95,1.04.95-.07,1.42-.2c.47-.14.93-.31,1.38-.53.31-.15.62-.32.92-.49,0,.12-.03.34-.04.44-.02.38.04.46.21.62.17.16.35.18.72.18.28,0,.38-.03.62-.2.23-.17,1.07-1.42,1.71-2.31.11-.15.22-.3.35-.45-.24,1.1.27,2.71,1.79,2.96,1.48.24,3.88-.1,6.98-2.51.05.34.14.66.26.95.22.57.58,1.03,1.06,1.38.48.35,1.12.53,1.93.53.56,0,1.1-.1,1.64-.29.55-.2,1.07-.46,1.55-.78.5-.34.97-.73,1.39-1.17.83-.87,1.52-1.87,2.03-2.96.45-1.01.66-1.78.88-2.94.1-.62.16-1.17.15-1.68,0,0-.06-1.24-.22-1.36-.17-.11-4.87-1.54-4.87-1.54"/>
      </g>
      <g>
        <path class="cls-4" d="M102.9,30.97v4.96h-14.12v-4.96l5.15-3.81c1.82-1.37,2.58-2.18,2.58-3.28v-.34c0-.95-.78-1.65-3.22-1.65-1.54,0-3.22.28-4.03.53l-.11-.08v-4.73c1.26-.34,3.53-.7,5.46-.7,5.66,0,8.04,1.9,8.04,6.05,0,2.94-1.51,4.45-2.55,5.27l-2.13,1.62c-.36.28-1.18.84-1.51,1.01v.11h6.44Z"/>
        <path class="cls-4" d="M111.7,16.9c4.01,0,7.26,2.07,7.26,9.78,0,7.17-2.91,9.55-7.26,9.55s-7.26-2.47-7.26-9.55c0-7.7,3.28-9.78,7.26-9.78ZM111.7,30.99c1.37,0,1.91-.73,1.91-2.91v-3.03c0-2.21-.56-2.91-1.91-2.91s-1.88.73-1.88,2.91v3.03c0,2.21.53,2.91,1.88,2.91Z"/>
        <path class="cls-4" d="M134.56,30.97v4.96h-14.12v-4.96l5.15-3.81c1.82-1.37,2.58-2.18,2.58-3.28v-.34c0-.95-.78-1.65-3.22-1.65-1.54,0-3.22.28-4.03.53l-.11-.08v-4.73c1.26-.34,3.53-.7,5.46-.7,5.66,0,8.04,1.9,8.04,6.05,0,2.94-1.51,4.45-2.55,5.27l-2.13,1.62c-.36.28-1.18.84-1.51,1.01v.11h6.44Z"/>
        <path class="cls-4" d="M140.98,31.7c3.03,0,3.89-.64,3.89-1.76v-.45c0-.87-.53-1.29-2.21-1.29h-4.71v-3.7h4.26c1.34,0,1.93-.53,1.93-1.26v-.42c0-.9-.73-1.37-3.31-1.37-1.51,0-3,.2-4.01.36l-.11-.08v-4.23c1.15-.22,3.22-.59,5.43-.59,5.66,0,7.48,1.99,7.48,4.71,0,2.13-1.06,3.39-2.86,3.87v.11c2.75.59,3.64,2.33,3.64,4.4,0,4.12-2.55,6.25-8.35,6.25-2.32,0-4.79-.36-5.8-.53v-4.23l.14-.14c1.18.2,3.19.36,4.57.36Z"/>
      </g>
    </g>
    <g>
      <path class="cls-2" d="M34.07,49.53c2.3,0,4.19.23,5.07.37v4.48l-.11.11c-1.08-.08-2.98-.2-4.59-.2-3.03,0-3.57.37-3.57,1.22v.2c0,.65.2.91,2.1,1.19l2.24.37c3.32.48,5.05,2.1,5.05,5.22,0,4.25-1.96,6.49-9.61,6.49-2.89,0-5.02-.26-5.81-.4v-4.62l.11-.09c1.62.2,3.54.34,5.5.34,2.98,0,3.51-.37,3.51-1.36v-.23c0-.74-.17-1.02-2.64-1.39l-2.32-.37c-2.75-.4-4.42-1.9-4.42-5.13,0-3.91,2.18-6.21,9.5-6.21Z"/>
      <path class="cls-2" d="M41.97,49.78h6.29v11.4c0,1.73.79,2.41,2.18,2.41h.54c1.39,0,2.18-.68,2.18-2.41v-11.4h6.26v11.85c0,4.99-3.32,7.4-8.7,7.4s-8.76-2.41-8.76-7.4v-11.85Z"/>
      <path class="cls-2" d="M61.73,49.78h6.75l4.28,7.23h.06l4.25-7.23h6.75v18.93h-6.15v-5.84c0-.82.2-3.29.31-4.68l-.2-.03c-.42.82-.99,2.13-1.33,2.72l-2.95,5.13h-1.45l-2.95-5.13c-.34-.6-.91-1.87-1.33-2.72l-.17.03c.09,1.39.28,3.85.28,4.68v5.84h-6.15v-18.93Z"/>
      <path class="cls-2" d="M86.25,49.78h6.75l4.28,7.23h.06l4.25-7.23h6.75v18.93h-6.15v-5.84c0-.82.2-3.29.31-4.68l-.2-.03c-.42.82-.99,2.13-1.33,2.72l-2.95,5.13h-1.45l-2.95-5.13c-.34-.6-.91-1.87-1.33-2.72l-.17.03c.09,1.39.28,3.85.28,4.68v5.84h-6.15v-18.93Z"/>
      <path class="cls-2" d="M124.99,63.96v4.76h-14.26v-18.93h14.09v4.76h-7.88v2.66h7.09v3.88h-7.09v2.86h8.05Z"/>
      <path class="cls-2" d="M143.98,68.52l-.08.2h-6.55l-2.1-5.16h-2.21v5.16h-6.21v-18.93h9.38c5.07,0,7.48,2.07,7.48,6.63,0,2.72-.82,4.68-2.38,5.87l2.66,6.24ZM133.04,59.45h2.69c1.36,0,1.79-.82,1.79-1.96v-.94c0-1.3-.6-1.73-1.79-1.73h-2.69v4.62Z"/>
      <path class="cls-2" d="M31.14,78.6c1.4,0,2.59.19,3.23.34v3.4l-.08.08c-.7-.09-1.51-.19-2.36-.19-.96,0-1.83.13-2.31.45-.51.36-.74,1.21-.74,2.12v.61c0,.98.25,1.81.79,2.15.47.28,1.4.38,2.17.38s1.97-.15,2.59-.28l.09.08v3.38c-.72.21-1.95.45-3.8.45-4.48,0-6.2-2.1-6.2-6.6s2.14-6.37,6.6-6.37Z"/>
      <path class="cls-2" d="M41.58,78.56c3.55,0,6.24,1.97,6.24,6.56,0,4.22-2.21,6.48-6.24,6.48s-6.22-2.33-6.22-6.48c0-4.59,2.67-6.56,6.22-6.56ZM41.58,87.97c1.46,0,2.1-.85,2.1-2.21v-1.4c0-1.34-.62-2.17-2.1-2.17s-2.1.83-2.1,2.17v1.4c0,1.38.64,2.21,2.1,2.21Z"/>
      <path class="cls-2" d="M49.16,78.77h4.4l2.36,3.7c.26.4,1.08,2.02,1.7,3.27l.13-.04c-.23-1.4-.53-3.48-.53-3.88v-3.06h4.08v12.63h-4.18l-2.53-3.95c-.23-.38-.91-1.66-1.49-2.7l-.13.02c.09.74.28,2.44.28,3.04v3.59h-4.1v-12.63Z"/>
      <path class="cls-2" d="M62.29,78.77h4.25l1.32,4.65c.09.28.64,3.06.85,4.33h.17c.23-1.27.77-4.04.85-4.33l1.34-4.65h4.23l.11.13-4.03,12.49h-5.2l-4.01-12.49.09-.13Z"/>
      <path class="cls-2" d="M85.8,88.22v3.18h-9.51v-12.63h9.39v3.18h-5.25v1.78h4.72v2.59h-4.72v1.91h5.37Z"/>
      <path class="cls-2" d="M87.04,78.77h4.4l2.36,3.7c.26.4,1.08,2.02,1.7,3.27l.13-.04c-.23-1.4-.53-3.48-.53-3.88v-3.06h4.08v12.63h-4.18l-2.53-3.95c-.23-.38-.91-1.66-1.49-2.7l-.13.02c.09.74.28,2.44.28,3.04v3.59h-4.1v-12.63Z"/>
      <path class="cls-2" d="M110.97,82.47h-3.31v8.92h-4.2v-8.92h-3.31v-3.7h10.81v3.7Z"/>
      <path class="cls-2" d="M116.13,78.77v12.63h-4.1v-12.63h4.1Z"/>
      <path class="cls-2" d="M123.78,78.56c3.55,0,6.24,1.97,6.24,6.56,0,4.22-2.21,6.48-6.24,6.48s-6.22-2.33-6.22-6.48c0-4.59,2.67-6.56,6.22-6.56ZM123.78,87.97c1.46,0,2.1-.85,2.1-2.21v-1.4c0-1.34-.62-2.17-2.1-2.17s-2.1.83-2.1,2.17v1.4c0,1.38.64,2.21,2.1,2.21Z"/>
      <path class="cls-2" d="M131.35,78.77h4.4l2.36,3.7c.26.4,1.08,2.02,1.7,3.27l.13-.04c-.23-1.4-.53-3.48-.53-3.88v-3.06h4.08v12.63h-4.18l-2.53-3.95c-.23-.38-.91-1.66-1.49-2.7l-.13.02c.09.74.28,2.44.28,3.04v3.59h-4.1v-12.63Z"/>
    </g>
    <g>
      <path class="cls-1" d="M40.13,123.36v6.2h-14.47v-20.83h6.92v14.62h7.55Z"/>
      <path class="cls-1" d="M48.73,108.74v20.83h-6.77v-20.83h6.77Z"/>
      <path class="cls-1" d="M51.57,108.74h7.42l4.71,7.95h.06l4.68-7.95h7.42v20.83h-6.77v-6.42c0-.9.22-3.62.34-5.14l-.22-.03c-.47.9-1.09,2.34-1.47,2.99l-3.24,5.64h-1.59l-3.24-5.64c-.37-.65-1-2.06-1.47-2.99l-.19.03c.09,1.53.31,4.24.31,5.14v6.42h-6.77v-20.83Z"/>
      <path class="cls-1" d="M85.46,108.74v20.83h-6.77v-20.83h6.77Z"/>
      <path class="cls-1" d="M105.04,114.85h-5.46v14.72h-6.92v-14.72h-5.46v-6.11h17.83v6.11Z"/>
      <path class="cls-1" d="M122.28,124.33v5.24h-15.68v-20.83h15.5v5.24h-8.67v2.93h7.79v4.27h-7.79v3.15h8.85Z"/>
      <path class="cls-1" d="M124.34,108.74h8.45c7.95,0,10.54,3.43,10.54,10.29s-2.15,10.54-10.41,10.54h-8.57v-20.83ZM133.13,123.89c.87,0,1.87,0,2.59-.69.56-.53.84-1.53.84-2.93v-2.34c0-1.28-.16-2.25-.72-2.81-.53-.56-1.34-.72-2.59-.72h-2.15v9.48h2.03Z"/>
      <path class="cls-1" d="M40.38,150.12v5.24h-15.68v-20.83h15.5v5.24h-8.67v2.93h7.79v4.27h-7.79v3.15h8.85Z"/>
      <path class="cls-1" d="M42.44,134.53h8.45c7.95,0,10.54,3.43,10.54,10.29s-2.15,10.54-10.41,10.54h-8.57v-20.83ZM51.23,149.68c.87,0,1.87,0,2.59-.69.56-.53.84-1.53.84-2.93v-2.34c0-1.28-.16-2.25-.72-2.81-.53-.56-1.34-.72-2.59-.72h-2.15v9.48h2.03Z"/>
      <path class="cls-1" d="M70.56,134.53v20.83h-6.77v-20.83h6.77Z"/>
      <path class="cls-1" d="M90.14,140.64h-5.46v14.72h-6.92v-14.72h-5.46v-6.11h17.83v6.11Z"/>
      <path class="cls-1" d="M98.65,134.53v20.83h-6.77v-20.83h6.77Z"/>
      <path class="cls-1" d="M111.27,134.19c5.86,0,10.29,3.24,10.29,10.82,0,6.95-3.65,10.69-10.29,10.69s-10.26-3.84-10.26-10.69c0-7.58,4.4-10.82,10.26-10.82ZM111.27,149.71c2.4,0,3.46-1.4,3.46-3.65v-2.31c0-2.21-1.03-3.59-3.46-3.59s-3.46,1.37-3.46,3.59v2.31c0,2.28,1.06,3.65,3.46,3.65Z"/>
      <path class="cls-1" d="M123.78,134.53h7.26l3.9,6.11c.44.65,1.78,3.34,2.81,5.39l.22-.06c-.37-2.31-.87-5.74-.87-6.39v-5.05h6.73v20.83h-6.89l-4.18-6.52c-.37-.62-1.5-2.74-2.46-4.46l-.22.03c.16,1.22.47,4.02.47,5.02v5.92h-6.77v-20.83Z"/>
    </g>
  </g>
</svg>