<?xml version="1.0" encoding="UTF-8"?>
<svg id="Camada_2" data-name="Camada 2" xmlns="http://www.w3.org/2000/svg" viewBox="0 0 168.52 168.52">
  <defs>
    <style>
      .cls-1, .cls-2, .cls-3, .cls-4, .cls-5 {
        stroke-width: 0px;
      }

      .cls-1, .cls-3, .cls-5 {
        fill: #ff3d47;
      }

      .cls-2 {
        fill: #000;
      }

      .cls-3 {
        opacity: .9;
      }

      .cls-4 {
        fill: #fff;
      }

      .cls-5 {
        opacity: .7;
      }
    </style>
  </defs>
  <g>
    <path class="cls-4" d="M16.21,1.81h136.1c7.95,0,14.4,6.45,14.4,14.4v136.1c0,7.95-6.45,14.4-14.4,14.4H16.21c-7.95,0-14.4-6.45-14.4-14.4V16.21C1.81,8.26,8.26,1.81,16.21,1.81Z"/>
    <path class="cls-2" d="M152.31,3.61c6.95,0,12.6,5.65,12.6,12.6v136.11c0,6.95-5.65,12.6-12.6,12.6H16.21c-6.95,0-12.6-5.65-12.6-12.6V16.21c0-6.95,5.65-12.6,12.6-12.6h136.11M152.31,0H16.21C7.29,0,0,7.29,0,16.21v136.11C0,161.23,7.29,168.52,16.21,168.52h136.11c8.91,0,16.21-7.29,16.21-16.21V16.21c0-8.91-7.29-16.21-16.21-16.21h0Z"/>
  </g>
  <g>
    <path class="cls-5" d="M29.79,13.01c3.62,0,6.62.36,8.01.58v7.07l-.18.18c-1.7-.13-4.7-.31-7.25-.31-4.79,0-5.64.58-5.64,1.92v.31c0,1.03.31,1.43,3.31,1.88l3.53.58c5.23.76,7.96,3.31,7.96,8.23,0,6.71-3.09,10.24-15.16,10.24-4.56,0-7.92-.4-9.17-.63v-7.29l.18-.13c2.55.31,5.59.54,8.68.54,4.7,0,5.55-.58,5.55-2.15v-.36c0-1.16-.27-1.61-4.16-2.19l-3.67-.58c-4.34-.63-6.98-3-6.98-8.1,0-6.17,3.44-9.8,14.98-9.8Z"/>
    <path class="cls-5" d="M42.27,13.42h9.93v17.98c0,2.73,1.25,3.8,3.44,3.8h.85c2.19,0,3.44-1.07,3.44-3.8V13.42h9.89v18.7c0,7.87-5.23,11.68-13.73,11.68s-13.82-3.8-13.82-11.68V13.42Z"/>
    <path class="cls-5" d="M73.4,13.42h13.82c8.14,0,12.21,3.13,12.21,11.09s-3.8,11.76-11.18,11.76h-5.05v7.02h-9.8V13.42ZM87.18,29.3c2.15,0,2.91-1.21,2.91-3v-2.06c0-1.92-.76-2.82-2.95-2.82h-3.94v7.87h3.98Z"/>
    <path class="cls-5" d="M124.48,35.78v7.52h-22.5V13.42h22.23v7.52h-12.44v4.2h11.18v6.13h-11.18v4.52h12.7Z"/>
    <path class="cls-5" d="M154.45,42.98l-.13.31h-10.33l-3.31-8.14h-3.49v8.14h-9.8V13.42h14.81c8.01,0,11.81,3.27,11.81,10.47,0,4.29-1.3,7.38-3.76,9.26l4.2,9.84ZM137.18,28.67h4.25c2.15,0,2.82-1.3,2.82-3.09v-1.48c0-2.06-.94-2.73-2.82-2.73h-4.25v7.29Z"/>
  </g>
  <g>
    <path class="cls-3" d="M31.31,58.23c4.2,0,7.68.42,9.28.67v8.2l-.21.21c-1.97-.16-5.45-.36-8.4-.36-5.55,0-6.54.67-6.54,2.23v.36c0,1.19.36,1.66,3.84,2.18l4.1.67c6.07.88,9.23,3.84,9.23,9.54,0,7.78-3.58,11.88-17.58,11.88-5.29,0-9.18-.47-10.63-.73v-8.45l.21-.16c2.96.36,6.48.62,10.06.62,5.45,0,6.43-.67,6.43-2.49v-.41c0-1.35-.31-1.87-4.82-2.54l-4.25-.67c-5.03-.73-8.09-3.48-8.09-9.39,0-7.16,3.99-11.36,17.38-11.36Z"/>
    <path class="cls-3" d="M57.61,58.69v34.65h-11.26v-34.65h11.26Z"/>
    <path class="cls-3" d="M61.13,83.38l10.32-10.74c.36-.41,3.79-3.11,4.93-3.94v-.26h-14.78v-9.75h28.99v9.85l-10.48,11c-.57.62-3.42,2.85-4.67,3.79v.26h15.15v9.75h-29.46v-9.96Z"/>
    <path class="cls-3" d="M119.9,84.63v8.71h-26.09v-34.65h25.78v8.71h-14.42v4.88h12.97v7.11h-12.97v5.24h14.73Z"/>
    <path class="cls-3" d="M123.32,58.69h14.06c13.23,0,17.53,5.71,17.53,17.12s-3.58,17.53-17.32,17.53h-14.26v-34.65ZM137.95,83.9c1.45,0,3.11,0,4.31-1.14.93-.88,1.4-2.54,1.4-4.88v-3.89c0-2.13-.26-3.73-1.19-4.67-.88-.93-2.23-1.19-4.31-1.19h-3.58v15.77h3.37Z"/>
  </g>
  <g>
    <path class="cls-1" d="M11.57,109.9h20.59c12.13,0,18.19,4.66,18.19,16.53s-5.66,17.53-16.66,17.53h-7.53v10.46h-14.59v-44.52ZM32.1,133.56c3.2,0,4.33-1.8,4.33-4.46v-3.07c0-2.87-1.13-4.2-4.4-4.2h-5.86v11.73h5.93Z"/>
    <path class="cls-1" d="M75.15,109.17c12.53,0,21.99,6.93,21.99,23.12,0,14.86-7.8,22.86-21.99,22.86s-21.93-8.2-21.93-22.86c0-16.19,9.4-23.12,21.93-23.12ZM75.15,142.35c5.13,0,7.4-3,7.4-7.8v-4.93c0-4.73-2.2-7.66-7.4-7.66s-7.4,2.93-7.4,7.66v4.93c0,4.86,2.27,7.8,7.4,7.8Z"/>
    <path class="cls-1" d="M101.81,109.9h20.59c12.13,0,18.19,4.66,18.19,16.53s-5.66,17.53-16.66,17.53h-7.53v10.46h-14.59v-44.52ZM122.33,133.56c3.2,0,4.33-1.8,4.33-4.46v-3.07c0-2.87-1.13-4.2-4.4-4.2h-5.86v11.73h5.93Z"/>
    <path class="cls-1" d="M150.86,142.16c5.93,0,6.86,1.07,6.86,6.26s-.93,6.26-6.86,6.26-6.86-1.07-6.86-6.26.93-6.26,6.86-6.26ZM144.39,116.37v-4.6c0-1.87.53-2.53,6.46-2.53s6.46.67,6.46,2.53v4.6l-2.87,20.13h-7.2l-2.87-20.13Z"/>
  </g>
</svg>