<?xml version="1.0" encoding="UTF-8"?>
<svg id="Camada_2" data-name="Camada 2" xmlns="http://www.w3.org/2000/svg" viewBox="0 0 60.25 49.4">
  <defs>
    <style>
      .cls-1 {
        fill: none;
        stroke: #000;
        stroke-linejoin: round;
        stroke-width: 4px;
      }

      .cls-2 {
        fill: #000;
        stroke-width: 0px;
      }
    </style>
  </defs>
  <g id="Layer_1" data-name="Layer 1">
    <g>
      <path class="cls-1" d="M35.3,11.3h-14.49c-2.91,0-5.54,1.72-6.71,4.38l-6.34,14.43c-.95,2.17-1.44,4.51-1.44,6.88v4.32c0,3.36,2.72,6.08,6.08,6.08h31.32c3.36,0,6.08-2.72,6.08-6.08v-4.32c0-2.37-.49-4.71-1.44-6.88l-6.34-14.43c-1.17-2.66-3.8-4.38-6.71-4.38Z"/>
      <path class="cls-1" d="M44.17,20.6h6.1c2.35,0,4.19-2.11,3.78-4.43-1.56-8.8-8.48-14.16-26-14.16S3.62,7.36,2.06,16.16c-.41,2.32,1.43,4.43,3.78,4.43h6.1"/>
      <circle class="cls-1" cx="28.05" cy="25.35" r="7.21"/>
    </g>
    <path class="cls-2" d="M52.98,18.18c1.38.87,3.14,2.08,3.3,3.86.13,1.45-1.47,2.59-2.8,1.89v2.59c1.1-.48,3.06-.05,3.58,1.14.59,1.35-1.16,2.53-2.3,2.59v3c1.58-.11,3.33,1.26,2.09,2.84s-3.71,1.33-5.26.35c-1.64-1.03-3.15,1.57-1.51,2.59,3.05,1.92,7.79,1.61,9.63-1.86s-1.26-7.17-4.95-6.92c-1.91.13-1.94,3.11,0,3,3.16-.18,6.38-3.16,5.15-6.52-1.14-3.14-5.13-4.03-7.94-2.8-1.04.45-.92,2.1,0,2.59,2.75,1.45,6.51.01,7.19-3.15.75-3.49-2-6.1-4.66-7.79-1.64-1.04-3.14,1.56-1.51,2.59h0Z"/>
  </g>
</svg>