<?xml version="1.0" encoding="UTF-8"?>
<svg id="Grupo_5494" data-name="Grupo 5494" xmlns="http://www.w3.org/2000/svg" xmlns:xlink="http://www.w3.org/1999/xlink" viewBox="0 0 48.04 47.21">
  <defs>
    <style>
      .cls-1 {
        clip-path: url(#clippath);
      }

      .cls-2 {
        fill: none;
      }

      .cls-2, .cls-3, .cls-4 {
        stroke-width: 0px;
      }

      .cls-3 {
        fill: #000;
      }

      .cls-4 {
        fill: #fff;
      }
    </style>
    <clipPath id="clippath">
      <rect class="cls-2" width="48.04" height="47.21"/>
    </clipPath>
  </defs>
  <g id="Grupo_5483" data-name="Grupo 5483">
    <g class="cls-1">
      <g id="Grupo_5477" data-name="Grupo 5477">
        <path id="Caminho_2967" data-name="Caminho 2967" class="cls-3" d="M48.04,23.61c0,20.52-10.76,23.61-24.02,23.61S0,44.12,0,23.61,10.76,0,24.02,0s24.02,3.09,24.02,23.61"/>
      </g>
    </g>
  </g>
  <path class="cls-4" d="M24.67,8.89c1.61-.02,3.21-.01,4.81-.02.05,2,.86,3.8,2.15,5.13h0c1.39,1.25,3.19,2.06,5.18,2.2h.03v4.95c-1.88-.05-3.65-.48-5.24-1.23l.08.03c-.77-.37-1.42-.75-2.04-1.18l.05.03c-.01,3.59.01,7.18-.02,10.75-.1,1.82-.71,3.48-1.68,4.87l.02-.03c-1.62,2.33-4.26,3.85-7.25,3.94h-.01c-.12,0-.26,0-.41,0-1.7,0-3.29-.47-4.65-1.3l.04.02c-2.47-1.48-4.17-4.02-4.48-6.98v-.04c-.03-.61-.04-1.23-.02-1.83.48-4.7,4.42-8.34,9.21-8.34.54,0,1.07.05,1.58.13h-.06c.02,1.81-.05,3.63-.05,5.45-.42-.15-.9-.24-1.4-.24-1.84,0-3.4,1.17-3.98,2.81v.03c-.14.42-.22.9-.22,1.4,0,.2.01.4.04.6v-.02c.32,2.01,2.05,3.53,4.13,3.53.06,0,.12,0,.18,0h0c1.44-.04,2.69-.82,3.39-1.96v-.02c.27-.37.45-.81.51-1.29h0c.12-2.21.07-4.4.09-6.6.01-4.95-.01-9.89.02-14.83h0Z"/>
</svg>