<svg id="Grupo_5494" data-name="Grupo 5494" xmlns="http://www.w3.org/2000/svg" xmlns:xlink="http://www.w3.org/1999/xlink" width="48.043" height="47.213" viewBox="0 0 48.043 47.213">
  <defs>
    <clipPath id="clip-path">
      <rect id="Ret창ngulo_130" data-name="Ret창ngulo 130" width="48.043" height="47.213"/>
    </clipPath>
    <clipPath id="clip-path-2">
      <rect id="Ret창ngulo_133" data-name="Ret창ngulo 133" width="27.257" height="27.453" fill="#fff"/>
    </clipPath>
  </defs>
  <g id="Grupo_5483" data-name="Grupo 5483" transform="translate(0 0)">
    <g id="Grupo_5477" data-name="Grupo 5477" transform="translate(0 0)" clip-path="url(#clip-path)">
      <path id="Caminho_2967" data-name="Caminho 2967" d="M48.043,23.607c0,20.518-10.755,23.607-24.022,23.607S0,44.125,0,23.607,10.755,0,24.022,0,48.043,3.089,48.043,23.607" transform="translate(0 0)"/>
    </g>
  </g>
  <g id="Grupo_5488" data-name="Grupo 5488" transform="translate(11.194 8.959)">
    <g id="Grupo_5487" data-name="Grupo 5487" transform="translate(0 0)" clip-path="url(#clip-path-2)">
      <path id="Caminho_2972" data-name="Caminho 2972" d="M22.41,17.543c-.08-.145-.3-.239-.638-.422s-1.977-1.07-2.285-1.195-.532-.191-.772.142-.922,1.074-1.128,1.294-.407.24-.742.056a9.273,9.273,0,0,1-2.675-1.792A10.264,10.264,0,0,1,12.364,13.2c-.186-.348,0-.526.175-.689.159-.147.356-.385.533-.577a2.32,2.32,0,0,0,.362-.555.626.626,0,0,0-.007-.6c-.078-.174-.7-1.874-.955-2.567s-.546-.589-.744-.6-.425-.044-.652-.053a1.251,1.251,0,0,0-.924.392,3.815,3.815,0,0,0-1.3,2.8,6.625,6.625,0,0,0,1.258,3.573c.162.234,2.214,3.865,5.624,5.36s3.429,1.038,4.054,1a3.445,3.445,0,0,0,2.359-1.533,2.841,2.841,0,0,0,.259-1.611" transform="translate(-1.324 -1.131)" fill="#fff" fill-rule="evenodd"/>
      <path id="Caminho_2973" data-name="Caminho 2973" d="M1.112,27.453A1.112,1.112,0,0,1,.058,25.986l2.058-6.118A13.4,13.4,0,1,1,7.81,25.363L1.45,27.4a1.107,1.107,0,0,1-.338.053M13.856,2.223A11.179,11.179,0,0,0,4.281,19.172a1.113,1.113,0,0,1,.1.93l-1.517,4.51L7.577,23.1a1.116,1.116,0,0,1,.877.087,11.179,11.179,0,1,0,5.4-20.967" transform="translate(0 0)" fill="#fff"/>
    </g>
  </g>
</svg>
