<?xml version="1.0" encoding="UTF-8"?>
<svg id="Camada_2" data-name="Camada 2" xmlns="http://www.w3.org/2000/svg" xmlns:xlink="http://www.w3.org/1999/xlink" viewBox="0 0 168.52 168.52">
  <defs>
    <style>
      .cls-1 {
        clip-path: url(#clippath);
      }

      .cls-2 {
        fill: none;
      }

      .cls-2, .cls-3, .cls-4, .cls-5, .cls-6 {
        stroke-width: 0px;
      }

      .cls-3 {
        fill: #ffeb57;
      }

      .cls-4 {
        fill: #9a7aff;
      }

      .cls-5 {
        fill-rule: evenodd;
      }

      .cls-5, .cls-6 {
        fill: #fff;
      }
    </style>
    <clipPath id="clippath">
      <path class="cls-2" d="M38.92,0h111.95c2.43,0,4.41,1.98,4.41,4.41v159.7c0,2.43-1.98,4.41-4.41,4.41H17.65c-2.43,0-4.41-1.98-4.41-4.41V25.68C13.24,11.51,24.75,0,38.92,0Z"/>
    </clipPath>
  </defs>
  <g>
    <path class="cls-4" d="M38.92,0h111.95c2.43,0,4.41,1.98,4.41,4.41v159.7c0,2.43-1.98,4.41-4.41,4.41H17.65c-2.43,0-4.41-1.98-4.41-4.41V25.68C13.24,11.51,24.75,0,38.92,0Z"/>
    <g class="cls-1">
      <rect class="cls-3" x="8.94" y="45.02" width="156.05" height="59.49"/>
    </g>
  </g>
  <g>
    <g>
      <path class="cls-6" d="M38.37,127.75v6.45h-15.04v-21.66h7.2v15.21h7.85Z"/>
      <path class="cls-6" d="M47.32,112.54v21.66h-7.04v-21.66h7.04Z"/>
      <path class="cls-6" d="M50.27,112.54h7.72l4.9,8.27h.06l4.86-8.27h7.72v21.66h-7.04v-6.68c0-.94.23-3.76.36-5.35l-.23-.03c-.49.94-1.13,2.43-1.52,3.11l-3.37,5.87h-1.65l-3.37-5.87c-.39-.68-1.04-2.14-1.52-3.11l-.19.03c.1,1.59.32,4.41.32,5.35v6.68h-7.04v-21.66Z"/>
      <path class="cls-6" d="M85.52,112.54v21.66h-7.04v-21.66h7.04Z"/>
      <path class="cls-6" d="M105.88,118.9h-5.67v15.3h-7.2v-15.3h-5.67v-6.36h18.55v6.36Z"/>
      <path class="cls-6" d="M123.81,128.76v5.45h-16.31v-21.66h16.11v5.45h-9.01v3.05h8.11v4.44h-8.11v3.27h9.21Z"/>
      <path class="cls-6" d="M125.95,112.54h8.79c8.27,0,10.96,3.57,10.96,10.7s-2.24,10.96-10.83,10.96h-8.92v-21.66ZM135.09,128.3c.91,0,1.95,0,2.69-.71.58-.55.88-1.59.88-3.05v-2.43c0-1.33-.16-2.33-.75-2.92-.55-.58-1.39-.75-2.69-.75h-2.24v9.86h2.11Z"/>
      <path class="cls-6" d="M38.63,154.83v5.45h-16.31v-21.66h16.11v5.45h-9.01v3.05h8.11v4.44h-8.11v3.27h9.21Z"/>
      <path class="cls-6" d="M40.77,138.62h8.79c8.27,0,10.96,3.57,10.96,10.7s-2.24,10.96-10.83,10.96h-8.92v-21.66ZM49.91,154.37c.91,0,1.95,0,2.69-.71.58-.55.88-1.59.88-3.05v-2.43c0-1.33-.16-2.33-.75-2.92-.55-.58-1.39-.75-2.69-.75h-2.24v9.86h2.11Z"/>
      <path class="cls-6" d="M70.02,138.62v21.66h-7.04v-21.66h7.04Z"/>
      <path class="cls-6" d="M90.38,144.97h-5.67v15.3h-7.2v-15.3h-5.67v-6.36h18.55v6.36Z"/>
      <path class="cls-6" d="M99.23,138.62v21.66h-7.04v-21.66h7.04Z"/>
      <path class="cls-6" d="M112.36,138.26c6.1,0,10.7,3.37,10.7,11.25,0,7.23-3.79,11.12-10.7,11.12s-10.67-3.99-10.67-11.12c0-7.88,4.57-11.25,10.67-11.25ZM112.36,154.41c2.5,0,3.6-1.46,3.6-3.79v-2.4c0-2.3-1.07-3.73-3.6-3.73s-3.6,1.43-3.6,3.73v2.4c0,2.37,1.1,3.79,3.6,3.79Z"/>
      <path class="cls-6" d="M125.37,138.62h7.55l4.05,6.36c.45.68,1.85,3.47,2.92,5.61l.23-.06c-.39-2.4-.91-5.97-.91-6.65v-5.25h7v21.66h-7.17l-4.34-6.78c-.39-.65-1.56-2.85-2.56-4.64l-.23.03c.16,1.26.49,4.18.49,5.22v6.16h-7.04v-21.66Z"/>
    </g>
    <g>
      <g>
        <path class="cls-5" d="M38.6,24.1c-.4-.38-1.67-.23-4.1-.1.48-2.03.82-3.81,1.72-5.19,4.17.23,9.3.82,15.18.8,11.56-.03,11.67-4.34,11.67-4.34-4.92,1.42-11.68,1-16.79.53-6.42-.59-12.84-2.07-18.14-.65-6.26,1.67-6.86,6.32-6.64,8.32,2.51-3.3,5.91-4.47,10.26-4.72.41-.02.85-.03,1.29-.03-.79.83-1.4,2.13-2.04,4.17-.14.45-.27.87-.41,1.29-5.35.46-6.39,2.91-6.09,3.55.33.68,2.23-.21,4.6-.48.15-.02.3-.03.44-.05-.93,2.39-1.95,4.1-3.6,5.1-2.51,1.52-5.14.82-5.67.4.2,2.79,4.41,4.32,7.98,2.36,2.85-1.56,4.49-5.27,5.4-8.06.79,0,1.57-.03,2.35-.07,2.15-.14,3.1-2.34,2.58-2.84M81.81,20.97c-.45-.14-.92.1-1.06.55,0,0,0,0,0,0-.07.21-.05.43.04.62-.81.74-1.56,1.29-1.95,1.16-.51-.16-.12-1.55.37-2.82.45.07.89-.2,1.02-.64.16-.49-.11-1.01-.6-1.18-.49-.16-1,.11-1.16.6,0,0,0,0,0,0-.11.35,0,.71.23.95-.66,1.22-1.35,2.27-1.96,2.09h-.02c-.61-.2-.57-1.47-.41-2.86.34-.05.64-.29.75-.64.16-.49-.11-1.01-.6-1.18-.48-.16-1,.11-1.16.6,0,0,0,0,0,0-.14.44.06.91.45,1.11-.32,1.32-.8,2.68-1.31,2.51-.39-.13-.69-1.01-.92-2.08.41-.23.56-.76.33-1.17-.11-.19-.28-.33-.48-.4-.45-.14-.92.1-1.06.55,0,0,0,0,0,0-.14.45.11.94.56,1.08.03,0,.06.02.09.02l.15,3.6,5.9,1.91,2.19-2.85c.42.2.93.02,1.13-.4.02-.04.03-.08.04-.11.14-.45-.1-.93-.55-1.08"/>
        <path class="cls-5" d="M75.04,31.01c-1.09,1.94-2.66,2.93-3.49,2.21-.83-.72-.62-2.88.47-4.82,1.09-1.94,2.66-2.93,3.49-2.21.83.72.62,2.88-.47,4.82M73.55,24.34s-1.4.53-2.38,1.45c-.33.31-.65.64-.94,1h0c-.27.35-.48.71-.71,1.09-.31.53-.59,1.1-.81,1.69h0s-.56,1.19-.98,1.78c-.4.58-1.16,1.13-1.47,1.34-.36.17-.72.3-1.1.42-2.5.73-2.96-1.07-2.4-1.92.2-.31,1.59-1.37,2.53-2.16,1.83-1.52,3.09-2.49,3.95-3.36.91-.93.32-1.44-.39-1.56-1.77-.31-2.58.17-3.09.61-.62.53-4.32,5-4.32,5,0,0,6.02-11.66,7.01-13.66.82-1.65-3.1-1.88-4.18.5-.63,1.38-4.95,11.39-5.47,12.62-.96,2.26-1.02,2.62-1.5,3.01,0,0,0,.01-.01.02l-.04.02s0,0,0,0c-.46.38-1.11.73-1.55.72-.26,0-.41-.16-.46-.48-.05-.32,0-.73.11-1.22.07-.3.17-.62.29-.97.12-.35.25-.71.4-1.07.14-.36.29-.71.44-1.06l.42-.95c.12-.29.23-.54.32-.74.09-.21.14-.36.16-.44.14-.59.12-1.12-.03-1.46-.15-.34-.43-.5-.82-.5s-.77.11-1.12.31c-.38.22-.73.46-1.09.89-.31.37-.6.75-.9,1.13-.2.26-.41.53-.63.82-.22.28-.43.55-.63.81-.28.37-.57.74-.85,1.1h-.24c.01-.06.05-.17.12-.33.06-.16.14-.36.23-.58.2-.49.39-.98.59-1.48.1-.24.18-.47.25-.67.07-.2.12-.37.15-.49.11-.44.11-.79,0-1.05-.1-.26-.37-.4-.79-.4s-.8.12-1.11.37c-.31.25-.56.56-.73.92-.27.56-.52,1.13-.76,1.7-.58,1.37-1.1,2.77-1.58,4.18-.1.3-.2.6-.29.9-.56.29-1.15.53-1.75.71-.23.07-.52.12-.69-.06-.12-.13-.12-.33-.11-.51.09-.95.49-1.83.88-2.7.65-1.46,1.25-2.94,1.81-4.44.07-.19.14-.39.08-.58-.1-.3-.45-.41-.76-.45-.66-.09-1.43-.02-1.86.5-.14.17-.23.38-.32.58l-2.2,5.02c-.46,1.05-1.03,2.21-2.11,2.59-.19.07-.4.1-.58.02-.23-.1-.35-.38-.35-.63,0-.26.1-.5.19-.74.91-2.23,1.58-3.78,2.48-6.02.04-.1.27-.62.27-.87,0-.16-.09-.3-.23-.37-.58-.27-1.28-.11-1.8.26-.82.58-1.27,1.51-1.68,2.4-.45.99-.91,1.97-1.32,2.98-.47,1.15-.97,2.27-1.23,3.49-.13.62-.09,1.43.35,1.87.29.29.73.38,1.14.39,1.66.05,3.23-.83,4.44-1.97.04.61.13,1.3.63,1.64.32.21.73.22,1.12.18.77-.08,1.51-.32,2.23-.61.3-.12.6-.25.89-.39,0,.13.02.25.04.37.05.24.16.42.32.56.16.14.41.21.73.21.26,0,.51-.06.73-.18.23-.12.46-.34.7-.67l4.64-6.24h.19c-.23.59-.46,1.19-.68,1.79-.18.51-.34,1.03-.47,1.55-.3,1.22-.38,2.15-.24,2.79s.43.95.87.95.87-.06,1.29-.19c.43-.13.85-.29,1.26-.48.29-.14.57-.29.85-.45,0,.11-.03.31-.04.4-.01.34.04.42.2.56.16.15.32.16.66.16.25,0,.35-.02.57-.19.21-.15.97-1.3,1.56-2.11.1-.13.2-.27.32-.42-.22,1.01.25,2.48,1.64,2.71,1.35.22,3.55-.09,6.39-2.3.05.31.13.6.23.87.21.52.53.94.97,1.27.44.32,1.03.49,1.76.49.51,0,1.01-.09,1.5-.27.5-.18.98-.42,1.42-.72.46-.31.89-.67,1.27-1.07.76-.79,1.39-1.71,1.86-2.71.41-.93.6-1.62.81-2.69.09-.57.14-1.07.14-1.53,0,0-.05-1.14-.21-1.24-.15-.1-4.45-1.41-4.45-1.41"/>
      </g>
      <g>
        <path class="cls-6" d="M95.78,21.83c0-1.6-1.01-2.47-2.5-2.47-1.91,0-2.98,1.94-3.35,4.08l-4.3-.96c.11-3.46,2.64-7.06,7.48-7.06,4.47,0,7.23,2.45,7.23,5.88,0,4.19-5.34,6.83-10.49,10.4h10.37v3.85h-14.25v-3.85c6.02-4.58,9.81-6.89,9.81-9.87Z"/>
        <path class="cls-6" d="M101.29,25.85c0-6.16,3.4-10.43,7.82-10.43s7.79,4.27,7.79,10.43-3.18,10.12-7.79,10.12-7.82-3.85-7.82-10.12ZM109.1,32.15c1.94,0,3.21-2.39,3.21-6.49s-1.27-6.41-3.21-6.41-3.21,2.36-3.21,6.41,1.27,6.49,3.21,6.49Z"/>
        <path class="cls-6" d="M127.94,21.83c0-1.6-1.01-2.47-2.5-2.47-1.91,0-2.98,1.94-3.35,4.08l-4.3-.96c.11-3.46,2.64-7.06,7.48-7.06,4.47,0,7.23,2.45,7.23,5.88,0,4.19-5.34,6.83-10.49,10.4h10.37v3.85h-14.25v-3.85c6.02-4.58,9.81-6.89,9.81-9.87Z"/>
        <path class="cls-6" d="M143.68,21.83c0-1.6-1.01-2.47-2.5-2.47-1.91,0-2.98,1.94-3.35,4.08l-4.3-.96c.11-3.46,2.64-7.06,7.48-7.06,4.47,0,7.23,2.45,7.23,5.88,0,4.19-5.34,6.83-10.49,10.4h10.37v3.85h-14.25v-3.85c6.02-4.58,9.81-6.89,9.81-9.87Z"/>
      </g>
    </g>
    <g>
      <path class="cls-4" d="M20.8,50.82h6.15l3.97,19.88,4.61-19.88h4.08l4.58,19.81,3.97-19.81h6.15l-5.97,25.03h-7.01l-3.83-16.13-3.83,16.13h-6.94l-5.94-25.03Z"/>
      <path class="cls-4" d="M61.78,50.82v25.03h-5.72v-25.03h5.72Z"/>
      <path class="cls-4" d="M87.31,75.84h-5.94l-10.3-17.59v17.59h-5.72v-25.03h5.97l10.26,17.56v-17.56h5.72v25.03Z"/>
      <path class="cls-4" d="M106.76,55.93h-6.33v19.91h-5.61v-19.91h-6.33v-5.11h18.27v5.11Z"/>
      <path class="cls-4" d="M125.31,50.82v5.22h-11.66v5.68h8.8v2.61h-8.8v6.29h11.66v5.22h-17.38v-25.03h17.38Z"/>
      <path class="cls-4" d="M127.82,50.82h9.76c6.08,0,9.62,3.29,9.62,7.97,0,4.33-2.79,7.4-8.19,7.4h-.18c2.15,3.32,4.15,4.68,7.51,4.76.54,0,1-.04,1.39-.07l-.46,5.15c-.79.25-1.64.32-2.36.32-5.68,0-9.44-6.29-11.37-10.51v10.01h-5.72v-25.03ZM137.33,63.55c2.57,0,4.11-1.75,4.11-3.97s-1.75-4.08-4.97-4.08h-2.93v6.97c1,.54,2.32,1.07,3.79,1.07Z"/>
      <path class="cls-4" d="M21.05,89.65c0-4.73,2.55-8.03,6.17-8.03s5.68,2.76,5.74,5.42l-3.3.73c-.28-1.64-1.1-3.13-2.37-3.13-1.6,0-2.7,1.71-2.7,4.55,0,3.22,1.14,4.86,3.11,5.03,1.64.11,4.1-.91,5.09-1.34l-.28,3.3c-1.71.73-3.04,1.21-5.44,1.21-3.54,0-6.02-3.24-6.02-7.75Z"/>
      <path class="cls-4" d="M33.64,89.63c0-5.14,2.59-8.01,6.65-8.01s6.63,2.87,6.63,8.01-2.59,7.77-6.63,7.77-6.65-2.78-6.65-7.77ZM40.28,94.38c1.94,0,3.09-1.71,3.09-4.88s-1.14-4.88-3.09-4.88-3.11,1.68-3.11,4.88,1.14,4.88,3.11,4.88Z"/>
      <path class="cls-4" d="M61.65,97.08h-3.58l-6.22-10.62v10.62h-3.45v-15.11h3.6l6.19,10.6v-10.6h3.45v15.11Z"/>
      <path class="cls-4" d="M62.54,81.97h3.65l3.07,12.46,3.11-12.46h3.43l-4.23,15.11h-4.79l-4.23-15.11Z"/>
      <path class="cls-4" d="M87.17,81.97v3.15h-7.04v3.43h5.31v1.58h-5.31v3.8h7.04v3.15h-10.49v-15.11h10.49Z"/>
      <path class="cls-4" d="M101.93,97.08h-3.58l-6.22-10.62v10.62h-3.45v-15.11h3.6l6.19,10.6v-10.6h3.45v15.11Z"/>
      <path class="cls-4" d="M113.67,85.05h-3.82v12.02h-3.39v-12.02h-3.82v-3.09h11.03v3.09Z"/>
      <path class="cls-4" d="M118.01,81.97v15.11h-3.45v-15.11h3.45Z"/>
      <path class="cls-4" d="M119.67,89.63c0-5.14,2.59-8.01,6.65-8.01s6.63,2.87,6.63,8.01-2.59,7.77-6.63,7.77-6.65-2.78-6.65-7.77ZM126.32,94.38c1.94,0,3.09-1.71,3.09-4.88s-1.14-4.88-3.09-4.88-3.11,1.68-3.11,4.88,1.14,4.88,3.11,4.88Z"/>
      <path class="cls-4" d="M147.69,97.08h-3.58l-6.22-10.62v10.62h-3.45v-15.11h3.6l6.19,10.6v-10.6h3.45v15.11Z"/>
    </g>
  </g>
</svg>