<?xml version="1.0" encoding="UTF-8"?>
<svg id="Grupo_5493" data-name="Grupo 5493" xmlns="http://www.w3.org/2000/svg" xmlns:xlink="http://www.w3.org/1999/xlink" viewBox="0 0 48.04 47.21">
  <defs>
    <style>
      .cls-1 {
        clip-path: url(#clippath);
      }

      .cls-2 {
        fill: none;
      }

      .cls-2, .cls-3, .cls-4 {
        stroke-width: 0px;
      }

      .cls-3 {
        fill: #000;
      }

      .cls-4 {
        fill: #fff;
      }
    </style>
    <clipPath id="clippath">
      <rect class="cls-2" width="48.04" height="47.21"/>
    </clipPath>
  </defs>
  <g id="Grupo_5481" data-name="Grupo 5481">
    <g class="cls-1">
      <g id="Grupo_5477" data-name="Grupo 5477">
        <path id="Caminho_2967" data-name="Caminho 2967" class="cls-3" d="M48.04,23.61c0,20.52-10.76,23.61-24.02,23.61S0,44.12,0,23.61,10.76,0,24.02,0s24.02,3.09,24.02,23.61"/>
      </g>
    </g>
  </g>
  <g id="_7935ec95c421cee6d86eb22ecd1368a9" data-name="7935ec95c421cee6d86eb22ecd1368a9">
    <path class="cls-4" d="M12.44,10.91h2.31l1.49,4.58h.14l1.42-4.58h2.33l-2.67,6.71v4.76h-2.29v-4.54l-2.73-6.92ZM20.38,15.85c0-.67.28-1.21.83-1.61.55-.4,1.3-.6,2.23-.6.85,0,1.55.21,2.09.63.54.42.81.96.81,1.62v4.49c0,.74-.27,1.33-.8,1.75-.53.42-1.26.63-2.2.63s-1.62-.22-2.16-.66c-.54-.44-.81-1.02-.81-1.76v-4.5ZM22.49,20.51c0,.24.07.42.22.55.15.13.35.19.63.19s.5-.07.66-.2c.16-.13.25-.32.25-.55v-4.73c0-.19-.08-.34-.25-.46-.17-.12-.39-.18-.66-.18-.25,0-.45.06-.61.18-.16.12-.23.27-.23.46v4.73h0ZM33.85,13.78v8.69h-2.06v-.96c-.38.35-.77.62-1.18.81-.41.18-.81.28-1.19.28-.48,0-.83-.13-1.08-.39-.24-.26-.36-.65-.36-1.16v-7.26h2.06v6.66c0,.21.04.36.13.45.09.09.23.14.42.14.15,0,.34-.06.57-.18.23-.12.44-.28.64-.47v-6.59h2.06ZM31.92,29.16c-.1-.11-.26-.17-.48-.17s-.4.06-.5.17c-.1.11-.15.3-.15.56v.54h1.28v-.54c0-.26-.05-.45-.15-.56ZM25.84,33.23c.11.05.23.07.35.07.18,0,.31-.04.39-.13.08-.09.13-.23.13-.43v-3.13c0-.21-.05-.37-.15-.48-.1-.11-.25-.16-.45-.16-.1,0-.21.02-.31.06-.1.04-.2.11-.3.19v3.79c.12.1.23.18.34.22ZM35.38,26.61c0-1.51-1.55-2.73-3.45-2.73-2.72-.09-5.5-.13-8.34-.13-2.84,0-5.62.04-8.34.13-1.91,0-3.45,1.22-3.45,2.73-.11,1.19-.16,2.38-.16,3.58,0,1.19.05,2.38.16,3.58,0,1.5,1.55,2.73,3.45,2.73,2.72.09,5.5.13,8.34.13,2.84,0,5.62-.04,8.34-.13,1.91,0,3.45-1.22,3.45-2.73.11-1.19.16-2.38.16-3.58,0-1.19-.04-2.38-.16-3.58ZM16.81,34.2v.09h-1.63v-7.22h-1.69v-1.32h5.01v1.32h-1.69v7.13h0ZM22.62,28.05v6.23h-1.45v-.69c-.27.25-.55.45-.83.58-.29.13-.57.2-.84.2-.34,0-.59-.09-.76-.28-.17-.19-.26-.46-.26-.84v-5.3h1.45v4.78c0,.15.03.25.09.32.06.07.16.1.3.1.11,0,.24-.04.4-.13.16-.09.31-.2.45-.34v-4.73h1.45v.09ZM28.2,29.54v3.46c0,.44-.11.78-.34,1.02-.23.23-.56.35-.99.35-.28,0-.54-.05-.76-.14-.22-.09-.43-.23-.62-.42v.48h-1.46v-8.54h1.46v2.72c.2-.19.4-.34.62-.43.22-.1.44-.15.67-.15.46,0,.81.13,1.05.4.24.27.36.65.36,1.16v.09h0ZM33.56,29.73v1.59h-2.77v1.09c0,.33.05.55.14.68.1.13.26.19.49.19s.41-.05.51-.16c.1-.11.14-.34.14-.71v-.43h1.49v.56c0,.64-.18,1.12-.55,1.44-.36.32-.91.48-1.63.48-.65,0-1.16-.17-1.53-.51-.37-.34-.56-.81-.56-1.41v-2.89c0-.54.21-.98.61-1.32.41-.34.94-.51,1.59-.51s1.17.16,1.53.47c.36.32.53.77.53,1.36v.09h0Z"/>
  </g>
</svg>